<svg width="108" height="42" viewBox="0 0 108 42" fill="none" xmlns="http://www.w3.org/2000/svg">
<path d="M30.6032 30.6164C26.3701 25.6438 25.5243 18.7837 28.0554 13.0528C27.7429 13.1195 27.418 13.157 27.0867 13.157C24.5577 13.157 22.5078 11.1071 22.5078 8.57806C22.5078 8.1885 22.5578 7.81144 22.6474 7.44896C16.5165 10.178 9.07941 9.02803 4.05053 3.99915L0.0570068 7.99268C6.25874 14.1944 6.5608 24.0543 0.973622 30.6164C0.681971 30.958 0.379905 31.2934 0.0590901 31.6163L4.05261 35.6099C10.5752 29.0873 21.1537 29.0873 27.6763 35.6099L31.5948 31.6892C31.5698 31.6642 31.5448 31.6413 31.5198 31.6184C31.1969 31.2955 30.8948 30.9601 30.6032 30.6185V30.6164ZM22.1662 24.7896C22.1662 25.5354 21.5558 26.1458 20.81 26.1458H10.8397C10.0939 26.1458 9.48356 25.5354 9.48356 24.7896V14.8194C9.48356 14.0736 10.0939 13.4632 10.8397 13.4632H20.81C21.5558 13.4632 22.1662 14.0736 22.1662 14.8194V24.7896Z" fill="black"/>
<path d="M27.7501 11.6903C29.875 11.6903 31.5957 9.96749 31.5957 7.84469C31.5957 5.7219 29.875 3.99908 27.7501 3.99908C25.6252 3.99908 23.9045 5.7219 23.9045 7.84469C23.9045 9.96749 25.6252 11.6903 27.7501 11.6903Z" fill="black"/>
<path d="M40.7243 31.6695V12.3938H47.1314C53.267 12.3938 56.7149 15.8688 56.7149 22.0588C56.7149 28.2216 53.3485 31.6695 47.2943 31.6695H40.7243ZM44.2536 28.6017H47.1314C51.1494 28.6017 53.077 26.4569 53.077 22.0588C53.077 17.6064 51.1494 15.4616 47.1314 15.4616H44.2536V28.6017ZM60.1845 31.6695V12.3938H63.7138V31.6695H60.1845ZM67.6345 31.6695V12.3938H71.7611L80.0687 26.8913V12.3938H83.598V31.6695H79.3628L71.1638 17.5792V31.6695H67.6345ZM100.55 33.407L99.03 31.4794C98.1884 31.8595 96.9667 32.1039 95.6093 32.1039C89.9623 32.1039 86.5144 27.8415 86.5144 22.0588C86.5144 16.3575 89.7451 11.9594 95.6093 11.9594C101.528 11.9594 104.731 16.3575 104.731 22.0588C104.731 25.6153 103.455 28.4931 101.175 30.2849L103.672 33.407H100.55ZM95.6093 29.036C96.2065 29.036 96.6952 28.9817 97.0481 28.8189L94.3604 25.4524H97.4554L99.0843 27.5972C100.387 26.4569 101.093 24.6651 101.093 22.0588C101.093 18.2851 99.3558 15.0272 95.6093 15.0272C91.8627 15.0272 90.1523 18.2851 90.1523 22.0588C90.1523 25.8053 91.917 29.036 95.6093 29.036Z" fill="black"/>
</svg>
