<svg width="18" height="18" viewBox="0 0 18 18" fill="none" xmlns="http://www.w3.org/2000/svg">
<g clip-path="url(#clip0_7765_22499)">
<path d="M12 13.5H13.5C13.8978 13.5 14.2794 13.342 14.5607 13.0607C14.842 12.7794 15 12.3978 15 12V3.75C15 3.35218 14.842 2.97064 14.5607 2.68934C14.2794 2.40804 13.8978 2.25 13.5 2.25H6.75C6.35218 2.25 5.97064 2.40804 5.68934 2.68934C5.40804 2.97064 5.25 3.35218 5.25 3.75V5.25" stroke="#636363" stroke-linecap="round" stroke-linejoin="round"/>
<path fill-rule="evenodd" clip-rule="evenodd" d="M11.5195 7.10281L10.1472 5.73052C9.83952 5.42285 9.42222 5.25 8.9871 5.25H4.5C4.10218 5.25 3.72064 5.40804 3.43934 5.68934C3.15804 5.97064 3 6.35218 3 6.75V14.25C3 14.6478 3.15804 15.0294 3.43934 15.3107C3.72064 15.592 4.10218 15.75 4.5 15.75H10.5C10.8978 15.75 11.2794 15.592 11.5607 15.3107C11.842 15.0294 12 14.6478 12 14.25V8.2629C12 7.82778 11.8271 7.41048 11.5195 7.10281Z" stroke="#636363" stroke-linecap="round" stroke-linejoin="round"/>
<path d="M12 8.625H9.75C9.45163 8.625 9.16548 8.50647 8.9545 8.2955C8.74353 8.08452 8.625 7.79837 8.625 7.5V5.25" stroke="#636363" stroke-linecap="round" stroke-linejoin="round"/>
</g>
<defs>
<clipPath id="clip0_7765_22499">
<rect width="18" height="18" fill="white"/>
</clipPath>
</defs>
</svg>
