<svg width="24" height="24" viewBox="0 0 24 24" fill="none" xmlns="http://www.w3.org/2000/svg">
<g clip-path="url(#clip0_7765_22466)">
<path d="M9.00781 13H15.0078" stroke="#171717" stroke-width="1.5" stroke-linecap="round" stroke-linejoin="round"/>
<path d="M12.507 18H18C18.7956 18 19.5587 17.6839 20.1213 17.1213C20.6839 16.5587 21 15.7956 21 15V6C21 5.20435 20.6839 4.44129 20.1213 3.87868C19.5587 3.31607 18.7956 3 18 3H6C5.20435 3 4.44129 3.31607 3.87868 3.87868C3.31607 4.44129 3 5.20435 3 6V15C3 15.7956 3.31607 16.5587 3.87868 17.1213C4.44129 17.6839 5.20435 18 6 18H8.007V20.4429C8.007 20.5476 8.03659 20.6503 8.09235 20.7389C8.14812 20.8276 8.22779 20.8987 8.3222 20.9441C8.41662 20.9895 8.52192 21.0073 8.626 20.9954C8.73008 20.9836 8.82869 20.9426 8.91049 20.8771L12.507 18Z" stroke="#171717" stroke-width="1.5" stroke-linecap="round" stroke-linejoin="round"/>
<path d="M10.4141 8.74434L11.6151 9.94434L13.6141 7.94434" stroke="#171717" stroke-width="1.5" stroke-linecap="round" stroke-linejoin="round"/>
</g>
<defs>
<clipPath id="clip0_7765_22466">
<rect width="24" height="24" fill="white"/>
</clipPath>
</defs>
</svg>
