<svg width="24" height="24" viewBox="0 0 24 24" fill="none" xmlns="http://www.w3.org/2000/svg">
<g clip-path="url(#clip0_7711_37189)">
<path d="M18.9549 21H5.04688C3.94187 21 3.04688 20.105 3.04688 19V8C3.04688 6.895 3.94187 6 5.04688 6H18.9549C20.0599 6 20.9549 6.895 20.9549 8V19C20.9549 20.105 20.0589 21 18.9549 21Z" stroke="white" stroke-width="1.5" stroke-linecap="round" stroke-linejoin="round"/>
<path d="M12 9C13.381 9 14.5 10.119 14.5 11.5C14.5 12.881 13.381 14 12 14C10.619 14 9.5 12.881 9.5 11.5C9.5 10.119 10.619 9 12 9Z" stroke="white" stroke-width="1.5" stroke-linecap="round" stroke-linejoin="round"/>
<path d="M16.5 18C16.369 17.671 16.166 17.375 15.906 17.134C15.467 16.726 14.892 16.5 14.292 16.5C13.292 16.5 10.708 16.5 9.708 16.5C9.108 16.5 8.534 16.727 8.094 17.134C7.834 17.375 7.631 17.671 7.5 18" stroke="white" stroke-width="1.5" stroke-linecap="round" stroke-linejoin="round"/>
<path d="M4.78125 6V5C4.78125 3.895 5.67625 3 6.78125 3H17.2162C18.3212 3 19.2162 3.895 19.2162 5V6" stroke="white" stroke-width="1.5" stroke-linecap="round" stroke-linejoin="round"/>
</g>
<defs>
<clipPath id="clip0_7711_37189">
<rect width="24" height="24" fill="white"/>
</clipPath>
</defs>
</svg>
