<svg width="30" height="30" viewBox="0 0 30 30" fill="none" xmlns="http://www.w3.org/2000/svg">
<path d="M15 2.43848C21.9062 2.43848 27.5 8.03223 27.5 14.9385C27.4993 17.5575 26.6773 20.1105 25.1497 22.2379C23.6221 24.3653 21.4659 25.9601 18.9844 26.7978C18.3594 26.9228 18.125 26.5322 18.125 26.2041C18.125 25.7822 18.1406 24.4385 18.1406 22.7666C18.1406 21.5947 17.75 20.8447 17.2969 20.4541C20.0781 20.1416 23 19.0791 23 14.2822C23 12.9072 22.5156 11.7978 21.7188 10.9228C21.8438 10.6103 22.2812 9.3291 21.5938 7.61035C21.5938 7.61035 20.5469 7.2666 18.1563 8.8916C17.1563 8.61035 16.0938 8.46973 15.0313 8.46973C13.9688 8.46973 12.9063 8.61035 11.9063 8.8916C9.51563 7.28223 8.46875 7.61035 8.46875 7.61035C7.78125 9.3291 8.21875 10.6103 8.34375 10.9228C7.54688 11.7978 7.0625 12.9228 7.0625 14.2822C7.0625 19.0635 9.96875 20.1416 12.75 20.4541C12.3906 20.7666 12.0625 21.3135 11.9531 22.126C11.2344 22.4541 9.4375 22.9853 8.3125 21.0947C8.07813 20.7197 7.375 19.7978 6.39063 19.8135C5.34375 19.8291 5.96875 20.4072 6.40625 20.6416C6.9375 20.9385 7.54688 22.0478 7.6875 22.4072C7.9375 23.1103 8.75 24.4541 11.8906 23.876C11.8906 24.9228 11.9063 25.9072 11.9063 26.2041C11.9063 26.5322 11.6719 26.9072 11.0469 26.7978C8.55725 25.9692 6.39177 24.3776 4.85764 22.2488C3.32351 20.1201 2.49862 17.5624 2.5 14.9385C2.5 8.03223 8.09375 2.43848 15 2.43848Z" fill="#303030"/>
</svg>
