<svg width="30" height="30" viewBox="0 0 30 30" fill="none" xmlns="http://www.w3.org/2000/svg">
<path d="M24.5625 3.75L5.4375 3.75C4.98995 3.75 4.56072 3.92779 4.24426 4.24426C3.92779 4.56072 3.75 4.98995 3.75 5.4375V24.5625C3.75 25.0101 3.92779 25.4393 4.24426 25.7557C4.56072 26.0722 4.98995 26.25 5.4375 26.25H24.5625C25.0101 26.25 25.4393 26.0722 25.7557 25.7557C26.0722 25.4393 26.25 25.0101 26.25 24.5625V5.4375C26.25 4.98995 26.0722 4.56072 25.7557 4.24426C25.4393 3.92779 25.0101 3.75 24.5625 3.75ZM10.5 22.875H7.125V12.75H10.5V22.875ZM8.8125 10.7812C8.42571 10.7702 8.05075 10.6454 7.73447 10.4225C7.41819 10.1995 7.17463 9.88832 7.03421 9.52775C6.89379 9.16717 6.86273 8.77321 6.94493 8.39509C7.02713 8.01697 7.21893 7.67146 7.49638 7.40172C7.77382 7.13198 8.1246 6.94999 8.50489 6.87847C8.88517 6.80695 9.2781 6.84909 9.63458 6.99961C9.99105 7.15013 10.2953 7.40236 10.5092 7.72479C10.7232 8.04722 10.8373 8.42555 10.8375 8.8125C10.8286 9.34164 10.6106 9.84576 10.2312 10.2147C9.85173 10.5836 9.34168 10.7873 8.8125 10.7812ZM22.875 22.875H19.5V17.5425C19.5 15.945 18.825 15.3713 17.9475 15.3713C17.6902 15.3884 17.4389 15.4562 17.2079 15.5707C16.9769 15.6853 16.7708 15.8443 16.6014 16.0388C16.4321 16.2332 16.3028 16.4592 16.221 16.7037C16.1393 16.9483 16.1066 17.2066 16.125 17.4637C16.1194 17.5161 16.1194 17.5689 16.125 17.6213V22.875H12.75V12.75H16.0125V14.2125C16.3416 13.7119 16.7937 13.3041 17.3256 13.0284C17.8574 12.7526 18.4512 12.618 19.05 12.6375C20.7938 12.6375 22.83 13.605 22.83 16.755L22.875 22.875Z" fill="#303030"/>
</svg>
