<svg width="24" height="24" viewBox="0 0 24 24" fill="none" xmlns="http://www.w3.org/2000/svg">
<path d="M13.5469 12H16.3522" stroke="white" stroke-width="1.5" stroke-linecap="round" stroke-linejoin="round"/>
<path d="M10.4537 12H7.64844" stroke="white" stroke-width="1.5" stroke-linecap="round" stroke-linejoin="round"/>
<path d="M17.5135 18.2858L14.4156 16.9998C13.8897 16.7814 13.5469 16.2679 13.5469 15.6984V8.30219C13.5469 7.7327 13.8897 7.2192 14.4156 7.00086L17.5135 5.71484" stroke="white" stroke-width="1.5" stroke-linecap="round" stroke-linejoin="round"/>
<path d="M6.48438 18.2858L9.58227 16.9998C10.1082 16.7814 10.451 16.2679 10.451 15.6984V8.30219C10.451 7.7327 10.1082 7.2192 9.58227 7.00086L6.48438 5.71484" stroke="white" stroke-width="1.5" stroke-linecap="round" stroke-linejoin="round"/>
<path d="M19.0083 6.65335C19.8327 6.65335 20.501 5.98505 20.501 5.16066C20.501 4.33627 19.8327 3.66797 19.0083 3.66797C18.1839 3.66797 17.5156 4.33627 17.5156 5.16066C17.5156 5.98505 18.1839 6.65335 19.0083 6.65335Z" stroke="white" stroke-width="1.5" stroke-linecap="round" stroke-linejoin="round"/>
<path d="M19.0083 20.333C19.8327 20.333 20.501 19.6647 20.501 18.8403C20.501 18.016 19.8327 17.3477 19.0083 17.3477C18.1839 17.3477 17.5156 18.016 17.5156 18.8403C17.5156 19.6647 18.1839 20.333 19.0083 20.333Z" stroke="white" stroke-width="1.5" stroke-linecap="round" stroke-linejoin="round"/>
<path d="M4.99169 6.65335C4.16729 6.65335 3.499 5.98505 3.499 5.16066C3.499 4.33627 4.16729 3.66797 4.99169 3.66797C5.81607 3.66797 6.48438 4.33627 6.48438 5.16066C6.48438 5.98505 5.81607 6.65335 4.99169 6.65335Z" stroke="white" stroke-width="1.5" stroke-linecap="round" stroke-linejoin="round"/>
<path d="M4.99169 20.333C4.16729 20.333 3.499 19.6647 3.499 18.8403C3.499 18.016 4.16729 17.3477 4.99169 17.3477C5.81607 17.3477 6.48438 18.016 6.48438 18.8403C6.48438 19.6647 5.81607 20.333 4.99169 20.333Z" stroke="white" stroke-width="1.5" stroke-linecap="round" stroke-linejoin="round"/>
<path d="M17.8521 13.4932C18.6765 13.4932 19.3448 12.8249 19.3448 12.0005C19.3448 11.1761 18.6765 10.5078 17.8521 10.5078C17.0277 10.5078 16.3594 11.1761 16.3594 12.0005C16.3594 12.8249 17.0277 13.4932 17.8521 13.4932Z" stroke="white" stroke-width="1.5" stroke-linecap="round" stroke-linejoin="round"/>
<path d="M6.15575 13.4932C5.33136 13.4932 4.66306 12.8249 4.66306 12.0005C4.66306 11.1761 5.33136 10.5078 6.15575 10.5078C6.98014 10.5078 7.64844 11.1761 7.64844 12.0005C7.64844 12.8249 6.98014 13.4932 6.15575 13.4932Z" stroke="white" stroke-width="1.5" stroke-linecap="round" stroke-linejoin="round"/>
</svg>
