<svg width="24" height="24" viewBox="0 0 24 24" fill="none" xmlns="http://www.w3.org/2000/svg">
<path d="M5.60156 8.8L5.60156 17.44C5.60156 18.3361 5.60156 18.7841 5.77595 19.1264C5.92935 19.4274 6.17412 19.6722 6.47518 19.8256C6.81744 20 7.26548 20 8.16156 20H15.8416C16.7376 20 17.1857 20 17.5279 19.8256C17.829 19.6722 18.0738 19.4274 18.2272 19.1264C18.4016 18.7841 18.4016 18.3361 18.4016 17.44V6.56C18.4016 5.66392 18.4016 5.21587 18.2272 4.87361C18.0738 4.57256 17.829 4.32779 17.5279 4.17439C17.1857 4 16.7376 4 15.8416 4L10.4016 4M8.80156 12H15.2016M13.6016 8.8H15.2016M8.80156 15.2H15.2016M5.73813 8.66343L10.265 4.13657C10.3154 4.08617 10.4016 4.12187 10.4016 4.19314V8C10.4016 8.44183 10.0434 8.8 9.60156 8.8L5.7947 8.8C5.72343 8.8 5.68773 8.71383 5.73813 8.66343Z" stroke="#171717" stroke-width="1.5" stroke-linecap="round" stroke-linejoin="round"/>
</svg>
