<svg width="30" height="30" viewBox="0 0 30 30" fill="none" xmlns="http://www.w3.org/2000/svg">
<path d="M15 26.875C21.5584 26.875 26.875 21.5584 26.875 15C26.875 8.44162 21.5584 3.125 15 3.125M15 26.875C8.44162 26.875 3.125 21.5584 3.125 15C3.125 8.44162 8.44162 3.125 15 3.125M15 26.875C12.2386 26.875 10 21.5584 10 15C10 8.44162 12.2386 3.125 15 3.125M15 26.875C17.7614 26.875 20 21.5584 20 15C20 8.44162 17.7614 3.125 15 3.125M26.25 15H3.75" stroke="#303030" stroke-width="2" stroke-linecap="square"/>
</svg>
