<svg width="18" height="18" viewBox="0 0 18 18" fill="none" xmlns="http://www.w3.org/2000/svg">
<path d="M11.2618 4.70601V4.23898C11.2618 3.32025 10.5465 2.5752 9.66451 2.5752H8.0232C7.14119 2.5752 6.42594 3.32025 6.42594 4.23898V4.70601M10.2609 8.06835H7.42719M15.3233 9.60788C11.0038 11.3155 6.68352 11.3155 2.36328 9.60788M5.0968 4.7168H12.5891C14.2725 4.7168 15.3205 5.95515 15.3205 7.70723V12.4344C15.3205 14.1865 14.2725 15.4249 12.5884 15.4249H5.0968C3.4134 15.4249 2.3661 14.1865 2.3661 12.4344V7.70723C2.3661 5.95515 3.4183 4.7168 5.0968 4.7168Z" stroke="#303030" stroke-opacity="0.64" stroke-width="1.5" stroke-linecap="round" stroke-linejoin="round"/>
</svg>
