<svg width="18" height="18" viewBox="0 0 18 18" fill="none" xmlns="http://www.w3.org/2000/svg">
<g clip-path="url(#clip0_7698_25280)">
<path d="M7.27469 3.07125L2.64419 5.64375C1.67069 6.1845 1.67069 7.584 2.64419 8.12475L7.27469 10.6972C8.34569 11.292 9.64844 11.292 10.7202 10.6972L15.3507 8.12475C16.3242 7.584 16.3242 6.1845 15.3507 5.64375L10.7202 3.07125C9.64844 2.4765 8.34644 2.4765 7.27469 3.07125Z" stroke="#7C7C7C" stroke-width="1.5" stroke-linecap="round" stroke-linejoin="round"/>
<path d="M4.49219 9.14996V12.093C4.49219 12.8047 4.84844 13.4685 5.44019 13.8622L6.64544 14.664C8.07119 15.612 9.92669 15.612 11.3517 14.664L12.5569 13.8622C13.1494 13.4685 13.5049 12.804 13.5049 12.093V9.14996" stroke="#7C7C7C" stroke-width="1.5" stroke-linecap="round" stroke-linejoin="round"/>
</g>
<defs>
<clipPath id="clip0_7698_25280">
<rect width="18" height="18" fill="white"/>
</clipPath>
</defs>
</svg>
