<svg width="16" height="16" viewBox="0 0 16 16" fill="none" xmlns="http://www.w3.org/2000/svg">
<path fill-rule="evenodd" clip-rule="evenodd" d="M6.99482 8.87086C6.99535 8.85839 6.99455 8.84593 6.99282 8.83359C6.97435 8.70346 6.96775 8.57019 6.93022 8.44546C6.78955 7.97479 6.49888 7.63679 6.00422 7.53679C5.52822 7.44146 5.14222 7.62346 4.85688 8.00946C4.47022 8.53079 4.50755 9.30746 4.93488 9.79613C5.39422 10.3208 6.14088 10.3348 6.61622 9.82346C6.86462 9.55606 6.97835 9.23453 6.99482 8.87086ZM11.4257 8.85966C11.4261 8.84846 11.4254 8.83719 11.424 8.82606C11.409 8.71333 11.4028 8.59739 11.3736 8.48813C11.2482 8.02146 10.9769 7.67813 10.4962 7.55146C10.0716 7.43946 9.69888 7.56146 9.39688 7.87813C8.90022 8.39879 8.89755 9.28879 9.38555 9.81679C9.86555 10.3348 10.6222 10.3248 11.0802 9.79079C11.3092 9.52373 11.4129 9.20959 11.4257 8.85966ZM11.3992 11.8575C11.5159 11.8015 11.5605 11.6374 11.4553 11.5619C11.3781 11.5065 11.3162 11.5278 11.1716 11.5895C9.05955 12.4881 6.94622 12.4788 4.83288 11.5955C4.6808 11.5319 4.62198 11.5067 4.54769 11.554C4.43551 11.6255 4.47884 11.7987 4.59848 11.8569C4.82591 11.9675 5.0536 12.0782 5.29238 12.1942C5.39988 12.2464 5.43802 12.3806 5.37405 12.4815C5.18429 12.7811 4.99688 13.0775 4.80355 13.3695C4.78288 13.4001 4.69422 13.4101 4.64822 13.3961C3.50488 13.0355 2.44755 12.5028 1.48022 11.7941C1.43088 11.7581 1.38822 11.6828 1.38288 11.6215C1.16355 9.20079 1.67555 6.94279 2.90355 4.84545C3.37222 4.04479 3.37088 4.03079 4.36955 3.71345C4.89488 3.54679 5.43622 3.43212 5.96888 3.28745C6.08622 3.25612 6.14488 3.29079 6.19155 3.39679C6.25022 3.52812 6.33755 3.64812 6.38288 3.78345C6.43688 3.94479 6.51955 3.98279 6.68688 3.95879C7.60355 3.82679 8.52088 3.84679 9.43688 3.96745C9.48648 3.97454 9.53408 3.94467 9.55642 3.89982C9.64235 3.72762 9.73055 3.55624 9.81155 3.38079C9.85355 3.28879 9.90555 3.26345 10.0076 3.28279C10.8669 3.44545 11.6982 3.69545 12.4949 4.05679C12.5762 4.09412 12.6575 4.16145 12.7069 4.23545C13.6489 5.64212 14.2842 7.17146 14.5415 8.84946C14.6829 9.76879 14.6995 10.6928 14.6162 11.6181C14.6102 11.6841 14.5596 11.7655 14.5042 11.8048C13.5442 12.5015 12.5002 13.0348 11.3662 13.3881C11.3109 13.4055 11.2062 13.3955 11.1822 13.3595C10.9901 13.0721 10.8066 12.7788 10.6189 12.4799C10.5554 12.3787 10.594 12.2447 10.7016 12.1929C10.9393 12.0785 11.1678 11.9687 11.3992 11.8575Z" fill="#171717"/>
</svg>
