<svg width="16" height="16" viewBox="0 0 16 16" fill="none" xmlns="http://www.w3.org/2000/svg">
<path d="M3.67994 3.66792C4.63894 3.38792 5.79044 4.47029 7.61832 7.37354C7.82394 7.69904 7.99982 7.96592 8.00944 7.96592C8.01907 7.96592 8.20457 7.68417 8.42069 7.33854C10.2389 4.43879 11.3904 3.37304 12.3687 3.68542C12.9899 3.88317 13.2524 4.46679 13.2498 5.64629C13.2454 7.94142 12.1106 11.5385 11.1848 12.193C10.4218 12.732 9.28169 12.053 8.21944 10.4273C8.11444 10.2654 8.01819 10.1333 8.00594 10.1324C7.99457 10.1324 7.90094 10.2637 7.79857 10.4255C7.23857 11.3058 6.55169 11.9874 5.96282 12.249C5.67669 12.3759 5.17882 12.3934 4.96882 12.284C4.39657 11.9848 3.75257 10.6863 3.25382 8.82604C2.45582 5.85279 2.61157 3.98029 3.67994 3.66792ZM11.6949 4.84917C11.0877 5.30854 10.3054 6.33054 9.15919 8.16017L8.61844 9.02379L8.80307 9.34667C9.26857 10.1578 9.80582 10.8394 10.2398 11.1684C10.5338 11.3933 10.6309 11.346 10.8873 10.8534C11.6958 9.30992 12.3836 6.14592 12.1596 5.00929C12.0913 4.66629 11.9863 4.63042 11.6949 4.85004V4.84917ZM3.95382 4.75292C3.73769 4.96029 3.79369 6.31042 4.07457 7.65792C4.41407 9.28279 5.12894 11.1745 5.44219 11.2804C5.74844 11.3837 6.58844 10.4492 7.24819 9.27229L7.39257 9.01417L6.92969 8.27567C5.68982 6.29642 4.87957 5.23854 4.28369 4.81767C4.10082 4.68904 4.03432 4.67592 3.95382 4.75204V4.75292Z" fill="#171717"/>
</svg>
