<svg width="16" height="16" viewBox="0 0 16 16" fill="none" xmlns="http://www.w3.org/2000/svg">
<path d="M13.2599 4.90561V6.97391C12.8986 6.9386 12.429 6.85649 11.9096 6.66616C11.2314 6.4175 10.7265 6.07753 10.3958 5.81429V9.99464L10.3874 9.98158C10.3928 10.0645 10.3958 10.1489 10.3958 10.2341C10.3958 12.3101 8.70716 14 6.63102 14C4.55489 14 2.86621 12.3101 2.86621 10.2341C2.86621 8.1581 4.55489 6.4674 6.63102 6.4674C6.83434 6.4674 7.03382 6.4835 7.2287 6.51497V8.55334C7.0415 8.48658 6.84048 8.4505 6.63102 8.4505C5.6482 8.4505 4.84798 9.25019 4.84798 10.2341C4.84798 11.218 5.6482 12.0176 6.63102 12.0176C7.61385 12.0176 8.41407 11.2172 8.41407 10.2341C8.41407 10.1972 8.41331 10.1604 8.41101 10.1236V2H10.4772C10.4848 2.17498 10.4917 2.3515 10.4994 2.52649C10.5132 2.87107 10.636 3.20186 10.85 3.47277C11.1009 3.79126 11.4715 4.16117 11.9917 4.45664C12.4789 4.73216 12.9361 4.85112 13.2599 4.90715V4.90561Z" fill="#171717"/>
</svg>
