<svg width="16" height="16" viewBox="0 0 16 16" fill="none" xmlns="http://www.w3.org/2000/svg">
<path fill-rule="evenodd" clip-rule="evenodd" d="M11.147 5.56046C10.6091 5.62039 10.0823 5.63791 9.57429 5.74425C8.39407 5.99289 7.42347 6.59314 6.74454 7.60862C6.15566 8.48917 6.03518 9.45147 6.29981 10.4691C6.31425 10.5244 6.33116 10.5801 6.35759 10.675C6.03918 10.656 5.73736 10.6587 5.44323 10.6151C5.07011 10.5592 4.70344 10.462 4.33217 10.3917C4.26086 10.3784 4.17112 10.3886 4.10719 10.4224C3.65232 10.6578 3.20205 10.9022 2.74994 11.1434C2.68909 11.1757 2.62639 11.2052 2.52988 11.2525C2.55324 11.1643 2.56492 11.1059 2.58398 11.0497C2.70907 10.6738 2.83016 10.297 2.96478 9.92541C3.00627 9.80954 2.98384 9.75421 2.88487 9.68414C2.08546 9.11554 1.46339 8.39881 1.18186 7.44511C0.70301 5.82324 1.18954 4.45984 2.40879 3.35708C3.58747 2.29151 5.01509 1.90487 6.58257 2.01797C7.75264 2.10188 8.80991 2.49774 9.71413 3.25566C10.406 3.83562 10.8916 4.55574 11.1202 5.43844C11.1304 5.47747 11.1399 5.51712 11.1464 5.55738C11.1491 5.57183 11.1399 5.58873 11.147 5.56046ZM8.57479 4.82405C8.58709 4.43925 8.27328 4.10609 7.88541 4.09041C7.47818 4.07535 7.16345 4.37379 7.15177 4.78809C7.14071 5.17842 7.43822 5.50851 7.81257 5.52296C8.21766 5.53771 8.5625 5.22145 8.57479 4.82405ZM5.06366 4.80715C5.06734 4.43065 4.73356 4.09472 4.35092 4.08918C3.94952 4.08365 3.63941 4.39776 3.63603 4.81299C3.63295 5.19594 3.95259 5.52204 4.33063 5.52142C4.73449 5.52019 5.05997 5.20332 5.06366 4.80715Z" fill="#171717"/>
<path fill-rule="evenodd" clip-rule="evenodd" d="M13.6823 13.5811C13.5508 13.5104 13.4198 13.4382 13.288 13.3687C13.0055 13.2199 12.7338 13.0374 12.4354 12.9323C12.1216 12.8219 11.8186 13.026 11.5066 13.069C10.0983 13.2611 8.81087 12.9885 7.70288 12.0751C6.00663 10.6763 6.00847 8.3408 7.70103 6.93714C8.67656 6.1279 9.81774 5.81594 11.0705 5.89862C12.0681 5.9647 12.9724 6.2911 13.7401 6.94298C15.4185 8.36815 15.4185 10.6305 13.7466 12.0622C13.7383 12.0698 13.7287 12.0772 13.7195 12.0843C13.5978 12.19 13.4079 12.277 13.3731 12.4061C13.3375 12.5376 13.4537 12.7104 13.5028 12.8653C13.5751 13.0952 13.6479 13.3251 13.7201 13.5556C13.7069 13.5642 13.6946 13.5725 13.6823 13.5811ZM9.99108 8.34664C9.99108 8.04636 9.7074 7.76422 9.40558 7.76422C9.08932 7.76422 8.83883 8.02608 8.84129 8.35371C8.84375 8.65921 9.09363 8.9097 9.39882 8.91185C9.72338 8.91431 9.99108 8.6586 9.99108 8.34664ZM12.8107 8.35125C12.8095 8.04267 12.5371 7.76606 12.235 7.76606C11.9458 7.76606 11.6415 8.04943 11.6385 8.32205C11.6351 8.6294 11.9255 8.91646 12.235 8.91154C12.551 8.90663 12.8113 8.65337 12.8107 8.35125Z" fill="#171717"/>
</svg>
