<svg width="16" height="16" viewBox="0 0 16 16" fill="none" xmlns="http://www.w3.org/2000/svg">
<rect width="16" height="16" rx="8" fill="#171717"/>
<path d="M3.625 9.875C3.625 10.2892 3.28921 10.625 2.875 10.625C2.46079 10.625 2.125 10.2892 2.125 9.875V9.75H2.75V5.5H3.625V9.875ZM5.875 9.5C5.9375 9.5625 6.0625 9.625 6.1875 9.625H7.375L6.875 10.5H5.3125L5.875 9.5ZM10.3125 6.75H9.6875V9.625H10.625L10.5625 10.5H7.375L7.8125 9.625H8.75V6.75H8.1875V5.8125H10.3125V6.75ZM12.5 5.8125H13.125C13.5392 5.8125 13.875 6.14829 13.875 6.5625V7.5625H14.9111C14.96 7.5625 15 7.6025 15 7.65137V9.5625C15 10.0803 14.5803 10.5 14.0625 10.5H14C13.5168 10.5 13.125 10.1082 13.125 9.625H14.0625V8.75C14.0625 8.61193 13.9506 8.5 13.8125 8.5H12.5625C12.528 8.5 12.5 8.52798 12.5 8.5625V10.5H11.5625V8.5625C11.5625 8.52798 11.5345 8.5 11.5 8.5H10.625V7.5625H11.5625V6.75H11V5.8125H11.5625V5.5H12.5V5.8125ZM2 6.75C2 7.70833 1.875 9.725 1.375 10.125L0.75 9.0625C0.854167 8.89583 1.075 8.2 1.125 6.75H2ZM5.25 8.375C5.25 8.725 5.375 8.97917 5.4375 9.0625L4.875 10.125C4.425 9.825 4.27083 7.75 4.25 6.75H5.125L5.25 8.375ZM6.87305 6.81055C6.845 6.8692 6.88811 6.9375 6.95312 6.9375C6.98246 6.93736 7.01005 6.92282 7.02637 6.89844L7.125 6.75H8L7.22461 8.19043C7.17981 8.27362 7.23957 8.37479 7.33398 8.375H7.875L7.375 9.25H6.36719C6.0861 9.24966 5.90546 8.95164 6.03516 8.70215L6.5625 7.6875H6.09863C5.82197 7.68722 5.6408 7.39738 5.76172 7.14844L6.5625 5.5H7.5L6.87305 6.81055ZM12.5625 6.75C12.528 6.75 12.5 6.77798 12.5 6.8125V7.5C12.5 7.53452 12.528 7.5625 12.5625 7.5625H12.9375C12.972 7.5625 13 7.53452 13 7.5V7C13 6.86193 12.8881 6.75 12.75 6.75H12.5625ZM14.5625 5.75C14.8041 5.75 15 5.94588 15 6.1875C15 6.42912 14.8041 6.625 14.5625 6.625H14.125V6.1875C14.125 5.94588 14.3209 5.75 14.5625 5.75Z" fill="#BDCFD8"/>
</svg>
