<svg width="16" height="16" viewBox="0 0 16 16" fill="none" xmlns="http://www.w3.org/2000/svg">
<path d="M14.9173 5.7354C14.8313 4.90516 14.6463 3.98735 13.9652 3.50503C13.4377 3.131 12.7444 3.11718 12.0972 3.11795C10.7289 3.11871 9.35992 3.12024 7.99169 3.12101C6.67567 3.12255 5.35964 3.12332 4.04362 3.12486C3.49387 3.12562 2.95947 3.08261 2.44888 3.3207C2.01046 3.525 1.66725 3.91363 1.46071 4.34603C1.17432 4.9474 1.11443 5.62865 1.07988 6.29376C1.01616 7.50495 1.02307 8.71921 1.09908 9.92963C1.15513 10.8129 1.29717 11.789 1.97975 12.352C2.58478 12.8505 3.43858 12.875 4.22328 12.8758C6.71405 12.8781 9.20559 12.8804 11.6971 12.882C12.0165 12.8827 12.3498 12.8766 12.6753 12.8412C13.3157 12.7721 13.9261 12.5886 14.3376 12.1139C14.753 11.6354 14.8597 10.9695 14.9227 10.339C15.0762 8.80907 15.0747 7.26455 14.9173 5.7354ZM6.55128 10.1447V5.85521L10.2644 7.99956L6.55128 10.1447Z" fill="#171717"/>
</svg>
