<svg width="20" height="20" viewBox="0 0 20 20" fill="none" xmlns="http://www.w3.org/2000/svg">
<path d="M3.68555 5V9.99975C3.68555 9.99975 3.68555 12.4995 10.0011 12.4995C16.3166 12.4995 16.3166 9.99975 16.3166 9.99975V5" stroke="black" stroke-width="1.5" stroke-linecap="round" stroke-linejoin="round"/>
<path d="M3.68555 10V14.9997C3.68555 14.9997 3.68555 17.5003 10.0011 17.5003C16.3166 17.5003 16.3166 14.9997 16.3166 14.9997V10" stroke="black" stroke-width="1.5" stroke-linecap="round" stroke-linejoin="round"/>
<path d="M10.0011 7.53138C13.4891 7.53138 16.3166 6.40507 16.3166 5.01569C16.3166 3.62631 13.4891 2.5 10.0011 2.5C6.51311 2.5 3.68555 3.62631 3.68555 5.01569C3.68555 6.40507 6.51311 7.53138 10.0011 7.53138Z" stroke="black" stroke-width="1.5" stroke-linecap="round" stroke-linejoin="round"/>
</svg>
