<svg width="20" height="20" viewBox="0 0 20 20" fill="none" xmlns="http://www.w3.org/2000/svg">
<path d="M14.8531 6.8251C14.8528 6.10554 15.4633 5.5017 16.1758 5.50146C16.8954 5.50124 17.4993 6.11171 17.4995 6.82425L17.5 12.262C17.4866 13.6561 16.9233 14.9885 15.9328 15.9696C14.9422 16.9507 13.6044 17.501 12.2102 17.5009C10.8161 17.5009 9.47825 16.9505 8.48775 15.9694C7.49725 14.9882 6.93408 13.6558 6.92075 12.2617L6.91917 9.47991C6.91892 8.94958 7.34875 8.5195 7.879 8.5195C8.80667 8.5195 9.55875 9.27158 9.55875 10.1992V10.257" stroke="black" stroke-width="1.5" stroke-linecap="round" stroke-linejoin="round"/>
<path d="M9.56258 12.1177L9.56058 5.94277C9.5605 5.59183 9.69983 5.25522 9.94791 5.007C10.1959 4.75877 10.5325 4.61925 10.8834 4.61914C11.2343 4.61902 11.5709 4.75832 11.8192 5.0064C12.0674 5.25447 12.2069 5.59098 12.207 5.94192" stroke="black" stroke-width="1.5" stroke-linecap="round" stroke-linejoin="round"/>
<path d="M12.2084 10.3535L12.2091 4.7709C12.209 4.59713 12.2432 4.42506 12.3096 4.26449C12.3761 4.10393 12.4735 3.95803 12.5963 3.83512C12.7191 3.71222 12.865 3.6147 13.0255 3.54815C13.186 3.4816 13.3581 3.44732 13.5318 3.44727C13.7056 3.44721 13.8777 3.48138 14.0382 3.54782C14.1988 3.61427 14.3447 3.71169 14.4676 3.83452C14.5905 3.95736 14.688 4.10319 14.7546 4.26371C14.8211 4.42422 14.8554 4.59628 14.8555 4.77005L14.8548 10.3527" stroke="black" stroke-width="1.5" stroke-linecap="round" stroke-linejoin="round"/>
<path d="M2.49975 5.8335L3.63867 6.03863" stroke="black" stroke-width="1.5" stroke-linecap="round" stroke-linejoin="round"/>
<path d="M4.34309 3.45361L4.96484 4.339" stroke="black" stroke-width="1.5" stroke-linecap="round" stroke-linejoin="round"/>
<path d="M7.07169 8.84199C6.88894 8.11224 6.22869 7.57178 5.44228 7.57178C4.91194 7.57178 4.48219 8.00182 4.48244 8.53216L4.48394 11.3139C4.49728 12.7081 5.06044 14.0405 6.05103 15.0217C6.88811 15.8508 7.97328 16.3723 9.13086 16.514" stroke="black" stroke-width="1.5" stroke-linecap="round" stroke-linejoin="round"/>
<path d="M12.416 3.82278C12.416 3.64902 12.3817 3.47697 12.3151 3.31644C12.2486 3.15592 12.1511 3.01009 12.0282 2.88726C11.9052 2.76443 11.7593 2.66701 11.5988 2.60056C11.4382 2.53412 11.2662 2.49994 11.0924 2.5C10.9186 2.50006 10.7466 2.53433 10.586 2.60088C10.4255 2.66743 10.2797 2.76495 10.1569 2.88786C10.034 3.01077 9.93661 3.15667 9.87019 3.31723C9.80369 3.47779 9.76952 3.64987 9.76961 3.82363L9.76752 4.99557" stroke="black" stroke-width="1.5" stroke-linecap="round" stroke-linejoin="round"/>
<path d="M9.76953 4.99466C9.76936 4.64373 9.62986 4.3072 9.38161 4.05913C9.13345 3.81107 8.79678 3.67176 8.44586 3.67188C8.09495 3.67198 7.75845 3.8115 7.51036 4.05973C7.26228 4.30796 7.12295 4.64457 7.12311 4.99551L7.07161 8.84058" stroke="black" stroke-width="1.5" stroke-linecap="round" stroke-linejoin="round"/>
</svg>
