<svg width="852" height="852" viewBox="0 0 852 852" fill="none" xmlns="http://www.w3.org/2000/svg">
<path d="M851.61 0H0V851.61H851.61V0Z" fill="#FBFBFA"/>
<path d="M664.15 378.669C664.15 378.889 664.13 379.109 664.12 379.339C664.45 371.409 659.38 363.419 648.9 357.369L461.97 249.449C441.73 237.769 409.03 237.769 388.92 249.449L203.21 357.369C193.19 363.189 188.19 370.819 188.2 378.449C188.2 378.429 188.2 378.399 188.2 378.379L187.45 642.719C187.43 650.429 192.51 658.14 202.7 664.02L389.63 771.939C390.24 772.289 390.86 772.629 391.49 772.959C391.7 773.069 391.91 773.17 392.12 773.28C392.55 773.5 392.98 773.709 393.41 773.919C393.67 774.039 393.93 774.16 394.19 774.28C394.59 774.46 394.99 774.64 395.39 774.82C395.67 774.94 395.96 775.059 396.25 775.169C396.53 775.279 396.8 775.4 397.07 775.51C397.16 775.54 397.25 775.569 397.33 775.609C398.23 775.959 399.14 776.289 400.06 776.609C400.2 776.659 400.35 776.7 400.49 776.75C401.29 777.02 402.11 777.27 402.93 777.51C403.07 777.55 403.2 777.599 403.34 777.639C403.5 777.679 403.66 777.72 403.82 777.77C404.34 777.91 404.86 778.049 405.39 778.189C405.71 778.269 406.03 778.349 406.35 778.429C406.92 778.569 407.5 778.7 408.09 778.82C408.31 778.87 408.52 778.919 408.74 778.969C408.8 778.979 408.86 778.99 408.92 779C409.45 779.11 409.98 779.21 410.51 779.3C410.8 779.35 411.09 779.409 411.39 779.459C412.09 779.579 412.79 779.69 413.5 779.79C413.62 779.81 413.74 779.829 413.87 779.849C413.87 779.849 413.88 779.849 413.89 779.849C414.71 779.969 415.53 780.069 416.36 780.159C416.55 780.179 416.75 780.199 416.94 780.219C417.57 780.289 418.21 780.349 418.85 780.399C418.87 780.399 418.88 780.399 418.9 780.399C419.19 780.419 419.47 780.439 419.76 780.459C420.29 780.499 420.82 780.54 421.35 780.57C421.69 780.59 422.04 780.599 422.38 780.609C422.87 780.629 423.36 780.649 423.86 780.669C423.9 780.669 423.94 780.669 423.98 780.669C424.26 780.669 424.54 780.669 424.82 780.669C425.36 780.669 425.89 780.689 426.43 780.689C426.78 780.689 427.14 780.689 427.49 780.679C427.99 780.679 428.49 780.669 428.99 780.649C429.08 780.649 429.18 780.649 429.27 780.649C429.51 780.649 429.74 780.619 429.97 780.609C430.55 780.589 431.13 780.56 431.7 780.52C432.05 780.5 432.4 780.469 432.75 780.449C433.3 780.409 433.86 780.36 434.41 780.31C434.6 780.29 434.8 780.28 434.99 780.26C435.13 780.25 435.26 780.229 435.4 780.209C436.26 780.119 437.12 780.019 437.97 779.899C438.11 779.879 438.25 779.869 438.39 779.849C439.37 779.709 440.34 779.559 441.31 779.379C441.4 779.359 441.49 779.349 441.58 779.339C441.84 779.289 442.09 779.239 442.35 779.189C442.8 779.099 443.25 779.019 443.7 778.929C444.07 778.849 444.43 778.769 444.8 778.689C445.24 778.589 445.68 778.489 446.11 778.389C446.47 778.299 446.84 778.209 447.2 778.119C447.63 778.009 448.06 777.9 448.49 777.78C448.85 777.68 449.21 777.579 449.56 777.469C449.98 777.349 450.4 777.219 450.82 777.089C451 777.029 451.19 776.979 451.37 776.919C451.5 776.879 451.63 776.83 451.76 776.78C452.52 776.53 453.26 776.27 454 775.99C454.16 775.93 454.31 775.88 454.47 775.82C455.34 775.49 456.2 775.14 457.05 774.77C457.27 774.67 457.49 774.569 457.71 774.479C458.36 774.189 459 773.889 459.62 773.579C459.86 773.459 460.09 773.349 460.32 773.229C461.13 772.819 461.92 772.389 462.7 771.939L648.41 664.02C648.62 663.9 648.83 663.769 649.04 663.649C649.23 663.529 649.41 663.41 649.61 663.29C649.93 663.09 650.24 662.899 650.55 662.699C650.83 662.519 651.1 662.329 651.37 662.139C651.67 661.939 651.96 661.73 652.24 661.53C652.5 661.34 652.76 661.149 653.01 660.949C653.28 660.739 653.56 660.53 653.82 660.32C654.06 660.12 654.3 659.929 654.53 659.729C654.78 659.509 655.03 659.299 655.27 659.079C655.37 658.989 655.48 658.9 655.58 658.81C655.78 658.63 655.97 658.44 656.16 658.25C656.23 658.18 656.3 658.12 656.37 658.05C656.75 657.68 657.1 657.309 657.45 656.929C657.53 656.839 657.61 656.749 657.69 656.659C657.98 656.329 658.26 655.999 658.53 655.669C658.59 655.599 658.65 655.529 658.71 655.459C658.74 655.429 658.77 655.389 658.79 655.359C659.06 655.009 659.32 654.66 659.57 654.3C659.62 654.23 659.67 654.149 659.72 654.079C659.99 653.689 660.24 653.299 660.48 652.909C660.52 652.849 660.56 652.779 660.59 652.719C660.68 652.569 660.77 652.42 660.85 652.27C660.92 652.15 660.98 652.019 661.04 651.889C661.18 651.629 661.31 651.369 661.44 651.119C661.55 650.899 661.65 650.689 661.74 650.469C661.86 650.209 661.97 649.949 662.07 649.689C662.12 649.569 662.17 649.459 662.22 649.339C662.26 649.229 662.29 649.13 662.32 649.02C662.41 648.77 662.49 648.52 662.57 648.27C662.64 648.04 662.71 647.809 662.77 647.589C662.84 647.339 662.9 647.089 662.95 646.839C662.98 646.699 663.02 646.569 663.05 646.429C663.07 646.339 663.08 646.249 663.09 646.149C663.14 645.889 663.18 645.629 663.21 645.379C663.24 645.149 663.27 644.929 663.3 644.699C663.33 644.439 663.34 644.179 663.36 643.919C663.36 643.769 663.39 643.619 663.39 643.459C663.39 643.309 663.39 643.16 663.39 643.01L664.14 378.669H664.15Z" stroke="black" stroke-width="23.57" stroke-miterlimit="10"/>
<path d="M648.53 357.36C668.77 369.04 668.87 387.99 648.77 399.67L463.06 507.59C442.95 519.27 410.25 519.27 390.01 507.59L203.08 399.67C182.84 387.99 182.74 369.04 202.84 357.36L388.55 249.44C408.66 237.76 441.36 237.76 461.6 249.44L648.53 357.36Z" stroke="black" stroke-width="23.57" stroke-miterlimit="10"/>
<path d="M313.05 369.29C307.55 457.64 425.8 322.6 425.8 378.52" stroke="black" stroke-width="26.99" stroke-linecap="round" stroke-linejoin="round"/>
<path d="M286.34 354.71C343.689 354.71 390.18 308.219 390.18 250.87C390.18 193.521 343.689 147.03 286.34 147.03C228.991 147.03 182.5 193.521 182.5 250.87C182.5 308.219 228.991 354.71 286.34 354.71Z" fill="#D77756" stroke="black" stroke-width="23.57" stroke-miterlimit="10"/>
<path d="M525.022 599.01C535.077 580.444 533.324 560.029 521.105 553.412C508.887 546.794 490.83 556.48 480.775 575.046C470.72 593.612 472.473 614.027 484.692 620.644C496.91 627.262 514.967 617.576 525.022 599.01Z" fill="black"/>
<path d="M512.34 562.24C517.57 560.27 521.82 563.04 521.85 568.42C521.87 573.81 517.66 579.77 512.43 581.74C507.2 583.71 502.94 580.94 502.92 575.56C502.9 570.18 507.12 564.21 512.35 562.24H512.34Z" fill="white"/>
<path d="M621.73 505.62C621.73 505.62 597.33 538.63 597.81 553.94" stroke="black" stroke-width="16.35" stroke-miterlimit="10" stroke-linecap="round"/>
<path d="M597.06 631.47C597.06 631.47 554.13 667.24 490.47 654.57C490.47 654.57 563.18 730.98 597.06 631.47Z" stroke="black" stroke-width="16.35" stroke-linecap="round" stroke-linejoin="round"/>
<path d="M538.467 608.828C556.36 579.698 554.945 546.305 535.307 534.243C515.669 522.18 485.244 536.016 467.351 565.146C449.458 594.276 450.873 627.669 470.511 639.732C490.149 651.794 520.574 637.958 538.467 608.828Z" stroke="#D77756" stroke-width="17.68" stroke-linecap="round" stroke-linejoin="round"/>
<path d="M647.105 551.716C664.997 522.586 663.583 489.193 643.945 477.131C624.307 465.068 593.882 478.904 575.989 508.034C558.096 537.164 559.511 570.557 579.149 582.62C598.787 594.682 629.212 580.846 647.105 551.716Z" stroke="#D77756" stroke-width="17.68" stroke-linecap="round" stroke-linejoin="round"/>
<path d="M449.17 608.301L419.94 622.441" stroke="#D77756" stroke-width="17.68" stroke-linecap="round" stroke-linejoin="round"/>
</svg>
