<svg width="42" height="42" viewBox="0 0 42 42" fill="none" xmlns="http://www.w3.org/2000/svg">
<rect width="42" height="42" fill="white"/>
<path d="M27.3433 20.3412C27.3433 22.0253 27.0519 23.5798 26.4689 25.0047C25.9076 26.4297 25.0979 27.6603 24.04 28.6967C22.9821 29.733 21.6866 30.5427 20.1537 31.1256C18.6424 31.7085 16.926 32 15.0044 32H5.61262V8.68241H15.0044C16.8396 8.68241 18.5129 8.97388 20.0242 9.55682C21.5355 10.1398 22.8309 10.9494 23.9105 11.9857C25.0116 13.0221 25.8536 14.2527 26.4365 15.6777C27.0411 17.1027 27.3433 18.6572 27.3433 20.3412ZM15.1987 27.3365C16.1703 27.3365 17.0771 27.153 17.9191 26.7859C18.7612 26.4189 19.4952 25.9223 20.1213 25.2962C20.7691 24.6485 21.2764 23.9036 21.6435 23.0616C22.0105 22.2196 22.194 21.3128 22.194 20.3412C22.194 19.3696 22.0105 18.4628 21.6435 17.6208C21.2764 16.7788 20.7691 16.0447 20.1213 15.4186C19.4952 14.7709 18.7612 14.2635 17.9191 13.8965C17.0771 13.5294 16.1703 13.3459 15.1987 13.3459H10.7943V27.3365H15.1987Z" fill="black"/>
<circle cx="34.4935" cy="27.3252" r="4.04819" fill="#D48146"/>
</svg>
