<svg width="96" height="42" viewBox="0 0 96 42" fill="none" xmlns="http://www.w3.org/2000/svg">
<path d="M23.5517 20.3587C23.5517 22.0403 23.2607 23.5924 22.6786 25.0152C22.1181 26.4381 21.3097 27.6669 20.2533 28.7016C19.197 29.7364 17.9035 30.5448 16.3729 31.1269C14.8639 31.709 13.15 32 11.2314 32H1.85369V8.71747H11.2314C13.0638 8.71747 14.7345 9.0085 16.2436 9.59057C17.7526 10.1726 19.0461 10.9811 20.124 12.0158C21.2235 13.0506 22.0642 14.2794 22.6463 15.7022C23.2499 17.1251 23.5517 18.6772 23.5517 20.3587ZM11.4254 27.3435C12.3955 27.3435 13.3009 27.1603 14.1417 26.7938C14.9824 26.4273 15.7154 25.9315 16.3406 25.3063C16.9873 24.6595 17.4939 23.9158 17.8604 23.075C18.2269 22.2343 18.4101 21.3288 18.4101 20.3587C18.4101 19.3886 18.2269 18.4832 17.8604 17.6424C17.4939 16.8017 16.9873 16.0687 16.3406 15.4435C15.7154 14.7968 14.9824 14.2902 14.1417 13.9237C13.3009 13.5572 12.3955 13.374 11.4254 13.374H7.02758V27.3435H11.4254ZM30.996 32H25.8221V8.71747H30.996V32ZM34.2221 32V8.71747H39.008L50.7786 24.0775V8.71747H55.9525V32H51.1019L39.396 16.7693V32H34.2221ZM83.6154 32H70.616C68.9129 32 67.3068 31.6874 65.7978 31.0622C64.2887 30.4371 62.9737 29.5855 61.8527 28.5076C60.7317 27.4297 59.8478 26.1686 59.2011 24.7242C58.5543 23.2798 58.2309 21.7384 58.2309 20.1C58.2309 18.4616 58.5543 16.9203 59.2011 15.4759C59.8478 14.0315 60.7317 12.7704 61.8527 11.6925C62.9737 10.6146 64.2887 9.76303 65.7978 9.13785C67.3068 8.51267 68.9129 8.20008 70.616 8.20008C72.319 8.20008 73.9251 8.51267 75.4341 9.13785C76.9432 9.76303 78.2582 10.6146 79.3792 11.6925C80.5003 12.7704 81.3841 14.0315 82.0309 15.4759C82.6776 16.9203 83.001 18.4616 83.001 20.1C83.001 21.6522 82.7099 23.1181 82.1279 24.4979C81.5674 25.856 80.7805 27.0632 79.7673 28.1196H83.6154V32ZM70.616 27.3435C71.6076 27.3435 72.5346 27.1603 73.3969 26.7938C74.2808 26.4057 75.0461 25.8883 75.6928 25.2416C76.3611 24.5733 76.8785 23.7972 77.245 22.9133C77.6331 22.0295 77.8271 21.0917 77.8271 20.1C77.8271 19.0868 77.6331 18.1491 77.245 17.2867C76.8785 16.4029 76.3611 15.6376 75.6928 14.9908C75.0461 14.3225 74.2808 13.8051 73.3969 13.4387C72.5346 13.0506 71.6076 12.8566 70.616 12.8566C69.6243 12.8566 68.6865 13.0506 67.8027 13.4387C66.9403 13.8051 66.175 14.3225 65.5067 14.9908C64.86 15.6376 64.3426 16.4029 63.9546 17.2867C63.5881 18.1491 63.4048 19.0868 63.4048 20.1C63.4048 21.0917 63.5881 22.0295 63.9546 22.9133C64.3426 23.7972 64.86 24.5733 65.5067 25.2416C66.175 25.8883 66.9403 26.4057 67.8027 26.7938C68.6865 27.1603 69.6243 27.3435 70.616 27.3435Z" fill="black"/>
<circle cx="91.9581" cy="27.2839" r="4.04211" fill="#D48146"/>
</svg>
