<svg width="32" height="32" viewBox="0 0 32 32" fill="none" xmlns="http://www.w3.org/2000/svg">
<rect x="0.4" y="0.4" width="31.2" height="31.2" rx="7.6" fill="#5BCBFF" stroke="#2CBCFF" stroke-width="0.8"/>
<mask id="mask0_6417_31014" style="mask-type:alpha" maskUnits="userSpaceOnUse" x="0" y="0" width="32" height="32">
<rect x="0.4" y="0.4" width="31.2" height="31.2" rx="7.6" fill="#5BCBFF" stroke="#2CBCFF" stroke-width="0.8"/>
</mask>
<g mask="url(#mask0_6417_31014)">
<path d="M25.4375 32H6.5625C2.94394 32 0 29.0561 0 25.4375V6.5625C0 2.94394 2.94394 0 6.5625 0H25.4375C29.0561 0 32 2.94394 32 6.5625V25.4375C32 29.0561 29.0561 32 25.4375 32Z" fill="#F2F2F2"/>
<path d="M25.4375 0H8.125V9.25L30.4018 29.725C31.3971 28.5741 32 27.0749 32 25.4375V6.5625C32 2.94394 29.0561 0 25.4375 0Z" fill="#66CC70"/>
<path d="M25.4375 0H16V16.4881L30.4018 29.725C31.3971 28.5741 32 27.0749 32 25.4375V6.5625C32 2.94394 29.0561 0 25.4375 0Z" fill="#66CC70"/>
<path d="M0 6.5625V25.4375C0 29.0561 2.94394 32 6.5625 32H8.4375V3.5625H0.726937C0.262562 4.46219 0 5.48219 0 6.5625Z" fill="#F9C0C0"/>
<path d="M4.36031 0.380859C2.51175 1.04192 1.04387 2.5098 0.382812 4.35836L27.6431 31.6186C29.4916 30.9575 30.9594 29.4897 31.6206 27.6411L4.36031 0.380859Z" fill="#FFDC40"/>
<path d="M16 12.0225V19.9774L27.6414 31.6188C29.4899 30.9577 30.9578 29.4898 31.6189 27.6413L16 12.0225Z" fill="#FFDC40"/>
<path d="M21.9375 0C21.9375 5.55737 26.4426 10.0625 32 10.0625V14.75C23.8538 14.75 17.25 8.14619 17.25 0" fill="#F2F2F2"/>
<path d="M6.5625 0C6.24419 0 5.93131 0.02325 5.625 0.06725V31.9328C5.93131 31.9768 6.24419 32 6.5625 32H11.25V0H6.5625Z" fill="white"/>
<path d="M9.375 0H7.5V15.375H9.375V0Z" fill="#00AAF0"/>
<path d="M8.4375 24.4375C5.85281 24.4375 3.75 22.3347 3.75 19.75C3.75 17.1653 5.85281 15.0625 8.4375 15.0625C11.0222 15.0625 13.125 17.1653 13.125 19.75C13.125 22.3347 11.0222 24.4375 8.4375 24.4375Z" fill="#00C3FF"/>
<path d="M6.5625 21.625L8.4375 17.1875L10.3125 21.625L8.4375 21L6.5625 21.625Z" fill="white"/>
</g>
<rect x="0.5" y="0.5" width="31" height="31" rx="7.5" stroke="#171717" stroke-opacity="0.2"/>
<rect x="1.5" y="1.5" width="29" height="29" rx="6.5" stroke="white" stroke-opacity="0.1"/>
</svg>
