<svg width="40" height="40" viewBox="0 0 40 40" fill="none" xmlns="http://www.w3.org/2000/svg">
<path d="M11.9 13.7L18.8949 19.1405C19.5449 19.646 20.4551 19.646 21.1051 19.1405L28.1 13.7M13.88 27.2H26.12C27.1281 27.2 27.6321 27.2 28.0172 27.0038C28.3559 26.8312 28.6312 26.5559 28.8038 26.2172C29 25.8321 29 25.3281 29 24.32V15.68C29 14.6719 29 14.1678 28.8038 13.7828C28.6312 13.4441 28.3559 13.1687 28.0172 12.9962C27.6321 12.8 27.1281 12.8 26.12 12.8H13.88C12.8719 12.8 12.3679 12.8 11.9828 12.9962C11.6441 13.1687 11.3688 13.4441 11.1962 13.7828C11 14.1678 11 14.6719 11 15.68V24.32C11 25.3281 11 25.8321 11.1962 26.2172C11.3688 26.5559 11.6441 26.8312 11.9828 27.0038C12.3679 27.2 12.8719 27.2 13.88 27.2Z" stroke="#171717" stroke-width="1.4"/>
</svg>
