<svg width="24" height="24" viewBox="0 0 24 24" fill="none" xmlns="http://www.w3.org/2000/svg">
<g clip-path="url(#clip0_9113_104773)">
<path d="M10.6974 5.89474C10.6974 4.84789 9.84947 4 8.80263 4H4.89474C3.84789 4 3 4.84789 3 5.89474V14.4211C3 15.4679 3.84789 16.3158 4.89474 16.3158H6.19737" stroke="#171717" stroke-width="1.5" stroke-linecap="round" stroke-linejoin="round"/>
<path d="M6.01953 14.1846H7.67743" stroke="#171717" stroke-width="1.5" stroke-linecap="round" stroke-linejoin="round"/>
<path d="M8 8.5C8 7.39543 8.89543 6.5 10 6.5H18C19.1046 6.5 20 7.39543 20 8.5V15.97H8V8.5Z" stroke="#1487FA" stroke-width="1.5" stroke-linecap="round" stroke-linejoin="round"/>
<path d="M6 17C6 16.4477 6.44772 16 7 16H21C21.5523 16 22 16.4477 22 17V17.79C22 18.8946 21.1046 19.79 20 19.79H8C6.89543 19.79 6 18.8946 6 17.79V17Z" stroke="#1487FA" stroke-width="1.5" stroke-linecap="round" stroke-linejoin="round"/>
</g>
<defs>
<clipPath id="clip0_9113_104773">
<rect width="24" height="24" fill="white"/>
</clipPath>
</defs>
</svg>
