<svg width="24" height="24" viewBox="0 0 24 24" fill="none" xmlns="http://www.w3.org/2000/svg">
<path fill-rule="evenodd" clip-rule="evenodd" d="M19.7963 4.3824C18.8778 3.50868 17.4398 3.49603 16.5067 4.35418L10.4822 9.59258C9.13657 10.8292 9.11808 12.9473 10.4423 14.2083C11.7665 15.4692 13.8807 15.3466 15.0512 13.9417L19.987 7.66612C20.7975 6.69317 20.7148 5.25611 19.7963 4.3824Z" stroke="white" stroke-width="1.5" stroke-linecap="round" stroke-linejoin="round"/>
<path fill-rule="evenodd" clip-rule="evenodd" d="M3.51146 20.7944C3.51146 20.7944 4.21393 20.0189 8.13202 20.2505C12.0501 20.483 12.7779 16.4326 10.3017 14.0752C8.48229 12.3423 5.47975 13.0711 4.65565 15.4441L3.0279 20.1328C2.91406 20.4616 3.16314 20.8031 3.51146 20.7944Z" stroke="white" stroke-width="1.5" stroke-linecap="round" stroke-linejoin="round"/>
<path d="M13.5684 10.5508L15.9404 12.809" stroke="white" stroke-width="1.5" stroke-linecap="round" stroke-linejoin="round"/>
<path d="M19.1196 12.8105L20.0974 13.7884C21.3 14.9812 21.3 16.9252 20.0974 18.12L18.3043 19.9122C17.1104 21.106 15.1762 21.106 13.9727 19.9122" stroke="white" stroke-width="1.5" stroke-linecap="round" stroke-linejoin="round"/>
<path d="M5.06264 11.0011L4.28135 10.2198C3.08851 9.02696 3.08851 7.08202 4.28135 5.88918L6.07451 4.09602C7.26833 2.89247 9.21229 2.89247 10.4061 4.09602L11.3966 5.08552" stroke="white" stroke-width="1.5" stroke-linecap="round" stroke-linejoin="round"/>
</svg>
