<svg width="64" height="64" viewBox="0 0 64 64" fill="none" xmlns="http://www.w3.org/2000/svg">
<path d="M31.3124 38.995C39.0694 38.9742 45.665 42.6843 48.0893 50.6704C43.2028 53.7736 37.451 54.9688 31.3124 54.9531C25.1741 54.9688 19.4222 53.7736 14.5356 50.6704C16.9627 42.6755 23.5472 38.9742 31.3124 38.995Z" stroke="black" stroke-width="2" stroke-linecap="square"/>
<path d="M17.5219 36.728C12.0835 36.7134 7.45939 39.3144 5.7597 44.9136C7.61491 46.0918 9.64801 46.8776 11.8057 47.3488" stroke="black" stroke-width="2" stroke-linecap="square"/>
<path d="M45.1981 36.728C50.6365 36.7134 55.2606 39.3144 56.9602 44.9136C55.105 46.0918 53.0718 46.8776 50.9143 47.3488" stroke="black" stroke-width="2" stroke-linecap="square"/>
<path d="M41.8519 19.976C41.8519 26.0121 37.1543 30.9053 31.3598 30.9053C25.5652 30.9053 20.8678 26.0121 20.8678 19.976C20.8678 13.94 25.5652 9.04688 31.3598 9.04688C37.1543 9.04688 41.8519 13.94 41.8519 19.976Z" stroke="black" stroke-width="2" stroke-linecap="square"/>
<path d="M42.8365 16.1349C43.5778 15.8739 44.3719 15.7324 45.1981 15.7324C49.27 15.7324 52.5709 19.1708 52.5709 23.4124C52.5709 27.6539 49.27 31.0923 45.1981 31.0923C43.2192 31.0923 41.4223 30.2803 40.098 28.9584" stroke="black" stroke-width="2" stroke-linecap="square"/>
<path d="M19.2011 15.9325C18.6617 15.8016 18.0995 15.7324 17.5218 15.7324C13.45 15.7324 10.1491 19.1708 10.1491 23.4124C10.1491 27.6539 13.45 31.0923 17.5218 31.0923C19.2965 31.0923 20.9247 30.4392 22.197 29.3512" stroke="black" stroke-width="2" stroke-linecap="square"/>
</svg>
