<svg width="64" height="64" viewBox="0 0 64 64" fill="none" xmlns="http://www.w3.org/2000/svg">
<path d="M35.2395 41.3438L37.1595 43.9619C37.6619 44.647 38.4606 45.0518 39.3099 45.0518H47.1528" stroke="black" stroke-width="2" stroke-linecap="round" stroke-linejoin="round"/>
<path d="M53.2994 42.2333C54.5602 43.6682 54.4189 45.8538 52.9837 47.1144C51.5487 48.3752 49.3634 48.2338 48.1026 46.7989C46.8418 45.364 46.9831 43.1784 48.4181 41.9176C49.8533 40.6568 52.0386 40.7981 53.2994 42.2333Z" stroke="black" stroke-width="2" stroke-linecap="round" stroke-linejoin="round"/>
<path d="M41.6432 33.8488L44.4131 33.6686C45.5133 33.5971 46.4563 32.8555 46.7851 31.803L48.932 24.9323" stroke="black" stroke-width="2" stroke-linecap="round" stroke-linejoin="round"/>
<path d="M49.4451 18.4255C51.2849 17.9112 53.1931 18.9855 53.7075 20.8252C54.2217 22.6649 53.1473 24.5732 51.3078 25.0876C49.4681 25.6019 47.5598 24.5275 47.0454 22.6878C46.531 20.8482 47.6054 18.9398 49.4451 18.4255Z" stroke="black" stroke-width="2" stroke-linecap="round" stroke-linejoin="round"/>
<path d="M36.3494 23.1538L37.2752 21.0829C37.8136 19.879 37.391 18.4624 36.2811 17.7501L29.7395 13.5521" stroke="black" stroke-width="2" stroke-linecap="round" stroke-linejoin="round"/>
<path d="M23.4844 11.4401C23.4947 9.52992 25.0516 7.98976 26.9619 8.00005C28.872 8.01034 30.4123 9.56722 30.4019 11.4774C30.3915 13.3876 28.8347 14.9278 26.9245 14.9175C25.0143 14.9072 23.4741 13.3503 23.4844 11.4401Z" stroke="black" stroke-width="2" stroke-linecap="round" stroke-linejoin="round"/>
<path d="M24.824 25.2664L22.329 24.3079C21.1203 23.8435 19.7526 24.3146 19.0862 25.4249L15.4869 31.4216" stroke="black" stroke-width="2" stroke-linecap="round" stroke-linejoin="round"/>
<path d="M13.3 37.7664C11.3897 37.7664 9.84119 36.2179 9.84119 34.3077C9.84119 32.3976 11.3897 30.8491 13.3 30.8491C15.2102 30.8491 16.7587 32.3976 16.7587 34.3077C16.7587 36.2179 15.2102 37.7664 13.3 37.7664Z" stroke="black" stroke-width="2" stroke-linecap="round" stroke-linejoin="round"/>
<path d="M24.6591 38.4688L23.2889 40.8077C22.8312 41.5891 22.8013 42.5493 23.2096 43.3579L26.0997 49.0803" stroke="black" stroke-width="2" stroke-linecap="round" stroke-linejoin="round"/>
<path d="M29.8837 54.2909C28.9184 55.9392 26.7994 56.4925 25.1511 55.5269C23.5029 54.5616 22.9494 52.4427 23.915 50.7944C24.8805 49.1461 26.9994 48.5928 28.6477 49.5581C30.296 50.5237 30.8493 52.6427 29.8837 54.2909Z" stroke="black" stroke-width="2" stroke-linecap="round" stroke-linejoin="round"/>
<path d="M31.9904 41.7201C37.3799 41.7201 41.7489 37.3511 41.7489 31.9616C41.7489 26.5722 37.3799 22.2031 31.9904 22.2031C26.601 22.2031 22.2319 26.5722 22.2319 31.9616C22.2319 37.3511 26.601 41.7201 31.9904 41.7201Z" stroke="black" stroke-width="2" stroke-linecap="round" stroke-linejoin="round"/>
</svg>
