<svg width="48" height="48" viewBox="0 0 48 48" fill="none" xmlns="http://www.w3.org/2000/svg">
<path d="M18.3996 26.7465C23.3381 26.7465 27.3416 22.5762 27.3416 17.4318C27.3416 12.2875 23.3381 8.11719 18.3996 8.11719C13.461 8.11719 9.45752 12.2875 9.45752 17.4318C9.45752 22.5762 13.461 26.7465 18.3996 26.7465Z" fill="#FED7D7" stroke="#171717" stroke-width="1.5" stroke-linecap="round" stroke-linejoin="round"/>
<path d="M32.0091 27.0048C35.3555 25.5846 37.7142 22.1622 37.7142 18.166C37.7142 13.4227 34.3911 9.48782 30.0375 8.75" stroke="#171717" stroke-width="1.5" stroke-linecap="round" stroke-linejoin="round"/>
<path d="M6.19031 39.8815C5.97944 38.6169 6.06653 37.3063 6.06653 36.0289C6.06653 31.2151 9.81287 27.3125 14.4342 27.3125H22.5822C27.2037 27.3125 30.95 31.2151 30.95 36.0289C30.95 37.3063 31.0371 38.6169 30.8263 39.8815" fill="#FED7D7"/>
<path d="M6.19031 39.8815C5.97944 38.6169 6.06653 37.3063 6.06653 36.0289C6.06653 31.2151 9.81287 27.3125 14.4342 27.3125H22.5822C27.2037 27.3125 30.95 31.2151 30.95 36.0289C30.95 37.3063 31.0371 38.6169 30.8263 39.8815H6.19031Z" stroke="#171717" stroke-width="1.5" stroke-linecap="round" stroke-linejoin="round"/>
<path d="M32.0212 27.0078C36.7546 27.0078 40.5917 31.0048 40.5917 35.9354C40.5917 37.2436 40.681 38.586 40.465 39.8812" stroke="#171717" stroke-width="1.5" stroke-linecap="round" stroke-linejoin="round"/>
</svg>
