<svg width="48" height="48" viewBox="0 0 48 48" fill="none" xmlns="http://www.w3.org/2000/svg">
<path d="M40.8636 18.5156L40.8 29.3432" stroke="#171717" stroke-width="1.5" stroke-linecap="round" stroke-linejoin="round"/>
<path d="M12.9713 24.3906V34.3328C12.9713 36.0452 13.9464 37.6216 15.4653 38.2754C20.7932 40.5658 26.0989 40.595 31.3839 38.289C32.8915 37.6312 33.8573 36.0588 33.8573 34.3562V24.5716" fill="#DDFEBC"/>
<path d="M12.9713 24.3906V34.3328C12.9713 36.0452 13.9464 37.6216 15.4653 38.2754C20.7932 40.5658 26.0989 40.595 31.3839 38.289C32.8915 37.6312 33.8573 36.0588 33.8573 34.3562V24.5716L12.9713 24.3906Z" stroke="#171717" stroke-width="1.5" stroke-linecap="round" stroke-linejoin="round"/>
<path d="M21.5491 28.7387L8.4122 22.0503C5.60249 20.6199 5.60249 16.4496 8.41034 15.0192L20.9589 8.6305C22.6047 7.79178 24.5289 7.79178 26.1748 8.6305L38.7381 15.0251C41.5478 16.4554 41.5478 20.6277 38.7381 22.0579L26.1803 28.4507C24.5289 29.2913 22.5991 29.2913 20.9476 28.4507L12.9705 24.3893" fill="#DDFEBC"/>
<path d="M21.5491 28.7387L8.4122 22.0503C5.60249 20.6199 5.60249 16.4496 8.41034 15.0192L20.9589 8.6305C22.6047 7.79178 24.5289 7.79178 26.1748 8.6305L38.7381 15.0251C41.5478 16.4554 41.5478 20.6277 38.7381 22.0579L26.1803 28.4507C24.5289 29.2913 22.5991 29.2913 20.9476 28.4507L12.9705 24.3893" stroke="#171717" stroke-width="1.5" stroke-linecap="round" stroke-linejoin="round"/>
</svg>
