<svg width="48" height="48" viewBox="0 0 48 48" fill="none" xmlns="http://www.w3.org/2000/svg">
<path d="M15.2305 6H31.4252C37.0855 6 40.6087 10.1624 40.6087 16.0528V31.9472C40.6087 37.8376 37.0855 42 31.4233 42H15.2305C9.57008 42 6.04871 37.8376 6.04871 31.9472V16.0528C6.04871 10.1624 9.5869 6 15.2305 6Z" fill="#DDFEBC" stroke="#171717" stroke-width="1.5" stroke-linecap="round" stroke-linejoin="round"/>
<path d="M15.4219 34.5148C15.4219 31.8294 17.4637 28.4766 23.3203 28.4766C29.1917 28.4766 31.2336 31.7982 31.2336 34.4836" stroke="#171717" stroke-width="2" stroke-linecap="round" stroke-linejoin="round"/>
<path fill-rule="evenodd" clip-rule="evenodd" d="M28.3728 18.7423C28.3728 21.6456 26.1124 24.0002 23.3251 24.0002C20.5378 24.0002 18.2775 21.6456 18.2775 18.7423C18.2775 15.837 20.5378 13.4844 23.3251 13.4844C26.1124 13.4844 28.3728 15.837 28.3728 18.7423Z" stroke="#171717" stroke-width="2" stroke-linecap="round" stroke-linejoin="round"/>
</svg>
