<svg width="48" height="48" viewBox="0 0 48 48" fill="none" xmlns="http://www.w3.org/2000/svg">
<path fill-rule="evenodd" clip-rule="evenodd" d="M38.2274 7.03754C36.2776 5.4788 33.4558 5.70064 31.7706 7.53962L20.8458 18.8381C18.4172 21.4944 18.7402 25.651 21.5522 27.8986C24.3642 30.1462 28.4896 29.545 30.5446 26.591L39.1596 13.4457C40.584 11.3966 40.1774 8.59434 38.2274 7.03754Z" fill="#FED7D7" stroke="#171717" stroke-width="1.5" stroke-linecap="round" stroke-linejoin="round"/>
<path d="M27.0624 20.1953L32.0988 24.2215" stroke="#171717" stroke-width="1.5" stroke-linecap="round" stroke-linejoin="round"/>
<path fill-rule="evenodd" clip-rule="evenodd" d="M9.08318 41.9948C9.08318 41.9948 10.3286 40.3542 18.0523 40.1422C25.776 39.932 26.5154 31.864 21.2592 27.6626C17.3945 24.5722 11.6305 26.5104 10.4181 31.3074L8.0226 40.7786C7.85526 41.444 8.40208 42.0706 9.08318 41.9948Z" fill="#FED7D7" stroke="#171717" stroke-width="1.5" stroke-linecap="round" stroke-linejoin="round"/>
</svg>
