<svg width="48" height="48" viewBox="0 0 48 48" fill="none" xmlns="http://www.w3.org/2000/svg">
<path d="M6 25H16" stroke="#171717" stroke-width="2" stroke-linecap="round" stroke-linejoin="round"/>
<path d="M16.1427 34.3631C13.7685 33.5571 11.7063 32.0277 10.2458 29.9896C9.17762 28.499 8.47057 26.7909 8.16782 24.9999L14.9998 24.9995C15.1741 25.5017 15.1646 25.8032 15.4779 26.2404C16.155 27.1853 17.111 27.8943 18.2117 28.268C19.3124 28.6416 20.5026 28.6611 21.6149 28.3237C22.7273 27.9862 23.706 27.3088 24.4136 26.3866C25.1213 25.4644 25.5223 24.3437 25.5603 23.1819C25.5983 22.0201 25.2715 20.8756 24.6257 19.9091C23.9799 18.9426 23.0476 18.2027 21.9597 17.7932C20.8717 17.3837 19.6829 17.3253 18.5601 17.6262L24.227 11.769C26.5736 12.6522 28.5846 14.2483 29.9776 16.3331C31.3706 18.4178 32.0756 20.8866 31.9936 23.3925C31.9115 25.8985 31.0466 28.3159 29.5202 30.3051C27.9939 32.2942 25.8828 33.7554 23.4834 34.4832C21.084 35.211 18.517 35.169 16.1427 34.3631Z" fill="#FFBA01" stroke="#171717" stroke-width="1.5" stroke-linecap="round" stroke-linejoin="round"/>
<path fill-rule="evenodd" clip-rule="evenodd" d="M29.9316 12.0686L32.5856 9.41463C33.3676 8.63263 33.3676 7.36663 32.5856 6.58662L31.4136 5.41462C30.6316 4.63262 29.3656 4.63262 28.5856 5.41462L25.9336 8.06663" fill="#FFBA01"/>
<path d="M29.9316 12.0686L32.5856 9.41463C33.3676 8.63263 33.3676 7.36663 32.5856 6.58662L31.4136 5.41462C30.6316 4.63262 29.3656 4.63262 28.5856 5.41462L25.9336 8.06663" stroke="#171717" stroke-width="1.5" stroke-linecap="round" stroke-linejoin="round"/>
<path fill-rule="evenodd" clip-rule="evenodd" d="M16.706 15.2941L23.584 8.41609C24.366 7.63409 25.632 7.63409 26.412 8.41609L29.584 11.5881C30.366 12.3701 30.366 13.6361 29.584 14.4161L22.654 21.3461" fill="#FFBA01"/>
<path d="M16.706 15.2941L23.584 8.41609C24.366 7.63409 25.632 7.63409 26.412 8.41609L29.584 11.5881C30.366 12.3701 30.366 13.6361 29.584 14.4161L22.654 21.3461" stroke="#171717" stroke-width="1.5" stroke-linecap="round" stroke-linejoin="round"/>
<path d="M6 36H32" stroke="#171717" stroke-width="1.5" stroke-linecap="round" stroke-linejoin="round"/>
<path fill-rule="evenodd" clip-rule="evenodd" d="M13.8547 17.6625L14.7547 16.2185C15.4347 15.1265 16.9567 14.9525 17.8667 15.8625L22.0867 20.0825C23.0627 21.0585 22.7807 22.7065 21.5347 23.3005L19.9467 24.0585C19.1827 24.4245 18.2707 24.2665 17.6707 23.6685L14.1367 20.1345C13.4787 19.4765 13.3627 18.4525 13.8547 17.6625Z" fill="#FFBA01" stroke="#171717" stroke-width="1.5" stroke-linecap="round" stroke-linejoin="round"/>
</svg>
