<svg width="16" height="16" viewBox="0 0 16 16" fill="none" xmlns="http://www.w3.org/2000/svg">
<path fill-rule="evenodd" clip-rule="evenodd" d="M6.99469 8.87037C6.99523 8.8579 6.99443 8.84544 6.99269 8.8331C6.97423 8.70297 6.96763 8.5697 6.93009 8.44497C6.78943 7.9743 6.49876 7.6363 6.00409 7.5363C5.52809 7.44097 5.14209 7.62297 4.85676 8.00897C4.47009 8.5303 4.50743 9.30697 4.93476 9.79564C5.39409 10.3203 6.14076 10.3343 6.61609 9.82297C6.86449 9.55557 6.97823 9.23404 6.99469 8.87037ZM11.4256 8.85917C11.426 8.84797 11.4253 8.8367 11.4238 8.82557C11.4089 8.71284 11.4026 8.5969 11.3734 8.48764C11.2481 8.02097 10.9768 7.67764 10.4961 7.55097C10.0714 7.43897 9.69876 7.56097 9.39676 7.87764C8.90009 8.3983 8.89743 9.2883 9.38543 9.8163C9.86543 10.3343 10.6221 10.3243 11.0801 9.79031C11.3091 9.52324 11.4128 9.2091 11.4256 8.85917ZM11.399 11.857C11.5158 11.801 11.5604 11.6369 11.4552 11.5614C11.378 11.506 11.3161 11.5273 11.1714 11.589C9.05943 12.4876 6.94609 12.4783 4.83276 11.595C4.68068 11.5314 4.62186 11.5062 4.54757 11.5535C4.43539 11.625 4.47872 11.7982 4.59836 11.8564C4.82579 11.967 5.05348 12.0777 5.29225 12.1937C5.39976 12.2459 5.43789 12.3801 5.37393 12.481C5.18417 12.7806 4.99675 13.077 4.80343 13.369C4.78276 13.3996 4.69409 13.4096 4.64809 13.3956C3.50476 13.035 2.44743 12.5023 1.48009 11.7936C1.43076 11.7576 1.38809 11.6823 1.38276 11.621C1.16343 9.2003 1.67543 6.94231 2.90343 4.84497C3.37209 4.0443 3.37076 4.0303 4.36943 3.71297C4.89476 3.5463 5.43609 3.43163 5.96876 3.28697C6.08609 3.25563 6.14476 3.2903 6.19143 3.3963C6.25009 3.52763 6.33743 3.64763 6.38276 3.78297C6.43676 3.9443 6.51943 3.9823 6.68676 3.9583C7.60343 3.8263 8.52076 3.8463 9.43676 3.96697C9.48636 3.97405 9.53396 3.94418 9.5563 3.89933C9.64223 3.72713 9.73043 3.55575 9.81143 3.3803C9.85343 3.2883 9.90543 3.26297 10.0074 3.2823C10.8668 3.44497 11.6981 3.69497 12.4948 4.0563C12.5761 4.09363 12.6574 4.16097 12.7068 4.23497C13.6488 5.64163 14.2841 7.17097 14.5414 8.84897C14.6828 9.7683 14.6994 10.6923 14.6161 11.6176C14.6101 11.6836 14.5594 11.765 14.5041 11.8043C13.5441 12.501 12.5001 13.0343 11.3661 13.3876C11.3108 13.405 11.2061 13.395 11.1821 13.359C10.99 13.0716 10.8064 12.7783 10.6188 12.4794C10.5553 12.3782 10.5938 12.2442 10.7015 12.1924C10.9392 12.078 11.1676 11.9682 11.399 11.857Z" fill="#171717"/>
</svg>
