<svg width="20" height="20" viewBox="0 0 20 20" fill="none" xmlns="http://www.w3.org/2000/svg">
<g clip-path="url(#clip0_11976_85016)">
<path d="M0 4C0 1.79086 1.79086 0 4 0H16C18.2091 0 20 1.79086 20 4V16C20 18.2091 18.2091 20 16 20H4C1.79086 20 0 18.2091 0 16V4Z" fill="white"/>
<path d="M11.4473 7.9926V10.2583H14.2493L13.8056 13.3104H11.4473V20.3423C10.9744 20.4078 10.4907 20.4421 9.99964 20.4421C9.43282 20.4421 8.87621 20.3969 8.33417 20.3095V13.3104H5.75V10.2583H8.33417V7.48611C8.33417 5.76622 9.72789 4.37137 11.448 4.37137V4.37283C11.4531 4.37283 11.4575 4.37137 11.4626 4.37137H14.25V7.01096H12.4286C11.8873 7.01096 11.448 7.4504 11.448 7.99187L11.4473 7.9926Z" fill="#1487FA"/>
</g>
<defs>
<clipPath id="clip0_11976_85016">
<rect width="20" height="20" fill="white"/>
</clipPath>
</defs>
</svg>
