<svg width="20" height="20" viewBox="0 0 20 20" fill="none" xmlns="http://www.w3.org/2000/svg">
<g clip-path="url(#clip0_11976_85011)">
<path d="M0 4C0 1.79086 1.79086 0 4 0H16C18.2091 0 20 1.79086 20 4V16C20 18.2091 18.2091 20 16 20H4C1.79086 20 0 18.2091 0 16V4Z" fill="white"/>
<path d="M2 16.0793C3.19028 18.1346 5.07049 19.7163 7.31125 20.4852C7.80046 20.5774 7.97873 20.2662 7.97873 19.9989C7.97873 19.8883 7.97693 19.6928 7.97452 19.4311C7.97172 19.1281 7.9681 18.7364 7.96553 18.2852C5.24575 18.894 4.6719 16.9339 4.6719 16.9339C4.22711 15.7701 3.58604 15.4602 3.58604 15.4602C2.69825 14.8347 3.65326 14.847 3.65326 14.847C4.63469 14.9188 5.15091 15.8858 5.15091 15.8858C6.02309 17.4258 7.4397 16.9809 7.99674 16.7236C8.08558 16.0721 8.33769 15.6278 8.61741 15.376C6.44627 15.1217 4.16348 14.2568 4.16348 10.3949C4.16348 9.29485 4.54465 8.39526 5.17012 7.69056C5.06928 7.43566 4.73373 6.41109 5.26556 5.02335C5.26556 5.02335 6.08672 4.75236 7.95472 6.05658C8.73446 5.83323 9.57122 5.72125 10.4026 5.71753C11.2327 5.72125 12.0695 5.83323 12.8504 6.05658C14.7172 4.75236 15.5366 5.02335 15.5366 5.02335C16.0702 6.41109 15.7347 7.43566 15.6338 7.69056C16.2605 8.39526 16.6393 9.29485 16.6393 10.3949C16.6393 14.2667 14.3529 15.1187 12.1745 15.368C12.5257 15.6792 12.8384 16.2942 12.8384 17.2346C12.8384 18.1354 12.8331 18.9199 12.8295 19.4397C12.8277 19.6971 12.8264 19.8895 12.8264 19.9989C12.8264 20.2687 13.0023 20.5824 13.4987 20.484C15.2838 19.8699 16.8398 18.7402 18 17.2662C16.2073 19.5441 13.4697 21 10.4023 21C6.83071 21 3.7064 19.0263 2 16.0793Z" fill="#1487FA"/>
</g>
<defs>
<clipPath id="clip0_11976_85011">
<rect width="20" height="20" fill="white"/>
</clipPath>
</defs>
</svg>
