<svg width="20" height="20" viewBox="0 0 20 20" fill="none" xmlns="http://www.w3.org/2000/svg">
<rect width="20" height="20" rx="4" fill="white"/>
<path d="M4.8857 6.64774C4.62811 6.40857 4.5 6.11252 4.5 5.76027C4.5 5.40803 4.62879 5.09896 4.8857 4.8591C5.1433 4.61993 5.4749 4.5 5.88116 4.5C6.28743 4.5 6.60601 4.61993 6.86292 4.8591C7.12052 5.09827 7.24862 5.39912 7.24862 5.76027C7.24862 6.12143 7.11983 6.40857 6.86292 6.64774C6.60532 6.88692 6.27852 7.00684 5.88116 7.00684C5.4838 7.00684 5.1433 6.88692 4.8857 6.64774ZM7.03214 8.01972V15.3525H4.7158V8.01972H7.03214Z" fill="#1487FA"/>
<path d="M14.743 8.74409C15.2479 9.29233 15.5 10.0448 15.5 11.0029V15.223H13.3002V11.3003C13.3002 10.8171 13.1748 10.4416 12.9247 10.1743C12.6747 9.90705 12.3376 9.77273 11.9156 9.77273C11.4936 9.77273 11.1565 9.90637 10.9064 10.1743C10.6564 10.4416 10.531 10.8171 10.531 11.3003V15.223H8.31812V7.99916H10.531V8.95722C10.755 8.63787 11.0572 8.38567 11.4367 8.19996C11.8163 8.01424 12.2431 7.92172 12.7178 7.92172C13.5633 7.92172 14.2388 8.19584 14.743 8.74409Z" fill="#1487FA"/>
</svg>
