<svg width="12" height="12" viewBox="0 0 12 12" fill="none" xmlns="http://www.w3.org/2000/svg">
<g clip-path="url(#clip0_11207_78910)">
<path d="M6 8.54004V10.5002" stroke="white" stroke-width="0.75" stroke-linecap="round" stroke-linejoin="round"/>
<path d="M1.5 10.5V9.76425C1.5 9.41749 1.62014 9.08143 1.83999 8.81327C2.05983 8.5451 2.3658 8.36139 2.70583 8.29338L4.12883 8.00878C4.24644 7.98526 4.36858 8.00942 4.46839 8.07595C4.92196 8.37834 5.45489 8.53969 6.00002 8.53969C6.54515 8.53969 7.07808 8.37834 7.53165 8.07595C7.63145 8.00942 7.75359 7.98526 7.87121 8.00878L9.29421 8.29338C9.63423 8.36139 9.94019 8.54511 10.16 8.81328C10.3799 9.08144 10.5 9.41749 10.5 9.76425V10.5" stroke="white" stroke-width="0.75" stroke-linecap="round" stroke-linejoin="round"/>
<path d="M8 3.69922V5.00005C8 5.53048 7.78929 6.03919 7.41421 6.41426C7.03914 6.78934 6.53043 7.00005 6 7.00005C5.46957 7.00005 4.96086 6.78934 4.58579 6.41426C4.21071 6.03919 4 5.53048 4 5.00005V3.69922" stroke="white" stroke-width="0.75" stroke-linecap="round" stroke-linejoin="round"/>
<path d="M7.05078 6.70312L7.41282 8.15136" stroke="white" stroke-width="0.75" stroke-linecap="round" stroke-linejoin="round"/>
<path d="M4.95187 6.70312L4.58984 8.1513" stroke="white" stroke-width="0.75" stroke-linecap="round" stroke-linejoin="round"/>
<path d="M3.04843 3.22809L5.27569 4.3307C5.5009 4.44207 5.74876 4.5 6 4.5C6.25124 4.5 6.49909 4.44207 6.7243 4.3307L8.95157 3.22809C9.04108 3.18433 9.11651 3.11631 9.16927 3.03179C9.22203 2.94727 9.25 2.84964 9.25 2.75C9.25 2.65036 9.22203 2.55273 9.16927 2.46821C9.11651 2.38368 9.04108 2.31567 8.95157 2.27191L6.7243 1.16929C6.49909 1.05793 6.25124 1 6 1C5.74876 1 5.5009 1.05793 5.27569 1.16929L3.04843 2.27191C2.95892 2.31567 2.88349 2.38368 2.83073 2.46821C2.77797 2.55273 2.75 2.65036 2.75 2.75C2.75 2.84964 2.77797 2.94727 2.83073 3.03179C2.88349 3.11631 2.95892 3.18433 3.04843 3.22809Z" stroke="white" stroke-width="0.75" stroke-linecap="round" stroke-linejoin="round"/>
<path d="M9.25 2.76758V4.06758" stroke="white" stroke-width="0.75" stroke-linecap="round" stroke-linejoin="round"/>
</g>
<defs>
<clipPath id="clip0_11207_78910">
<rect width="12" height="12" fill="white"/>
</clipPath>
</defs>
</svg>
