<svg width="20" height="20" viewBox="0 0 20 20" fill="none" xmlns="http://www.w3.org/2000/svg">
<path d="M0 4C0 1.79086 1.79086 0 4 0H16C18.2091 0 20 1.79086 20 4V16C20 18.2091 18.2091 20 16 20H4C1.79086 20 0 18.2091 0 16V4Z" fill="white"/>
<path d="M5.37695 11.989C5.37694 12.4395 5.01201 12.8044 4.56152 12.8045C4.11098 12.8045 3.7461 12.4396 3.74609 11.989V11.8533H4.42578V7.23026H5.37695V11.989ZM7.82422 11.5808C7.89213 11.6488 8.02823 11.7174 8.16406 11.7176H9.45605L8.91211 12.6687H7.21289L7.82422 11.5808ZM12.6514 8.58963H11.9717V11.7176H12.9912L12.9229 12.6687H9.45605L9.93164 11.7176H10.9521V8.58963H10.3398V7.5701H12.6514V8.58963ZM15.0303 7.5701H15.7109C16.1612 7.57032 16.5261 7.93531 16.5264 8.38553V9.47342H17.6533C17.7065 9.47342 17.75 9.51695 17.75 9.5701V11.6492C17.75 12.2123 17.2935 12.6686 16.7305 12.6687H16.6621C16.1367 12.6686 15.7112 12.2429 15.7109 11.7176H16.7305V10.7654C16.7305 10.6152 16.6082 10.493 16.458 10.493H15.0986C15.0611 10.493 15.0303 10.5238 15.0303 10.5613V12.6687H14.0107V10.5613C14.0107 10.5239 13.9807 10.4932 13.9434 10.493H12.9912V9.47342H14.0107V8.58963H13.3994V7.5701H14.0107V7.23026H15.0303V7.5701ZM3.60938 8.58963C3.60938 9.63195 3.47344 11.8252 2.92969 12.2605L2.25 11.1053C2.3633 10.924 2.60382 10.1668 2.6582 8.58963H3.60938ZM7.14453 10.3572C7.14453 10.7379 7.28064 11.0146 7.34863 11.1053L6.7373 12.2605C6.24783 11.9342 6.0793 9.67735 6.05664 8.58963H7.00879L7.14453 10.3572ZM8.91016 8.65604C8.87965 8.71983 8.92636 8.79373 8.99707 8.79373C9.02911 8.79364 9.05937 8.77743 9.07715 8.75076L9.18457 8.58963H10.1357L9.29199 10.157C9.24327 10.2476 9.30925 10.3572 9.41211 10.3572H10L9.45605 11.3094H8.36035C8.05435 11.3093 7.85784 10.9842 7.99902 10.7127L8.57227 9.60916H8.06836C7.76718 9.60916 7.56959 9.29413 7.70117 9.02322L8.57227 7.23026H9.5918L8.91016 8.65604ZM15.0986 8.58963C15.0611 8.58966 15.0303 8.62046 15.0303 8.65799V9.40604C15.0305 9.44341 15.0612 9.47339 15.0986 9.47342H15.5068C15.5442 9.47328 15.574 9.44334 15.5742 9.40604V8.86209C15.5742 8.71194 15.4529 8.58969 15.3027 8.58963H15.0986ZM17.2744 7.50174C17.5371 7.50188 17.75 7.71557 17.75 7.9783C17.7499 8.24093 17.537 8.45375 17.2744 8.45389H16.7979V7.9783C16.7979 7.71548 17.0116 7.50174 17.2744 7.50174Z" fill="#1487FA"/>
</svg>
