<svg width="20" height="20" viewBox="0 0 20 20" fill="none" xmlns="http://www.w3.org/2000/svg">
<path d="M0 4C0 1.79086 1.79086 0 4 0H16C18.2091 0 20 1.79086 20 4V16C20 18.2091 18.2091 20 16 20H4C1.79086 20 0 18.2091 0 16V4Z" fill="white"/>
<g clip-path="url(#clip0_11976_85014)">
<path d="M14.6625 8.654C14.2835 8.654 13.95 8.8135 13.7045 9.062C12.802 8.428 11.585 8.02 10.2365 7.9765L10.937 4.7735L13.1675 5.2815C13.1675 5.8355 13.6125 6.288 14.1585 6.288C14.715 6.288 15.1625 5.8235 15.1625 5.269C15.1625 4.7145 14.718 4.25 14.159 4.25C13.7695 4.25 13.4335 4.4885 13.266 4.8145L10.8025 4.2605C10.6785 4.227 10.557 4.317 10.524 4.443L9.75498 7.974C8.41698 8.0305 7.21298 8.438 6.30748 9.0725C6.06198 8.8135 5.71548 8.654 5.33648 8.654C3.93048 8.654 3.46998 10.5685 4.75748 11.223C4.71198 11.4255 4.69148 11.6415 4.69148 11.857C4.69148 14.0075 7.07898 15.75 10.0105 15.75C12.9545 15.75 15.342 14.0075 15.342 11.857C15.342 11.6415 15.3195 11.4155 15.264 11.2125C16.5255 10.5555 16.061 8.655 14.6625 8.654ZM6.80048 11.359C6.80048 10.7945 7.24548 10.34 7.80448 10.34C8.35048 10.34 8.79598 10.7915 8.79598 11.359C8.79598 11.9135 8.35098 12.3655 7.80448 12.3655C7.24798 12.368 6.80048 11.9135 6.80048 11.359ZM12.22 13.758C11.2995 14.692 8.70198 14.692 7.78098 13.758C7.67948 13.668 7.67948 13.509 7.78098 13.4065C7.86948 13.3165 8.02648 13.3165 8.11498 13.4065C8.81798 14.138 11.15 14.1505 11.8835 13.4065C11.972 13.3165 12.129 13.3165 12.2175 13.4065C12.321 13.5095 12.321 13.6685 12.22 13.758ZM12.1995 12.3675C11.6535 12.3675 11.2085 11.916 11.2085 11.362C11.2085 10.7975 11.6535 10.343 12.1995 10.343C12.756 10.343 13.2035 10.7945 13.2035 11.362C13.201 11.9135 12.756 12.3675 12.1995 12.3675Z" fill="#1487FA"/>
</g>
<defs>
<clipPath id="clip0_11976_85014">
<rect width="12" height="12" fill="white" transform="translate(4 4)"/>
</clipPath>
</defs>
</svg>
