<svg width="20" height="20" viewBox="0 0 20 20" fill="none" xmlns="http://www.w3.org/2000/svg">
<path d="M0 4C0 1.79086 1.79086 0 4 0H16C18.2091 0 20 1.79086 20 4V16C20 18.2091 18.2091 20 16 20H4C1.79086 20 0 18.2091 0 16V4Z" fill="white"/>
<path d="M5.02405 5.5L8.88491 10.6634L5 14.8616H5.87459L9.27616 11.1862L12.0243 14.8616H15L10.9221 9.40777L14.5384 5.5H13.6638L10.5314 8.88497L8.00035 5.5H5.02463H5.02405ZM6.30983 6.14425H7.67656L13.713 14.2174H12.3463L6.30983 6.14425Z" fill="#1487FA"/>
</svg>
