<svg width="40" height="40" viewBox="0 0 40 40" fill="none" xmlns="http://www.w3.org/2000/svg">
<rect width="40" height="40" rx="12" fill="#0057FF"/>
<g clip-path="url(#clip0_7698_25277)">
<path fill-rule="evenodd" clip-rule="evenodd" d="M15.5378 12.081C16.1863 12.0689 16.8338 12.1354 17.4663 12.279C17.9989 12.3952 18.5045 12.6116 18.9563 12.9165C19.3736 13.2198 19.7037 13.6275 19.9136 14.0986C20.1549 14.678 20.2713 15.3018 20.2552 15.9292C20.2826 16.6181 20.1066 17.2998 19.7493 17.8894C19.3734 18.4463 18.8537 18.891 18.2455 19.1764C19.0709 19.399 19.7898 19.9087 20.273 20.6139C20.7369 21.3612 20.97 22.2287 20.9433 23.1078C20.9586 23.8087 20.8136 24.5039 20.5195 25.1403C20.2477 25.6955 19.8496 26.1793 19.3572 26.553C18.8503 26.9227 18.2799 27.1962 17.6742 27.3599C17.0462 27.5336 16.3973 27.6209 15.7457 27.6193H8.59082V12.081H15.5378ZM15.1249 18.3656C15.6344 18.3866 16.136 18.2341 16.5476 17.933C16.7447 17.7575 16.898 17.5383 16.9953 17.293C17.0926 17.0477 17.1312 16.7831 17.1079 16.5202C17.1211 16.2132 17.06 15.9075 16.9297 15.6292C16.8192 15.4076 16.6474 15.2224 16.4347 15.0956C16.2193 14.956 15.9772 14.8626 15.7239 14.8213C15.449 14.7681 15.1693 14.7439 14.8893 14.7491H11.8321V18.3795H15.1249V18.3656ZM15.3031 24.9809C15.6113 24.9851 15.9188 24.9518 16.2189 24.8819C16.4932 24.8213 16.7533 24.7087 16.9852 24.5502C17.2123 24.3918 17.3959 24.1787 17.5188 23.9305C17.6613 23.614 17.7268 23.2683 17.7099 22.9217C17.7408 22.6058 17.6989 22.287 17.5875 21.9898C17.4762 21.6925 17.2982 21.4248 17.0673 21.2069C16.578 20.8465 15.9783 20.668 15.3714 20.702H11.8321V24.9809H15.3031Z" fill="white"/>
<path fill-rule="evenodd" clip-rule="evenodd" d="M25.5597 24.9235C25.8141 25.1593 26.1138 25.3409 26.4406 25.4573C26.7673 25.5737 27.1143 25.6225 27.4605 25.6006C28.0094 25.6145 28.5475 25.4475 28.9921 25.1254C29.3538 24.8903 29.6277 24.5422 29.7712 24.1354H32.3562C32.0808 25.2936 31.4082 26.3186 30.4553 27.0322C29.5413 27.6389 28.4611 27.9462 27.3645 27.9113C26.5819 27.9216 25.8052 27.7745 25.0805 27.4787C24.425 27.2053 23.8371 26.7921 23.3579 26.2679C22.8805 25.7186 22.5137 25.0823 22.2778 24.3938C22.013 23.6243 21.8833 22.8147 21.8947 22.0009C21.8898 21.2008 22.0238 20.4059 22.2907 19.6516C22.6492 18.5904 23.3346 17.6701 24.2487 17.0227C25.1627 16.3753 26.2583 16.034 27.3784 16.048C28.2053 16.0307 29.023 16.2242 29.7544 16.6103C30.4156 16.9728 30.9859 17.4806 31.4226 18.0953C31.8692 18.7404 32.1894 19.4644 32.3661 20.2288C32.5598 21.0497 32.6289 21.8951 32.571 22.7365H24.8716C24.8093 23.5271 25.0559 24.311 25.5597 24.9235ZM28.9376 19.0141C28.7222 18.7986 28.463 18.6317 28.1777 18.5248C27.8923 18.4179 27.5873 18.3734 27.2833 18.3943C26.88 18.3789 26.4796 18.4683 26.121 18.6537C25.8368 18.8102 25.5859 19.0207 25.3825 19.2734C25.2022 19.5104 25.0679 19.779 24.9865 20.0655C24.9131 20.3043 24.8673 20.5508 24.8499 20.8H29.6188C29.5772 20.1503 29.3405 19.5281 28.9396 19.015L28.9376 19.0141Z" fill="white"/>
<path d="M24.2351 13.1185H30.2108V14.6461H24.2351V13.1185Z" fill="white"/>
</g>
<defs>
<clipPath id="clip0_7698_25277">
<rect width="24" height="24" fill="white" transform="translate(8.5 8)"/>
</clipPath>
</defs>
</svg>
