<svg width="40" height="40" viewBox="0 0 40 40" fill="none" xmlns="http://www.w3.org/2000/svg">
<rect width="40" height="40" rx="12" fill="#E74D89"/>
<path d="M20 32C13.3845 32 8 26.6155 8 20C8 13.3845 13.3845 8 20 8C26.6155 8 32 13.3845 32 20C32 26.6155 26.6155 32 20 32ZM20 9.93548C14.449 9.93548 9.93548 14.449 9.93548 20C9.93548 25.551 14.449 30.0645 20 30.0645C25.551 30.0645 30.0645 25.551 30.0645 20C30.0645 14.449 25.551 9.93548 20 9.93548Z" fill="white"/>
<path d="M16.5157 18.819C14.2473 18.819 11.7932 18.4822 9.17638 17.8009C8.65767 17.6654 8.34799 17.139 8.48347 16.6203C8.61896 16.1016 9.14541 15.7919 9.66412 15.9274C17.5919 17.9867 23.797 16.6822 27.6061 12.1609C27.9506 11.7545 28.5622 11.7003 28.9686 12.0448C29.379 12.3893 29.4293 13.0009 29.0848 13.4074C26.0615 16.9958 21.788 18.819 16.5157 18.819Z" fill="white"/>
<path d="M11.6788 28.2101C11.4543 28.2101 11.2336 28.1326 11.0517 27.9778C10.6452 27.6294 10.5988 27.0178 10.9433 26.6114C16.6027 19.9959 23.9265 18.4243 31.0375 22.3068C31.5059 22.5623 31.6801 23.1507 31.4246 23.6191C31.1691 24.0875 30.5807 24.2617 30.1123 24.0062C21.573 19.3494 15.3601 24.4281 12.4143 27.8733C12.2246 28.0939 11.9536 28.2101 11.6788 28.2101Z" fill="white"/>
<path d="M23.1709 31.5361C23.1361 31.5361 23.1012 31.5361 23.0664 31.5322C22.5361 31.4741 22.1528 30.998 22.2109 30.4638C22.9657 23.5425 21.1851 16.5632 16.9232 9.71155C16.6406 9.25865 16.7799 8.66252 17.2328 8.37994C17.6857 8.09736 18.2819 8.23671 18.5644 8.68962C23.0625 15.9167 24.9361 23.3141 24.1348 30.6767C24.0767 31.1722 23.6586 31.5361 23.1709 31.5361Z" fill="white"/>
</svg>
