<svg width="40" height="40" viewBox="0 0 40 40" fill="none" xmlns="http://www.w3.org/2000/svg">
<rect width="40" height="40" rx="12" fill="#D8EAFF"/>
<g clip-path="url(#clip0_7698_25170)">
<path d="M20 27.2712L8 17.5L20 8V27.2712Z" fill="#4285F4"/>
<path d="M20 27.2712L32 17.5L20 8V27.2712Z" fill="#356AC3"/>
<path d="M20 32C23.866 32 27 28.866 27 25C27 21.134 23.866 18 20 18C16.134 18 13 21.134 13 25C13 28.866 16.134 32 20 32Z" fill="#A0C3FF"/>
<path d="M13.6738 22C14.7973 19.635 17.2078 18 20.0002 18C22.7926 18 25.2031 19.635 26.3266 22H13.6738Z" fill="#76A7FA"/>
</g>
<defs>
<clipPath id="clip0_7698_25170">
<rect width="24" height="24" fill="white" transform="translate(8 8)"/>
</clipPath>
</defs>
</svg>
