<svg width="40" height="40" viewBox="0 0 40 40" fill="none" xmlns="http://www.w3.org/2000/svg">
<rect width="40" height="40" rx="12" fill="#FF0302"/>
<g clip-path="url(#clip0_7698_25121)">
<path d="M31.5221 14.1854C31.3864 13.6748 31.119 13.2088 30.7466 12.8341C30.3743 12.4593 29.91 12.1889 29.4003 12.05C27.5239 11.5454 20.0239 11.5454 20.0239 11.5454C20.0239 11.5454 12.5239 11.5454 10.6476 12.05C10.1379 12.1889 9.67358 12.4593 9.30121 12.8341C8.92884 13.2088 8.66143 13.6748 8.52574 14.1854C8.02393 16.07 8.02393 20 8.02393 20C8.02393 20 8.02393 23.93 8.52574 25.8145C8.66143 26.3251 8.92884 26.7911 9.30121 27.1658C9.67358 27.5406 10.1379 27.811 10.6476 27.95C12.5239 28.4545 20.0239 28.4545 20.0239 28.4545C20.0239 28.4545 27.5239 28.4545 29.4003 27.95C29.91 27.811 30.3743 27.5406 30.7466 27.1658C31.119 26.7911 31.3864 26.3251 31.5221 25.8145C32.0239 23.93 32.0239 20 32.0239 20C32.0239 20 32.0239 16.07 31.5221 14.1854Z" fill="white"/>
<path d="M17.5693 23.5687V16.4314L23.8421 20L17.5693 23.5687Z" fill="#FF0302"/>
</g>
<defs>
<clipPath id="clip0_7698_25121">
<rect width="24" height="24" fill="white" transform="translate(8 8)"/>
</clipPath>
</defs>
</svg>
