<svg width="14" height="14" viewBox="0 0 14 14" fill="none" xmlns="http://www.w3.org/2000/svg">
<g clip-path="url(#clip0_2295_470)">
<path d="M8.70763 0.318115C5.9649 0.318115 3.73127 2.54963 3.73127 5.29448C3.73127 6.35296 4.06642 7.33084 4.63066 8.13902L4.10036 8.66933L3.94763 8.5166C3.89672 8.46569 3.8246 8.43599 3.75248 8.43599C3.67824 8.43599 3.60824 8.46569 3.55733 8.5166L0.717025 11.3527C0.458237 11.6093 0.318237 11.953 0.318237 12.3178C0.318237 12.6827 0.460359 13.0242 0.717025 13.283C0.982177 13.5481 1.33218 13.6818 1.68218 13.6818C2.03218 13.6818 2.38218 13.5481 2.64733 13.283L5.48551 10.4448C5.59369 10.3366 5.59369 10.1627 5.48551 10.0545L5.33278 9.90175L5.86309 9.37145C6.66915 9.93569 7.64915 10.2708 8.70763 10.2708C11.4504 10.2708 13.684 8.03933 13.684 5.29448C13.684 2.54963 11.4504 0.318115 8.70763 0.318115ZM2.25703 12.8927C1.94096 13.2087 1.42551 13.2087 1.10945 12.8927C0.954601 12.7378 0.869752 12.5342 0.869752 12.3178C0.869752 12.1014 0.954601 11.8978 1.10733 11.743L3.75036 9.09993L4.89793 10.2475L2.25703 12.8927ZM4.94036 9.50933L4.48854 9.05751L4.9743 8.57175C5.1143 8.73084 5.2649 8.88145 5.42612 9.02357L4.94036 9.50933ZM8.70763 9.71721C6.26824 9.71721 4.2849 7.73387 4.2849 5.29448C4.2849 2.85508 6.26824 0.871752 8.70763 0.871752C11.147 0.871752 13.1304 2.85508 13.1304 5.29448C13.1304 7.73387 11.1449 9.71721 8.70763 9.71721Z" fill="#000000"/>
<path d="M8.70784 1.42334C6.5739 1.42334 4.83875 3.15849 4.83875 5.29243C4.83875 7.42637 6.5739 9.16364 8.70784 9.16364C10.8418 9.16364 12.5769 7.42849 12.5769 5.29455C12.5769 3.16061 10.8418 1.42334 8.70784 1.42334ZM8.70784 8.61001C6.87935 8.61001 5.39026 7.12304 5.39026 5.29243C5.39026 3.46395 6.87723 1.97486 8.70784 1.97486C10.5384 1.97486 12.0254 3.46183 12.0254 5.29243C12.0233 7.12304 10.5363 8.61001 8.70784 8.61001Z" fill="#000000"/>
<path d="M11.2932 4.12372L8.805 3.17766C8.74137 3.15432 8.67137 3.15432 8.60773 3.17766L6.11955 4.12372C6.01561 4.16402 5.94561 4.2616 5.94137 4.3719C5.93713 4.4822 5.99864 4.58614 6.10046 4.63281L6.84713 4.98493V6.00523C6.84713 6.32129 7.04864 6.59917 7.34985 6.69887C7.79955 6.84735 8.25349 6.9216 8.70743 6.9216C9.16137 6.9216 9.61531 6.84735 10.065 6.69887C10.3662 6.59917 10.5677 6.32129 10.5677 6.00523V4.98493L11.3144 4.63281C11.4141 4.58614 11.4777 4.4822 11.4735 4.3719C11.4671 4.2616 11.3971 4.16402 11.2932 4.12372ZM8.70743 3.73341L10.4871 4.41008L10.1838 4.55432H10.1817L8.70743 5.25008L7.23319 4.55432H7.23107L6.92773 4.41008L8.70743 3.73341ZM10.0141 6.00311C10.0141 6.07947 9.96531 6.14735 9.89107 6.17281C9.10622 6.43372 8.30864 6.43372 7.52379 6.17281C7.44955 6.14735 7.40076 6.07947 7.40076 6.00311V5.24372L8.58864 5.80372C8.62682 5.82069 8.66713 5.82917 8.70743 5.82917C8.74773 5.82917 8.78804 5.82069 8.82622 5.80372L10.0141 5.24372V6.00311Z" fill="#000000"/>
</g>
<defs>
<clipPath id="clip0_2295_470">
<rect width="14" height="14" fill="white"/>
</clipPath>
</defs>
</svg> 