<svg width="16" height="16" viewBox="0 0 16 16" fill="none" xmlns="http://www.w3.org/2000/svg">
<g clip-path="url(#clip0_4274_3790)">
<path d="M12.332 2.2976L13.9567 2.30042L12.332 0.675781V2.2976Z" fill="#5F6D94"/>
<path d="M11.8738 3.2116C11.6216 3.21112 11.4173 3.00654 11.4173 2.75429V0.286133H3.66043C3.40794 0.286133 3.20312 0.490832 3.20312 0.743439V8.89361C3.67926 8.69479 4.20131 8.58473 4.74867 8.58473C5.01893 8.58473 5.28307 8.61169 5.53862 8.66278C5.50814 8.60157 5.49048 8.53259 5.49048 8.45937C5.49048 8.20688 5.69518 8.00218 5.94778 8.00218H11.4553C11.708 8.00218 11.9127 8.20688 11.9127 8.45937C11.9127 8.71198 11.708 8.91668 11.4553 8.91668H6.348C7.7723 9.53642 8.77096 10.9572 8.77096 12.607C8.77096 13.2475 8.62017 13.8532 8.35273 14.3913H13.9227C14.1752 14.3913 14.38 14.1866 14.38 13.934V3.21607L11.8738 3.2116ZM9.80917 4.86202C9.80917 5.11462 9.60435 5.31932 9.35186 5.31932H5.94778C5.69518 5.31932 5.49048 5.11462 5.49048 4.86202C5.49048 4.60953 5.69518 4.40471 5.94778 4.40471H9.35186C9.60435 4.40471 9.80917 4.60941 9.80917 4.86202ZM11.4553 7.11806H5.94778C5.69518 7.11806 5.49048 6.91324 5.49048 6.66075C5.49048 6.40815 5.69518 6.20345 5.94778 6.20345H11.4553C11.708 6.20345 11.9127 6.40815 11.9127 6.66075C11.9127 6.91324 11.708 7.11806 11.4553 7.11806Z" fill="#5F6D94"/>
<path d="M7.85598 12.6067C7.85598 10.8931 6.46194 9.49902 4.7483 9.49902C3.03467 9.49902 1.64062 10.8931 1.64062 12.6067C1.64062 14.3203 3.03467 15.7144 4.7483 15.7144C6.46194 15.7144 7.85598 14.3202 7.85598 12.6067ZM5.64255 13.064H5.20561V13.501C5.20561 13.7534 5.00079 13.9583 4.7483 13.9583C4.4957 13.9583 4.291 13.7534 4.291 13.501V13.064H3.85406C3.60145 13.064 3.39675 12.8592 3.39675 12.6067C3.39675 12.3541 3.60145 12.1494 3.85406 12.1494H4.291V11.7125C4.291 11.4598 4.4957 11.2551 4.7483 11.2551C5.00079 11.2551 5.20561 11.4598 5.20561 11.7125V12.1494H5.64255C5.89504 12.1494 6.09986 12.3541 6.09986 12.6067C6.09986 12.8592 5.89504 13.064 5.64255 13.064Z" fill="#5F6D94"/>
</g>
<defs>
<clipPath id="clip0_4274_3790">
<rect width="15.4286" height="15.4286" fill="white" transform="translate(0.285156 0.286133)"/>
</clipPath>
</defs>
</svg>
