<svg width="14" height="14" viewBox="0 0 14 14" fill="none" xmlns="http://www.w3.org/2000/svg">
<g clip-path="url(#clip0_9049_12287)">
<mask id="path-1-outside-1_9049_12287" maskUnits="userSpaceOnUse" x="-0.767578" y="-0.986328" width="15" height="16" fill="black">
<rect fill="white" x="-0.767578" y="-0.986328" width="15" height="16"/>
<path d="M13.7687 8.28029V11.4497C13.7687 12.235 13.1302 12.8739 12.3453 12.8739H11.6545V13.7952C11.6545 13.8694 11.6116 13.9369 11.5443 13.9683C11.5185 13.9804 11.4909 13.9863 11.4635 13.9863C11.4195 13.9863 11.3759 13.9711 11.3409 13.9418L10.0635 12.8738H6.73291C5.94762 12.8738 5.30873 12.2349 5.30873 11.4496V11.3878C5.30873 11.2822 5.39429 11.1967 5.49981 11.1967C5.60533 11.1967 5.69089 11.2823 5.69089 11.3878V11.4496C5.69089 12.0242 6.15836 12.4917 6.73291 12.4917H10.1328C10.1776 12.4917 10.221 12.5074 10.2554 12.5362L11.2723 13.3864V12.6828C11.2723 12.5772 11.3579 12.4917 11.4634 12.4917H12.3453C12.9195 12.4917 13.3866 12.0242 13.3866 11.4497V8.28029C13.3866 7.70571 12.9195 7.23827 12.3453 7.23827H9.1968C9.09128 7.23827 9.00572 7.15272 9.00572 7.0472C9.00572 6.94168 9.09128 6.85612 9.1968 6.85612H12.3453C13.1302 6.85609 13.7687 7.495 13.7687 8.28029ZM8.70557 9.47316V6.30298C8.70557 5.66456 8.27441 5.09988 7.65704 4.92975C7.55524 4.90161 7.45013 4.96147 7.42208 5.06319C7.39405 5.16493 7.4538 5.27012 7.55554 5.29818C8.00767 5.42278 8.32344 5.83595 8.32344 6.30298V9.47316C8.32344 10.0473 7.85597 10.5144 7.28142 10.5144H4.19475C4.15237 10.5144 4.11119 10.5285 4.07769 10.5545L2.74192 11.5898V10.7055C2.74192 10.6 2.65636 10.5144 2.55084 10.5144H1.66898C1.09484 10.5144 0.62773 10.0474 0.62773 9.47319V6.30298C0.62773 5.83603 0.943223 5.42284 1.39491 5.29815C1.49663 5.2701 1.55635 5.16488 1.52827 5.06313C1.50019 4.96139 1.395 4.90172 1.29322 4.92978C0.676375 5.09999 0.245547 5.66467 0.245547 6.30298V9.47316C0.245547 10.258 0.884078 10.8966 1.66895 10.8966H2.35979V11.9796C2.35979 12.0525 2.4013 12.1191 2.46676 12.1512C2.49345 12.1643 2.52221 12.1707 2.55084 12.1707C2.59246 12.1707 2.63378 12.1571 2.66793 12.1306L4.26013 10.8966H7.28139C8.06668 10.8966 8.70557 10.258 8.70557 9.47316ZM2.35982 5.94806C2.08373 5.61939 1.74016 5.21035 1.74016 4.30866C1.74016 2.83019 2.96726 1.62739 4.47557 1.62739C5.98388 1.62739 7.21098 2.83021 7.21098 4.30866C7.21098 5.21035 6.86738 5.61939 6.59129 5.94806C6.38564 6.19289 6.23703 6.36981 6.23703 6.70141C6.23703 6.90156 6.11034 7.07265 5.93223 7.14148V7.60804C5.93223 7.89641 5.68583 8.13102 5.38297 8.13102H5.36208V8.15574C5.36208 8.61686 4.96439 8.99202 4.47554 8.99202C3.98669 8.99202 3.589 8.61686 3.589 8.15574V8.13102H3.56735C3.26493 8.13102 3.01886 7.89641 3.01886 7.60804V7.14148C2.84077 7.07265 2.71406 6.90156 2.71406 6.70141C2.71411 6.36981 2.5655 6.19289 2.35982 5.94806ZM4.97995 8.13099H3.97119V8.15571C3.97119 8.40613 4.19746 8.60981 4.47557 8.60981C4.75368 8.60981 4.97995 8.40613 4.97995 8.15571V8.13099ZM5.5501 7.60802V7.17407H3.40104V7.60802C3.40104 7.68433 3.47722 7.74881 3.56737 7.74881H5.383C5.47356 7.74884 5.5501 7.68436 5.5501 7.60802ZM4.99157 4.36283C4.99157 4.07832 4.76011 3.84686 4.4756 3.84686C4.19109 3.84686 3.95962 4.07832 3.95962 4.36283C3.95962 4.64778 4.19109 4.8796 4.4756 4.8796C4.76011 4.8796 4.99157 4.64778 4.99157 4.36283ZM2.12231 4.30866C2.12231 5.07112 2.39181 5.39197 2.65245 5.70224C2.87066 5.96198 3.09627 6.23057 3.09627 6.70138C3.09627 6.75043 3.14021 6.79189 3.19219 6.79189H4.28452V5.24106C3.88079 5.15315 3.57746 4.79287 3.57746 4.3628C3.57746 3.86758 3.98035 3.46467 4.4756 3.46467C4.97085 3.46467 5.37373 3.86758 5.37373 4.3628C5.37373 4.79287 5.07041 5.15315 4.66668 5.24106V6.79189H5.75898C5.81098 6.79189 5.8549 6.75043 5.8549 6.70138C5.8549 6.23057 6.08051 5.96198 6.29871 5.70224C6.55936 5.39197 6.82888 5.07112 6.82888 4.30866C6.82888 3.04093 5.77322 2.00957 4.47563 2.00957C3.17803 2.00957 2.12231 3.04093 2.12231 4.30866ZM4.47557 1.0882C4.58109 1.0882 4.66665 1.00264 4.66665 0.897121V0.20475C4.66665 0.0992031 4.58109 0.0136719 4.47557 0.0136719C4.37005 0.0136719 4.28449 0.0992305 4.28449 0.20475V0.897121C4.28449 1.00267 4.37005 1.0882 4.47557 1.0882ZM6.06566 1.50276C6.09577 1.52012 6.12861 1.52841 6.16104 1.52841C6.22707 1.52841 6.2913 1.49414 6.32669 1.43284L6.66706 0.843363C6.71984 0.75198 6.68853 0.635113 6.59714 0.58234C6.50576 0.529594 6.38889 0.560875 6.33612 0.652285L5.99575 1.24176C5.94297 1.33314 5.97428 1.45001 6.06566 1.50276ZM7.42159 2.74684C7.45399 2.74684 7.48683 2.73859 7.51691 2.72122L8.08008 2.3963C8.17149 2.34355 8.20282 2.22671 8.15008 2.1353C8.09733 2.04389 7.98046 2.01253 7.88908 2.0653L7.32591 2.39023C7.2345 2.44297 7.20316 2.55981 7.25591 2.65122C7.29129 2.71253 7.35552 2.74684 7.42159 2.74684ZM0.4235 4.44793H1.03154C1.13706 4.44793 1.22262 4.36237 1.22262 4.25685C1.22262 4.1513 1.13706 4.06577 1.03154 4.06577H0.4235C0.31798 4.06577 0.232422 4.15133 0.232422 4.25685C0.232422 4.36237 0.31798 4.44793 0.4235 4.44793ZM7.72852 4.25682C7.72852 4.36237 7.81408 4.4479 7.9196 4.4479H8.52687C8.63239 4.4479 8.71795 4.36234 8.71795 4.25682C8.71795 4.15127 8.63239 4.06574 8.52687 4.06574H7.9196C7.81408 4.06574 7.72852 4.1513 7.72852 4.25682ZM0.870981 2.39624L1.43339 2.72117C1.46349 2.73856 1.49636 2.74684 1.52879 2.74684C1.5948 2.74684 1.659 2.71261 1.69441 2.65133C1.74721 2.55995 1.71593 2.44308 1.62455 2.39028L1.06214 2.06536C0.970785 2.01255 0.853891 2.04378 0.801117 2.13522C0.748316 2.22657 0.779598 2.34344 0.870981 2.39624ZM2.62443 1.43284C2.65984 1.49414 2.72404 1.52841 2.79007 1.52841C2.8225 1.52841 2.85534 1.52015 2.88545 1.50276C2.97683 1.44998 3.00814 1.33312 2.95537 1.24173L2.61499 0.652285C2.56222 0.560902 2.44538 0.529594 2.35397 0.58234C2.26259 0.635113 2.23128 0.75198 2.28405 0.843363L2.62443 1.43284Z"/>
</mask>
<path d="M13.7687 8.28029V11.4497C13.7687 12.235 13.1302 12.8739 12.3453 12.8739H11.6545V13.7952C11.6545 13.8694 11.6116 13.9369 11.5443 13.9683C11.5185 13.9804 11.4909 13.9863 11.4635 13.9863C11.4195 13.9863 11.3759 13.9711 11.3409 13.9418L10.0635 12.8738H6.73291C5.94762 12.8738 5.30873 12.2349 5.30873 11.4496V11.3878C5.30873 11.2822 5.39429 11.1967 5.49981 11.1967C5.60533 11.1967 5.69089 11.2823 5.69089 11.3878V11.4496C5.69089 12.0242 6.15836 12.4917 6.73291 12.4917H10.1328C10.1776 12.4917 10.221 12.5074 10.2554 12.5362L11.2723 13.3864V12.6828C11.2723 12.5772 11.3579 12.4917 11.4634 12.4917H12.3453C12.9195 12.4917 13.3866 12.0242 13.3866 11.4497V8.28029C13.3866 7.70571 12.9195 7.23827 12.3453 7.23827H9.1968C9.09128 7.23827 9.00572 7.15272 9.00572 7.0472C9.00572 6.94168 9.09128 6.85612 9.1968 6.85612H12.3453C13.1302 6.85609 13.7687 7.495 13.7687 8.28029ZM8.70557 9.47316V6.30298C8.70557 5.66456 8.27441 5.09988 7.65704 4.92975C7.55524 4.90161 7.45013 4.96147 7.42208 5.06319C7.39405 5.16493 7.4538 5.27012 7.55554 5.29818C8.00767 5.42278 8.32344 5.83595 8.32344 6.30298V9.47316C8.32344 10.0473 7.85597 10.5144 7.28142 10.5144H4.19475C4.15237 10.5144 4.11119 10.5285 4.07769 10.5545L2.74192 11.5898V10.7055C2.74192 10.6 2.65636 10.5144 2.55084 10.5144H1.66898C1.09484 10.5144 0.62773 10.0474 0.62773 9.47319V6.30298C0.62773 5.83603 0.943223 5.42284 1.39491 5.29815C1.49663 5.2701 1.55635 5.16488 1.52827 5.06313C1.50019 4.96139 1.395 4.90172 1.29322 4.92978C0.676375 5.09999 0.245547 5.66467 0.245547 6.30298V9.47316C0.245547 10.258 0.884078 10.8966 1.66895 10.8966H2.35979V11.9796C2.35979 12.0525 2.4013 12.1191 2.46676 12.1512C2.49345 12.1643 2.52221 12.1707 2.55084 12.1707C2.59246 12.1707 2.63378 12.1571 2.66793 12.1306L4.26013 10.8966H7.28139C8.06668 10.8966 8.70557 10.258 8.70557 9.47316ZM2.35982 5.94806C2.08373 5.61939 1.74016 5.21035 1.74016 4.30866C1.74016 2.83019 2.96726 1.62739 4.47557 1.62739C5.98388 1.62739 7.21098 2.83021 7.21098 4.30866C7.21098 5.21035 6.86738 5.61939 6.59129 5.94806C6.38564 6.19289 6.23703 6.36981 6.23703 6.70141C6.23703 6.90156 6.11034 7.07265 5.93223 7.14148V7.60804C5.93223 7.89641 5.68583 8.13102 5.38297 8.13102H5.36208V8.15574C5.36208 8.61686 4.96439 8.99202 4.47554 8.99202C3.98669 8.99202 3.589 8.61686 3.589 8.15574V8.13102H3.56735C3.26493 8.13102 3.01886 7.89641 3.01886 7.60804V7.14148C2.84077 7.07265 2.71406 6.90156 2.71406 6.70141C2.71411 6.36981 2.5655 6.19289 2.35982 5.94806ZM4.97995 8.13099H3.97119V8.15571C3.97119 8.40613 4.19746 8.60981 4.47557 8.60981C4.75368 8.60981 4.97995 8.40613 4.97995 8.15571V8.13099ZM5.5501 7.60802V7.17407H3.40104V7.60802C3.40104 7.68433 3.47722 7.74881 3.56737 7.74881H5.383C5.47356 7.74884 5.5501 7.68436 5.5501 7.60802ZM4.99157 4.36283C4.99157 4.07832 4.76011 3.84686 4.4756 3.84686C4.19109 3.84686 3.95962 4.07832 3.95962 4.36283C3.95962 4.64778 4.19109 4.8796 4.4756 4.8796C4.76011 4.8796 4.99157 4.64778 4.99157 4.36283ZM2.12231 4.30866C2.12231 5.07112 2.39181 5.39197 2.65245 5.70224C2.87066 5.96198 3.09627 6.23057 3.09627 6.70138C3.09627 6.75043 3.14021 6.79189 3.19219 6.79189H4.28452V5.24106C3.88079 5.15315 3.57746 4.79287 3.57746 4.3628C3.57746 3.86758 3.98035 3.46467 4.4756 3.46467C4.97085 3.46467 5.37373 3.86758 5.37373 4.3628C5.37373 4.79287 5.07041 5.15315 4.66668 5.24106V6.79189H5.75898C5.81098 6.79189 5.8549 6.75043 5.8549 6.70138C5.8549 6.23057 6.08051 5.96198 6.29871 5.70224C6.55936 5.39197 6.82888 5.07112 6.82888 4.30866C6.82888 3.04093 5.77322 2.00957 4.47563 2.00957C3.17803 2.00957 2.12231 3.04093 2.12231 4.30866ZM4.47557 1.0882C4.58109 1.0882 4.66665 1.00264 4.66665 0.897121V0.20475C4.66665 0.0992031 4.58109 0.0136719 4.47557 0.0136719C4.37005 0.0136719 4.28449 0.0992305 4.28449 0.20475V0.897121C4.28449 1.00267 4.37005 1.0882 4.47557 1.0882ZM6.06566 1.50276C6.09577 1.52012 6.12861 1.52841 6.16104 1.52841C6.22707 1.52841 6.2913 1.49414 6.32669 1.43284L6.66706 0.843363C6.71984 0.75198 6.68853 0.635113 6.59714 0.58234C6.50576 0.529594 6.38889 0.560875 6.33612 0.652285L5.99575 1.24176C5.94297 1.33314 5.97428 1.45001 6.06566 1.50276ZM7.42159 2.74684C7.45399 2.74684 7.48683 2.73859 7.51691 2.72122L8.08008 2.3963C8.17149 2.34355 8.20282 2.22671 8.15008 2.1353C8.09733 2.04389 7.98046 2.01253 7.88908 2.0653L7.32591 2.39023C7.2345 2.44297 7.20316 2.55981 7.25591 2.65122C7.29129 2.71253 7.35552 2.74684 7.42159 2.74684ZM0.4235 4.44793H1.03154C1.13706 4.44793 1.22262 4.36237 1.22262 4.25685C1.22262 4.1513 1.13706 4.06577 1.03154 4.06577H0.4235C0.31798 4.06577 0.232422 4.15133 0.232422 4.25685C0.232422 4.36237 0.31798 4.44793 0.4235 4.44793ZM7.72852 4.25682C7.72852 4.36237 7.81408 4.4479 7.9196 4.4479H8.52687C8.63239 4.4479 8.71795 4.36234 8.71795 4.25682C8.71795 4.15127 8.63239 4.06574 8.52687 4.06574H7.9196C7.81408 4.06574 7.72852 4.1513 7.72852 4.25682ZM0.870981 2.39624L1.43339 2.72117C1.46349 2.73856 1.49636 2.74684 1.52879 2.74684C1.5948 2.74684 1.659 2.71261 1.69441 2.65133C1.74721 2.55995 1.71593 2.44308 1.62455 2.39028L1.06214 2.06536C0.970785 2.01255 0.853891 2.04378 0.801117 2.13522C0.748316 2.22657 0.779598 2.34344 0.870981 2.39624ZM2.62443 1.43284C2.65984 1.49414 2.72404 1.52841 2.79007 1.52841C2.8225 1.52841 2.85534 1.52015 2.88545 1.50276C2.97683 1.44998 3.00814 1.33312 2.95537 1.24173L2.61499 0.652285C2.56222 0.560902 2.44538 0.529594 2.35397 0.58234C2.26259 0.635113 2.23128 0.75198 2.28405 0.843363L2.62443 1.43284Z" fill="#CB7C5D"/>
<path d="M13.7687 8.28029V11.4497C13.7687 12.235 13.1302 12.8739 12.3453 12.8739H11.6545V13.7952C11.6545 13.8694 11.6116 13.9369 11.5443 13.9683C11.5185 13.9804 11.4909 13.9863 11.4635 13.9863C11.4195 13.9863 11.3759 13.9711 11.3409 13.9418L10.0635 12.8738H6.73291C5.94762 12.8738 5.30873 12.2349 5.30873 11.4496V11.3878C5.30873 11.2822 5.39429 11.1967 5.49981 11.1967C5.60533 11.1967 5.69089 11.2823 5.69089 11.3878V11.4496C5.69089 12.0242 6.15836 12.4917 6.73291 12.4917H10.1328C10.1776 12.4917 10.221 12.5074 10.2554 12.5362L11.2723 13.3864V12.6828C11.2723 12.5772 11.3579 12.4917 11.4634 12.4917H12.3453C12.9195 12.4917 13.3866 12.0242 13.3866 11.4497V8.28029C13.3866 7.70571 12.9195 7.23827 12.3453 7.23827H9.1968C9.09128 7.23827 9.00572 7.15272 9.00572 7.0472C9.00572 6.94168 9.09128 6.85612 9.1968 6.85612H12.3453C13.1302 6.85609 13.7687 7.495 13.7687 8.28029ZM8.70557 9.47316V6.30298C8.70557 5.66456 8.27441 5.09988 7.65704 4.92975C7.55524 4.90161 7.45013 4.96147 7.42208 5.06319C7.39405 5.16493 7.4538 5.27012 7.55554 5.29818C8.00767 5.42278 8.32344 5.83595 8.32344 6.30298V9.47316C8.32344 10.0473 7.85597 10.5144 7.28142 10.5144H4.19475C4.15237 10.5144 4.11119 10.5285 4.07769 10.5545L2.74192 11.5898V10.7055C2.74192 10.6 2.65636 10.5144 2.55084 10.5144H1.66898C1.09484 10.5144 0.62773 10.0474 0.62773 9.47319V6.30298C0.62773 5.83603 0.943223 5.42284 1.39491 5.29815C1.49663 5.2701 1.55635 5.16488 1.52827 5.06313C1.50019 4.96139 1.395 4.90172 1.29322 4.92978C0.676375 5.09999 0.245547 5.66467 0.245547 6.30298V9.47316C0.245547 10.258 0.884078 10.8966 1.66895 10.8966H2.35979V11.9796C2.35979 12.0525 2.4013 12.1191 2.46676 12.1512C2.49345 12.1643 2.52221 12.1707 2.55084 12.1707C2.59246 12.1707 2.63378 12.1571 2.66793 12.1306L4.26013 10.8966H7.28139C8.06668 10.8966 8.70557 10.258 8.70557 9.47316ZM2.35982 5.94806C2.08373 5.61939 1.74016 5.21035 1.74016 4.30866C1.74016 2.83019 2.96726 1.62739 4.47557 1.62739C5.98388 1.62739 7.21098 2.83021 7.21098 4.30866C7.21098 5.21035 6.86738 5.61939 6.59129 5.94806C6.38564 6.19289 6.23703 6.36981 6.23703 6.70141C6.23703 6.90156 6.11034 7.07265 5.93223 7.14148V7.60804C5.93223 7.89641 5.68583 8.13102 5.38297 8.13102H5.36208V8.15574C5.36208 8.61686 4.96439 8.99202 4.47554 8.99202C3.98669 8.99202 3.589 8.61686 3.589 8.15574V8.13102H3.56735C3.26493 8.13102 3.01886 7.89641 3.01886 7.60804V7.14148C2.84077 7.07265 2.71406 6.90156 2.71406 6.70141C2.71411 6.36981 2.5655 6.19289 2.35982 5.94806ZM4.97995 8.13099H3.97119V8.15571C3.97119 8.40613 4.19746 8.60981 4.47557 8.60981C4.75368 8.60981 4.97995 8.40613 4.97995 8.15571V8.13099ZM5.5501 7.60802V7.17407H3.40104V7.60802C3.40104 7.68433 3.47722 7.74881 3.56737 7.74881H5.383C5.47356 7.74884 5.5501 7.68436 5.5501 7.60802ZM4.99157 4.36283C4.99157 4.07832 4.76011 3.84686 4.4756 3.84686C4.19109 3.84686 3.95962 4.07832 3.95962 4.36283C3.95962 4.64778 4.19109 4.8796 4.4756 4.8796C4.76011 4.8796 4.99157 4.64778 4.99157 4.36283ZM2.12231 4.30866C2.12231 5.07112 2.39181 5.39197 2.65245 5.70224C2.87066 5.96198 3.09627 6.23057 3.09627 6.70138C3.09627 6.75043 3.14021 6.79189 3.19219 6.79189H4.28452V5.24106C3.88079 5.15315 3.57746 4.79287 3.57746 4.3628C3.57746 3.86758 3.98035 3.46467 4.4756 3.46467C4.97085 3.46467 5.37373 3.86758 5.37373 4.3628C5.37373 4.79287 5.07041 5.15315 4.66668 5.24106V6.79189H5.75898C5.81098 6.79189 5.8549 6.75043 5.8549 6.70138C5.8549 6.23057 6.08051 5.96198 6.29871 5.70224C6.55936 5.39197 6.82888 5.07112 6.82888 4.30866C6.82888 3.04093 5.77322 2.00957 4.47563 2.00957C3.17803 2.00957 2.12231 3.04093 2.12231 4.30866ZM4.47557 1.0882C4.58109 1.0882 4.66665 1.00264 4.66665 0.897121V0.20475C4.66665 0.0992031 4.58109 0.0136719 4.47557 0.0136719C4.37005 0.0136719 4.28449 0.0992305 4.28449 0.20475V0.897121C4.28449 1.00267 4.37005 1.0882 4.47557 1.0882ZM6.06566 1.50276C6.09577 1.52012 6.12861 1.52841 6.16104 1.52841C6.22707 1.52841 6.2913 1.49414 6.32669 1.43284L6.66706 0.843363C6.71984 0.75198 6.68853 0.635113 6.59714 0.58234C6.50576 0.529594 6.38889 0.560875 6.33612 0.652285L5.99575 1.24176C5.94297 1.33314 5.97428 1.45001 6.06566 1.50276ZM7.42159 2.74684C7.45399 2.74684 7.48683 2.73859 7.51691 2.72122L8.08008 2.3963C8.17149 2.34355 8.20282 2.22671 8.15008 2.1353C8.09733 2.04389 7.98046 2.01253 7.88908 2.0653L7.32591 2.39023C7.2345 2.44297 7.20316 2.55981 7.25591 2.65122C7.29129 2.71253 7.35552 2.74684 7.42159 2.74684ZM0.4235 4.44793H1.03154C1.13706 4.44793 1.22262 4.36237 1.22262 4.25685C1.22262 4.1513 1.13706 4.06577 1.03154 4.06577H0.4235C0.31798 4.06577 0.232422 4.15133 0.232422 4.25685C0.232422 4.36237 0.31798 4.44793 0.4235 4.44793ZM7.72852 4.25682C7.72852 4.36237 7.81408 4.4479 7.9196 4.4479H8.52687C8.63239 4.4479 8.71795 4.36234 8.71795 4.25682C8.71795 4.15127 8.63239 4.06574 8.52687 4.06574H7.9196C7.81408 4.06574 7.72852 4.1513 7.72852 4.25682ZM0.870981 2.39624L1.43339 2.72117C1.46349 2.73856 1.49636 2.74684 1.52879 2.74684C1.5948 2.74684 1.659 2.71261 1.69441 2.65133C1.74721 2.55995 1.71593 2.44308 1.62455 2.39028L1.06214 2.06536C0.970785 2.01255 0.853891 2.04378 0.801117 2.13522C0.748316 2.22657 0.779598 2.34344 0.870981 2.39624ZM2.62443 1.43284C2.65984 1.49414 2.72404 1.52841 2.79007 1.52841C2.8225 1.52841 2.85534 1.52015 2.88545 1.50276C2.97683 1.44998 3.00814 1.33312 2.95537 1.24173L2.61499 0.652285C2.56222 0.560902 2.44538 0.529594 2.35397 0.58234C2.26259 0.635113 2.23128 0.75198 2.28405 0.843363L2.62443 1.43284Z" stroke="#CB7C5D" stroke-width="0.2" mask="url(#path-1-outside-1_9049_12287)"/>
</g>
<defs>
<clipPath id="clip0_9049_12287">
<rect width="14" height="14" fill="white"/>
</clipPath>
</defs>
</svg>
