<svg width="16" height="16" viewBox="0 0 16 16" fill="none" xmlns="http://www.w3.org/2000/svg">
<g clip-path="url(#clip0_59_2281)">
<path d="M14.3606 1.6394C13.3035 0.582275 11.8978 0 10.4025 0C8.90747 0 7.50183 0.582275 6.4447 1.6394C5.38745 2.69666 4.8053 4.10229 4.8053 5.59778C4.8053 6.93555 5.27161 8.20154 6.12683 9.21069L4.995 10.3423C4.41504 10.0432 3.68311 10.1366 3.19751 10.6223L0.451538 13.3683C0.160278 13.6595 0 14.0468 0 14.4587C0 14.8706 0.160278 15.2578 0.451538 15.5491C0.752197 15.8497 1.14722 16 1.54187 16C1.93689 16 2.33154 15.8497 2.6322 15.5491L5.37817 12.803C5.66943 12.5117 5.82971 12.1245 5.82971 11.7126C5.82971 11.4624 5.77026 11.2211 5.65845 11.0048L6.78967 9.87354C7.79871 10.7292 9.06494 11.1952 10.4025 11.1952C11.8978 11.1952 13.3035 10.6129 14.3606 9.55566C15.4178 8.49841 16 7.09277 16 5.59778C16 4.10229 15.4178 2.69666 14.3606 1.6394ZM8.49622 7.59778C8.49622 7.85657 8.28662 8.06665 8.02747 8.06665C7.7688 8.06665 7.55872 7.85657 7.55872 7.59778V6.09741C7.55872 5.83875 7.7688 5.62866 8.02747 5.62866C8.28662 5.62866 8.49622 5.83862 8.49622 6.09741V7.59778ZM10.0587 7.59778C10.0587 7.85657 9.84912 8.06665 9.58997 8.06665C9.3313 8.06665 9.12122 7.85657 9.12122 7.59778V4.53491C9.12122 4.27612 9.3313 4.06604 9.58997 4.06604C9.84912 4.06604 10.0587 4.27612 10.0587 4.53491V7.59778ZM11.6212 7.59778C11.6212 7.85657 11.4116 8.06665 11.1525 8.06665C10.8938 8.06665 10.6837 7.85657 10.6837 7.59778V5.15991C10.6837 4.90112 10.8938 4.69116 11.1525 4.69116C11.4116 4.69116 11.6212 4.90112 11.6212 5.15991V7.59778ZM13.1837 7.59778C13.1837 7.85657 12.9741 8.06665 12.715 8.06665C12.4563 8.06665 12.2462 7.85657 12.2462 7.59778V3.59729C12.2462 3.33862 12.4563 3.12854 12.715 3.12854C12.9741 3.12854 13.1837 3.3385 13.1837 3.59729V7.59778Z" fill="#CB7C5D"/>
</g>
<defs>
<clipPath id="clip0_59_2281">
<rect width="16" height="16" fill="white"/>
</clipPath>
</defs>
</svg>
