<svg width="16" height="16" viewBox="0 0 16 16" fill="none" xmlns="http://www.w3.org/2000/svg">
<g clip-path="url(#clip0_2295_479)">
<path d="M5.3125 10.363V10.4688C5.3125 10.5472 5.33219 10.6244 5.36975 10.6933L6.30725 12.412C6.48491 12.7377 6.95263 12.7377 7.13028 12.412L8.06778 10.6933C8.10531 10.6244 8.125 10.5472 8.125 10.4688V10.363C7.68844 10.5321 7.21428 10.625 6.71875 10.625C6.22322 10.625 5.74906 10.5321 5.3125 10.363Z" fill="#CB7C5D"/>
<path d="M9.6875 6.71865V4.9999H9.01825C7.97578 4.9999 6.98591 4.54215 6.31075 3.74784C6.07625 3.47193 5.63078 3.55481 5.51116 3.89659C5.27987 4.5574 4.65619 4.9999 3.95606 4.9999H3.75V6.71865C3.75 8.35825 5.07916 9.6874 6.71875 9.6874C8.35834 9.6874 9.6875 8.35825 9.6875 6.71865Z" fill="#CB7C5D"/>
<path d="M3.95606 4.0625C4.25741 4.0625 4.52675 3.87141 4.62631 3.58697C4.82347 3.02362 5.3575 2.64512 5.95519 2.64512C6.36734 2.64512 6.75731 2.82578 7.02506 3.14075C7.52297 3.72656 8.24947 4.0625 9.01825 4.0625H10L10.0417 4.03125C10.6026 3.61056 10.9375 2.94075 10.9375 2.23959C10.9375 1.00466 9.93284 0 8.69791 0H7.53297C6.78084 0 6.05197 0.215969 5.42194 0.625H5.26997C4.08725 0.625 3.125 1.58725 3.125 2.77C3.125 3.24288 3.27734 3.69216 3.55819 4.0625H3.95606Z" fill="#CB7C5D"/>
<path d="M10.5312 12.0053V11.7813C10.5312 11.4917 10.6193 11.2224 10.7699 10.9985L9.05841 10.5706C9.04381 10.7703 8.98684 10.9661 8.89081 11.1422L7.95331 12.861C7.70672 13.313 7.23369 13.5938 6.71875 13.5938C6.20381 13.5938 5.73078 13.313 5.48422 12.861L4.54672 11.1422C4.45066 10.9661 4.39369 10.7703 4.37909 10.5706L2.24872 11.1032C0.924719 11.4342 0 12.6185 0 13.9833V15.5313C0 15.7902 0.209875 16.0001 0.46875 16.0001H1.875V14.8438C1.875 14.585 2.08488 14.3751 2.34375 14.3751C2.60262 14.3751 2.8125 14.585 2.8125 14.8438V16.0001H9.846C9.68591 15.7241 9.59375 15.404 9.59375 15.0626V13.8633C9.59375 13.1151 9.95219 12.4321 10.5312 12.0053Z" fill="#CB7C5D"/>
<path d="M14.5938 12.5625V11.7812C14.5938 11.5224 14.3839 11.3125 14.125 11.3125H11.9375C11.6786 11.3125 11.4688 11.5224 11.4688 11.7812V12.5625C10.9089 12.7491 10.5312 13.2731 10.5312 13.8632V15.0625C10.5312 15.5803 10.951 16 11.4688 16H14.5938C15.1115 16 15.5312 15.5803 15.5312 15.0625V13.8632C15.5312 13.2731 15.1536 12.7491 14.5938 12.5625Z" fill="#CB7C5D"/>
<path d="M13.6182 10.375L13.8535 9.49707C14.1318 9.16313 15.0796 7.93988 15.5252 6.27675C16.028 4.40016 16.0008 2.77797 15.9994 2.70982C15.9917 2.34057 15.58 2.12476 15.272 2.3286C15.2111 2.36888 13.773 3.34188 13.1124 5.62038C12.6316 7.27891 12.8637 8.82363 12.9466 9.25966L12.6476 10.375H13.6182Z" fill="#CB7C5D"/>
</g>
<defs>
<clipPath id="clip0_2295_479">
<rect width="16" height="16" fill="white"/>
</clipPath>
</defs>
</svg>
