<svg width="14" height="14" viewBox="0 0 14 14" fill="none" xmlns="http://www.w3.org/2000/svg">
<g clip-path="url(#clip0_9041_15259)">
<path d="M7.41016 6.88265V10.0074L10.1162 8.44502V5.32031L7.41016 6.88265Z" fill="#6A675D"/>
<path d="M4.29297 4.60924L6.99904 6.17161L9.70512 4.60924L6.99904 3.04688L4.29297 4.60924Z" fill="#6A675D"/>
<path d="M6.58889 6.88265L3.88281 5.32031V8.44502L6.58889 10.0074V6.88265Z" fill="#6A675D"/>
<path d="M12.3506 2.3503C12.0557 2.3503 11.7855 2.45768 11.5766 2.63512L7.01246 0L2.43186 2.64461C2.22148 2.46154 1.947 2.3503 1.64687 2.3503C0.986469 2.3503 0.449219 2.88755 0.449219 3.54796C0.449219 4.07425 0.790605 4.52203 1.26346 4.68229V9.9575L5.79766 12.5753C5.78349 12.6489 5.77581 12.7247 5.77581 12.8023C5.77581 13.4627 6.31306 13.9999 6.97346 13.9999C7.63384 13.9999 8.17109 13.4627 8.17109 12.8023C8.17109 12.739 8.16606 12.6768 8.15655 12.6161L12.7614 9.95747V4.67302C13.2201 4.50502 13.5483 4.0641 13.5483 3.54796C13.5483 2.88758 13.011 2.3503 12.3506 2.3503ZM11.9399 9.4832L7.75727 11.898C7.54703 11.7155 7.27302 11.6047 6.97344 11.6047C6.68873 11.6047 6.42705 11.7047 6.22129 11.8713L2.08506 9.4832V4.66222C2.52926 4.48692 2.8445 4.05371 2.8445 3.54796C2.8445 3.48515 2.83958 3.42349 2.83023 3.36328L7.01246 0.948664L11.1698 3.34893C11.1589 3.4137 11.153 3.48012 11.153 3.54796C11.153 4.0641 11.4812 4.50502 11.9399 4.67302V9.4832Z" fill="#6A675D"/>
</g>
<defs>
<clipPath id="clip0_9041_15259">
<rect width="14" height="14" fill="white"/>
</clipPath>
</defs>
</svg>
