<svg width="14" height="14" viewBox="0 0 14 14" fill="none" xmlns="http://www.w3.org/2000/svg">
<path d="M8.33656 2.08741L8.33657 2.08742L13.3581 3.42127C13.4758 3.45255 13.5578 3.55915 13.5578 3.68102C13.5578 3.80289 13.4758 3.90949 13.3581 3.94076L13.254 3.9684V5.30965L13.6969 5.56534L13.6969 5.56534L13.6719 5.60864C13.7396 5.64772 13.7812 5.71993 13.7813 5.79811L8.33656 2.08741ZM8.33656 2.08741C8.29136 2.07542 8.2438 2.07542 8.19861 2.08741L8.1986 2.08742L3.17712 3.42127C3.17712 3.42127 3.17711 3.42127 3.17711 3.42127C3.05933 3.45255 2.97736 3.55915 2.97736 3.68102C2.97736 3.80288 3.05933 3.90948 3.17711 3.94076C3.17711 3.94076 3.17712 3.94076 3.17712 3.94076L4.56524 4.30949V6.40471H1.0964C0.58483 6.40471 0.16875 6.82082 0.16875 7.33236V8.33902C0.16875 8.6058 0.251941 8.81101 0.425974 8.93615L0.455164 8.89555L0.425974 8.93615L4.29706 11.7197C4.45545 11.8458 4.65592 11.9215 4.87381 11.9215H13.3944C13.5429 11.9215 13.6632 11.8012 13.6632 11.6528V9.32829C13.6632 9.25097 13.6305 9.18145 13.5784 9.13254L13.5807 9.1286L13.54 9.10238L10.7419 7.29917C11.0363 7.24275 11.3714 7.17937 11.7495 7.11024C11.8772 7.0869 11.97 6.97567 11.97 6.84586V4.30952L12.7165 4.11121V5.3097L12.2737 5.56536C12.2737 5.56536 12.2737 5.56537 12.2737 5.56537C12.1905 5.61338 12.1393 5.7021 12.1393 5.79811V7.27341C12.1393 7.37527 12.1969 7.46836 12.288 7.51387L12.288 7.51387C12.3792 7.55936 12.4882 7.54942 12.5696 7.48821L12.9853 7.1756L8.33656 2.08741ZM4.78567 7.11021L4.78568 7.11022C5.37002 7.21705 5.8519 7.3102 6.23924 7.38509C7.23757 7.57809 7.75234 7.67595 8.26763 7.67595C8.72548 7.67598 9.18275 7.59868 9.97803 7.44635L12.4813 9.05957H4.9588L1.94616 6.94221H4.58331C4.61608 7.02752 4.69119 7.09292 4.78567 7.11021ZM11.4325 4.45224V6.622C10.9436 6.71245 10.5326 6.79189 10.194 6.85737C9.22423 7.04483 8.74572 7.13713 8.26766 7.13714C7.78959 7.13714 7.31105 7.04485 6.34126 6.85737L6.33177 6.90646L6.34126 6.85737L6.33524 6.8562C5.99777 6.79098 5.58875 6.71192 5.10277 6.62201V4.45227L8.19861 5.27461C8.19862 5.27462 8.19862 5.27462 8.19863 5.27462C8.22126 5.28064 8.24444 5.28362 8.26763 5.28362C8.29082 5.28362 8.314 5.28064 8.33663 5.27462C8.33663 5.27462 8.33664 5.27462 8.33664 5.27461L11.4325 4.45224ZM0.70625 8.33902V7.33236C0.70625 7.14283 0.842458 6.98458 1.02224 6.94983L4.30369 9.25607C4.08638 9.42587 3.94618 9.69036 3.94618 9.9872V10.8054L0.739752 8.49979C0.737338 8.49806 0.732686 8.49325 0.727486 8.48205C0.722406 8.47111 0.718086 8.45683 0.714721 8.43993C0.707977 8.40606 0.70625 8.36794 0.70625 8.33902ZM4.87381 11.384C4.65872 11.384 4.48365 11.209 4.48365 10.9939V9.9872C4.48365 9.77214 4.65871 9.59707 4.87381 9.59707H13.1257V9.85875H8.09143C7.94301 9.85875 7.82268 9.97908 7.82268 10.1275C7.82268 10.2759 7.94301 10.3962 8.09143 10.3962H13.1257V10.5848H6.42362C6.2752 10.5848 6.15487 10.7052 6.15487 10.8536C6.15487 11.002 6.2752 11.1223 6.42362 11.1223H13.1257V11.384H4.87381ZM12.8238 6.6245L12.8538 6.66447L12.8238 6.6245L12.6768 6.73502V5.95322L12.9853 5.77512L13.2937 5.95325V6.73501L13.1468 6.6245C13.0511 6.55257 12.9195 6.55258 12.8238 6.6245ZM8.26757 2.62525L12.2422 3.68104L8.26757 4.73684L4.29293 3.68104L8.26757 2.62525Z" fill="#484848" stroke="#484848" stroke-width="0.1"/>
</svg>
