<svg width="16" height="16" viewBox="0 0 16 16" fill="none" xmlns="http://www.w3.org/2000/svg">
<g clip-path="url(#clip0_9055_12795)">
<path d="M14.6667 3.33206H11.3333V2.66537C11.3333 1.93003 10.7354 1.33203 10 1.33203H6C5.26466 1.33203 4.66666 1.93 4.66666 2.66537V3.33203H1.33334C0.597969 3.33206 0 3.93003 0 4.66537V6.66537C0 7.40075 0.597969 7.99872 1.33334 7.99872H6.66669V7.66537C6.66669 7.48112 6.81578 7.33203 7.00003 7.33203H9.00003C9.18428 7.33203 9.33337 7.48112 9.33337 7.66537V7.99872H14.6667C15.402 7.99872 16 7.40075 16 6.66537V4.66537C16 3.93003 15.402 3.33206 14.6667 3.33206ZM10 3.33206H6V2.66537H10V3.33206Z" fill="#CB7C5D"/>
<path d="M15.8151 8.35942C15.7015 8.30311 15.5658 8.31614 15.4655 8.3923C15.2285 8.57167 14.9524 8.66639 14.6666 8.66639H9.33334V9.66639C9.33334 9.85064 9.18425 9.99973 9 9.99973H7C6.81575 9.99973 6.66666 9.85064 6.66666 9.66639V8.66639H1.33334C1.04753 8.66639 0.7715 8.57167 0.5345 8.3923C0.433906 8.31548 0.2985 8.30245 0.184875 8.35942C0.071625 8.41577 0 8.5313 0 8.65795V13.3331C0 14.0684 0.597969 14.6664 1.33334 14.6664H14.6667C15.402 14.6664 16 14.0685 16 13.3331V8.65795C16 8.5313 15.9284 8.41577 15.8151 8.35942Z" fill="#CB7C5D"/>
</g>
<defs>
<clipPath id="clip0_9055_12795">
<rect width="16" height="16" fill="white"/>
</clipPath>
</defs>
</svg>
