<svg width="20" height="20" viewBox="0 0 20 20" fill="none" xmlns="http://www.w3.org/2000/svg">
<g clip-path="url(#clip0_9048_16948)">
<path d="M7.5007 3.67188C7.00972 3.67109 6.52875 3.8107 6.11451 4.07425C5.70026 4.33781 5.37 4.71431 5.16268 5.15937C4.95536 5.60443 4.87961 6.09949 4.94437 6.58618C5.00914 7.07287 5.21171 7.5309 5.5282 7.90625C5.8334 8.25843 6.04121 8.68429 6.13102 9.14157H8.87039C8.96031 8.68432 9.16811 8.2585 9.4732 7.90625C9.78983 7.53094 9.99252 7.0729 10.0574 6.58616C10.1222 6.09942 10.0465 5.6043 9.83912 5.15919C9.63177 4.71408 9.30145 4.33755 8.88712 4.07402C8.47279 3.8105 7.99174 3.67096 7.5007 3.67188Z" fill="#CB7C5D"/>
<path d="M7.49909 0.078125C6.19315 0.0781656 4.91035 0.42285 3.78026 1.07736C2.65017 1.73187 1.71282 2.67303 1.0629 3.80576C0.41298 4.9385 0.0735024 6.22269 0.0787597 7.52862C0.0840171 8.83456 0.433823 10.116 1.09284 11.2434L0.106282 14.1991C0.0740643 14.2957 0.0693931 14.3994 0.0927917 14.4985C0.11619 14.5977 0.166734 14.6883 0.238759 14.7603C0.310783 14.8324 0.401443 14.8829 0.500577 14.9063C0.599711 14.9297 0.703403 14.925 0.800032 14.8928L3.75566 13.9078C4.73998 14.4829 5.84356 14.8234 6.98077 14.9031C8.11798 14.9828 9.25825 14.7994 10.3131 14.3672C11.368 13.935 12.3092 13.2656 13.0636 12.4109C13.8179 11.5562 14.3653 10.5392 14.6632 9.43878C14.961 8.33839 15.0014 7.18416 14.7811 6.06565C14.5608 4.94714 14.0858 3.8944 13.393 2.98911C12.7001 2.08382 11.808 1.35031 10.7859 0.845485C9.76378 0.340656 8.63909 0.0780799 7.49909 0.078125ZM10.3069 8.61094C10.0672 8.88104 9.93051 9.22711 9.92097 9.58813V10.9375C9.92047 11.331 9.76392 11.7083 9.48566 11.9866C9.20739 12.2648 8.83012 12.4214 8.43659 12.4219H6.56159C6.16807 12.4214 5.7908 12.2648 5.51253 11.9866C5.23426 11.7083 5.07772 11.331 5.07722 10.9375V9.58813C5.06777 9.22718 4.93108 8.88119 4.69128 8.61125C4.24044 8.07626 3.95182 7.42361 3.8594 6.73012C3.76698 6.03663 3.8746 5.33117 4.1696 4.69678C4.4646 4.0624 4.9347 3.5255 5.52456 3.14928C6.11441 2.77306 6.79947 2.57318 7.49909 2.57318C8.19872 2.57318 8.88378 2.77306 9.47363 3.14928C10.0635 3.5255 10.5336 4.0624 10.8286 4.69678C11.1236 5.33117 11.2312 6.03663 11.1388 6.73012C11.0464 7.42361 10.7577 8.07595 10.3069 8.61094Z" fill="#CB7C5D"/>
<path d="M6.17188 10.9375C6.17204 11.041 6.21325 11.1403 6.28647 11.2135C6.35969 11.2868 6.45895 11.328 6.5625 11.3281H8.4375C8.54105 11.328 8.64031 11.2868 8.71353 11.2135C8.78675 11.1403 8.82796 11.041 8.82812 10.9375V10.2344H6.17188V10.9375Z" fill="#CB7C5D"/>
<path d="M18.9069 16.2429C19.4172 15.3699 19.7436 14.4018 19.8662 13.398C19.9887 12.3943 19.9048 11.3761 19.6196 10.406C19.3343 9.43583 18.8538 8.53425 18.2074 7.7566C17.561 6.97894 16.7625 6.34163 15.8609 5.88379C16.1252 7.25115 16.05 8.66245 15.642 9.994C15.234 11.3256 14.5057 12.5367 13.5209 13.5214C12.536 14.5061 11.3247 15.2342 9.99307 15.6419C8.66143 16.0496 7.25012 16.1245 5.88281 15.86C6.3405 16.7619 6.97774 17.5606 7.75539 18.2072C8.53304 18.8537 9.43467 19.3345 10.4049 19.6199C11.3751 19.9052 12.3935 19.9892 13.3973 19.8667C14.4012 19.7441 15.3694 19.4176 16.2425 18.9072L19.1981 19.8922C19.2948 19.9244 19.3984 19.9291 19.4976 19.9057C19.5967 19.8823 19.6874 19.8318 19.7594 19.7598C19.8314 19.6877 19.882 19.5971 19.9054 19.4979C19.9288 19.3988 19.9241 19.2951 19.8919 19.1985L18.9069 16.2429Z" fill="#CB7C5D"/>
</g>
<defs>
<clipPath id="clip0_9048_16948">
<rect width="20" height="20" fill="white"/>
</clipPath>
</defs>
</svg>
