<svg width="16" height="16" viewBox="0 0 16 16" fill="none" xmlns="http://www.w3.org/2000/svg">
<g clip-path="url(#clip0_4274_53848)">
<path d="M4.72032 1.74063C4.72032 0.780844 3.93947 0 2.97969 0C0.670504 0.095625 0.67116 3.386 2.97969 3.48125C3.9395 3.48125 4.72032 2.70041 4.72032 1.74063Z" fill="#CB7C5D"/>
<path d="M5.95834 6.99629V6.46089C5.79422 2.50761 0.162656 2.51067 0 6.46086V6.99626C0 7.25514 0.209875 7.46501 0.46875 7.46501H5.48959C5.74847 7.46504 5.95834 7.25517 5.95834 6.99629Z" fill="#CB7C5D"/>
<path d="M14.7613 1.74063C14.7613 0.780844 13.9805 0 13.0207 0C10.7115 0.095625 10.7122 3.386 13.0207 3.48125C13.9805 3.48125 14.7613 2.70041 14.7613 1.74063Z" fill="#CB7C5D"/>
<path d="M13.0202 3.48145C11.3775 3.48145 10.041 4.81791 10.041 6.4606V6.99601C10.041 7.25488 10.2509 7.46476 10.5098 7.46476H15.5306C15.7895 7.46476 15.9993 7.25488 15.9993 6.99601V6.4606C15.9993 4.81791 14.6629 3.48145 13.0202 3.48145Z" fill="#CB7C5D"/>
<path d="M2.9451 8.50234C2.9451 8.46891 2.94572 8.43563 2.94635 8.40234H2.00885C1.97154 10.4117 2.9456 12.2271 4.45397 13.3326C4.58872 13.0465 4.7571 12.7794 4.95397 12.5361C3.73372 11.6134 2.9451 10.1501 2.9451 8.50234Z" fill="#CB7C5D"/>
<path d="M5.93145 3.88986C7.1782 3.30598 8.82195 3.30598 10.0687 3.88986C10.291 3.63489 10.5457 3.40889 10.8264 3.21832C9.16714 2.28398 6.83305 2.28401 5.17383 3.21832C5.45445 3.40889 5.70914 3.63492 5.93145 3.88986Z" fill="#CB7C5D"/>
<path d="M13.0525 8.40234C13.089 10.077 12.29 11.5982 11.0449 12.5361C11.2418 12.7793 11.4101 13.0465 11.5449 13.3326C13.0532 12.2272 14.0274 10.4117 13.99 8.40234H13.0525Z" fill="#CB7C5D"/>
<path d="M9.73985 10.2758C9.73985 9.316 8.959 8.53516 7.99922 8.53516C5.69004 8.63078 5.69069 11.9212 7.99922 12.0164C8.959 12.0164 9.73985 11.2356 9.73985 10.2758Z" fill="#CB7C5D"/>
<path d="M8.00064 12.0166C6.35792 12.0166 5.02148 13.3531 5.02148 14.9958V15.5312C5.02148 15.7901 5.23136 15.9999 5.49023 15.9999H10.5111C10.77 15.9999 10.9798 15.7901 10.9798 15.5312V14.9958C10.9798 13.3531 9.64336 12.0166 8.00064 12.0166Z" fill="#CB7C5D"/>
</g>
<defs>
<clipPath id="clip0_4274_53848">
<rect width="16" height="16" fill="white"/>
</clipPath>
</defs>
</svg>
