<svg width="16" height="16" viewBox="0 0 16 16" fill="none" xmlns="http://www.w3.org/2000/svg">
<path d="M0.281875 9.48828C0.401375 7.89569 1.74181 6.62959 3.36363 6.62959C3.42091 6.62959 3.47784 6.63119 3.53434 6.63431C3.43916 6.80681 3.40288 7.00416 3.43166 7.20575L3.7905 9.72H0.496875C0.370687 9.71997 0.272469 9.61409 0.281875 9.48828ZM15.5566 10.9716H0.443406C0.354219 10.9716 0.28125 11.0446 0.28125 11.1337V11.8872C0.28125 11.9763 0.354219 12.0493 0.443406 12.0493H15.5566C15.6458 12.0493 15.7188 11.9763 15.7188 11.8872V11.1337C15.7188 11.0446 15.6458 10.9716 15.5566 10.9716ZM0.817656 13.8388C0.817656 13.9076 0.873906 13.9638 0.942656 13.9638H15.0574C15.1261 13.9638 15.1824 13.9076 15.1824 13.8388V12.5493H0.817656V13.8388ZM3.36363 6.31709C4.28609 6.31709 5.03387 5.56928 5.03387 4.64684C5.03387 3.72441 4.28606 2.97659 3.36363 2.97659C2.44119 2.97659 1.69337 3.72441 1.69337 4.64684C1.69337 5.56928 2.44116 6.31709 3.36363 6.31709ZM6.37819 6.15506H9.62181C9.14963 5.86181 8.59369 5.69206 8 5.69206C7.40631 5.69206 6.85038 5.86184 6.37819 6.15506ZM4.34303 6.65506H11.657C11.7833 6.65506 11.892 6.70466 11.9747 6.80006C12.0575 6.89547 12.0912 7.01006 12.0734 7.13509L11.5972 10.4716H4.40287L3.92666 7.13509C3.90881 7.01009 3.94256 6.89547 4.02531 6.80006C4.10806 6.70466 4.21675 6.65506 4.34303 6.65506ZM7.44491 8.74044C7.44491 9.047 7.69344 9.29553 8 9.29553C8.30656 9.29553 8.55509 9.047 8.55509 8.74044C8.55509 8.43388 8.30656 8.18534 8 8.18534C7.69344 8.18534 7.44491 8.43388 7.44491 8.74044ZM12.6364 6.31709C13.5588 6.31709 14.3066 5.56928 14.3066 4.64684C14.3066 3.72441 13.5588 2.97659 12.6364 2.97659C11.7139 2.97659 10.9661 3.72441 10.9661 4.64684C10.9661 5.56928 11.7139 6.31709 12.6364 6.31709ZM8 5.37956C8.92247 5.37956 9.67025 4.63175 9.67025 3.70931C9.67025 2.78687 8.92247 2.03906 8 2.03906C7.07753 2.03906 6.32975 2.78687 6.32975 3.70931C6.32975 4.63175 7.07753 5.37956 8 5.37956ZM12.4656 6.63428C12.5608 6.80675 12.5971 7.00413 12.5683 7.20572L12.2095 9.71997H15.5031C15.6293 9.71997 15.7275 9.61409 15.7181 9.48825C15.5986 7.89566 14.2582 6.62956 12.6363 6.62956C12.5791 6.62959 12.5222 6.63116 12.4656 6.63428Z" fill="#CB7C5D"/>
</svg>
