<svg width="14" height="14" viewBox="0 0 14 14" fill="none" xmlns="http://www.w3.org/2000/svg">
<path d="M10.8297 13.6381C11.5583 13.6381 12.1562 13.0382 12.1562 12.2704V2.75868C12.1562 2.03107 11.5573 1.43221 10.8297 1.43221H9.59361C9.45066 0.811957 8.90401 0.361621 8.23559 0.361621H5.765C5.09809 0.361621 4.55162 0.810135 4.40759 1.39103H3.17088C2.44124 1.39103 1.84441 2.03314 1.84441 2.75868V12.3116C1.84441 13.0392 2.44327 13.6381 3.17088 13.6381H10.8297ZM5.765 1.07927H8.23559C8.61974 1.07927 8.92676 1.38629 8.92676 1.77044C8.92676 2.1546 8.61974 2.46162 8.23559 2.46162H5.765C5.38085 2.46162 5.07382 2.1546 5.07382 1.77044C5.07382 1.38629 5.38085 1.07927 5.765 1.07927ZM2.56206 12.2704V2.75868C2.56206 2.4117 2.83175 2.10868 3.17088 2.10868H4.40759C4.55162 2.68958 5.09809 3.13809 5.765 3.13809H8.23559C8.9025 3.13809 9.44896 2.68958 9.59299 2.10868H10.8297C11.1727 2.10868 11.4385 2.37453 11.4385 2.7175V12.2704C11.4385 12.6174 11.1688 12.9204 10.8297 12.9204H3.17088C2.82989 12.9204 2.56206 12.6566 2.56206 12.2704Z" fill="#484848" stroke="#484848" stroke-width="0.1"/>
<path d="M6.95956 12.0735C8.30482 12.0735 9.3978 10.9806 9.3978 9.63531C9.3978 8.29004 8.30482 7.19707 6.95956 7.19707C5.61542 7.19707 4.48015 8.28894 4.48015 9.63531C4.48015 10.9811 5.57368 12.0735 6.95956 12.0735ZM6.95956 7.87354C7.91943 7.87354 8.68015 8.67393 8.68015 9.59413C8.68015 10.5143 7.91943 11.3147 6.95956 11.3147C5.99969 11.3147 5.23898 10.5143 5.23898 9.59413C5.23898 8.67393 5.99969 7.87354 6.95956 7.87354Z" fill="#484848" stroke="#484848" stroke-width="0.1"/>
<path d="M6.6699 9.60459L6.54151 9.47621C6.39846 9.33315 6.16092 9.33315 6.01786 9.47621C5.87481 9.61926 5.87481 9.8568 6.01786 9.99986L6.01781 9.99991L6.01977 10.0017L6.43059 10.3714C6.57375 10.5135 6.81055 10.5132 6.95328 10.3704L6.95329 10.3705L6.95402 10.3697L7.90073 9.38182C8.04339 9.23872 8.04326 9.00149 7.90034 8.85856C7.75728 8.71551 7.51974 8.71551 7.37669 8.85856L7.37667 8.85855L7.37574 8.85953L6.6699 9.60459Z" fill="#484848" stroke="#484848" stroke-width="0.1"/>
<path d="M5.2707 4.70272H8.72952C8.91766 4.70272 9.10893 4.56081 9.10893 4.32331C9.10893 4.21034 9.07484 4.1141 9.00679 4.04604C8.93873 3.97798 8.84249 3.9439 8.72952 3.9439H5.2707C5.08256 3.9439 4.89128 4.08581 4.89128 4.32331C4.89128 4.56081 5.08256 4.70272 5.2707 4.70272Z" fill="#484848" stroke="#484848" stroke-width="0.1"/>
<path d="M5.2707 6.39095H8.72952C8.91766 6.39095 9.10893 6.24904 9.10893 6.01154C9.10893 5.89857 9.07484 5.80233 9.00679 5.73427C8.93873 5.66622 8.84249 5.63213 8.72952 5.63213H5.2707C5.08256 5.63213 4.89128 5.77404 4.89128 6.01154C4.89128 6.24904 5.08256 6.39095 5.2707 6.39095Z" fill="#484848" stroke="#484848" stroke-width="0.1"/>
</svg>
