<svg width="16" height="16" viewBox="0 0 16 16" fill="none" xmlns="http://www.w3.org/2000/svg">
<path d="M3.27089 13.7336V8.92056C3.27089 8.91936 3.27157 8.91835 3.27158 8.91715V8.71335C3.27158 8.37919 2.99878 8.10742 2.66336 8.10742H0.749253C0.734231 8.10742 0.71875 8.11877 0.71875 8.13792V14.6997C0.71875 14.7176 0.73274 14.7326 0.749253 14.7326H2.66336C2.99878 14.7326 3.27158 14.4597 3.27158 14.1243V13.7379C3.27155 13.7364 3.27089 13.7351 3.27089 13.7336ZM1.99402 14.2887C1.54083 14.2887 1.17205 13.9199 1.17205 13.4667C1.17205 13.0136 1.54083 12.6448 1.99402 12.6448C2.4472 12.6448 2.81599 13.0136 2.81599 13.4667C2.81599 13.9199 2.4472 14.2887 1.99402 14.2887Z" fill="#CB7C5D"/>
<path d="M1.99482 13.8187C2.18936 13.8187 2.34706 13.661 2.34706 13.4665C2.34706 13.272 2.18936 13.1143 1.99482 13.1143C1.80028 13.1143 1.64258 13.272 1.64258 13.4665C1.64258 13.661 1.80028 13.8187 1.99482 13.8187Z" fill="#CB7C5D"/>
<path d="M10.342 4.85622L10.3079 1.61719C8.59508 1.74344 7.23828 3.18074 7.23828 4.92422C7.23828 5.7672 7.55711 6.53534 8.07715 7.12106L10.342 4.85622Z" fill="#CB7C5D"/>
<path d="M14.3661 10.0981L10.1807 11.9568C9.98928 12.0807 9.77041 12.1478 9.54425 12.1478H8.08677C7.95708 12.1478 7.85192 12.0427 7.85192 11.913C7.85192 11.7833 7.95708 11.6781 8.08677 11.6781H9.54425C9.68564 11.6781 9.82336 11.635 9.94239 11.5535C9.94275 11.5532 9.94317 11.5532 9.94353 11.553C9.94431 11.5525 9.9447 11.5516 9.94549 11.5511C9.97588 11.5308 10.006 11.5053 10.0403 11.471C10.1708 11.3385 10.2434 11.1622 10.2434 10.9761C10.2434 10.6399 10.0063 10.3502 9.67968 10.2873C9.6337 10.2769 9.59356 10.2729 9.54551 10.2729H8.11177C7.47752 10.2729 6.85416 10.0562 6.35648 9.66253C5.94275 9.33617 5.42282 9.15625 4.89246 9.15625H3.74219V13.5663L7.06791 14.6953C7.41915 14.806 7.79986 14.777 8.13573 14.6111L14.9157 11.2744C15.1369 11.1647 15.2803 10.9356 15.2803 10.6909C15.2803 10.5988 15.2584 10.5032 15.217 10.4147C15.0637 10.094 14.6891 9.95402 14.3661 10.0981Z" fill="#CB7C5D"/>
<path d="M8.41211 7.45099C8.99063 7.9424 9.73806 8.24061 10.5548 8.24061C12.2993 8.24061 13.736 6.88266 13.8619 5.16797L10.6761 5.187L8.41211 7.45099Z" fill="#CB7C5D"/>
<path d="M11.1562 1.23926L11.1888 4.33976L14.241 4.32153C14.1265 2.66876 12.8043 1.34934 11.1562 1.23926Z" fill="#CB7C5D"/>
</svg>
