<svg width="16" height="16" viewBox="0 0 16 16" fill="none" xmlns="http://www.w3.org/2000/svg">
<path d="M11.2907 11.3652C10.6995 11.9567 9.89582 12.313 9.06214 12.3589C8.86078 12.5084 8.36206 12.8034 7.5607 12.8034C7.2207 12.8034 6.97655 12.6957 6.83502 12.4835C6.70604 12.29 6.71203 12.0876 6.71115 11.9253C6.47277 11.9163 6.17568 12.1617 6.09343 12.2439C5.93328 12.4041 5.67357 12.4041 5.51339 12.2439C5.35321 12.0838 5.35321 11.8241 5.51339 11.6639C5.57064 11.6066 6.08993 11.1044 6.68206 11.1044C7.02205 11.1044 7.2662 11.2121 7.40773 11.4244C7.53671 11.6178 7.53073 11.8202 7.53157 11.9826C7.87444 11.995 8.24333 11.8984 8.4737 11.7667C8.5189 10.9264 8.86754 10.1427 9.46724 9.54279L11.4855 7.52416V4.86641C11.4855 4.63989 11.3018 4.45625 11.0753 4.45625H8.43936C8.21284 4.45625 8.0292 4.27261 8.0292 4.04609V1.41016C8.0292 1.18364 7.84556 1 7.61905 1H1.41016C1.18364 1 1 1.18364 1 1.41016V14.5898C1 14.8164 1.18364 15 1.41016 15H11.0753C11.3018 15 11.4854 14.8164 11.4854 14.5898V11.1705C11.3624 11.2935 11.2907 11.3652 11.2907 11.3652ZM3.16746 5.39324H4.92476C5.46838 5.41342 5.46797 6.19356 4.92476 6.21355H3.16746C2.62384 6.19337 2.62425 5.4132 3.16746 5.39324ZM3.16746 7.15051H9.31797C9.86159 7.17069 9.86118 7.95084 9.31797 7.97082H3.16746C2.62384 7.95064 2.62425 7.1705 3.16746 7.15051ZM2.7573 9.31797C2.7573 9.09145 2.94094 8.90781 3.16746 8.90781H7.5607C8.10432 8.92799 8.10391 9.70814 7.5607 9.72813H3.16746C2.94091 9.72813 2.7573 9.54449 2.7573 9.31797Z" fill="#CB7C5D"/>
<path d="M8.84972 3.63598H11.0755C11.1379 3.63598 11.1992 3.64074 11.2591 3.64974L8.83594 1.22656C8.84493 1.2865 8.84969 1.3478 8.84969 1.4102V3.63598H8.84972Z" fill="#CB7C5D"/>
<path d="M14.8235 6.00842C14.7118 5.89664 14.557 5.83252 14.3988 5.83252C14.3593 5.83252 14.3213 5.84824 14.2934 5.87621L10.0468 10.1228C9.66561 10.5042 9.41782 10.9835 9.32715 11.5039C9.84698 11.4114 10.3349 11.1607 10.7101 10.7853C10.7101 10.7853 14.9559 6.53845 14.9559 6.53843C14.9839 6.51048 14.9996 6.4725 14.9996 6.43296C14.9996 6.27513 14.9354 6.12039 14.8235 6.00842Z" fill="#CB7C5D"/>
</svg>
