<svg width="16" height="16" viewBox="0 0 16 16" fill="none" xmlns="http://www.w3.org/2000/svg">
<path d="M7.33333 10.0001C6.81647 10.0001 6.31964 9.80011 5.94702 9.44193C5.57439 9.08374 5.3549 8.5952 5.33457 8.07874C5.31423 7.56227 5.49463 7.05799 5.83794 6.67162C6.18125 6.28524 6.66081 6.04678 7.17608 6.00622C7.22825 6.00214 7.28117 6.00005 7.33333 6.00005V4.66672C7.33306 4.44111 7.39043 4.21918 7.5 4.02197C7.44559 4.00765 7.38959 4.00028 7.33333 4.00005H5.1535C5.2894 3.76659 5.35069 3.49716 5.32917 3.22789C5.30195 2.88445 5.14286 2.56488 4.88524 2.33615C4.62761 2.10742 4.29145 1.98728 3.94721 2.00092C3.60297 2.01456 3.27737 2.16092 3.03865 2.40932C2.79993 2.65772 2.66662 2.98887 2.66667 3.33339C2.66666 3.56759 2.72871 3.79762 2.8465 4.00005H0.666667C0.489856 4.00005 0.320286 4.07029 0.195262 4.19531C0.0702379 4.32034 0 4.48991 0 4.66672L0 11.3334C0 11.5102 0.0702379 11.6798 0.195262 11.8048C0.320286 11.9298 0.489856 12.0001 0.666667 12.0001H2.8465C2.7106 12.2335 2.64931 12.5029 2.67083 12.7722C2.69805 13.1157 2.85714 13.4352 3.11476 13.664C3.37239 13.8927 3.70855 14.0128 4.05279 13.9992C4.39703 13.9855 4.72263 13.8392 4.96135 13.5908C5.20007 13.3424 5.33338 13.0112 5.33333 12.6667C5.33334 12.4325 5.27129 12.2025 5.1535 12.0001H7.33333C7.38959 11.9998 7.44559 11.9925 7.5 11.9781C7.39043 11.7809 7.33306 11.559 7.33333 11.3334V10.0001Z" fill="#CB7C5D"/>
<path d="M15.3333 4H13.1535C13.2894 4.23346 13.3507 4.50289 13.3291 4.77217C13.3019 5.1156 13.1428 5.43517 12.8852 5.6639C12.6276 5.89263 12.2914 6.01277 11.9472 5.99913C11.6029 5.98549 11.2773 5.83913 11.0386 5.59073C10.7999 5.34234 10.6666 5.01118 10.6666 4.66667C10.6666 4.43246 10.7287 4.20243 10.8465 4H8.66664C8.48983 4 8.32026 4.07024 8.19523 4.19526C8.07021 4.32029 7.99997 4.48986 7.99997 4.66667V6.8465C7.76654 6.71066 7.4972 6.64934 7.22797 6.67075C6.88435 6.6977 6.56451 6.85668 6.33555 7.11433C6.1066 7.37199 5.98632 7.70829 5.99994 8.05271C6.01357 8.39712 6.16004 8.72287 6.40863 8.96163C6.65723 9.2004 6.98862 9.33361 7.3333 9.33333C7.56751 9.33334 7.79754 9.27129 7.99997 9.1535V11.3333C7.99997 11.5101 8.07021 11.6797 8.19523 11.8047C8.32026 11.9298 8.48983 12 8.66664 12H10.8465C10.7106 11.7665 10.6493 11.4971 10.6708 11.2278C10.698 10.8844 10.8571 10.5648 11.1147 10.3361C11.3724 10.1074 11.7085 9.98723 12.0528 10.0009C12.397 10.0145 12.7226 10.1609 12.9613 10.4093C13.2 10.6577 13.3333 10.9888 13.3333 11.3333C13.3333 11.5675 13.2713 11.7976 13.1535 12H15.3333C15.5101 12 15.6797 11.9298 15.8047 11.8047C15.9297 11.6797 16 11.5101 16 11.3333V4.66667C16 4.48986 15.9297 4.32029 15.8047 4.19526C15.6797 4.07024 15.5101 4 15.3333 4Z" fill="#CB7C5D"/>
</svg>
