<svg width="16" height="16" viewBox="0 0 16 16" fill="none" xmlns="http://www.w3.org/2000/svg">
<path d="M3.51957 1.59998C2.99317 1.59998 2.55957 2.03357 2.55957 2.55998V13.44C2.55957 13.9664 2.99317 14.4 3.51957 14.4H12.4796C13.006 14.4 13.4396 13.9664 13.4396 13.44V5.43998H10.5596C10.0332 5.43998 9.59957 5.00638 9.59957 4.47998V1.59998H3.51957ZM10.2396 1.78748V4.47998C10.2396 4.6605 10.379 4.79998 10.5596 4.79998H13.2521L10.2396 1.78748ZM5.27957 4.79998H8.15957C8.20159 4.79998 8.2432 4.80825 8.28203 4.82433C8.32085 4.84042 8.35613 4.86399 8.38584 4.8937C8.41556 4.92342 8.43913 4.95869 8.45521 4.99752C8.47129 5.03634 8.47957 5.07795 8.47957 5.11998C8.47957 5.20485 8.44586 5.28624 8.38584 5.34625C8.32583 5.40626 8.24444 5.43998 8.15957 5.43998H5.27957C5.1947 5.43998 5.11331 5.40626 5.0533 5.34625C4.99328 5.28624 4.95957 5.20485 4.95957 5.11998C4.95957 5.07795 4.96785 5.03634 4.98393 4.99752C5.00001 4.95869 5.02358 4.92342 5.0533 4.8937C5.08301 4.86399 5.11829 4.84042 5.15711 4.82433C5.19594 4.80825 5.23755 4.79998 5.27957 4.79998ZM5.27957 6.71998H10.7196C10.8044 6.71998 10.8858 6.75369 10.9458 6.8137C11.0059 6.87371 11.0396 6.95511 11.0396 7.03998C11.0396 7.12484 11.0059 7.20624 10.9458 7.26625C10.8858 7.32626 10.8044 7.35998 10.7196 7.35998H5.27957C5.1947 7.35998 5.11331 7.32626 5.0533 7.26625C4.99328 7.20624 4.95957 7.12485 4.95957 7.03998C4.95957 6.95511 4.99328 6.87371 5.0533 6.8137C5.11331 6.75369 5.1947 6.71998 5.27957 6.71998ZM5.27957 8.63998H10.7196C10.8044 8.63998 10.8858 8.67369 10.9458 8.7337C11.0059 8.79371 11.0396 8.87511 11.0396 8.95998C11.0396 9.04485 11.0059 9.12624 10.9458 9.18625C10.8858 9.24626 10.8044 9.27998 10.7196 9.27998H5.27957C5.1947 9.27998 5.11331 9.24626 5.0533 9.18625C4.99328 9.12624 4.95957 9.04485 4.95957 8.95998C4.95957 8.87511 4.99328 8.79371 5.0533 8.7337C5.11331 8.67369 5.1947 8.63998 5.27957 8.63998ZM5.27957 10.56H10.7196C10.8044 10.56 10.8858 10.5937 10.9458 10.6537C11.0059 10.7137 11.0396 10.7951 11.0396 10.88C11.0396 10.9648 11.0059 11.0462 10.9458 11.1062C10.8858 11.1663 10.8044 11.2 10.7196 11.2H5.27957C5.1947 11.2 5.11331 11.1663 5.0533 11.1062C4.99328 11.0462 4.95957 10.9648 4.95957 10.88C4.95957 10.7951 4.99328 10.7137 5.0533 10.6537C5.11331 10.5937 5.1947 10.56 5.27957 10.56Z" fill="#CB7C5D"/>
</svg>
