<svg width="12" height="12" viewBox="0 0 12 12" fill="none" xmlns="http://www.w3.org/2000/svg">
<g clip-path="url(#clip0_4274_3440)">
<path d="M10.9259 4.76339C11.1371 4.55747 11.2117 4.25525 11.1206 3.97468C11.0294 3.69411 10.7914 3.49348 10.4995 3.45107L7.94672 3.08013C7.89662 3.07286 7.8533 3.0414 7.83088 2.99596L6.68925 0.682793C6.55871 0.418242 6.29434 0.253906 5.99933 0.253906C5.70431 0.253906 5.43994 0.418242 5.3094 0.682793L4.16777 2.99598C4.14533 3.0414 4.10203 3.07286 4.0519 3.08016L1.49918 3.45107C1.20724 3.49348 0.969282 3.69411 0.878091 3.97468C0.786899 4.25525 0.861502 4.55747 1.07278 4.76339L2.91996 6.56395C2.95622 6.59932 2.97278 6.65025 2.96421 6.70017L2.52815 9.24259C2.47829 9.53337 2.59555 9.82169 2.83422 9.99509C3.07288 10.1685 3.38342 10.1909 3.6445 10.0537L5.92773 8.85333C5.97257 8.82975 6.0261 8.82975 6.07097 8.85333L8.35421 10.0537C8.46778 10.1134 8.59067 10.1429 8.71296 10.1429C8.87179 10.1429 9.0296 10.0931 9.16443 9.99507C9.4031 9.82164 9.52038 9.5333 9.4705 9.24257L9.03444 6.70015C9.02589 6.65022 9.04243 6.5993 9.07869 6.56393L10.9259 4.76339ZM8.42784 6.80424L8.8639 9.34671C8.87848 9.43179 8.82596 9.4803 8.8027 9.49719C8.77941 9.51405 8.71702 9.54907 8.64064 9.50888L6.35739 8.30851C6.2453 8.24961 6.12235 8.22012 5.99937 8.22012C5.87639 8.22012 5.75341 8.24961 5.64135 8.30849L3.35812 9.50883C3.2817 9.549 3.21933 9.51403 3.19607 9.49714C3.1728 9.48026 3.12026 9.43174 3.13486 9.34666L3.57093 6.80424C3.61374 6.55461 3.53105 6.30004 3.34965 6.12324L1.50246 4.32268C1.44064 4.26239 1.45463 4.19227 1.46354 4.16493C1.47241 4.13756 1.50233 4.0726 1.58775 4.0602L4.14045 3.68926C4.39108 3.65285 4.60766 3.49553 4.71977 3.26837L5.8614 0.955182C5.89961 0.877777 5.97061 0.869414 5.99939 0.869414C6.02813 0.869414 6.09913 0.877754 6.13737 0.955182V0.955205L7.27899 3.26839C7.39108 3.49555 7.60764 3.65287 7.85827 3.68928L10.411 4.06022C10.4964 4.07262 10.5263 4.13758 10.5352 4.16495C10.5441 4.19232 10.5581 4.26245 10.4963 4.3227L8.64909 6.12326C8.46771 6.30004 8.38502 6.55461 8.42784 6.80424Z" fill="white"/>
<path d="M9.59465 0.682813C9.45711 0.582917 9.26468 0.613406 9.16478 0.750899L8.83809 1.20052C8.7382 1.33801 8.76866 1.53049 8.90618 1.63039C8.96084 1.67006 9.02412 1.68918 9.08683 1.68918C9.18201 1.68918 9.27584 1.64518 9.33605 1.56232L9.66274 1.1127C9.76263 0.975186 9.73217 0.782709 9.59465 0.682813Z" fill="white"/>
<path d="M3.15882 1.19854L2.83213 0.748913C2.73226 0.611465 2.53981 0.580977 2.40227 0.680827C2.26477 0.780723 2.23428 0.9732 2.33418 1.11069L2.66087 1.56032C2.72109 1.64324 2.81493 1.68721 2.91013 1.68721C2.97286 1.68721 3.03616 1.6681 3.09076 1.6284C3.22825 1.52853 3.25874 1.33605 3.15882 1.19854Z" fill="white"/>
<path d="M1.29513 7.15902C1.2426 6.99739 1.06899 6.90891 0.907323 6.96143L0.378745 7.1332C0.217075 7.18572 0.128641 7.35938 0.181164 7.521C0.22341 7.65109 0.344064 7.73376 0.473788 7.73376C0.505301 7.73376 0.537362 7.72886 0.568967 7.71858L1.09754 7.54682C1.25919 7.49429 1.34765 7.32068 1.29513 7.15902Z" fill="white"/>
<path d="M5.99916 10.5762C5.8292 10.5762 5.69141 10.714 5.69141 10.8839V11.4397C5.69141 11.6097 5.8292 11.7475 5.99916 11.7475C6.16912 11.7475 6.30691 11.6097 6.30691 11.4397V10.8839C6.30691 10.7139 6.16915 10.5762 5.99916 10.5762Z" fill="white"/>
<path d="M11.619 7.13416L11.0905 6.96239C10.9288 6.90992 10.7552 6.99833 10.7026 7.16C10.6501 7.32167 10.7386 7.49528 10.9002 7.5478L11.4288 7.71957C11.4604 7.72982 11.4924 7.7347 11.524 7.7347C11.6537 7.7347 11.7744 7.652 11.8166 7.52194C11.8691 7.36029 11.7807 7.18668 11.619 7.13416Z" fill="white"/>
</g>
<defs>
<clipPath id="clip0_4274_3440">
<rect width="11.6667" height="11.6667" fill="white" transform="translate(0.166016 0.166992)"/>
</clipPath>
</defs>
</svg>
