<svg width="14" height="14" viewBox="0 0 14 14" fill="none" xmlns="http://www.w3.org/2000/svg">
<g clip-path="url(#clip0_2295_466)">
<path d="M11.3612 4.05444H12.9404L12.3935 6.03539L12.9404 8.01631H9.14459V6.44899" stroke="#484848" stroke-width="0.6" stroke-miterlimit="10" stroke-linecap="round" stroke-linejoin="round"/>
<path d="M11.314 2.44287H7.24805V6.40473H11.314V2.44287Z" stroke="#484848" stroke-width="0.6" stroke-miterlimit="10" stroke-linecap="round" stroke-linejoin="round"/>
<path d="M3.81948 3.43438C4.67 3.43438 5.35948 2.72678 5.35948 1.85391C5.35948 0.981038 4.67 0.273438 3.81948 0.273438C2.96896 0.273438 2.27948 0.981038 2.27948 1.85391C2.27948 2.72678 2.96896 3.43438 3.81948 3.43438Z" stroke="#484848" stroke-width="0.6" stroke-miterlimit="10" stroke-linecap="round" stroke-linejoin="round"/>
<path d="M6.01184 9.1938H1.62714V5.79943C1.62714 5.06465 2.20753 4.46899 2.92353 4.46899H4.7155C5.43147 4.46899 6.0119 5.06465 6.0119 5.79943V9.1938H6.01184Z" stroke="#484848" stroke-width="0.6" stroke-miterlimit="10" stroke-linecap="round" stroke-linejoin="round"/>
<path d="M4.75229 13.7265H2.886L2.2998 9.1936H5.33846L4.75229 13.7265Z" stroke="#484848" stroke-width="0.6" stroke-miterlimit="10" stroke-linecap="round" stroke-linejoin="round"/>
<path d="M1.05957 13.7266H11.8328" stroke="#484848" stroke-width="0.6" stroke-miterlimit="10" stroke-linecap="round" stroke-linejoin="round"/>
<path d="M7.24805 1.99072V13.5786" stroke="#484848" stroke-width="0.6" stroke-miterlimit="10" stroke-linecap="round" stroke-linejoin="round"/>
</g>
<defs>
<clipPath id="clip0_2295_466">
<rect width="14" height="14" fill="white"/>
</clipPath>
</defs>
</svg>
