<svg width="14" height="14" viewBox="0 0 14 14" fill="none" xmlns="http://www.w3.org/2000/svg">
<g clip-path="url(#clip0_4274_3855)">
<path d="M13.1741 9.35712C12.8088 8.99263 12.3467 8.74031 11.8426 8.62998C11.3384 8.51964 10.8133 8.55589 10.3291 8.73445L5.2179 3.62338C5.40357 3.12188 5.43599 2.57651 5.31105 2.05654C5.1861 1.53657 4.90943 1.06547 4.51617 0.703086C4.12291 0.340697 3.63082 0.103371 3.10239 0.0212531C2.57397 -0.0608643 2.03306 0.0159327 1.54837 0.241889C1.49744 0.265702 1.453 0.301433 1.41881 0.346057C1.38462 0.390681 1.36167 0.442885 1.35193 0.498252C1.34218 0.553619 1.34591 0.61052 1.36281 0.664139C1.37971 0.717758 1.40927 0.766517 1.449 0.806291L2.54434 1.90174C2.58738 1.94366 2.62167 1.99372 2.64521 2.049C2.66875 2.10429 2.68108 2.16369 2.68147 2.22378C2.68186 2.28387 2.67032 2.34343 2.64751 2.39902C2.62469 2.45461 2.59107 2.50511 2.54858 2.5476C2.50609 2.59008 2.45558 2.6237 2.39999 2.64651C2.3444 2.66932 2.28484 2.68086 2.22475 2.68046C2.16466 2.68006 2.10526 2.66773 2.04998 2.64419C1.99469 2.62064 1.94464 2.58635 1.90272 2.5433L0.807355 1.44794C0.767567 1.40817 0.718779 1.37858 0.665124 1.36167C0.61147 1.34476 0.55453 1.34103 0.499129 1.3508C0.443728 1.36057 0.391499 1.38356 0.346867 1.4178C0.302235 1.45205 0.266515 1.49654 0.242734 1.54753C0.0168122 2.03242 -0.0599137 2.57351 0.022299 3.1021C0.104512 3.63068 0.341954 4.12291 0.704475 4.51628C1.067 4.90965 1.53824 5.18641 2.05837 5.31142C2.5785 5.43643 3.12404 5.40406 3.62573 5.2184L8.73704 10.3296C8.55145 10.8311 8.5191 11.3765 8.6441 11.8964C8.7691 12.4164 9.04581 12.8874 9.43908 13.2498C9.83236 13.6121 10.3245 13.8494 10.8529 13.9315C11.3813 14.0136 11.9222 13.9368 12.4068 13.7108C12.4577 13.687 12.5021 13.6512 12.5363 13.6066C12.5704 13.562 12.5933 13.5098 12.603 13.4544C12.6127 13.3991 12.609 13.3422 12.5921 13.2886C12.5752 13.235 12.5456 13.1863 12.5059 13.1466L11.4104 12.0511C11.3263 11.9658 11.2793 11.8507 11.2797 11.7309C11.2801 11.6111 11.3279 11.4964 11.4126 11.4117C11.4973 11.3269 11.6121 11.2792 11.7319 11.2788C11.8517 11.2783 11.9668 11.3253 12.0521 11.4095L13.1479 12.5053C13.1877 12.545 13.2365 12.5745 13.2901 12.5913C13.3437 12.6081 13.4006 12.6118 13.456 12.602C13.5113 12.5921 13.5635 12.5692 13.608 12.5349C13.6526 12.5007 13.6883 12.4562 13.712 12.4053C13.9447 11.9032 14.0179 11.3418 13.9217 10.7968C13.8255 10.2517 13.5646 9.74929 13.1741 9.35712ZM13.2469 11.6393L12.5345 10.9269C12.3212 10.7152 12.0327 10.5966 11.7321 10.5972C11.4316 10.5978 11.1435 10.7174 10.931 10.9299C10.7184 11.1425 10.5988 11.4305 10.5982 11.7311C10.5977 12.0316 10.7162 12.3202 10.928 12.5335L11.6399 13.2453C11.2739 13.3147 10.8959 13.2812 10.5479 13.1486C10.1998 13.0161 9.89536 12.7896 9.66829 12.4944C9.44121 12.1992 9.30044 11.8468 9.26161 11.4764C9.22277 11.1059 9.2874 10.732 9.44831 10.3961L9.55123 10.1789L3.77541 4.40303L3.55773 4.50694C3.22162 4.66744 2.84762 4.73169 2.47722 4.69258C2.10682 4.65346 1.7545 4.5125 1.45933 4.28533C1.16417 4.05817 0.937705 3.75367 0.805061 3.40563C0.672416 3.05759 0.638778 2.67961 0.707878 2.31362L1.42024 3.02598C1.63328 3.23902 1.92224 3.35871 2.22353 3.35871C2.52482 3.35871 2.81377 3.23902 3.02682 3.02598C3.23987 2.81293 3.35955 2.52398 3.35955 2.22268C3.35955 1.92139 3.23987 1.63244 3.02682 1.41939L2.31495 0.707416C2.68088 0.638071 3.05888 0.671544 3.40693 0.804115C3.75498 0.936686 4.05946 1.16316 4.28653 1.45838C4.5136 1.7536 4.65437 2.10599 4.6932 2.47641C4.73202 2.84682 4.66739 3.22075 4.50647 3.55664L4.40352 3.77377L10.1794 9.54959L10.3971 9.44569C10.7332 9.28517 11.1072 9.22091 11.4776 9.26004C11.8481 9.29917 12.2004 9.44016 12.4956 9.66737C12.7908 9.89457 13.0172 10.1991 13.1498 10.5472C13.2825 10.8953 13.316 11.2733 13.2469 11.6393V11.6393Z" fill="#CB7C5D"/>
<path d="M7.99539 5.41506L10.3651 3.04534C10.4259 2.98445 10.4712 2.90982 10.4971 2.82774C10.5231 2.74567 10.5289 2.65857 10.5141 2.57377L10.3868 1.84563L12.7022 0.691725C12.7126 0.686391 12.7245 0.684519 12.7362 0.686376C12.7478 0.688233 12.7585 0.693724 12.7668 0.702061L13.2209 1.15616C13.2294 1.16478 13.2349 1.17589 13.2366 1.18787C13.2383 1.19985 13.2361 1.21205 13.2303 1.22269L12.0773 3.5361L11.3492 3.40885C11.2644 3.39405 11.1773 3.39987 11.0952 3.42581C11.0132 3.45175 10.9385 3.49706 10.8776 3.5579L8.50792 5.92759C8.47624 5.95927 8.45111 5.99688 8.43397 6.03828C8.41683 6.07968 8.408 6.12404 8.40801 6.16885C8.40801 6.21365 8.41684 6.25802 8.43398 6.29941C8.45113 6.34081 8.47627 6.37842 8.50795 6.4101C8.57194 6.47408 8.65872 6.51002 8.74921 6.51001C8.79401 6.51001 8.83838 6.50118 8.87977 6.48403C8.92117 6.46689 8.95878 6.44175 8.99046 6.41007L11.3065 4.09405L12.1449 4.24059C12.2345 4.26353 12.3293 4.25388 12.4125 4.21336C12.4956 4.17284 12.5617 4.10408 12.5988 4.01938L13.8401 1.52891C13.9105 1.39019 13.9352 1.23273 13.9107 1.0791C13.8861 0.925476 13.8135 0.78357 13.7033 0.673733L13.2493 0.219581C13.1397 0.109575 12.9982 0.0370282 12.8449 0.0123151C12.6917 -0.012398 12.5345 0.0119884 12.3959 0.0819868L9.90374 1.3241C9.81901 1.36123 9.75025 1.42726 9.70971 1.51041C9.66918 1.59355 9.65953 1.6884 9.68247 1.77801L9.82904 2.6164L7.51302 4.93241C7.44946 4.99648 7.41388 5.08312 7.41406 5.17337C7.41424 5.26361 7.45018 5.35011 7.51399 5.41392C7.5778 5.47774 7.6643 5.51367 7.75454 5.51385C7.84479 5.51403 7.93143 5.47845 7.9955 5.41489L7.99539 5.41506Z" fill="#CB7C5D"/>
<path d="M5.86907 8.56579L5.10084 9.33415L4.58828 8.82148L5.35664 8.05312C5.4202 7.98905 5.45578 7.90241 5.4556 7.81216C5.45542 7.72192 5.41949 7.63542 5.35568 7.57161C5.29186 7.50779 5.20537 7.47186 5.11512 7.47168C5.02487 7.4715 4.93823 7.50708 4.87416 7.57064L4.1058 8.339L3.77071 8.0039C3.70242 7.93593 3.60998 7.89779 3.51364 7.89783C3.41729 7.89786 3.32488 7.93607 3.25664 8.00409L0.512835 10.748C0.33709 10.9225 0.197528 11.13 0.102151 11.3586C0.006774 11.5872 -0.0425409 11.8324 -0.042966 12.0801C-0.0433911 12.3277 0.00508195 12.5731 0.0996735 12.802C0.194265 13.0309 0.333115 13.2389 0.50826 13.4141C0.683405 13.5892 0.891401 13.7281 1.12032 13.8226C1.34924 13.9172 1.59458 13.9657 1.84227 13.9653C2.08996 13.9648 2.33513 13.9155 2.56372 13.8201C2.79231 13.7248 2.99983 13.5852 3.17437 13.4095L5.91823 10.6656C5.98641 10.5975 6.02471 10.505 6.0247 10.4085C6.02471 10.3121 5.98641 10.2196 5.91823 10.1514L5.5833 9.81649L6.35166 9.04827C6.38354 9.01663 6.40887 8.97901 6.42619 8.93757C6.4435 8.89612 6.45246 8.85166 6.45255 8.80674C6.45264 8.76182 6.44386 8.71733 6.42671 8.67581C6.40957 8.6343 6.38439 8.59658 6.35263 8.56481C6.32087 8.53305 6.28314 8.50788 6.24163 8.49073C6.20011 8.47358 6.15562 8.4648 6.1107 8.46489C6.06578 8.46498 6.02132 8.47394 5.97988 8.49125C5.93843 8.50857 5.90081 8.5339 5.86917 8.56579H5.86907ZM2.69191 12.927C2.46657 13.1502 2.162 13.2751 1.84482 13.2744C1.52763 13.2736 1.22365 13.1473 0.999366 12.923C0.775078 12.6987 0.648735 12.3948 0.647971 12.0776C0.647207 11.7604 0.772084 11.4558 0.995289 11.2305L3.51365 8.7121L5.21025 10.4087L2.69191 12.927Z" fill="#CB7C5D"/>
<path d="M3.10671 10.3467L1.92519 11.5446C1.86218 11.6091 1.82729 11.696 1.82814 11.7861C1.82899 11.8763 1.8655 11.9625 1.9297 12.0258C1.99391 12.0891 2.08057 12.1245 2.17075 12.1241C2.26093 12.1237 2.34729 12.0876 2.41095 12.0238L3.59258 10.8259C3.65612 10.7615 3.69147 10.6744 3.69084 10.584C3.69021 10.4935 3.65366 10.4069 3.58923 10.3434C3.5248 10.2798 3.43777 10.2445 3.34728 10.2451C3.25679 10.2458 3.17025 10.2823 3.10671 10.3467Z" fill="#CB7C5D"/>
</g>
<defs>
<clipPath id="clip0_4274_3855">
<rect width="14" height="14" fill="white"/>
</clipPath>
</defs>
</svg>
