<svg width="24" height="24" viewBox="0 0 24 24" fill="none" xmlns="http://www.w3.org/2000/svg">
<g clip-path="url(#clip0_8480_6688)">
<path d="M4.10156 16.6269C4.49138 16.5932 4.83513 16.7287 5.15206 16.9405C5.50681 17.1776 5.76875 17.498 5.98531 17.8624C6.28438 18.3663 6.68663 18.7554 7.26338 18.9252C7.8945 19.1115 8.49881 18.9905 9.08669 18.7382" stroke="black" stroke-width="1.1259" stroke-miterlimit="10" stroke-linecap="round" stroke-linejoin="round"/>
<path d="M8.88722 22.324C4.32559 20.9827 0.996094 16.765 0.996094 11.7695C0.996094 5.69409 5.92066 0.769531 11.9961 0.769531C18.0715 0.769531 22.9961 5.69409 22.9961 11.7695C22.9961 16.765 19.6665 20.9827 15.1049 22.324C14.1191 22.6142 13.0762 22.7695 11.9961 22.7695C10.916 22.7695 9.87309 22.6142 8.88722 22.324Z" stroke="black" stroke-width="1.1259" stroke-miterlimit="10" stroke-linecap="round" stroke-linejoin="round"/>
<path d="M8.8896 22.3242C9.11503 22.0795 9.24634 21.7536 9.24847 21.3947V18.6571C9.24634 17.3983 9.74478 17.0663 10.1085 16.5107C4.36035 15.6528 4.17947 10.3672 6.18697 7.98984C6.21797 7.95409 6.24616 7.88603 6.23303 7.8476C5.9251 6.91672 5.96497 4.86653 6.66966 4.89884C7.63491 4.94353 8.40491 5.48741 9.30065 6.02022C9.36878 6.0601 9.4231 6.07584 9.50216 6.0546C10.3258 5.83116 11.1583 5.71016 11.9985 5.69978C12.8385 5.71016 13.6712 5.83116 14.4947 6.0546C14.5738 6.07584 14.6282 6.0601 14.6962 6.02022C15.592 5.48741 16.362 4.94353 17.3272 4.89884C18.0319 4.86653 18.0718 6.91672 17.7638 7.8476C17.7508 7.88603 17.779 7.95409 17.8099 7.98984C19.8174 10.3672 19.6365 15.6528 13.8884 16.5107C14.2521 17.0663 14.7505 17.3983 14.7485 18.6571V21.3947C14.7505 21.7536 14.8818 22.0795 15.1073 22.3242" stroke="black" stroke-width="1.1259" stroke-miterlimit="10" stroke-linecap="round" stroke-linejoin="round"/>
</g>
<defs>
<clipPath id="clip0_8480_6688">
<rect width="24" height="24" fill="white"/>
</clipPath>
</defs>
</svg>
