<svg width="20" height="20" viewBox="0 0 20 20" fill="none" xmlns="http://www.w3.org/2000/svg">
<path fill-rule="evenodd" clip-rule="evenodd" d="M10 0C4.477 0 0 4.477 0 10C0 14.42 2.865 18.166 6.839 19.489C7.339 19.581 7.521 19.272 7.521 19.007C7.521 18.772 7.512 18.014 7.508 17.152C4.726 17.756 4.139 15.907 4.139 15.907C3.685 14.761 3.029 14.453 3.029 14.453C2.121 13.842 3.098 13.855 3.098 13.855C4.101 13.925 4.629 14.876 4.629 14.876C5.521 16.381 6.97 15.944 7.54 15.687C7.631 15.036 7.889 14.599 8.175 14.352C5.954 14.102 3.62 13.254 3.62 9.438C3.62 8.351 4.01 7.462 4.649 6.769C4.546 6.519 4.203 5.508 4.747 4.146C4.747 4.146 5.587 3.88 7.497 5.153C8.31 4.933 9.15 4.823 9.99 4.819C10.83 4.823 11.67 4.933 12.483 5.153C14.393 3.88 15.233 4.146 15.233 4.146C15.777 5.508 15.434 6.519 15.331 6.769C15.97 7.462 16.36 8.351 16.36 9.438C16.36 13.264 14.023 14.099 11.798 14.343C12.155 14.647 12.478 15.251 12.478 16.177V19.007C12.478 19.275 12.658 19.587 13.168 19.488C17.138 18.163 20 14.418 20 10C20 4.477 15.523 0 10 0Z" fill="#1B1F23"/>
</svg>
