<svg width="14" height="14" viewBox="0 0 14 14" fill="none" xmlns="http://www.w3.org/2000/svg">
<g clip-path="url(#clip0_9041_15278)">
<path d="M13.2139 3.77344L13.1684 3.79356C12.1481 4.24769 11.0885 4.57756 10.0017 4.79456C10.3089 6.25144 10.308 7.75644 10 9.21244C11.0868 9.42856 12.1516 9.75581 13.1675 10.2082L13.2121 10.2283C13.7118 9.26144 13.9979 8.16594 13.9979 7.00131C13.9979 5.83669 13.7118 4.74119 13.2139 3.77344Z" fill="#AA8C83"/>
<path d="M5.08984 9.93036C5.47659 11.1615 6.11447 12.3279 6.99997 13.3586C7.88547 12.3279 8.52422 11.1615 8.91009 9.93036C7.64222 9.76236 6.35772 9.76323 5.08984 9.93036Z" fill="#AA8C83"/>
<path d="M9.13594 4.92969C8.43244 5.02856 7.72194 5.09594 6.99919 5.09594C6.27556 5.09594 5.56506 5.02769 4.86156 4.92969C4.56669 6.29644 4.56669 7.71044 4.86331 9.07719C6.27994 8.88031 7.71756 8.88031 9.13419 9.07719C9.43081 7.71044 9.43169 6.29644 9.13594 4.92969Z" fill="#AA8C83"/>
<path d="M6.99997 0.640625C6.11447 1.67138 5.47659 2.83775 5.08984 4.06975C6.35772 4.23687 7.64309 4.23687 8.91009 4.06975C8.52334 2.83862 7.88547 1.67138 6.99997 0.640625Z" fill="#AA8C83"/>
<path d="M7.60156 0C8.62881 1.176 9.36031 2.51737 9.78556 3.934C10.8058 3.7345 11.8051 3.43088 12.7588 3.01C11.6038 1.33088 9.74006 0.18375 7.60156 0Z" fill="#AA8C83"/>
<path d="M1.23828 3.01C2.19291 3.43 3.19216 3.7345 4.21153 3.934C4.63678 2.51737 5.36828 1.176 6.39553 0C4.25703 0.18375 2.39416 1.33088 1.23828 3.01Z" fill="#AA8C83"/>
<path d="M3.99612 4.79456C2.90937 4.57669 1.85062 4.24769 0.83125 3.79356L0.78575 3.77344C0.286125 4.74031 0 5.83581 0 7.00044C0 8.16506 0.286125 9.26056 0.78575 10.2283L0.83125 10.2082C1.84625 9.75494 2.91112 9.42769 3.99787 9.21244C3.689 7.75644 3.689 6.25144 3.99612 4.79456Z" fill="#AA8C83"/>
<path d="M4.21153 10.0664C3.19128 10.265 2.19203 10.5695 1.23828 10.9895C2.39416 12.6687 4.25703 13.8158 6.39553 13.9995C5.36828 12.8235 4.63678 11.4822 4.21153 10.0664Z" fill="#AA8C83"/>
<path d="M9.78556 10.0664C9.36119 11.483 8.62881 12.8244 7.60156 14.0004C9.74006 13.8167 11.6038 12.6695 12.7588 10.9904C11.8051 10.5695 10.8058 10.2659 9.78556 10.0664Z" fill="#AA8C83"/>
</g>
<defs>
<clipPath id="clip0_9041_15278">
<rect width="14" height="14" fill="white"/>
</clipPath>
</defs>
</svg>
