<svg width="16" height="16" viewBox="0 0 16 16" fill="none" xmlns="http://www.w3.org/2000/svg">
<g clip-path="url(#clip0_9055_12998)">
<path d="M3.84009 12.2266H0.613281C0.354406 12.2266 0.144531 12.4364 0.144531 12.6953V15.5303C0.144531 15.7892 0.354406 15.9991 0.613281 15.9991H4.30887V12.6953C4.30884 12.4364 4.099 12.2266 3.84009 12.2266Z" fill="#CB7C5D"/>
<path d="M8.47294 9.60156H5.71484C5.45597 9.60156 5.24609 9.81144 5.24609 10.0703V15.9991H8.94169V10.0703C8.94169 9.81144 8.73181 9.60156 8.47294 9.60156Z" fill="#CB7C5D"/>
<path d="M14.9298 2.53156L15.8745 1.50625C16.0008 1.36937 16.0339 1.17094 15.9592 1.00063C15.8845 0.83 15.7161 0.72 15.5298 0.72H12.508V0.46875C12.508 0.21 12.2983 0 12.0392 0C11.7805 0 11.5705 0.21 11.5705 0.46875V5.9375H10.3477C10.0888 5.9375 9.87891 6.14738 9.87891 6.40625V16H13.6542C13.9132 16 14.1229 15.79 14.1229 15.5312V6.40625C14.1229 6.1475 13.9132 5.9375 13.6542 5.9375H12.508V4.26031H15.5298C15.7195 4.26031 15.8904 4.14594 15.9629 3.97062C16.0354 3.79531 15.9951 3.59344 15.8608 3.45969L14.9298 2.53156Z" fill="#CB7C5D"/>
<path d="M7.9548 4.02315C8.06984 4.25508 8.35102 4.34983 8.58299 4.23483C8.81493 4.1198 8.90971 3.83855 8.79468 3.60662C7.94487 1.89296 8.03084 2.06571 8.01849 2.04243C7.9304 1.87599 7.74915 1.77549 7.55612 1.79549C7.5548 1.79562 7.55346 1.7959 7.55212 1.79605C7.51377 1.80037 7.61618 1.78027 5.84074 2.1539C5.5874 2.20721 5.42527 2.4558 5.47855 2.70915C5.52502 2.92993 5.7198 3.08146 5.93677 3.08146C6.00202 3.08146 5.95999 3.08687 6.7844 2.91337C6.16971 4.11993 5.36968 5.21949 4.39815 6.19108C3.20743 7.38183 1.82399 8.31537 0.286273 8.96574C0.0478355 9.06662 -0.0636958 9.34161 0.0371479 9.58005C0.138054 9.81871 0.41321 9.92996 0.65146 9.82921C2.30093 9.13155 3.78452 8.13055 5.06102 6.85399C6.10143 5.81358 6.95868 4.63593 7.61768 3.34343L7.9548 4.02315Z" fill="#CB7C5D"/>
</g>
<defs>
<clipPath id="clip0_9055_12998">
<rect width="16" height="16" fill="white"/>
</clipPath>
</defs>
</svg>
