<svg width="14" height="14" viewBox="0 0 14 14" fill="none" xmlns="http://www.w3.org/2000/svg">
<path fill-rule="evenodd" clip-rule="evenodd" d="M10.4567 10.3085C10.4567 10.2079 10.5382 10.1264 10.6388 10.1264C10.7394 10.1264 10.821 10.2079 10.821 10.3085V11.898C10.821 11.9986 10.7394 12.0802 10.6388 12.0802H9.04932C8.94871 12.0802 8.86715 11.9986 8.86715 11.898C8.86715 11.7974 8.94871 11.7159 9.04932 11.7159H10.4324C10.4458 11.7159 10.4567 11.705 10.4567 11.6916V10.3085ZM12.4652 3.64178L10.0363 5.25819C10.0291 5.26298 10.0252 5.27054 10.0255 5.27919C10.0258 5.28785 10.0301 5.29513 10.0376 5.29944L10.5743 5.60931L10.5741 5.60962C10.6674 5.66613 10.6938 5.78174 10.6376 5.86991C8.7451 8.84228 6.19802 10.8821 2.93384 11.9042C2.92183 11.9079 2.91469 11.9201 2.91735 11.9325C2.91998 11.9447 2.93137 11.9529 2.94383 11.9515C4.40854 11.7847 5.75221 11.3901 6.96808 10.7552C8.75498 9.82208 10.27 8.36762 11.4921 6.35143C11.5437 6.26423 11.656 6.2345 11.7441 6.28515L12.2811 6.59514C12.2886 6.59945 12.2971 6.59959 12.3047 6.59553C12.3123 6.59144 12.3169 6.5843 12.3174 6.57568L12.5029 3.66357C12.5035 3.65413 12.499 3.64573 12.4908 3.641C12.4826 3.63624 12.4731 3.63655 12.4652 3.64178ZM8.71153 3.39009C8.71153 3.07067 8.45141 2.81057 8.13201 2.81057H8.02057C8.00719 2.81057 7.99629 2.79968 7.99629 2.7863V2.13513C7.99629 2.01683 8.0932 1.91992 8.2115 1.91992H9.84074C9.95904 1.91992 10.0559 2.01683 10.0559 2.13513V4.78547C10.0559 4.79384 10.0521 4.80104 10.0451 4.80569L9.54873 5.13603C9.43443 5.21185 9.43841 5.38268 9.55819 5.45193L10.1973 5.82091C10.2033 5.82438 10.2072 5.82959 10.2088 5.83631C10.2104 5.84306 10.2093 5.84944 10.2055 5.85524C9.75643 6.54132 9.27248 7.17177 8.75389 7.74697C8.74703 7.75459 8.73672 7.75705 8.72715 7.75339C8.71757 7.74972 8.71158 7.74095 8.71158 7.73071V3.39009H8.71153ZM7.0028 4.90007C7.0028 4.58065 6.74268 4.32056 6.42328 4.32056H6.31184C6.29846 4.32056 6.28757 4.30967 6.28757 4.29628V3.39009C6.28757 3.27179 6.38447 3.17488 6.50277 3.17488H8.13201C8.25031 3.17488 8.34722 3.27179 8.34722 3.39009V8.16952C8.34722 8.17613 8.34489 8.18181 8.34025 8.18655C7.92792 8.60627 7.49515 8.99342 7.04208 9.34815C7.03458 9.35401 7.02503 9.35504 7.01649 9.35087C7.00792 9.3467 7.00283 9.33855 7.00283 9.32906L7.0028 4.90007ZM5.2941 6.41006C5.2941 6.09063 5.03398 5.83054 4.71458 5.83054H4.60314C4.58976 5.83054 4.57887 5.81965 4.57887 5.80627V4.9001C4.57887 4.7818 4.67577 4.68489 4.79407 4.68489H6.42331C6.54161 4.68489 6.63852 4.7818 6.63852 4.9001V9.63927C6.63852 9.64733 6.63496 9.65428 6.62844 9.65898C6.21219 9.95892 5.77937 10.2331 5.33016 10.4816C5.32243 10.4859 5.3137 10.4857 5.30608 10.4812C5.29847 10.4767 5.29413 10.4692 5.29413 10.4603V6.41006H5.2941ZM4.92979 10.679C4.92979 10.6884 4.92486 10.6964 4.91649 10.7006C4.27655 11.0251 3.60494 11.2996 2.90183 11.5242C2.89422 11.5267 2.88657 11.5254 2.88011 11.5207C2.87364 11.516 2.87014 11.5091 2.87014 11.5011V6.41006C2.87014 6.29176 2.96705 6.19485 3.08535 6.19485H4.71458C4.83288 6.19485 4.92979 6.29176 4.92979 6.41006V10.679ZM1.86043 3.76442C1.86043 3.86503 1.77887 3.94659 1.67826 3.94659C1.57766 3.94659 1.49609 3.86503 1.49609 3.76442V2.17492C1.49609 2.07431 1.57766 1.99275 1.67826 1.99275H3.26777C3.36837 1.99275 3.44993 2.07431 3.44993 2.17492C3.44993 2.27552 3.36837 2.35709 3.26777 2.35709H1.88471C1.87132 2.35709 1.86043 2.36798 1.86043 2.38136V3.76442Z" fill="#C97676"/>
</svg>
