<svg width="14" height="14" viewBox="0 0 14 14" fill="none" xmlns="http://www.w3.org/2000/svg">
<path d="M3.11118 8.81445H1.55563C1.26926 8.81445 1.03711 9.0466 1.03711 9.33297V11.407C1.03711 11.6934 1.26926 11.9256 1.55563 11.9256H3.11118C3.39755 11.9256 3.6297 11.6934 3.6297 11.407V9.33297C3.6297 9.0466 3.39755 8.81445 3.11118 8.81445Z" fill="#5F6D94"/>
<path d="M9.33384 7.77734H7.77828C7.49191 7.77734 7.25977 8.00949 7.25977 8.29586V11.407C7.25977 11.6933 7.49191 11.9255 7.77828 11.9255H9.33384C9.62021 11.9255 9.85236 11.6933 9.85236 11.407V8.29586C9.85236 8.00949 9.62021 7.77734 9.33384 7.77734Z" fill="#5F6D94"/>
<path d="M6.22251 6.74121H4.66696C4.38059 6.74121 4.14844 6.97336 4.14844 7.25973V11.4079C4.14844 11.6942 4.38059 11.9264 4.66696 11.9264H6.22251C6.50888 11.9264 6.74103 11.6942 6.74103 11.4079V7.25973C6.74103 6.97336 6.50888 6.74121 6.22251 6.74121Z" fill="#5F6D94"/>
<path d="M12.4452 5.18555H10.8896C10.6032 5.18555 10.3711 5.4177 10.3711 5.70407V11.4078C10.3711 11.6941 10.6032 11.9263 10.8896 11.9263H12.4452C12.7315 11.9263 12.9637 11.6941 12.9637 11.4078V5.70407C12.9637 5.4177 12.7315 5.18555 12.4452 5.18555Z" fill="#5F6D94"/>
<path d="M2.0737 7.77792C2.17593 7.77799 2.27586 7.74767 2.36081 7.69081L5.26104 5.75753L8.13137 6.7143C8.22273 6.74475 8.32077 6.74915 8.41449 6.72701C8.50821 6.70488 8.59392 6.65707 8.662 6.58896L11.4065 3.84447V4.14829C11.4065 4.28581 11.4611 4.4177 11.5584 4.51494C11.6556 4.61218 11.7875 4.66681 11.925 4.66681C12.0626 4.66681 12.1944 4.61218 12.2917 4.51494C12.3889 4.4177 12.4436 4.28581 12.4436 4.14829V2.59274C12.4436 2.45522 12.3889 2.32333 12.2917 2.22609C12.1944 2.12885 12.0626 2.07422 11.925 2.07422H10.3695C10.232 2.07422 10.1001 2.12885 10.0028 2.22609C9.90559 2.32333 9.85096 2.45522 9.85096 2.59274C9.85096 2.73026 9.90559 2.86214 10.0028 2.95939C10.1001 3.05663 10.232 3.11126 10.3695 3.11126H10.6733L8.15541 5.62918L5.34836 4.6934C5.27341 4.66857 5.1938 4.66112 5.11555 4.6716C5.03729 4.68209 4.96245 4.71023 4.89668 4.75391L1.78557 6.82798C1.69294 6.88974 1.62265 6.97967 1.58509 7.08447C1.54753 7.18927 1.5447 7.30337 1.57701 7.40991C1.60933 7.51644 1.67507 7.60975 1.76452 7.67603C1.85397 7.7423 1.96238 7.77803 2.0737 7.77792Z" fill="#5F6D94"/>
</svg>
