<svg width="20" height="20" viewBox="0 0 20 20" fill="none" xmlns="http://www.w3.org/2000/svg">
<path d="M10 16.25C10.8629 16.25 11.5625 15.5504 11.5625 14.6875C11.5625 13.8246 10.8629 13.125 10 13.125C9.13706 13.125 8.4375 13.8246 8.4375 14.6875C8.4375 15.5504 9.13706 16.25 10 16.25Z" stroke="#CB7C5D" stroke-width="1.17188" stroke-miterlimit="10" stroke-linecap="round" stroke-linejoin="round"/>
<path d="M13.125 19.4141C13.125 17.6882 11.7259 16.25 10 16.25C8.2741 16.25 6.875 17.6882 6.875 19.4141" stroke="#CB7C5D" stroke-width="1.17188" stroke-miterlimit="10" stroke-linecap="round" stroke-linejoin="round"/>
<path d="M17.8125 19.4141C17.8125 19.4141 12.8125 14.6875 12.8125 5.9375H15L10 0.585938L5 5.9375H7.1875C7.1875 14.6875 2.1875 19.4141 2.1875 19.4141H17.8125Z" stroke="#CB7C5D" stroke-width="1.17188" stroke-miterlimit="10" stroke-linecap="round" stroke-linejoin="round"/>
</svg>
