<svg width="16" height="16" viewBox="0 0 16 16" fill="none" xmlns="http://www.w3.org/2000/svg">
<path d="M13.5854 3.26763C12.9954 2.6766 12.2219 2.30382 11.392 2.21054C10.5621 2.11725 9.72518 2.30901 9.01869 2.7543L10.4987 4.26097C10.5578 4.3264 10.6034 4.40291 10.6327 4.48607C10.6621 4.56923 10.6746 4.65739 10.6697 4.74544C10.6647 4.83348 10.6423 4.91967 10.6038 4.99901C10.5653 5.07835 10.5115 5.14926 10.4454 5.20763C10.3221 5.31635 10.163 5.3757 9.99869 5.3743C9.90454 5.37502 9.8113 5.35578 9.72512 5.31786C9.63894 5.27994 9.56177 5.2242 9.49869 5.1543L7.61869 3.26763C7.3491 2.99829 7.03859 2.77329 6.69869 2.60097C6.0052 2.24569 5.2171 2.11886 4.44716 2.2386C3.67721 2.35834 2.96487 2.71853 2.41202 3.26763C1.72022 4.07289 1.33984 5.09936 1.33984 6.16097C1.33984 7.22258 1.72022 8.24905 2.41202 9.0543C3.65202 10.3876 6.66536 13.4743 8.01869 13.4743C9.07202 13.4743 11.1387 11.601 12.572 10.141C12.932 9.78097 13.2387 9.4743 13.5054 9.1743L13.6054 9.06763C14.298 8.25907 14.677 7.22856 14.6733 6.16392C14.6696 5.09928 14.2835 4.0714 13.5854 3.26763ZM9.33202 9.00097H8.66536V9.66763C8.66536 9.84445 8.59512 10.014 8.47009 10.139C8.34507 10.2641 8.1755 10.3343 7.99869 10.3343C7.82188 10.3343 7.65231 10.2641 7.52728 10.139C7.40226 10.014 7.33202 9.84445 7.33202 9.66763V9.00097H6.66536C6.48854 9.00097 6.31898 8.93073 6.19395 8.80571C6.06893 8.68068 5.99869 8.51111 5.99869 8.3343C5.99869 8.15749 6.06893 7.98792 6.19395 7.8629C6.31898 7.73787 6.48854 7.66763 6.66536 7.66763H7.33202V7.00097C7.33202 6.82416 7.40226 6.65459 7.52728 6.52956C7.65231 6.40454 7.82188 6.3343 7.99869 6.3343C8.1755 6.3343 8.34507 6.40454 8.47009 6.52956C8.59512 6.65459 8.66536 6.82416 8.66536 7.00097V7.66763H9.33202C9.50883 7.66763 9.6784 7.73787 9.80343 7.8629C9.92845 7.98792 9.99869 8.15749 9.99869 8.3343C9.99869 8.51111 9.92845 8.68068 9.80343 8.80571C9.6784 8.93073 9.50883 9.00097 9.33202 9.00097Z" fill="#CB7C5D"/>
</svg>
