<svg width="14" height="14" viewBox="0 0 14 14" fill="none" xmlns="http://www.w3.org/2000/svg">
<path d="M11.4423 4.61124C11.2823 2.69143 9.98531 1.22605 8.34612 0.734311C6.94081 0.319686 5.48146 0.57278 4.33999 1.42353C3.21456 2.26356 2.54688 3.60432 2.54688 4.99892C2.54688 6.12432 2.97228 7.30894 3.68309 8.17585C4.04381 8.6174 4.28071 9.0966 4.38311 9.59201H6.4615V6.66278L6.45072 6.67353C6.34844 6.78661 6.20305 6.85123 6.04688 6.85123C5.8907 6.85123 5.7453 6.78661 5.64303 6.67353L4.68994 5.5966C4.49617 5.37046 4.51773 5.03122 4.73845 4.83739C4.96456 4.63816 5.30386 4.65968 5.49763 4.88047L6.04688 5.49968C6.09483 5.44561 6.64407 4.8264 6.59612 4.88047C7.0499 4.42725 7.37191 4.89405 7.44693 4.93431L7.95305 5.50507L8.50768 4.88047C8.70145 4.65968 9.04614 4.63816 9.26686 4.83739C9.48772 5.03122 9.50915 5.37046 9.30998 5.5966L8.3569 6.67353C8.25462 6.78661 8.10923 6.85123 7.95305 6.85123C7.80227 6.85123 7.65148 6.78661 7.55459 6.67353L7.53842 6.65739V9.59201H9.62233C9.71922 9.0966 9.93994 8.62814 10.2739 8.24047C11.1139 7.27663 11.5499 5.9197 11.4423 4.61124Z" fill="#747F9E"/>
<path d="M9.5675 10.898V10.6719C9.45874 10.6719 4.30775 10.6719 4.43595 10.6719V10.898C4.43595 12.3142 5.5882 13.4611 6.99903 13.4611C8.41512 13.4611 9.5675 12.3142 9.5675 10.898Z" fill="#747F9E"/>
</svg>
