<svg width="30" height="30" viewBox="0 0 30 30" fill="none" xmlns="http://www.w3.org/2000/svg">
<path fill-rule="evenodd" clip-rule="evenodd" d="M20.512 22.5093C19.3099 22.5093 18.7755 21.5846 18.7755 20.6021V20.0992H17.8811C17.6556 20.0992 17.5193 19.8552 17.6258 19.6595L18.7755 17.5481C18.7755 15.6063 20.096 14.1204 22.1175 14.012C24.7175 13.8728 25.8601 15.3802 25.9446 17.2238C26.0963 20.5176 24.0224 21.0799 24.0379 22.5093V24.0798H20.512V22.5093ZM11.1679 27.5477V29.1181H7.64205V27.5477C7.65752 26.1183 5.58364 25.5559 5.7354 22.2621C5.81988 20.4185 6.96246 18.9112 9.5624 19.0504C11.5839 19.1587 12.9044 20.6446 12.9044 22.5864L14.0541 24.6978C14.1606 24.8936 14.0244 25.1376 13.7988 25.1376H12.9044V25.6404C12.9044 26.6229 12.3701 27.5477 11.1679 27.5477ZM17.8843 8.97364V8.47752C17.8843 7.45917 17.0531 6.62787 16.0347 6.62787H12.0043V1.90893C12.0043 1.34399 12.4655 0.882812 13.0304 0.882812H23.9921C24.5571 0.882812 25.0182 1.34399 25.0182 1.90893V7.94752C25.0182 8.51246 24.5571 8.97364 23.9921 8.97364H23.1303V11.6198C23.1303 11.7452 23.0506 11.8569 22.932 11.8978C22.8134 11.9387 22.6819 11.8998 22.6045 11.801L20.392 8.97364H17.8843ZM16.4453 4.70799L17.826 5.98105C17.9818 6.12475 18.2213 6.12664 18.3794 5.98546L20.5723 4.02722C20.7418 3.87587 20.7565 3.61534 20.6052 3.44581C20.4538 3.27634 20.1933 3.26158 20.0238 3.41299L18.1096 5.12234L17.0036 4.10258C16.8365 3.94852 16.5758 3.95911 16.4218 4.12617C16.2677 4.29322 16.2783 4.55399 16.4453 4.70799ZM8.67311 15.5422L6.46058 18.3696C6.38329 18.4685 6.25176 18.5073 6.13311 18.4664C6.01446 18.4255 5.93488 18.3139 5.93488 18.1883V15.5422H5.07305C4.50811 15.5422 4.04688 15.081 4.04688 14.5161V8.47752C4.04688 7.91258 4.50811 7.4514 5.07305 7.4514H16.0347C16.5996 7.4514 17.0608 7.91258 17.0608 8.47752V14.5161C17.0608 15.081 16.5996 15.5422 16.0347 15.5422H8.67311ZM6.98546 10.4213H14.1222C14.3495 10.4213 14.534 10.2368 14.534 10.0095C14.534 9.78228 14.3495 9.59775 14.1222 9.59775H6.98546C6.75823 9.59775 6.5737 9.78228 6.5737 10.0095C6.5737 10.2368 6.75823 10.4213 6.98546 10.4213ZM6.98546 13.1826H14.1222C14.3495 13.1826 14.534 12.9981 14.534 12.7709C14.534 12.5436 14.3495 12.3591 14.1222 12.3591H6.98546C6.75823 12.3591 6.5737 12.5436 6.5737 12.7709C6.5737 12.9981 6.75823 13.1826 6.98546 13.1826Z" fill="#CB7C5D"/>
</svg>
