<svg width="16" height="16" viewBox="0 0 16 16" fill="none" xmlns="http://www.w3.org/2000/svg">
<path fill-rule="evenodd" clip-rule="evenodd" d="M8 1C11.866 1 15 4.13401 15 8C15 11.866 11.866 15 8 15C4.13401 15 1 11.866 1 8C1 4.13401 4.13401 1 8 1ZM8 10.3333C8.42956 10.3333 8.77778 10.6816 8.77778 11.1111C8.77778 11.5407 8.42956 11.8889 8 11.8889C7.57045 11.8889 7.22222 11.5407 7.22222 11.1111C7.22222 10.6816 7.57045 10.3333 8 10.3333ZM8 4.11111C8.32217 4.11111 8.58333 4.37228 8.58333 4.69444V8.77778C8.58333 9.09994 8.32217 9.36111 8 9.36111C7.67783 9.36111 7.41667 9.09994 7.41667 8.77778V4.69444C7.41667 4.37228 7.67783 4.11111 8 4.11111Z" fill="#FF9902"/>
</svg>
