<svg width="14" height="14" viewBox="0 0 14 14" fill="none" xmlns="http://www.w3.org/2000/svg">
<g clip-path="url(#clip0_9041_15243)">
<path fill-rule="evenodd" clip-rule="evenodd" d="M0.444412 13.4271C0.643157 12.295 1.63093 11.4346 2.81955 11.4346C4.00881 11.4346 4.99664 12.2951 5.19541 13.4271C5.20194 13.4668 5.19069 13.5075 5.16461 13.5382C5.13853 13.5689 5.10026 13.5866 5.05997 13.5866C4.33334 13.5866 1.30602 13.5866 0.579224 13.586C0.539091 13.586 0.500989 13.5684 0.47502 13.5378C0.449051 13.5072 0.437851 13.4667 0.444412 13.4271ZM2.81955 11.1601C2.1481 11.1601 1.60078 10.6121 1.60078 9.9407C1.60078 9.26922 2.1481 8.72127 2.81955 8.72127C3.49166 8.72127 4.03898 9.26922 4.03898 9.9407C4.03898 10.6121 3.49166 11.1601 2.81955 11.1601ZM8.8255 13.4271C9.02424 12.295 10.012 11.4346 11.2006 11.4346C12.3899 11.4346 13.3777 12.2951 13.5765 13.4271C13.5831 13.4668 13.5718 13.5075 13.5457 13.5382C13.5196 13.5689 13.4813 13.5866 13.4411 13.5866C12.7144 13.5866 9.6871 13.5866 8.96031 13.586C8.92018 13.586 8.88208 13.5684 8.85611 13.5378C8.83014 13.5072 8.81894 13.4667 8.8255 13.4271ZM11.2006 11.1601C10.5292 11.1601 9.98187 10.6121 9.98187 9.9407C9.98187 9.26922 10.5292 8.72127 11.2006 8.72127C11.8727 8.72127 12.4201 9.26922 12.4201 9.9407C12.4201 10.6121 11.8727 11.1601 11.2006 11.1601ZM4.63494 10.0169C4.83371 8.88482 5.82148 8.02443 7.01011 8.02443C8.19937 8.02443 9.18717 8.88485 9.38594 10.0168C9.3925 10.0566 9.38124 10.0972 9.35517 10.128C9.32909 10.1587 9.29082 10.1764 9.25049 10.1764C8.5239 10.1764 5.49657 10.1764 4.76978 10.1758C4.72965 10.1758 4.69152 10.1582 4.66555 10.1276C4.63961 10.0969 4.62841 10.0565 4.63494 10.0169ZM7.01011 7.74992C6.33863 7.74992 5.79131 7.20194 5.79131 6.53049C5.79131 5.85904 6.33863 5.31106 7.01011 5.31106C7.68219 5.31106 8.22954 5.85904 8.22954 6.53049C8.22954 7.20194 7.68219 7.74992 7.01011 7.74992ZM9.40779 3.50223C9.40779 3.78561 9.1766 4.01603 8.89322 4.01603H6.5687L6.17184 4.80827C6.1482 4.85546 6.09959 4.88491 6.04683 4.88403C5.99404 4.88316 5.94647 4.85208 5.92442 4.80412L5.56215 4.01603H5.12697C4.84362 4.01603 4.6124 3.78561 4.6124 3.50223V0.924725C4.6124 0.641376 4.84362 0.410156 5.12697 0.410156H8.89322C9.1766 0.410156 9.40779 0.641376 9.40779 0.924725V3.50223ZM5.61508 1.62544H8.35996C8.48118 1.62544 8.57957 1.52703 8.57957 1.40583C8.57957 1.28461 8.48118 1.18622 8.35996 1.18622H5.61508C5.49388 1.18622 5.39547 1.28461 5.39547 1.40583C5.39547 1.52703 5.49388 1.62544 5.61508 1.62544ZM5.61508 2.44205H8.35996C8.48118 2.44205 8.57957 2.34364 8.57957 2.22244C8.57957 2.10122 8.48118 2.00283 8.35996 2.00283H5.61508C5.49388 2.00283 5.39547 2.10122 5.39547 2.22244C5.39547 2.34364 5.49388 2.44205 5.61508 2.44205ZM5.61508 3.25789H8.35996C8.48118 3.25789 8.57957 3.15948 8.57957 3.03829C8.57957 2.91706 8.48118 2.81868 8.35996 2.81868H5.61508C5.49388 2.81868 5.39547 2.91706 5.39547 3.03829C5.39547 3.15948 5.49388 3.25789 5.61508 3.25789ZM11.4728 3.51558C12.6133 3.51558 13.5379 4.44015 13.5379 5.5806C13.5379 6.72108 12.6133 7.64566 11.4728 7.64566C11.2422 7.64566 11.0209 7.60745 10.8138 7.53838L10.2385 8.02731C10.201 8.05923 10.1492 8.06857 10.1029 8.0518C10.0566 8.03502 10.0228 7.9947 10.0144 7.94616L9.81878 6.81697C9.56066 6.47235 9.40779 6.04458 9.40779 5.5806C9.40779 4.44015 10.3324 3.51558 11.4728 3.51558ZM11.4728 6.7146C12.1256 6.7146 12.6574 6.18282 12.6574 5.53004C12.6574 4.87808 12.1256 4.3455 11.4728 4.3455C10.8209 4.3455 10.2883 4.87808 10.2883 5.53004C10.2883 6.18282 10.8209 6.7146 11.4728 6.7146ZM10.7611 5.71876C10.6754 5.63306 10.6754 5.49391 10.7611 5.40821C10.8468 5.32251 10.9859 5.32251 11.0717 5.40821L11.2485 5.58508L11.8825 5.00995C11.9723 4.92853 12.1113 4.93529 12.1927 5.02505C12.2742 5.11484 12.2674 5.25383 12.1776 5.33527L11.3887 6.05095C11.302 6.12965 11.1687 6.12641 11.0859 6.04356L10.7611 5.71876ZM2.4869 3.51558C3.62738 3.51558 4.55196 4.44015 4.55196 5.5806C4.55196 6.04458 4.39908 6.47235 4.14096 6.81697L3.94535 7.94616C3.93695 7.9947 3.90315 8.03502 3.85684 8.0518C3.81053 8.06857 3.75876 8.05923 3.72124 8.02731L3.14597 7.53838C2.9388 7.60745 2.71755 7.64566 2.4869 7.64566C1.34645 7.64566 0.421875 6.72108 0.421875 5.5806C0.421875 4.44015 1.34645 3.51558 2.4869 3.51558ZM2.4869 6.7146C3.13969 6.7146 3.67147 6.18282 3.67147 5.53004C3.67147 4.87808 3.13969 4.3455 2.4869 4.3455C1.83491 4.3455 1.30234 4.87808 1.30234 5.53004C1.30234 6.18282 1.83491 6.7146 2.4869 6.7146ZM1.77515 5.71876C1.68945 5.63306 1.68945 5.49391 1.77515 5.40821C1.86088 5.32251 2.00003 5.32251 2.08573 5.40821L2.26263 5.58508L2.89661 5.00995C2.98637 4.92853 3.12539 4.93529 3.2068 5.02505C3.28825 5.11484 3.2815 5.25383 3.19171 5.33527L2.40279 6.05095C2.31605 6.12965 2.1828 6.12641 2.09995 6.04356L1.77515 5.71876Z" fill="#A38B55"/>
</g>
<defs>
<clipPath id="clip0_9041_15243">
<rect width="14" height="14" fill="white"/>
</clipPath>
</defs>
</svg>
