<svg width="16" height="16" viewBox="0 0 16 16" fill="none" xmlns="http://www.w3.org/2000/svg">
<path fill-rule="evenodd" clip-rule="evenodd" d="M3.65544 14.8749H1.4715C1.26529 14.8749 1.09657 14.7062 1.09657 14.5V11.9598H0.374835C0.234237 11.9598 0.103013 11.8848 0.0374009 11.7536C-0.0188381 11.6224 -0.00946495 11.4724 0.0748936 11.3599L2.26822 8.44489C2.33383 8.35116 2.44631 8.29492 2.56816 8.29492C2.68063 8.29492 2.79311 8.35116 2.8681 8.44489L5.02393 11.3318C5.08954 11.3974 5.12703 11.4912 5.12703 11.5849C5.12703 11.7911 4.95831 11.9598 4.75211 11.9598H4.03037V14.5C4.03037 14.7062 3.86165 14.8749 3.65544 14.8749Z" fill="#CB7C5D"/>
<path fill-rule="evenodd" clip-rule="evenodd" d="M9.09109 14.8749H6.89777C6.69156 14.8749 6.53222 14.7062 6.53222 14.4999V10.8632H5.81048C5.66988 10.8632 5.53866 10.7788 5.47305 10.6569C5.40744 10.5257 5.42618 10.3757 5.51054 10.2633L7.69449 7.34821C7.76947 7.25448 7.88195 7.19824 7.99443 7.19824C8.11628 7.19824 8.22876 7.25448 8.29437 7.34821L10.4596 10.2351C10.5252 10.3008 10.5627 10.3851 10.5627 10.4882C10.5627 10.6944 10.394 10.8632 10.1878 10.8632H9.46602V14.4999C9.46602 14.7062 9.2973 14.8749 9.09109 14.8749Z" fill="#CB7C5D"/>
<path fill-rule="evenodd" clip-rule="evenodd" d="M14.5283 14.8748H12.335C12.1288 14.8748 11.96 14.7061 11.96 14.4999V9.76647H11.2383C11.0977 9.76647 10.9665 9.68211 10.9102 9.56026C10.8446 9.42904 10.854 9.27907 10.9384 9.16659L13.1317 6.25153C13.1973 6.1578 13.3098 6.10156 13.4316 6.10156C13.5441 6.10156 13.6566 6.1578 13.7316 6.25153L15.8968 9.13847C15.953 9.20408 15.9999 9.28844 15.9999 9.39155C15.9999 9.59775 15.8312 9.76647 15.6249 9.76647C15.6156 9.76647 15.6156 9.76647 15.6156 9.76647H14.9032V14.4999C14.9032 14.7061 14.7345 14.8748 14.5283 14.8748Z" fill="#CB7C5D"/>
<path fill-rule="evenodd" clip-rule="evenodd" d="M1.42464 8.02319C1.34028 8.02319 1.2653 7.99507 1.19969 7.9482C1.08721 7.86384 1.0216 7.71387 1.04971 7.57328L1.25592 6.49536L0.459205 5.74551C0.3561 5.6424 0.309234 5.49243 0.3561 5.35184C0.402966 5.22061 0.524817 5.11751 0.665415 5.09876L1.76208 4.95816L2.22136 3.96461C2.28697 3.83338 2.4182 3.74902 2.56817 3.74902C2.70877 3.74902 2.83999 3.83338 2.9056 3.96461L3.37426 4.95816L4.46155 5.09876C4.60215 5.11751 4.724 5.22061 4.77086 5.35184C4.81773 5.49243 4.77086 5.6424 4.66776 5.74551L3.87104 6.49536L4.07725 7.57328C4.10537 7.71387 4.03976 7.86384 3.92728 7.9482C3.80543 8.03256 3.65546 8.04193 3.52423 7.97632L2.56817 7.44205L1.60273 7.97632C1.54649 8.00444 1.48088 8.02319 1.42464 8.02319Z" fill="#CB7C5D"/>
<path fill-rule="evenodd" clip-rule="evenodd" d="M6.85234 6.79565C6.77735 6.79565 6.70237 6.76753 6.63676 6.72066C6.5149 6.63631 6.45867 6.48634 6.48679 6.34574L6.69299 5.26782L5.89628 4.51797C5.7838 4.41486 5.7463 4.26489 5.79317 4.1243C5.84004 3.99307 5.96189 3.88997 6.10249 3.87122L7.18977 3.74L7.65843 2.73707C7.72404 2.60584 7.85527 2.52148 7.99587 2.52148C8.14584 2.52148 8.27706 2.60584 8.3333 2.73707L8.80196 3.74L9.88925 3.87122C10.0392 3.88997 10.1611 3.99307 10.2079 4.1243C10.2454 4.26489 10.2079 4.41486 10.1048 4.51797L9.29874 5.26782L9.50495 6.34574C9.53307 6.48634 9.47683 6.63631 9.36435 6.72066C9.2425 6.80502 9.08315 6.8144 8.9613 6.74878L7.99587 6.21451L7.0398 6.74878C6.98356 6.7769 6.91795 6.79565 6.85234 6.79565Z" fill="#CB7C5D"/>
<path fill-rule="evenodd" clip-rule="evenodd" d="M14.5752 5.3894C14.5095 5.3894 14.4533 5.37065 14.3971 5.34253L13.4316 4.80826L12.4662 5.34253C12.3443 5.40815 12.185 5.39877 12.0631 5.31441C11.9507 5.23006 11.8944 5.08009 11.9225 4.93949L12.1288 3.86157L11.3227 3.11172C11.2196 3.00861 11.1821 2.85864 11.2289 2.71805C11.2664 2.58682 11.3883 2.48372 11.5382 2.46497L12.6255 2.32437L13.0942 1.33082C13.1504 1.19959 13.2817 1.11523 13.4316 1.11523C13.5722 1.11523 13.7035 1.19959 13.7691 1.33082L14.2377 2.32437L15.325 2.46497C15.475 2.48372 15.5875 2.58682 15.6343 2.71805C15.6812 2.85864 15.6437 3.00861 15.5406 3.11172L14.7345 3.86157L14.9407 4.93949C14.9688 5.08009 14.9126 5.23006 14.7907 5.31441C14.7251 5.36128 14.6501 5.3894 14.5752 5.3894Z" fill="#CB7C5D"/>
</svg>
