<svg width="20" height="20" viewBox="0 0 20 20" fill="none" xmlns="http://www.w3.org/2000/svg">
<path fill-rule="evenodd" clip-rule="evenodd" d="M2.5 0C1.11929 0 0 1.11929 0 2.5V17.5C0 18.8807 1.11929 20 2.5 20H17.5C18.8807 20 20 18.8807 20 17.5V2.5C20 1.11929 18.8807 0 17.5 0H2.5ZM5.5 8V15H3V8H5.5ZM5.7 5.3C5.7 6.1 5.1 6.7 4.2 6.7C3.4 6.7 2.8 6.1 2.8 5.3C2.8 4.5 3.4 3.9 4.2 3.9C5.1 3.9 5.7 4.5 5.7 5.3ZM10.5 8C10.5 8 10.5 8.5 10.5 8.5C11 8 11.8 7.8 12.5 7.8C14.9 7.8 15.5 9.3 15.5 11.3V15H13V11.8C13 10.9 13 9.8 11.8 9.8C10.6 9.8 10.5 10.8 10.5 11.5V15H8V8H10.5Z" fill="#FFFFFF"/>
</svg>
