<svg width="16" height="16" viewBox="0 0 16 16" fill="none" xmlns="http://www.w3.org/2000/svg">
<path fill-rule="evenodd" clip-rule="evenodd" d="M1.96384 3.07378L6.28634 7.39816C7.22909 8.33909 8.77015 8.33991 9.71369 7.39816L14.0362 3.07378C14.0797 3.03025 14.0734 2.95856 14.0229 2.92334C13.582 2.61588 13.0456 2.43359 12.4678 2.43359H3.53228C2.95443 2.43359 2.41803 2.61591 1.97715 2.92334C1.92665 2.95856 1.92031 3.03025 1.96384 3.07378ZM0.808716 5.15713C0.808716 4.70275 0.921372 4.27344 1.11981 3.89609C1.15084 3.83706 1.2295 3.82513 1.27665 3.87228L5.54443 8.14006C6.8959 9.4935 9.10334 9.49428 10.4556 8.14006L14.7234 3.87228C14.7706 3.82513 14.8492 3.83706 14.8802 3.89609C15.0787 4.27344 15.1913 4.70278 15.1913 5.15713V10.8427C15.1913 12.3456 13.9688 13.5662 12.4678 13.5662H3.53228C2.03128 13.5662 0.808716 12.3456 0.808716 10.8427V5.15713Z" fill="#CB7C5D"/>
</svg>
