<svg width="14" height="14" viewBox="0 0 14 14" fill="none" xmlns="http://www.w3.org/2000/svg">
<g clip-path="url(#clip0_4274_3839)">
<path d="M4.4248 4.7627V5.7373H3.8877V4.7627H4.4248Z" fill="#CB7C5D" stroke="#CB7C5D" stroke-width="0.1"/>
<path d="M7.4873 4.7627V5.7373H6.9502V4.7627H7.4873Z" fill="#CB7C5D" stroke="#CB7C5D" stroke-width="0.1"/>
<path d="M5.08105 6.5127V6.5625C5.08105 6.72329 5.1451 6.87752 5.25879 6.99121L5.35156 7.06641C5.45042 7.13231 5.56693 7.16895 5.6875 7.16895C5.84829 7.16895 6.00252 7.1049 6.11621 6.99121L6.19141 6.89844C6.25731 6.79958 6.29395 6.68307 6.29395 6.5625V6.5127H6.83105V6.5625C6.83105 6.82785 6.73894 7.08361 6.57227 7.28711L6.49609 7.37109C6.2816 7.58559 5.99084 7.70605 5.6875 7.70605C5.42215 7.70605 5.16639 7.61394 4.96289 7.44727L4.87891 7.37109C4.66441 7.1566 4.54395 6.86584 4.54395 6.5625V6.5127H5.08105Z" fill="#CB7C5D" stroke="#CB7C5D" stroke-width="0.1"/>
<path d="M11.2939 8.27637C11.4309 8.30362 11.5575 8.37096 11.6562 8.46973L11.7236 8.54785C11.7857 8.63143 11.8291 8.72814 11.8496 8.83105L11.8623 8.93457C11.8656 9.00354 11.8585 9.07265 11.8418 9.13965L11.8086 9.23926C11.7685 9.33601 11.7078 9.42242 11.6309 9.49219L11.5488 9.55566C11.4618 9.61379 11.3634 9.65167 11.2607 9.66699L11.1562 9.6748C10.9938 9.67419 10.8385 9.61563 10.7139 9.5127L9.86035 10.0811C9.89884 10.2024 9.90113 10.3305 9.86719 10.4531L10.7998 10.9863C10.9263 10.9118 11.0729 10.8772 11.2197 10.8896L11.3359 10.9102C11.4493 10.9393 11.5548 10.9958 11.6416 11.0762L11.7207 11.1631C11.7924 11.2558 11.8402 11.3656 11.8594 11.4824L11.8691 11.5996C11.8687 11.7167 11.8389 11.8326 11.7822 11.9365C11.7067 12.075 11.587 12.1841 11.4424 12.2471C11.2975 12.31 11.1353 12.3236 10.9824 12.2842C10.8677 12.2546 10.7627 12.1969 10.6768 12.1172L10.5977 12.0303C10.5013 11.9053 10.4495 11.7516 10.4502 11.5938V11.5928L10.46 11.4854C10.4637 11.4636 10.4698 11.4423 10.4756 11.4209L9.54395 10.8877C9.48222 10.9242 9.41629 10.9524 9.34668 10.9688L9.26562 10.9834C9.15626 10.9958 9.04471 10.9823 8.94141 10.9443C8.86403 10.9158 8.79217 10.8742 8.72949 10.8213L8.66992 10.7646C8.6134 10.7043 8.56843 10.6342 8.53613 10.5586L8.50781 10.4814C8.47665 10.376 8.47077 10.2645 8.49023 10.1562L8.50977 10.0762C8.5336 9.99765 8.57065 9.92342 8.62012 9.85742L8.67383 9.79492C8.73039 9.73541 8.79722 9.6862 8.87109 9.64941L8.94629 9.61719C9.02349 9.58937 9.10502 9.57497 9.1875 9.5752L9.2832 9.58203C9.36713 9.59365 9.44787 9.62119 9.52246 9.66211L10.457 9.03906C10.4541 9.01612 10.4508 8.99285 10.4502 8.96973V8.96875L10.458 8.86523C10.4733 8.76232 10.5111 8.66338 10.5693 8.57617L10.6338 8.49414C10.7034 8.41743 10.7893 8.35645 10.8857 8.31641L10.9854 8.2832C11.086 8.25808 11.1914 8.256 11.2939 8.27637ZM11.1074 11.4326L11.0625 11.4531C11.0488 11.4623 11.0368 11.4737 11.0264 11.4863L11.001 11.5293C10.9882 11.5601 10.9847 11.5942 10.9912 11.627C10.9978 11.6595 11.0137 11.6894 11.0371 11.7129C11.0607 11.7365 11.0913 11.7523 11.124 11.7588L11.1729 11.7617C11.1892 11.7601 11.2054 11.7563 11.2207 11.75L11.2637 11.7246C11.2765 11.7141 11.2876 11.7014 11.2969 11.6875L11.3184 11.6426C11.3231 11.6269 11.3252 11.6104 11.3252 11.5938C11.3252 11.5714 11.3209 11.5495 11.3125 11.5293L11.2754 11.4746C11.2438 11.443 11.2009 11.4248 11.1562 11.4248C11.1396 11.4248 11.1232 11.4278 11.1074 11.4326ZM9.12305 10.125C9.1078 10.1313 9.09371 10.1401 9.08105 10.1504L9.04785 10.1875C9.02931 10.2153 9.01855 10.2479 9.01855 10.2812C9.01855 10.3259 9.03679 10.3688 9.06836 10.4004L9.12305 10.4375C9.14325 10.4459 9.16521 10.4502 9.1875 10.4502C9.22075 10.4502 9.25357 10.4403 9.28125 10.4219L9.31836 10.3887C9.32888 10.3759 9.33734 10.3612 9.34375 10.3457C9.35009 10.3304 9.35385 10.3142 9.35547 10.2979L9.35352 10.248C9.35029 10.2319 9.34453 10.2165 9.33691 10.2021L9.30664 10.1621C9.29497 10.1505 9.28194 10.1405 9.26758 10.1328L9.2207 10.1162C9.20424 10.1129 9.18742 10.1116 9.1709 10.1133L9.12305 10.125ZM11.0918 8.8125L11.0371 8.84961C11.0055 8.88124 10.9873 8.92405 10.9873 8.96875C10.9873 9.00213 10.9981 9.03475 11.0166 9.0625L11.0498 9.09961C11.0625 9.10993 11.0765 9.11868 11.0918 9.125L11.1396 9.13672C11.1562 9.13838 11.173 9.13706 11.1895 9.13379L11.2363 9.11719C11.2507 9.10946 11.2637 9.09953 11.2754 9.08789L11.3057 9.04785C11.3133 9.0335 11.319 9.01806 11.3223 9.00195L11.3242 8.95215L11.3125 8.9043C11.2997 8.87346 11.2778 8.84667 11.25 8.82812C11.2223 8.80972 11.1895 8.7998 11.1562 8.7998C11.134 8.79984 11.112 8.80414 11.0918 8.8125Z" fill="#CB7C5D" stroke="#CB7C5D" stroke-width="0.1"/>
<mask id="path-5-outside-1_4274_3839" maskUnits="userSpaceOnUse" x="-0.34375" y="-0.78125" width="14" height="15" fill="black">
<rect fill="white" x="-0.34375" y="-0.78125" width="14" height="15"/>
<path d="M13.3438 10.2813C13.3442 9.64308 13.1297 9.02333 12.735 8.52185C12.3403 8.02036 11.7883 7.66633 11.1679 7.51678C10.5475 7.36723 9.89481 7.43086 9.31496 7.69743C8.73512 7.964 8.26188 8.41798 7.97147 8.98626L7.21875 8.79792V8.3357C7.89445 7.94425 8.3958 7.31025 8.62094 6.56251H8.85938C9.12045 6.56251 9.37083 6.4588 9.55544 6.27419C9.74004 6.08959 9.84375 5.83921 9.84375 5.57814C9.84375 5.31706 9.74004 5.06668 9.55544 4.88208C9.37083 4.69747 9.12045 4.59376 8.85938 4.59376H8.75V3.36395C9.16254 2.99611 9.49271 2.54527 9.7189 2.04095C9.94508 1.53664 10.0622 0.990226 10.0625 0.437511C10.0625 0.400911 10.0533 0.364897 10.0358 0.332771C10.0182 0.300644 9.99291 0.273431 9.96213 0.253623C9.93136 0.233816 9.8961 0.222047 9.8596 0.219396C9.82309 0.216745 9.78651 0.223296 9.75319 0.238449L8.37288 0.865824C8.10274 0.987576 7.80388 1.03113 7.51023 0.991531C7.21658 0.951935 6.93993 0.830778 6.71169 0.641824C6.38141 0.36602 5.9641 0.216141 5.53381 0.218784C5.10353 0.221427 4.68809 0.376421 4.36122 0.656261H3.94778C3.46992 0.655824 3.00269 0.797281 2.60531 1.0627C2.2158 1.32236 1.93453 1.71534 1.81437 2.16779C1.69421 2.62023 1.74343 3.10099 1.95278 3.5197L2.49113 4.59617C2.23867 4.61141 2.00176 4.72325 1.82954 4.90848C1.65732 5.09371 1.56301 5.33812 1.56616 5.59102C1.56931 5.84392 1.66969 6.0859 1.84647 6.26678C2.02324 6.44766 2.26286 6.55356 2.51563 6.56251H2.75406C2.9792 7.31025 3.48055 7.94425 4.15625 8.3357V8.79814L1.98188 9.34173C1.60298 9.43589 1.26655 9.65425 1.02628 9.96197C0.785999 10.2697 0.655727 10.649 0.656252 11.0394V13.5625C0.656252 13.6205 0.679298 13.6762 0.720322 13.7172C0.761346 13.7582 0.816985 13.7813 0.875002 13.7813H10.5C10.558 13.7813 10.6137 13.7582 10.6547 13.7172C10.6957 13.6762 10.7188 13.6205 10.7188 13.5625V13.1139C11.4323 13.0583 12.0988 12.736 12.5853 12.211C13.0718 11.686 13.3426 10.997 13.3438 10.2813ZM8.85938 5.03126C9.00442 5.03126 9.14352 5.08888 9.24608 5.19144C9.34863 5.294 9.40625 5.4331 9.40625 5.57814C9.40625 5.72318 9.34863 5.86228 9.24608 5.96484C9.14352 6.06739 9.00442 6.12501 8.85938 6.12501H8.715C8.7372 5.98021 8.7489 5.834 8.75 5.68751V5.03126H8.85938ZM5.54356 0.656261C5.86795 0.656597 6.182 0.770437 6.43125 0.978042C6.72279 1.2194 7.07618 1.37413 7.45127 1.42467C7.82636 1.47521 8.2081 1.41953 8.55313 1.26395L9.60706 0.785105C9.51982 1.64837 9.11547 2.44859 8.47225 3.03092C7.82902 3.61324 6.99266 3.93628 6.125 3.93751H6.05019C5.54806 3.93693 5.06667 3.73721 4.71161 3.38215C4.35656 3.02709 4.15683 2.5457 4.15625 2.04357C4.15666 1.67576 4.30295 1.32313 4.56303 1.06304C4.82312 0.802959 5.17575 0.656666 5.54356 0.656261ZM2.1875 2.66067C2.18726 2.41647 2.24743 2.17601 2.36266 1.9607C2.47789 1.7454 2.64459 1.56195 2.84791 1.4267C3.17346 1.20922 3.55627 1.09334 3.94778 1.09376H3.98847C3.8123 1.37926 3.71892 1.70809 3.71875 2.04357C3.71914 2.39692 3.80049 2.74549 3.95653 3.06251H3.71875C3.46765 3.06286 3.22429 3.14947 3.02944 3.30785C2.83458 3.46623 2.70006 3.68675 2.64841 3.93248L2.34413 3.32501C2.24125 3.11865 2.18764 2.89125 2.1875 2.66067ZM2.51563 6.12501C2.37059 6.12501 2.23149 6.06739 2.12893 5.96484C2.02637 5.86228 1.96875 5.72318 1.96875 5.57814C1.96875 5.4331 2.02637 5.294 2.12893 5.19144C2.23149 5.08888 2.37059 5.03126 2.51563 5.03126H2.625V5.68751C2.6261 5.834 2.6378 5.98021 2.66 6.12501H2.51563ZM3.0625 5.68751V4.15626C3.0625 3.98221 3.13164 3.81529 3.25471 3.69222C3.37778 3.56915 3.5447 3.50001 3.71875 3.50001H4.2326C4.45048 3.7729 4.727 3.99325 5.04164 4.14472C5.35628 4.29619 5.70098 4.3749 6.05019 4.37501H6.125C6.90419 4.37572 7.66586 4.14387 8.3125 3.70914V5.68751C8.3125 6.3837 8.03594 7.05138 7.54366 7.54367C7.05137 8.03595 6.3837 8.31251 5.6875 8.31251C4.99131 8.31251 4.32363 8.03595 3.83135 7.54367C3.33906 7.05138 3.0625 6.3837 3.0625 5.68751ZM5.6875 8.75001C6.06162 8.74944 6.43242 8.67981 6.78125 8.54461V8.8782L5.6875 9.97195L4.59375 8.8782V8.54461C4.94259 8.67981 5.31338 8.74944 5.6875 8.75001ZM1.09375 11.0394C1.09337 10.7466 1.19107 10.4621 1.37128 10.2313C1.55148 10.0005 1.8038 9.83674 2.08797 9.7661L4.30785 9.21092L5.53285 10.4359C5.57387 10.4769 5.6295 10.5 5.6875 10.5C5.74551 10.5 5.80114 10.4769 5.84216 10.4359L7.06716 9.21092L7.79997 9.39401C7.63141 9.90219 7.61065 10.4478 7.74012 10.9673C7.86958 11.4868 8.14394 11.9589 8.53125 12.3285V13.3438H2.84375V11.5938H2.40625V13.3438H1.09375V11.0394ZM8.96875 13.3438V12.6737C9.36292 12.9271 9.81399 13.0784 10.2813 13.1139V13.3438H8.96875ZM10.5 12.6875C10.0241 12.6875 9.55887 12.5464 9.16316 12.282C8.76746 12.0176 8.45904 11.6418 8.27692 11.2021C8.09479 10.7624 8.04714 10.2786 8.13999 9.81182C8.23283 9.34506 8.46201 8.91631 8.79853 8.57979C9.13505 8.24327 9.5638 8.01409 10.0306 7.92125C10.4973 7.8284 10.9811 7.87605 11.4208 8.05818C11.8605 8.2403 12.2363 8.54871 12.5007 8.94442C12.7651 9.34013 12.9063 9.80535 12.9063 10.2813C12.9055 10.9192 12.6517 11.5308 12.2006 11.9819C11.7495 12.433 11.1379 12.6868 10.5 12.6875Z"/>
</mask>
<path d="M13.3438 10.2813C13.3442 9.64308 13.1297 9.02333 12.735 8.52185C12.3403 8.02036 11.7883 7.66633 11.1679 7.51678C10.5475 7.36723 9.89481 7.43086 9.31496 7.69743C8.73512 7.964 8.26188 8.41798 7.97147 8.98626L7.21875 8.79792V8.3357C7.89445 7.94425 8.3958 7.31025 8.62094 6.56251H8.85938C9.12045 6.56251 9.37083 6.4588 9.55544 6.27419C9.74004 6.08959 9.84375 5.83921 9.84375 5.57814C9.84375 5.31706 9.74004 5.06668 9.55544 4.88208C9.37083 4.69747 9.12045 4.59376 8.85938 4.59376H8.75V3.36395C9.16254 2.99611 9.49271 2.54527 9.7189 2.04095C9.94508 1.53664 10.0622 0.990226 10.0625 0.437511C10.0625 0.400911 10.0533 0.364897 10.0358 0.332771C10.0182 0.300644 9.99291 0.273431 9.96213 0.253623C9.93136 0.233816 9.8961 0.222047 9.8596 0.219396C9.82309 0.216745 9.78651 0.223296 9.75319 0.238449L8.37288 0.865824C8.10274 0.987576 7.80388 1.03113 7.51023 0.991531C7.21658 0.951935 6.93993 0.830778 6.71169 0.641824C6.38141 0.36602 5.9641 0.216141 5.53381 0.218784C5.10353 0.221427 4.68809 0.376421 4.36122 0.656261H3.94778C3.46992 0.655824 3.00269 0.797281 2.60531 1.0627C2.2158 1.32236 1.93453 1.71534 1.81437 2.16779C1.69421 2.62023 1.74343 3.10099 1.95278 3.5197L2.49113 4.59617C2.23867 4.61141 2.00176 4.72325 1.82954 4.90848C1.65732 5.09371 1.56301 5.33812 1.56616 5.59102C1.56931 5.84392 1.66969 6.0859 1.84647 6.26678C2.02324 6.44766 2.26286 6.55356 2.51563 6.56251H2.75406C2.9792 7.31025 3.48055 7.94425 4.15625 8.3357V8.79814L1.98188 9.34173C1.60298 9.43589 1.26655 9.65425 1.02628 9.96197C0.785999 10.2697 0.655727 10.649 0.656252 11.0394V13.5625C0.656252 13.6205 0.679298 13.6762 0.720322 13.7172C0.761346 13.7582 0.816985 13.7813 0.875002 13.7813H10.5C10.558 13.7813 10.6137 13.7582 10.6547 13.7172C10.6957 13.6762 10.7188 13.6205 10.7188 13.5625V13.1139C11.4323 13.0583 12.0988 12.736 12.5853 12.211C13.0718 11.686 13.3426 10.997 13.3438 10.2813ZM8.85938 5.03126C9.00442 5.03126 9.14352 5.08888 9.24608 5.19144C9.34863 5.294 9.40625 5.4331 9.40625 5.57814C9.40625 5.72318 9.34863 5.86228 9.24608 5.96484C9.14352 6.06739 9.00442 6.12501 8.85938 6.12501H8.715C8.7372 5.98021 8.7489 5.834 8.75 5.68751V5.03126H8.85938ZM5.54356 0.656261C5.86795 0.656597 6.182 0.770437 6.43125 0.978042C6.72279 1.2194 7.07618 1.37413 7.45127 1.42467C7.82636 1.47521 8.2081 1.41953 8.55313 1.26395L9.60706 0.785105C9.51982 1.64837 9.11547 2.44859 8.47225 3.03092C7.82902 3.61324 6.99266 3.93628 6.125 3.93751H6.05019C5.54806 3.93693 5.06667 3.73721 4.71161 3.38215C4.35656 3.02709 4.15683 2.5457 4.15625 2.04357C4.15666 1.67576 4.30295 1.32313 4.56303 1.06304C4.82312 0.802959 5.17575 0.656666 5.54356 0.656261ZM2.1875 2.66067C2.18726 2.41647 2.24743 2.17601 2.36266 1.9607C2.47789 1.7454 2.64459 1.56195 2.84791 1.4267C3.17346 1.20922 3.55627 1.09334 3.94778 1.09376H3.98847C3.8123 1.37926 3.71892 1.70809 3.71875 2.04357C3.71914 2.39692 3.80049 2.74549 3.95653 3.06251H3.71875C3.46765 3.06286 3.22429 3.14947 3.02944 3.30785C2.83458 3.46623 2.70006 3.68675 2.64841 3.93248L2.34413 3.32501C2.24125 3.11865 2.18764 2.89125 2.1875 2.66067ZM2.51563 6.12501C2.37059 6.12501 2.23149 6.06739 2.12893 5.96484C2.02637 5.86228 1.96875 5.72318 1.96875 5.57814C1.96875 5.4331 2.02637 5.294 2.12893 5.19144C2.23149 5.08888 2.37059 5.03126 2.51563 5.03126H2.625V5.68751C2.6261 5.834 2.6378 5.98021 2.66 6.12501H2.51563ZM3.0625 5.68751V4.15626C3.0625 3.98221 3.13164 3.81529 3.25471 3.69222C3.37778 3.56915 3.5447 3.50001 3.71875 3.50001H4.2326C4.45048 3.7729 4.727 3.99325 5.04164 4.14472C5.35628 4.29619 5.70098 4.3749 6.05019 4.37501H6.125C6.90419 4.37572 7.66586 4.14387 8.3125 3.70914V5.68751C8.3125 6.3837 8.03594 7.05138 7.54366 7.54367C7.05137 8.03595 6.3837 8.31251 5.6875 8.31251C4.99131 8.31251 4.32363 8.03595 3.83135 7.54367C3.33906 7.05138 3.0625 6.3837 3.0625 5.68751ZM5.6875 8.75001C6.06162 8.74944 6.43242 8.67981 6.78125 8.54461V8.8782L5.6875 9.97195L4.59375 8.8782V8.54461C4.94259 8.67981 5.31338 8.74944 5.6875 8.75001ZM1.09375 11.0394C1.09337 10.7466 1.19107 10.4621 1.37128 10.2313C1.55148 10.0005 1.8038 9.83674 2.08797 9.7661L4.30785 9.21092L5.53285 10.4359C5.57387 10.4769 5.6295 10.5 5.6875 10.5C5.74551 10.5 5.80114 10.4769 5.84216 10.4359L7.06716 9.21092L7.79997 9.39401C7.63141 9.90219 7.61065 10.4478 7.74012 10.9673C7.86958 11.4868 8.14394 11.9589 8.53125 12.3285V13.3438H2.84375V11.5938H2.40625V13.3438H1.09375V11.0394ZM8.96875 13.3438V12.6737C9.36292 12.9271 9.81399 13.0784 10.2813 13.1139V13.3438H8.96875ZM10.5 12.6875C10.0241 12.6875 9.55887 12.5464 9.16316 12.282C8.76746 12.0176 8.45904 11.6418 8.27692 11.2021C8.09479 10.7624 8.04714 10.2786 8.13999 9.81182C8.23283 9.34506 8.46201 8.91631 8.79853 8.57979C9.13505 8.24327 9.5638 8.01409 10.0306 7.92125C10.4973 7.8284 10.9811 7.87605 11.4208 8.05818C11.8605 8.2403 12.2363 8.54871 12.5007 8.94442C12.7651 9.34013 12.9063 9.80535 12.9063 10.2813C12.9055 10.9192 12.6517 11.5308 12.2006 11.9819C11.7495 12.433 11.1379 12.6868 10.5 12.6875Z" fill="#CB7C5D"/>
<path d="M13.3438 10.2813C13.3442 9.64308 13.1297 9.02333 12.735 8.52185C12.3403 8.02036 11.7883 7.66633 11.1679 7.51678C10.5475 7.36723 9.89481 7.43086 9.31496 7.69743C8.73512 7.964 8.26188 8.41798 7.97147 8.98626L7.21875 8.79792V8.3357C7.89445 7.94425 8.3958 7.31025 8.62094 6.56251H8.85938C9.12045 6.56251 9.37083 6.4588 9.55544 6.27419C9.74004 6.08959 9.84375 5.83921 9.84375 5.57814C9.84375 5.31706 9.74004 5.06668 9.55544 4.88208C9.37083 4.69747 9.12045 4.59376 8.85938 4.59376H8.75V3.36395C9.16254 2.99611 9.49271 2.54527 9.7189 2.04095C9.94508 1.53664 10.0622 0.990226 10.0625 0.437511C10.0625 0.400911 10.0533 0.364897 10.0358 0.332771C10.0182 0.300644 9.99291 0.273431 9.96213 0.253623C9.93136 0.233816 9.8961 0.222047 9.8596 0.219396C9.82309 0.216745 9.78651 0.223296 9.75319 0.238449L8.37288 0.865824C8.10274 0.987576 7.80388 1.03113 7.51023 0.991531C7.21658 0.951935 6.93993 0.830778 6.71169 0.641824C6.38141 0.36602 5.9641 0.216141 5.53381 0.218784C5.10353 0.221427 4.68809 0.376421 4.36122 0.656261H3.94778C3.46992 0.655824 3.00269 0.797281 2.60531 1.0627C2.2158 1.32236 1.93453 1.71534 1.81437 2.16779C1.69421 2.62023 1.74343 3.10099 1.95278 3.5197L2.49113 4.59617C2.23867 4.61141 2.00176 4.72325 1.82954 4.90848C1.65732 5.09371 1.56301 5.33812 1.56616 5.59102C1.56931 5.84392 1.66969 6.0859 1.84647 6.26678C2.02324 6.44766 2.26286 6.55356 2.51563 6.56251H2.75406C2.9792 7.31025 3.48055 7.94425 4.15625 8.3357V8.79814L1.98188 9.34173C1.60298 9.43589 1.26655 9.65425 1.02628 9.96197C0.785999 10.2697 0.655727 10.649 0.656252 11.0394V13.5625C0.656252 13.6205 0.679298 13.6762 0.720322 13.7172C0.761346 13.7582 0.816985 13.7813 0.875002 13.7813H10.5C10.558 13.7813 10.6137 13.7582 10.6547 13.7172C10.6957 13.6762 10.7188 13.6205 10.7188 13.5625V13.1139C11.4323 13.0583 12.0988 12.736 12.5853 12.211C13.0718 11.686 13.3426 10.997 13.3438 10.2813ZM8.85938 5.03126C9.00442 5.03126 9.14352 5.08888 9.24608 5.19144C9.34863 5.294 9.40625 5.4331 9.40625 5.57814C9.40625 5.72318 9.34863 5.86228 9.24608 5.96484C9.14352 6.06739 9.00442 6.12501 8.85938 6.12501H8.715C8.7372 5.98021 8.7489 5.834 8.75 5.68751V5.03126H8.85938ZM5.54356 0.656261C5.86795 0.656597 6.182 0.770437 6.43125 0.978042C6.72279 1.2194 7.07618 1.37413 7.45127 1.42467C7.82636 1.47521 8.2081 1.41953 8.55313 1.26395L9.60706 0.785105C9.51982 1.64837 9.11547 2.44859 8.47225 3.03092C7.82902 3.61324 6.99266 3.93628 6.125 3.93751H6.05019C5.54806 3.93693 5.06667 3.73721 4.71161 3.38215C4.35656 3.02709 4.15683 2.5457 4.15625 2.04357C4.15666 1.67576 4.30295 1.32313 4.56303 1.06304C4.82312 0.802959 5.17575 0.656666 5.54356 0.656261ZM2.1875 2.66067C2.18726 2.41647 2.24743 2.17601 2.36266 1.9607C2.47789 1.7454 2.64459 1.56195 2.84791 1.4267C3.17346 1.20922 3.55627 1.09334 3.94778 1.09376H3.98847C3.8123 1.37926 3.71892 1.70809 3.71875 2.04357C3.71914 2.39692 3.80049 2.74549 3.95653 3.06251H3.71875C3.46765 3.06286 3.22429 3.14947 3.02944 3.30785C2.83458 3.46623 2.70006 3.68675 2.64841 3.93248L2.34413 3.32501C2.24125 3.11865 2.18764 2.89125 2.1875 2.66067ZM2.51563 6.12501C2.37059 6.12501 2.23149 6.06739 2.12893 5.96484C2.02637 5.86228 1.96875 5.72318 1.96875 5.57814C1.96875 5.4331 2.02637 5.294 2.12893 5.19144C2.23149 5.08888 2.37059 5.03126 2.51563 5.03126H2.625V5.68751C2.6261 5.834 2.6378 5.98021 2.66 6.12501H2.51563ZM3.0625 5.68751V4.15626C3.0625 3.98221 3.13164 3.81529 3.25471 3.69222C3.37778 3.56915 3.5447 3.50001 3.71875 3.50001H4.2326C4.45048 3.7729 4.727 3.99325 5.04164 4.14472C5.35628 4.29619 5.70098 4.3749 6.05019 4.37501H6.125C6.90419 4.37572 7.66586 4.14387 8.3125 3.70914V5.68751C8.3125 6.3837 8.03594 7.05138 7.54366 7.54367C7.05137 8.03595 6.3837 8.31251 5.6875 8.31251C4.99131 8.31251 4.32363 8.03595 3.83135 7.54367C3.33906 7.05138 3.0625 6.3837 3.0625 5.68751ZM5.6875 8.75001C6.06162 8.74944 6.43242 8.67981 6.78125 8.54461V8.8782L5.6875 9.97195L4.59375 8.8782V8.54461C4.94259 8.67981 5.31338 8.74944 5.6875 8.75001ZM1.09375 11.0394C1.09337 10.7466 1.19107 10.4621 1.37128 10.2313C1.55148 10.0005 1.8038 9.83674 2.08797 9.7661L4.30785 9.21092L5.53285 10.4359C5.57387 10.4769 5.6295 10.5 5.6875 10.5C5.74551 10.5 5.80114 10.4769 5.84216 10.4359L7.06716 9.21092L7.79997 9.39401C7.63141 9.90219 7.61065 10.4478 7.74012 10.9673C7.86958 11.4868 8.14394 11.9589 8.53125 12.3285V13.3438H2.84375V11.5938H2.40625V13.3438H1.09375V11.0394ZM8.96875 13.3438V12.6737C9.36292 12.9271 9.81399 13.0784 10.2813 13.1139V13.3438H8.96875ZM10.5 12.6875C10.0241 12.6875 9.55887 12.5464 9.16316 12.282C8.76746 12.0176 8.45904 11.6418 8.27692 11.2021C8.09479 10.7624 8.04714 10.2786 8.13999 9.81182C8.23283 9.34506 8.46201 8.91631 8.79853 8.57979C9.13505 8.24327 9.5638 8.01409 10.0306 7.92125C10.4973 7.8284 10.9811 7.87605 11.4208 8.05818C11.8605 8.2403 12.2363 8.54871 12.5007 8.94442C12.7651 9.34013 12.9063 9.80535 12.9063 10.2813C12.9055 10.9192 12.6517 11.5308 12.2006 11.9819C11.7495 12.433 11.1379 12.6868 10.5 12.6875Z" stroke="#CB7C5D" stroke-width="0.2" mask="url(#path-5-outside-1_4274_3839)"/>
</g>
<defs>
<clipPath id="clip0_4274_3839">
<rect width="14" height="14" fill="white"/>
</clipPath>
</defs>
</svg>
