<svg width="20" height="20" viewBox="0 0 20 20" fill="none" xmlns="http://www.w3.org/2000/svg">
<path d="M15.4684 18.0382L14.0059 17.6632L13.3559 19.0194C13.1246 19.4944 12.4496 19.4944 12.2246 19.0132L10.9121 16.2007C12.4309 16.0382 13.8309 15.4694 14.9996 14.6132L16.1871 17.1632C16.4121 17.6444 15.9809 18.1632 15.4684 18.0382Z" fill="#CB7C5D"/>
<path d="M9.08712 16.2007L7.77462 19.0132C7.54962 19.4944 6.87462 19.4944 6.64337 19.0194L5.99337 17.6632L4.53087 18.0382C4.01837 18.1632 3.58712 17.6444 3.81212 17.1632L4.99962 14.6132C6.16837 15.4694 7.56837 16.0382 9.08712 16.2007Z" fill="#CB7C5D"/>
<path d="M10 0.625C6.03063 0.625 2.8125 3.84313 2.8125 7.8125C2.8125 11.7819 6.03063 15 10 15C13.9694 15 17.1875 11.7819 17.1875 7.8125C17.1875 3.84313 13.9694 0.625 10 0.625ZM13.2431 7.64437L12.0875 8.77063L12.36 10.3612C12.45 10.8856 11.8994 11.2862 11.4281 11.0381L10 10.2875L8.57188 11.0381C8.10063 11.2856 7.55 10.8856 7.64 10.3612L7.9125 8.77063L6.75688 7.64437C6.37562 7.2725 6.58625 6.62562 7.11312 6.54875L8.71 6.31688L9.42438 4.87C9.66 4.3925 10.3406 4.3925 10.5763 4.87L11.2906 6.31688L12.8875 6.54875C13.4144 6.625 13.6244 7.2725 13.2438 7.64437H13.2431Z" fill="#CB7C5D"/>
</svg>
