<svg width="16" height="16" viewBox="0 0 16 16" fill="none" xmlns="http://www.w3.org/2000/svg">
<g clip-path="url(#clip0_9055_13135)">
<path d="M12.7187 9.43741C12.4488 9.43741 12.1865 9.47041 11.9353 9.53216L6.46778 4.06466C6.52956 3.8135 6.56253 3.55119 6.56253 3.28128C6.56253 1.472 5.09056 0 3.28128 0C2.88556 0 2.49797 0.0703125 2.12922 0.208969C1.98009 0.265031 1.86969 0.393 1.83603 0.548688C1.80237 0.704375 1.85012 0.866531 1.96275 0.979156L2.90609 1.92247L2.77537 2.77528L1.92253 2.90597L0.979219 1.96266C0.866594 1.85003 0.704375 1.80237 0.54875 1.83594C0.393031 1.86956 0.265063 1.98 0.209 2.12909C0.0703125 2.49784 0 2.8855 0 3.28128C0 5.09056 1.47197 6.56253 3.28125 6.56253C3.55122 6.56253 3.81356 6.52953 4.06472 6.46778L9.53222 11.9352C9.47044 12.1864 9.43747 12.4487 9.43747 12.7187C9.43747 14.5279 10.9094 15.9999 12.7187 15.9999C13.1145 15.9999 13.5021 15.9296 13.8708 15.7909C14.02 15.7348 14.1304 15.6069 14.164 15.4512C14.1977 15.2955 14.1499 15.1333 14.0373 15.0207L13.0939 14.0774L13.2246 13.2246L14.0775 13.0939L15.0208 14.0372C15.1334 14.1499 15.2955 14.1977 15.4513 14.164C15.607 14.1303 15.7349 14.0199 15.791 13.8708C15.9297 13.5021 16 13.1144 16 12.7187C16 10.9094 14.528 9.43741 12.7187 9.43741Z" fill="#CB7C5D"/>
<path d="M14.5359 3.8663L15.8619 2.5403C15.9498 2.4524 15.9992 2.33318 15.9992 2.20887C15.9992 2.08452 15.9498 1.9653 15.8619 1.87743L14.1217 0.137273C13.9387 -0.0457578 13.6418 -0.0457578 13.4588 0.137273L12.1328 1.46324L14.5359 3.8663Z" fill="#CB7C5D"/>
<path d="M1.25973 12.5469L0.0391723 15.3426C-0.037984 15.5193 0.00095351 15.7252 0.137329 15.8616C0.227078 15.9513 0.346985 15.9988 0.468891 15.9988C0.532141 15.9988 0.595954 15.9861 0.65636 15.9597L3.45202 14.7391L1.25973 12.5469Z" fill="#CB7C5D"/>
<path d="M8.66016 4.93359L11.4676 2.12618L13.8703 4.52888L11.0629 7.33629L8.66016 4.93359Z" fill="#CB7C5D"/>
<path d="M1.81641 11.7773L4.93271 8.66104L7.3354 11.0637L4.2191 14.18L1.81641 11.7773Z" fill="#CB7C5D"/>
</g>
<defs>
<clipPath id="clip0_9055_13135">
<rect width="16" height="16" fill="white"/>
</clipPath>
</defs>
</svg>
