<svg width="16" height="16" viewBox="0 0 16 16" fill="none" xmlns="http://www.w3.org/2000/svg">
<g clip-path="url(#clip0_59_2166)">
<path d="M15.3329 8.38345C15.2319 10.2977 14.3867 12.0967 12.9775 13.3962C11.5684 14.6958 9.70708 15.3931 7.79093 15.3391C5.92314 15.2666 4.15146 14.4921 2.82974 13.1704C1.50802 11.8487 0.733564 10.077 0.661055 8.20924C0.607101 6.29309 1.30434 4.43176 2.60393 3.02264C3.90351 1.61351 5.70246 0.768249 7.61671 0.667302C7.6666 0.665717 7.71629 0.674191 7.76284 0.692217C7.80938 0.710244 7.85182 0.737456 7.88763 0.77223C7.92344 0.807005 7.95188 0.848631 7.97126 0.894629C7.99064 0.940627 8.00056 0.990055 8.00044 1.03997V4.72078C7.99845 4.81265 7.96242 4.90052 7.89933 4.96735C7.83624 5.03417 7.75058 5.07518 7.65896 5.08243C7.11044 5.1463 6.59102 5.36343 6.16023 5.70894C5.72944 6.05444 5.40472 6.51434 5.2233 7.03592C5.04188 7.55749 5.0111 8.11963 5.13447 8.6579C5.25785 9.19617 5.53041 9.68878 5.92089 10.0793C6.31137 10.4697 6.80398 10.7423 7.34224 10.8657C7.88051 10.9891 8.44265 10.9583 8.96423 10.7769C9.4858 10.5955 9.9457 10.2707 10.2912 9.83996C10.6367 9.40917 10.8539 8.88975 10.9177 8.34123C10.925 8.24961 10.966 8.16394 11.0328 8.10084C11.0997 8.03775 11.1875 8.00171 11.2794 7.99973H14.9602C15.0101 7.9996 15.0595 8.00953 15.1055 8.02891C15.1515 8.04829 15.1932 8.07673 15.2279 8.11254C15.2627 8.14834 15.2899 8.19078 15.3079 8.23733C15.326 8.28387 15.3344 8.33357 15.3329 8.38345Z" fill="#CB7C5D"/>
<path d="M9.33296 7.33329C9.21503 7.33318 9.09924 7.30178 8.9974 7.24231C8.89556 7.18284 8.81132 7.09742 8.75328 6.99476C8.69523 6.8921 8.66546 6.77589 8.66699 6.65797C8.66852 6.54004 8.7013 6.42464 8.762 6.32353L10.762 2.99019C10.8212 2.89151 10.905 2.80984 11.0052 2.75314C11.1054 2.69644 11.2185 2.66664 11.3336 2.66663H14.667C14.8438 2.66663 15.0133 2.73686 15.1384 2.86189C15.2634 2.98691 15.3336 3.15648 15.3336 3.33329C15.3336 3.5101 15.2634 3.67967 15.1384 3.8047C15.0133 3.92972 14.8438 3.99996 14.667 3.99996H11.7112L9.90523 7.00973C9.84599 7.10856 9.76211 7.19033 9.6618 7.24705C9.5615 7.30376 9.44819 7.33348 9.33296 7.33329Z" fill="#CB7C5D"/>
<path d="M14.6669 1.99996H11.3336C11.1568 1.99996 10.9872 1.92972 10.8622 1.8047C10.7372 1.67967 10.6669 1.5101 10.6669 1.33329C10.6669 1.15648 10.7372 0.986912 10.8622 0.861888C10.9872 0.736864 11.1568 0.666626 11.3336 0.666626H14.6669C14.8437 0.666626 15.0133 0.736864 15.1383 0.861888C15.2634 0.986912 15.3336 1.15648 15.3336 1.33329C15.3336 1.5101 15.2634 1.67967 15.1383 1.8047C15.0133 1.92972 14.8437 1.99996 14.6669 1.99996Z" fill="#CB7C5D"/>
<path d="M14.6667 5.99996H12.6667C12.4899 5.99996 12.3203 5.92972 12.1953 5.8047C12.0702 5.67967 12 5.5101 12 5.33329C12 5.15648 12.0702 4.98691 12.1953 4.86189C12.3203 4.73686 12.4899 4.66663 12.6667 4.66663H14.6667C14.8435 4.66663 15.013 4.73686 15.1381 4.86189C15.2631 4.98691 15.3333 5.15648 15.3333 5.33329C15.3333 5.5101 15.2631 5.67967 15.1381 5.8047C15.013 5.92972 14.8435 5.99996 14.6667 5.99996Z" fill="#CB7C5D"/>
</g>
<defs>
<clipPath id="clip0_59_2166">
<rect width="16" height="16" fill="white"/>
</clipPath>
</defs>
</svg>
