<svg width="16" height="16" viewBox="0 0 16 16" fill="none" xmlns="http://www.w3.org/2000/svg">
<path fill-rule="evenodd" clip-rule="evenodd" d="M12.2056 8.53085L12.4509 9.12152C12.5463 9.16952 12.6389 9.22285 12.7276 9.28152L13.3623 9.19818C13.5283 9.17685 13.6936 9.23952 13.8036 9.36552C14.1016 9.70685 14.3309 10.1035 14.4776 10.5322C14.5316 10.6908 14.5029 10.8655 14.4016 10.9982C14.4016 10.9982 14.0123 11.5068 14.0123 11.5062C14.0183 11.6128 14.0183 11.7202 14.0123 11.8255L14.4016 12.3342C14.5029 12.4668 14.5316 12.6415 14.4776 12.8002C14.3309 13.2288 14.1016 13.6255 13.8036 13.9668C13.6936 14.0928 13.5283 14.1555 13.3623 14.1342L12.7276 14.0508C12.6383 14.1095 12.5456 14.1628 12.4509 14.2108L12.2056 14.8015C12.1416 14.9562 12.0043 15.0682 11.8403 15.1009C11.3949 15.1882 10.9376 15.1882 10.4923 15.1009C10.3283 15.0682 10.1909 14.9562 10.1269 14.8015L9.88161 14.2108C9.78627 14.1628 9.69361 14.1095 9.60494 14.0508L8.97027 14.1342C8.80427 14.1555 8.63894 14.0928 8.52894 13.9668C8.23094 13.6255 8.00161 13.2288 7.85494 12.8002C7.80094 12.6415 7.82961 12.4668 7.93094 12.3342C7.93094 12.3342 8.32027 11.8255 8.32027 11.8262C8.31427 11.7195 8.31427 11.6122 8.32027 11.5068L7.93094 10.9982C7.82961 10.8655 7.80094 10.6908 7.85494 10.5322C8.00161 10.1035 8.23094 9.70685 8.52894 9.36552C8.63894 9.23952 8.80427 9.17685 8.97027 9.19818L9.60494 9.28152C9.69427 9.22285 9.78694 9.16952 9.88161 9.12152L10.1269 8.53085C10.1909 8.37618 10.3283 8.26418 10.4923 8.23152C10.9376 8.14418 11.3949 8.14418 11.8403 8.23152C12.0043 8.26418 12.1416 8.37618 12.2056 8.53085ZM11.1663 10.8328C10.7063 10.8328 10.3329 11.2062 10.3329 11.6662C10.3329 12.1262 10.7063 12.4995 11.1663 12.4995C11.6263 12.4995 11.9996 12.1262 11.9996 11.6662C11.9996 11.2062 11.6263 10.8328 11.1663 10.8328Z" fill="#CB7C5D"/>
<path fill-rule="evenodd" clip-rule="evenodd" d="M9.56409 15.1663H3.32943C2.84276 15.1663 2.37676 14.973 2.03276 14.6297C1.68876 14.2857 1.49609 13.819 1.49609 13.333V2.66634C1.49609 2.18034 1.68876 1.71367 2.03276 1.36967C2.37676 1.02634 2.84276 0.833008 3.32943 0.833008H9.05276C9.36276 0.833008 9.65943 0.955674 9.87809 1.17501L12.8208 4.11767C13.0394 4.33634 13.1628 4.63301 13.1628 4.94234V8.55234L12.9494 8.58034C12.8868 8.42901 12.8228 8.27501 12.8228 8.27501C12.6728 7.91434 12.3528 7.65301 11.9694 7.57767C11.4401 7.47367 10.8948 7.47367 10.3654 7.57767C9.98209 7.65301 9.66209 7.91434 9.51209 8.27501L9.38543 8.58034C9.22343 8.55901 9.05809 8.53767 9.05809 8.53767C8.67076 8.48701 8.28409 8.63301 8.02743 8.92701C7.67276 9.33434 7.40009 9.80567 7.22543 10.317C7.09876 10.6857 7.16543 11.0943 7.40276 11.4037L7.60409 11.6663C7.50476 11.7963 7.40276 11.929 7.40276 11.929C7.16543 12.2383 7.09876 12.647 7.22543 13.0157C7.40009 13.527 7.67276 13.9983 8.02743 14.4057C8.28409 14.6997 8.67076 14.8457 9.05809 14.795L9.38543 14.7523C9.44809 14.9037 9.51209 15.0577 9.51209 15.0577C9.52809 15.095 9.54543 15.131 9.56409 15.1663ZM8.99609 1.72634V4.33301C8.99609 4.70101 9.29409 4.99967 9.66276 4.99967H12.2694C12.2368 4.92767 12.1908 4.86167 12.1341 4.80434L9.19143 1.86167C9.13409 1.80434 9.06809 1.75901 8.99609 1.72634ZM3.99609 5.15367H6.99609C7.27209 5.15367 7.49609 4.92967 7.49609 4.65367C7.49609 4.37767 7.27209 4.15367 6.99609 4.15367H3.99609C3.72009 4.15367 3.49609 4.37767 3.49609 4.65367C3.49609 4.92967 3.72009 5.15367 3.99609 5.15367ZM3.99609 12.1663H6.32943C6.60543 12.1663 6.82943 11.9423 6.82943 11.6663C6.82943 11.3903 6.60543 11.1663 6.32943 11.1663H3.99609C3.72009 11.1663 3.49609 11.3903 3.49609 11.6663C3.49609 11.9423 3.72009 12.1663 3.99609 12.1663ZM3.99609 9.83301H6.32943C6.60543 9.83301 6.82943 9.60901 6.82943 9.33301C6.82943 9.05701 6.60543 8.83301 6.32943 8.83301H3.99609C3.72009 8.83301 3.49609 9.05701 3.49609 9.33301C3.49609 9.60901 3.72009 9.83301 3.99609 9.83301ZM3.99609 7.49967H8.66276C8.93876 7.49967 9.16276 7.27567 9.16276 6.99967C9.16276 6.72367 8.93876 6.49967 8.66276 6.49967H3.99609C3.72009 6.49967 3.49609 6.72367 3.49609 6.99967C3.49609 7.27567 3.72009 7.49967 3.99609 7.49967Z" fill="#CB7C5D"/>
</svg>
