<svg width="20" height="20" viewBox="0 0 20 20" fill="none" xmlns="http://www.w3.org/2000/svg">
<g clip-path="url(#clip0_9049_12190)">
<path d="M6.08906 4.31406C6.08906 3.87383 5.73086 3.51562 5.29063 3.51562C4.85039 3.51562 4.49219 3.87383 4.49219 4.31406C4.49219 4.75469 4.85039 5.11289 5.29063 5.11289C5.73086 5.11289 6.08906 4.75469 6.08906 4.31406Z" fill="#CB7C5D"/>
<path d="M2.85547 8.72324V9.98574C3.58672 10.3697 4.41641 10.5873 5.29258 10.5873C6.16875 10.5873 6.99844 10.3697 7.72969 9.98574V8.72324C7.72969 8.07207 7.47617 7.45996 7.01563 7.0002C6.55547 6.53965 5.94336 6.28613 5.29258 6.28613C3.94883 6.28613 2.85547 7.37949 2.85547 8.72324Z" fill="#CB7C5D"/>
<path d="M1.68398 9.15039V8.72188C1.68398 7.30078 2.50977 6.06914 3.70625 5.48086C3.46523 5.1543 3.32266 4.75078 3.32266 4.31406C3.32266 3.22773 4.20625 2.34375 5.29297 2.34375C6.37969 2.34375 7.26328 3.22773 7.26328 4.31406C7.26328 4.75 7.12109 5.15312 6.88047 5.47969C7.2332 5.65312 7.55859 5.88438 7.84453 6.17031C8.52617 6.85078 8.90195 7.75742 8.90195 8.72188V9.15039C9.93594 8.18164 10.5859 6.80742 10.5859 5.29297C10.5859 2.38945 8.19648 0 5.29297 0C2.38945 0 0 2.38945 0 5.29297C0 6.80742 0.65 8.18164 1.68398 9.15039Z" fill="#CB7C5D"/>
<path d="M13.8836 3.76352L13.7824 5.13074C13.7674 5.33309 13.8581 5.52879 14.0223 5.64805C14.1864 5.7673 14.4006 5.79309 14.5884 5.71641L15.8574 5.19762L17.1265 5.71641C17.3133 5.79293 17.5281 5.7677 17.6926 5.64805C17.8567 5.52879 17.9475 5.33313 17.9325 5.13074L17.8313 3.76352L18.7169 2.71691C18.8479 2.56203 18.8895 2.35035 18.8268 2.15738C18.7641 1.96441 18.606 1.81762 18.409 1.76934L17.0773 1.44313L16.3556 0.2775C16.2488 0.105 16.0603 0 15.8574 0C15.6546 0 15.4661 0.105 15.3593 0.2775L14.6375 1.44313L13.3059 1.76934C13.1088 1.81762 12.9507 1.96441 12.8881 2.15738C12.8254 2.35035 12.8669 2.56203 12.998 2.71691L13.8836 3.76352Z" fill="#CB7C5D"/>
<path d="M19.4141 18.8271H17.6562V7.67285C17.6562 7.34926 17.3939 7.08691 17.0703 7.08691H14.6484C14.3248 7.08691 14.0625 7.34926 14.0625 7.67285V18.8271H11.7969V12.3271C11.7969 12.0037 11.5344 11.7412 11.2109 11.7412H8.78906C8.46562 11.7412 8.20312 12.0037 8.20312 12.3271V18.8271H5.9375V15.8643C5.9375 15.5407 5.67516 15.2783 5.35156 15.2783H2.92969C2.60609 15.2783 2.34375 15.5407 2.34375 15.8643V18.8271H0.585938C0.264492 18.8271 0 19.0916 0 19.4131C0 19.7345 0.264492 19.999 0.585938 19.999H19.4141C19.7355 19.999 20 19.7345 20 19.4131C20 19.0916 19.7355 18.8271 19.4141 18.8271Z" fill="#CB7C5D"/>
</g>
<defs>
<clipPath id="clip0_9049_12190">
<rect width="20" height="20" fill="white"/>
</clipPath>
</defs>
</svg>
