<svg width="16" height="16" viewBox="0 0 16 16" fill="none" xmlns="http://www.w3.org/2000/svg">
<g clip-path="url(#clip0_4274_53880)">
<path d="M9.33333 2.66667V1.83333C9.33333 0.82 8.51333 0 7.5 0H3.83333C2.82 0 2 0.82 2 1.83333V2.66667C0.9 2.66667 0 3.56667 0 4.66667V12.6667C0 13.7667 0.9 14.6667 2 14.6667H6.86C6.6 14.26 6.39333 13.8067 6.24667 13.3333H2C1.63333 13.3333 1.33333 13.0333 1.33333 12.6667V11.3333H4.83333C5.84533 11.3333 6.66667 10.5167 6.66667 9.5V7.83333C6.66667 6.82 5.84667 6 4.83333 6H1.33333V4.66667C1.33333 4.3 1.63333 4 2 4H9.33333C9.7 4 10 4.3 10 4.66667V6.24667C10.4267 6.12 10.8733 6.03333 11.3333 6.00667V4.66667C11.3333 3.56667 10.4333 2.66667 9.33333 2.66667Z" fill="#CB7C5D"/>
<path d="M11.6673 7.33301C9.27798 7.33301 7.33398 9.27701 7.33398 11.6663C7.33398 14.0557 9.27798 15.9997 11.6673 15.9997C14.0567 15.9997 16.0007 14.0557 16.0007 11.6663C16.0007 9.27701 14.0567 7.33301 11.6673 7.33301ZM11.584 11.1663H11.7507C12.44 11.1663 13.0007 11.727 13.0007 12.4163C13.0007 12.9583 12.6513 13.417 12.1673 13.5897V13.833C12.1673 14.109 11.9433 14.333 11.6673 14.333C11.3913 14.333 11.1673 14.109 11.1673 13.833V13.6663H10.834C10.558 13.6663 10.334 13.4423 10.334 13.1663C10.334 12.8903 10.558 12.6663 10.834 12.6663H11.7507C11.8887 12.6663 12.0007 12.5543 12.0007 12.4163C12.0007 12.2783 11.8887 12.1663 11.7507 12.1663H11.584C10.8947 12.1663 10.334 11.6057 10.334 10.9163C10.334 10.3743 10.6833 9.91567 11.1673 9.74301V9.49967C11.1673 9.22367 11.3913 8.99967 11.6673 8.99967C11.9433 8.99967 12.1673 9.22367 12.1673 9.49967V9.66634H12.5007C12.7767 9.66634 13.0007 9.89034 13.0007 10.1663C13.0007 10.4423 12.7767 10.6663 12.5007 10.6663H11.584C11.446 10.6663 11.334 10.7783 11.334 10.9163C11.334 11.0543 11.446 11.1663 11.584 11.1663Z" fill="#CB7C5D"/>
</g>
<defs>
<clipPath id="clip0_4274_53880">
<rect width="16" height="16" fill="white"/>
</clipPath>
</defs>
</svg>
