<svg width="14" height="14" viewBox="0 0 14 14" fill="none" xmlns="http://www.w3.org/2000/svg">
<g clip-path="url(#clip0_4347_210496)">
<path fill-rule="evenodd" clip-rule="evenodd" d="M13.9119 12.1761L12.8287 10.3001C12.8094 10.2669 12.7818 10.2393 12.7486 10.2201C12.7153 10.2009 12.6776 10.1907 12.6392 10.1907H1.36125C1.32286 10.1907 1.28515 10.2009 1.2519 10.2201C1.21865 10.2393 1.19103 10.2669 1.17181 10.3001L0.0886172 12.1761C0.0318186 12.2746 0.00193029 12.3863 0.00195314 12.5C0.00197598 12.6137 0.0319092 12.7254 0.0887474 12.8239C0.145586 12.9223 0.227328 13.0041 0.325768 13.061C0.424208 13.1179 0.535881 13.1479 0.649574 13.1479H13.3509C13.4646 13.1479 13.5763 13.1179 13.6747 13.061C13.7732 13.0041 13.8549 12.9223 13.9117 12.8239C13.9686 12.7254 13.9985 12.6137 13.9985 12.5C13.9986 12.3863 13.9687 12.2746 13.9119 12.1761ZM2.18227 9.20634H11.8182C11.8566 9.20634 11.8943 9.19623 11.9276 9.17703C11.9608 9.15783 11.9885 9.13021 12.0076 9.09696C12.0268 9.0637 12.037 9.02598 12.037 8.98759C12.037 8.94919 12.0268 8.91147 12.0076 8.87821L10.6424 6.51352C10.6233 6.48025 10.5956 6.45262 10.5624 6.43342C10.5291 6.41422 10.4914 6.40412 10.453 6.40415H3.54746C3.50906 6.40412 3.47133 6.41422 3.43807 6.43342C3.40481 6.45262 3.3772 6.48025 3.35803 6.51352L1.99273 8.87821C1.97353 8.91147 1.96342 8.94919 1.96342 8.98759C1.96342 9.02598 1.97353 9.0637 1.99273 9.09696C2.01192 9.13021 2.03954 9.15783 2.07279 9.17703C2.10604 9.19623 2.14377 9.20634 2.18216 9.20634H2.18227ZM4.36841 5.41977H9.63208C9.67048 5.41978 9.7082 5.40967 9.74146 5.39048C9.77472 5.37128 9.80234 5.34366 9.82154 5.31041C9.84074 5.27715 9.85085 5.23943 9.85085 5.20103C9.85085 5.16263 9.84074 5.1249 9.82154 5.09165L7.56117 1.17657C7.50436 1.07806 7.42261 0.996251 7.32414 0.939369C7.22567 0.882486 7.11396 0.852539 7.00024 0.852539C6.88652 0.852539 6.77481 0.882486 6.67634 0.939369C6.57788 0.996251 6.49612 1.07806 6.43931 1.17657L4.17894 5.09165C4.15974 5.1249 4.14963 5.16263 4.14963 5.20103C4.14964 5.23943 4.15974 5.27715 4.17895 5.31041C4.19815 5.34366 4.22577 5.37128 4.25902 5.39048C4.29228 5.40967 4.33001 5.41978 4.36841 5.41977Z" fill="#6A675D"/>
</g>
<defs>
<clipPath id="clip0_4347_210496">
<rect width="14" height="14" fill="white"/>
</clipPath>
</defs>
</svg>
