<svg width="16" height="16" viewBox="0 0 16 16" fill="none" xmlns="http://www.w3.org/2000/svg">
<path d="M6.93616 7.99508V12.571C6.93616 13.1108 6.49756 13.5494 5.95472 13.5494H1.37876C0.838986 13.5494 0.400391 13.1108 0.400391 12.571V6.9155C0.400391 5.53842 0.973934 3.65529 3.71887 2.51745C4.22493 2.32116 4.79232 2.57265 4.98861 3.07563C5.17876 3.56635 4.95181 4.11534 4.47029 4.33003C2.58103 5.11211 2.3602 6.17941 2.3602 6.9155V7.01364H5.95472C6.49756 7.01364 6.93616 7.45222 6.93616 7.99508Z" fill="#CB7C5D"/>
<path d="M15.6003 7.99508V12.571C15.6003 13.1108 15.1617 13.5494 14.622 13.5494H10.046C9.50317 13.5494 9.06458 13.1108 9.06458 12.571V6.9155C9.06458 5.53842 9.64117 3.65529 12.3861 2.51745C12.8891 2.32116 13.4596 2.57265 13.6559 3.07563C13.846 3.56635 13.616 4.11534 13.1375 4.33003C11.2483 5.11211 11.0275 6.17941 11.0275 6.9155V7.01364H14.622C15.1617 7.01364 15.6003 7.45222 15.6003 7.99508Z" fill="#CB7C5D"/>
</svg>
