<svg width="14" height="14" viewBox="0 0 14 14" fill="none" xmlns="http://www.w3.org/2000/svg">
<g clip-path="url(#clip0_4347_210499)">
<path d="M3.78858 13.5882H0.823874C0.617992 13.5882 0.412109 13.3823 0.412109 13.1764V10.1706C0.412109 9.92349 0.617992 9.75879 0.823874 9.75879H3.70623V13.1764C3.70623 13.3 3.7474 13.4647 3.78858 13.5882Z" fill="#A38B55"/>
<path d="M9.47047 8.23501V13.1762C9.47047 13.3821 9.26459 13.5879 9.05871 13.5879H4.94106C4.73518 13.5879 4.5293 13.3821 4.5293 13.1762V8.23501C4.5293 7.98795 4.73518 7.82324 4.94106 7.82324H9.05871C9.26459 7.82324 9.47047 7.98795 9.47047 8.23501Z" fill="#A38B55"/>
<path d="M13.5894 10.7057V13.1763C13.5894 13.3822 13.3835 13.5881 13.1776 13.5881H10.2129C10.2541 13.4645 10.2952 13.2998 10.2952 13.1763V10.2939H13.1776C13.3835 10.2939 13.5894 10.4587 13.5894 10.7057Z" fill="#A38B55"/>
<path d="M10.3355 3.29401L8.97668 4.61166L9.30609 6.50578C9.34727 6.67049 9.26491 6.83519 9.14138 6.91754C9.01785 6.9999 8.81197 6.9999 8.68844 6.95872L7.00021 6.05284L5.31197 6.91754C5.18844 6.9999 5.02374 6.9999 4.90021 6.87637C4.77668 6.79401 4.69432 6.62931 4.7355 6.4646L5.06491 4.57049L3.66491 3.29401C3.58256 3.21166 3.54138 3.04696 3.58256 2.88225C3.62374 2.71754 3.74727 2.63519 3.91197 2.59401L5.80609 2.30578L6.62962 0.617544C6.75315 0.329308 7.24727 0.329308 7.3708 0.617544L8.19432 2.30578L10.0884 2.59401C10.2531 2.63519 10.3767 2.71754 10.4179 2.88225C10.459 3.04696 10.4179 3.21166 10.3355 3.29401Z" fill="#A38B55"/>
</g>
<defs>
<clipPath id="clip0_4347_210499">
<rect width="14" height="14" fill="white"/>
</clipPath>
</defs>
</svg>
