<svg width="14" height="14" viewBox="0 0 14 14" fill="none" xmlns="http://www.w3.org/2000/svg">
<g clip-path="url(#clip0_2295_462)">
<mask id="path-1-outside-1_2295_462" maskUnits="userSpaceOnUse" x="-0.0878906" y="-0.796387" width="14" height="15" fill="black">
<rect fill="white" x="-0.0878906" y="-0.796387" width="14" height="15"/>
<path d="M12.3898 5.49058C12.4005 5.49102 12.4114 5.49299 12.4222 5.49299C12.8647 5.49299 13.225 5.1338 13.225 4.69236C13.225 4.37714 13.0371 4.09802 12.7573 3.96721C12.7516 3.55902 12.6403 3.20618 12.4243 2.91611C11.8882 2.20299 10.7619 1.99911 9.31985 2.34452C8.72441 0.963113 7.90541 0.203613 6.99935 0.203613C6.01848 0.203613 5.12598 1.11646 4.53316 2.71136C4.00204 2.62321 3.51204 2.59455 3.07038 2.62452C2.94066 2.34977 2.66351 2.16361 2.34872 2.16361C1.90729 2.16361 1.5481 2.5228 1.5481 2.96424C1.5481 3.01368 1.55444 3.06202 1.56319 3.10927C1.38163 3.24555 1.23398 3.40743 1.12657 3.59446C0.605506 4.49877 1.0476 5.86311 2.3041 7.26618C1.22326 8.80946 0.947631 10.2173 1.57435 11.0538C1.94382 11.5454 2.56879 11.7958 3.38954 11.7958C3.77673 11.7958 4.20985 11.7368 4.67819 11.6241C5.27341 13.0062 6.09285 13.7661 6.99913 13.7661C7.35307 13.7661 7.6976 13.6473 8.02485 13.4128C8.14932 13.4881 8.29194 13.5321 8.43851 13.5321C8.88016 13.5321 9.23913 13.1729 9.23913 12.7314C9.23913 12.5302 9.16519 12.3412 9.03744 12.1981C9.19451 11.9159 9.33823 11.6011 9.46619 11.2579C9.86651 11.3253 10.243 11.3607 10.5886 11.3607C11.6931 11.3607 12.4985 11.0217 12.8719 10.3755C13.3936 9.46943 12.9513 8.10443 11.6937 6.70246C11.9829 6.28858 12.2159 5.88258 12.3898 5.49058ZM12.3185 5.03996C12.1632 4.99511 12.0588 4.85555 12.0588 4.69236C12.0588 4.49089 12.2218 4.32705 12.4219 4.32705C12.448 4.32705 12.4725 4.33033 12.4919 4.33361C12.663 4.36839 12.7873 4.51933 12.7873 4.69236C12.7875 4.92621 12.5707 5.11346 12.3185 5.03996ZM12.0739 3.17796C12.2203 3.37439 12.2986 3.61808 12.3141 3.90049C11.9241 3.95408 11.6215 4.2868 11.6215 4.69236C11.6215 4.96121 11.7583 5.2073 11.972 5.35343C11.8221 5.68418 11.6261 6.02696 11.3868 6.37739C10.9924 5.97555 10.5477 5.58661 10.0575 5.21802C9.94635 4.31983 9.74947 3.47589 9.48347 2.75402C10.7181 2.46964 11.6548 2.62058 12.0739 3.17796ZM9.17569 10.7557C8.70232 10.6557 8.21079 10.5122 7.70613 10.3247C8.10972 10.0806 8.50916 9.81046 8.89832 9.51799C9.13697 9.33861 9.36579 9.15486 9.58541 8.96914C9.49179 9.61139 9.35398 10.2086 9.17569 10.7557ZM4.94047 11.1033C4.71888 10.5113 4.54607 9.82993 4.4321 9.09996C4.74951 9.31827 5.07544 9.53067 5.41582 9.72755C5.84348 9.97364 6.27354 10.1944 6.69923 10.3862C6.09766 10.6955 5.49982 10.9396 4.94047 11.1033ZM4.82476 3.21186C5.29682 3.31205 5.78791 3.45621 6.29323 3.64477C5.89007 3.88868 5.49041 4.15905 5.10038 4.45196C4.86173 4.63111 4.63269 4.81508 4.41329 5.0008C4.50713 4.35593 4.6456 3.7583 4.82476 3.21186ZM3.88523 8.15518C3.51576 7.85811 3.17823 7.54924 2.87241 7.23293C3.16423 6.85033 3.49344 6.47146 3.86269 6.10133C3.84563 6.39314 3.83404 6.68758 3.83404 6.98486C3.83404 7.37489 3.85482 7.76602 3.88523 8.15518ZM5.63435 9.34824C5.18635 9.08946 4.75738 8.80727 4.35313 8.51152C4.30019 8.00708 4.27154 7.49433 4.27154 6.98486C4.27154 6.53293 4.29385 6.08536 4.33432 5.65158C4.65129 5.36305 4.99626 5.07736 5.3631 4.80152C5.83494 4.44714 6.32144 4.12821 6.81057 3.84952C7.32332 4.06433 7.84526 4.32268 8.36435 4.62127C8.81126 4.87961 9.24044 5.1618 9.64557 5.45821C9.69851 5.96177 9.72716 6.47452 9.72716 6.98486C9.72716 7.43746 9.70485 7.88502 9.66438 8.31814C9.34763 8.60646 9.00266 8.89214 8.6356 9.16799C8.16441 9.52193 7.67813 9.84086 7.18813 10.12C6.67516 9.90518 6.15323 9.64705 5.63435 9.34824ZM9.05801 2.86646C9.2796 3.45796 9.45241 4.13958 9.56638 4.86999C9.24854 4.65124 8.9226 4.43883 8.58266 4.24239C8.15501 3.9963 7.72494 3.77536 7.29926 3.58374C7.90082 3.27421 8.49888 3.03008 9.05801 2.86646ZM10.1135 5.81455C10.4832 6.11161 10.8205 6.42049 11.1263 6.7368C10.8345 7.11961 10.505 7.49849 10.136 7.86861C10.1531 7.57702 10.1647 7.28258 10.1647 6.98486C10.1647 6.59418 10.1439 6.20327 10.1135 5.81455ZM6.99935 0.641113C7.6976 0.641113 8.38054 1.29999 8.89329 2.45849C8.21494 2.65996 7.50576 2.96446 6.78038 3.36455C6.15694 3.11211 5.54969 2.92268 4.96804 2.79558C5.48648 1.44196 6.23613 0.641113 6.99935 0.641113ZM2.34872 2.60111C2.52198 2.60111 2.67182 2.72449 2.70463 2.89271C2.70879 2.91524 2.71185 2.93908 2.71185 2.96424C2.71185 3.16461 2.54888 3.32736 2.34872 3.32736C2.20501 3.32736 2.07507 3.24249 2.01623 3.10796C1.99588 3.06289 1.9856 3.01455 1.9856 2.96424C1.9856 2.76408 2.14857 2.60111 2.34872 2.60111ZM1.50588 3.81255C1.57129 3.69902 1.65901 3.59774 1.76444 3.50827C1.91298 3.66818 2.12254 3.76486 2.34872 3.76486C2.75801 3.76486 3.09247 3.45511 3.13972 3.0583C3.51794 3.03599 3.93685 3.06049 4.39163 3.1318C4.16785 3.82852 4.00663 4.60224 3.91563 5.44355C3.4066 5.9178 2.95707 6.40933 2.57054 6.90874C1.48991 5.67936 1.09091 4.53289 1.50588 3.81255ZM1.92435 10.7913C1.42538 10.1255 1.68416 8.93961 2.61035 7.59058C3.00541 7.9933 3.45057 8.38289 3.94123 8.75171C4.05213 9.64946 4.24901 10.4934 4.51501 11.2155C3.2806 11.4999 2.34369 11.3491 1.92435 10.7913ZM5.10541 11.5112C5.78354 11.3098 6.49294 11.0053 7.21854 10.605C7.8411 10.8561 8.44879 11.0451 9.03176 11.1717C8.92151 11.4594 8.79988 11.7236 8.66863 11.9623C8.59513 11.9402 8.51791 11.9284 8.43873 11.9284C7.99707 11.9284 7.6381 12.2885 7.6381 12.7312C7.6381 12.8561 7.66982 12.9753 7.72407 13.0845C7.48673 13.244 7.24391 13.3286 6.99935 13.3286C6.30088 13.3286 5.61816 12.6697 5.10541 11.5112ZM8.43873 13.0946C8.34204 13.0946 8.24732 13.0547 8.17929 12.9854C8.11235 12.9169 8.07538 12.8268 8.07538 12.7314C8.07538 12.53 8.23835 12.3661 8.43851 12.3661C8.51201 12.3661 8.57829 12.3862 8.64041 12.4291C8.74147 12.495 8.80163 12.6081 8.80163 12.7316C8.80185 12.9316 8.63888 13.0946 8.43873 13.0946ZM12.493 10.1567C12.1115 10.8174 11.0416 11.0661 9.60794 10.8388C9.83107 10.1397 9.99207 9.36574 10.0831 8.52639C10.5919 8.05236 11.0414 7.56083 11.4284 7.06099C12.5097 8.28905 12.9087 9.43552 12.493 10.1567Z"/>
</mask>
<path d="M12.3898 5.49058C12.4005 5.49102 12.4114 5.49299 12.4222 5.49299C12.8647 5.49299 13.225 5.1338 13.225 4.69236C13.225 4.37714 13.0371 4.09802 12.7573 3.96721C12.7516 3.55902 12.6403 3.20618 12.4243 2.91611C11.8882 2.20299 10.7619 1.99911 9.31985 2.34452C8.72441 0.963113 7.90541 0.203613 6.99935 0.203613C6.01848 0.203613 5.12598 1.11646 4.53316 2.71136C4.00204 2.62321 3.51204 2.59455 3.07038 2.62452C2.94066 2.34977 2.66351 2.16361 2.34872 2.16361C1.90729 2.16361 1.5481 2.5228 1.5481 2.96424C1.5481 3.01368 1.55444 3.06202 1.56319 3.10927C1.38163 3.24555 1.23398 3.40743 1.12657 3.59446C0.605506 4.49877 1.0476 5.86311 2.3041 7.26618C1.22326 8.80946 0.947631 10.2173 1.57435 11.0538C1.94382 11.5454 2.56879 11.7958 3.38954 11.7958C3.77673 11.7958 4.20985 11.7368 4.67819 11.6241C5.27341 13.0062 6.09285 13.7661 6.99913 13.7661C7.35307 13.7661 7.6976 13.6473 8.02485 13.4128C8.14932 13.4881 8.29194 13.5321 8.43851 13.5321C8.88016 13.5321 9.23913 13.1729 9.23913 12.7314C9.23913 12.5302 9.16519 12.3412 9.03744 12.1981C9.19451 11.9159 9.33823 11.6011 9.46619 11.2579C9.86651 11.3253 10.243 11.3607 10.5886 11.3607C11.6931 11.3607 12.4985 11.0217 12.8719 10.3755C13.3936 9.46943 12.9513 8.10443 11.6937 6.70246C11.9829 6.28858 12.2159 5.88258 12.3898 5.49058ZM12.3185 5.03996C12.1632 4.99511 12.0588 4.85555 12.0588 4.69236C12.0588 4.49089 12.2218 4.32705 12.4219 4.32705C12.448 4.32705 12.4725 4.33033 12.4919 4.33361C12.663 4.36839 12.7873 4.51933 12.7873 4.69236C12.7875 4.92621 12.5707 5.11346 12.3185 5.03996ZM12.0739 3.17796C12.2203 3.37439 12.2986 3.61808 12.3141 3.90049C11.9241 3.95408 11.6215 4.2868 11.6215 4.69236C11.6215 4.96121 11.7583 5.2073 11.972 5.35343C11.8221 5.68418 11.6261 6.02696 11.3868 6.37739C10.9924 5.97555 10.5477 5.58661 10.0575 5.21802C9.94635 4.31983 9.74947 3.47589 9.48347 2.75402C10.7181 2.46964 11.6548 2.62058 12.0739 3.17796ZM9.17569 10.7557C8.70232 10.6557 8.21079 10.5122 7.70613 10.3247C8.10972 10.0806 8.50916 9.81046 8.89832 9.51799C9.13697 9.33861 9.36579 9.15486 9.58541 8.96914C9.49179 9.61139 9.35398 10.2086 9.17569 10.7557ZM4.94047 11.1033C4.71888 10.5113 4.54607 9.82993 4.4321 9.09996C4.74951 9.31827 5.07544 9.53067 5.41582 9.72755C5.84348 9.97364 6.27354 10.1944 6.69923 10.3862C6.09766 10.6955 5.49982 10.9396 4.94047 11.1033ZM4.82476 3.21186C5.29682 3.31205 5.78791 3.45621 6.29323 3.64477C5.89007 3.88868 5.49041 4.15905 5.10038 4.45196C4.86173 4.63111 4.63269 4.81508 4.41329 5.0008C4.50713 4.35593 4.6456 3.7583 4.82476 3.21186ZM3.88523 8.15518C3.51576 7.85811 3.17823 7.54924 2.87241 7.23293C3.16423 6.85033 3.49344 6.47146 3.86269 6.10133C3.84563 6.39314 3.83404 6.68758 3.83404 6.98486C3.83404 7.37489 3.85482 7.76602 3.88523 8.15518ZM5.63435 9.34824C5.18635 9.08946 4.75738 8.80727 4.35313 8.51152C4.30019 8.00708 4.27154 7.49433 4.27154 6.98486C4.27154 6.53293 4.29385 6.08536 4.33432 5.65158C4.65129 5.36305 4.99626 5.07736 5.3631 4.80152C5.83494 4.44714 6.32144 4.12821 6.81057 3.84952C7.32332 4.06433 7.84526 4.32268 8.36435 4.62127C8.81126 4.87961 9.24044 5.1618 9.64557 5.45821C9.69851 5.96177 9.72716 6.47452 9.72716 6.98486C9.72716 7.43746 9.70485 7.88502 9.66438 8.31814C9.34763 8.60646 9.00266 8.89214 8.6356 9.16799C8.16441 9.52193 7.67813 9.84086 7.18813 10.12C6.67516 9.90518 6.15323 9.64705 5.63435 9.34824ZM9.05801 2.86646C9.2796 3.45796 9.45241 4.13958 9.56638 4.86999C9.24854 4.65124 8.9226 4.43883 8.58266 4.24239C8.15501 3.9963 7.72494 3.77536 7.29926 3.58374C7.90082 3.27421 8.49888 3.03008 9.05801 2.86646ZM10.1135 5.81455C10.4832 6.11161 10.8205 6.42049 11.1263 6.7368C10.8345 7.11961 10.505 7.49849 10.136 7.86861C10.1531 7.57702 10.1647 7.28258 10.1647 6.98486C10.1647 6.59418 10.1439 6.20327 10.1135 5.81455ZM6.99935 0.641113C7.6976 0.641113 8.38054 1.29999 8.89329 2.45849C8.21494 2.65996 7.50576 2.96446 6.78038 3.36455C6.15694 3.11211 5.54969 2.92268 4.96804 2.79558C5.48648 1.44196 6.23613 0.641113 6.99935 0.641113ZM2.34872 2.60111C2.52198 2.60111 2.67182 2.72449 2.70463 2.89271C2.70879 2.91524 2.71185 2.93908 2.71185 2.96424C2.71185 3.16461 2.54888 3.32736 2.34872 3.32736C2.20501 3.32736 2.07507 3.24249 2.01623 3.10796C1.99588 3.06289 1.9856 3.01455 1.9856 2.96424C1.9856 2.76408 2.14857 2.60111 2.34872 2.60111ZM1.50588 3.81255C1.57129 3.69902 1.65901 3.59774 1.76444 3.50827C1.91298 3.66818 2.12254 3.76486 2.34872 3.76486C2.75801 3.76486 3.09247 3.45511 3.13972 3.0583C3.51794 3.03599 3.93685 3.06049 4.39163 3.1318C4.16785 3.82852 4.00663 4.60224 3.91563 5.44355C3.4066 5.9178 2.95707 6.40933 2.57054 6.90874C1.48991 5.67936 1.09091 4.53289 1.50588 3.81255ZM1.92435 10.7913C1.42538 10.1255 1.68416 8.93961 2.61035 7.59058C3.00541 7.9933 3.45057 8.38289 3.94123 8.75171C4.05213 9.64946 4.24901 10.4934 4.51501 11.2155C3.2806 11.4999 2.34369 11.3491 1.92435 10.7913ZM5.10541 11.5112C5.78354 11.3098 6.49294 11.0053 7.21854 10.605C7.8411 10.8561 8.44879 11.0451 9.03176 11.1717C8.92151 11.4594 8.79988 11.7236 8.66863 11.9623C8.59513 11.9402 8.51791 11.9284 8.43873 11.9284C7.99707 11.9284 7.6381 12.2885 7.6381 12.7312C7.6381 12.8561 7.66982 12.9753 7.72407 13.0845C7.48673 13.244 7.24391 13.3286 6.99935 13.3286C6.30088 13.3286 5.61816 12.6697 5.10541 11.5112ZM8.43873 13.0946C8.34204 13.0946 8.24732 13.0547 8.17929 12.9854C8.11235 12.9169 8.07538 12.8268 8.07538 12.7314C8.07538 12.53 8.23835 12.3661 8.43851 12.3661C8.51201 12.3661 8.57829 12.3862 8.64041 12.4291C8.74147 12.495 8.80163 12.6081 8.80163 12.7316C8.80185 12.9316 8.63888 13.0946 8.43873 13.0946ZM12.493 10.1567C12.1115 10.8174 11.0416 11.0661 9.60794 10.8388C9.83107 10.1397 9.99207 9.36574 10.0831 8.52639C10.5919 8.05236 11.0414 7.56083 11.4284 7.06099C12.5097 8.28905 12.9087 9.43552 12.493 10.1567Z" fill="#484848"/>
<path d="M12.3898 5.49058C12.4005 5.49102 12.4114 5.49299 12.4222 5.49299C12.8647 5.49299 13.225 5.1338 13.225 4.69236C13.225 4.37714 13.0371 4.09802 12.7573 3.96721C12.7516 3.55902 12.6403 3.20618 12.4243 2.91611C11.8882 2.20299 10.7619 1.99911 9.31985 2.34452C8.72441 0.963113 7.90541 0.203613 6.99935 0.203613C6.01848 0.203613 5.12598 1.11646 4.53316 2.71136C4.00204 2.62321 3.51204 2.59455 3.07038 2.62452C2.94066 2.34977 2.66351 2.16361 2.34872 2.16361C1.90729 2.16361 1.5481 2.5228 1.5481 2.96424C1.5481 3.01368 1.55444 3.06202 1.56319 3.10927C1.38163 3.24555 1.23398 3.40743 1.12657 3.59446C0.605506 4.49877 1.0476 5.86311 2.3041 7.26618C1.22326 8.80946 0.947631 10.2173 1.57435 11.0538C1.94382 11.5454 2.56879 11.7958 3.38954 11.7958C3.77673 11.7958 4.20985 11.7368 4.67819 11.6241C5.27341 13.0062 6.09285 13.7661 6.99913 13.7661C7.35307 13.7661 7.6976 13.6473 8.02485 13.4128C8.14932 13.4881 8.29194 13.5321 8.43851 13.5321C8.88016 13.5321 9.23913 13.1729 9.23913 12.7314C9.23913 12.5302 9.16519 12.3412 9.03744 12.1981C9.19451 11.9159 9.33823 11.6011 9.46619 11.2579C9.86651 11.3253 10.243 11.3607 10.5886 11.3607C11.6931 11.3607 12.4985 11.0217 12.8719 10.3755C13.3936 9.46943 12.9513 8.10443 11.6937 6.70246C11.9829 6.28858 12.2159 5.88258 12.3898 5.49058ZM12.3185 5.03996C12.1632 4.99511 12.0588 4.85555 12.0588 4.69236C12.0588 4.49089 12.2218 4.32705 12.4219 4.32705C12.448 4.32705 12.4725 4.33033 12.4919 4.33361C12.663 4.36839 12.7873 4.51933 12.7873 4.69236C12.7875 4.92621 12.5707 5.11346 12.3185 5.03996ZM12.0739 3.17796C12.2203 3.37439 12.2986 3.61808 12.3141 3.90049C11.9241 3.95408 11.6215 4.2868 11.6215 4.69236C11.6215 4.96121 11.7583 5.2073 11.972 5.35343C11.8221 5.68418 11.6261 6.02696 11.3868 6.37739C10.9924 5.97555 10.5477 5.58661 10.0575 5.21802C9.94635 4.31983 9.74947 3.47589 9.48347 2.75402C10.7181 2.46964 11.6548 2.62058 12.0739 3.17796ZM9.17569 10.7557C8.70232 10.6557 8.21079 10.5122 7.70613 10.3247C8.10972 10.0806 8.50916 9.81046 8.89832 9.51799C9.13697 9.33861 9.36579 9.15486 9.58541 8.96914C9.49179 9.61139 9.35398 10.2086 9.17569 10.7557ZM4.94047 11.1033C4.71888 10.5113 4.54607 9.82993 4.4321 9.09996C4.74951 9.31827 5.07544 9.53067 5.41582 9.72755C5.84348 9.97364 6.27354 10.1944 6.69923 10.3862C6.09766 10.6955 5.49982 10.9396 4.94047 11.1033ZM4.82476 3.21186C5.29682 3.31205 5.78791 3.45621 6.29323 3.64477C5.89007 3.88868 5.49041 4.15905 5.10038 4.45196C4.86173 4.63111 4.63269 4.81508 4.41329 5.0008C4.50713 4.35593 4.6456 3.7583 4.82476 3.21186ZM3.88523 8.15518C3.51576 7.85811 3.17823 7.54924 2.87241 7.23293C3.16423 6.85033 3.49344 6.47146 3.86269 6.10133C3.84563 6.39314 3.83404 6.68758 3.83404 6.98486C3.83404 7.37489 3.85482 7.76602 3.88523 8.15518ZM5.63435 9.34824C5.18635 9.08946 4.75738 8.80727 4.35313 8.51152C4.30019 8.00708 4.27154 7.49433 4.27154 6.98486C4.27154 6.53293 4.29385 6.08536 4.33432 5.65158C4.65129 5.36305 4.99626 5.07736 5.3631 4.80152C5.83494 4.44714 6.32144 4.12821 6.81057 3.84952C7.32332 4.06433 7.84526 4.32268 8.36435 4.62127C8.81126 4.87961 9.24044 5.1618 9.64557 5.45821C9.69851 5.96177 9.72716 6.47452 9.72716 6.98486C9.72716 7.43746 9.70485 7.88502 9.66438 8.31814C9.34763 8.60646 9.00266 8.89214 8.6356 9.16799C8.16441 9.52193 7.67813 9.84086 7.18813 10.12C6.67516 9.90518 6.15323 9.64705 5.63435 9.34824ZM9.05801 2.86646C9.2796 3.45796 9.45241 4.13958 9.56638 4.86999C9.24854 4.65124 8.9226 4.43883 8.58266 4.24239C8.15501 3.9963 7.72494 3.77536 7.29926 3.58374C7.90082 3.27421 8.49888 3.03008 9.05801 2.86646ZM10.1135 5.81455C10.4832 6.11161 10.8205 6.42049 11.1263 6.7368C10.8345 7.11961 10.505 7.49849 10.136 7.86861C10.1531 7.57702 10.1647 7.28258 10.1647 6.98486C10.1647 6.59418 10.1439 6.20327 10.1135 5.81455ZM6.99935 0.641113C7.6976 0.641113 8.38054 1.29999 8.89329 2.45849C8.21494 2.65996 7.50576 2.96446 6.78038 3.36455C6.15694 3.11211 5.54969 2.92268 4.96804 2.79558C5.48648 1.44196 6.23613 0.641113 6.99935 0.641113ZM2.34872 2.60111C2.52198 2.60111 2.67182 2.72449 2.70463 2.89271C2.70879 2.91524 2.71185 2.93908 2.71185 2.96424C2.71185 3.16461 2.54888 3.32736 2.34872 3.32736C2.20501 3.32736 2.07507 3.24249 2.01623 3.10796C1.99588 3.06289 1.9856 3.01455 1.9856 2.96424C1.9856 2.76408 2.14857 2.60111 2.34872 2.60111ZM1.50588 3.81255C1.57129 3.69902 1.65901 3.59774 1.76444 3.50827C1.91298 3.66818 2.12254 3.76486 2.34872 3.76486C2.75801 3.76486 3.09247 3.45511 3.13972 3.0583C3.51794 3.03599 3.93685 3.06049 4.39163 3.1318C4.16785 3.82852 4.00663 4.60224 3.91563 5.44355C3.4066 5.9178 2.95707 6.40933 2.57054 6.90874C1.48991 5.67936 1.09091 4.53289 1.50588 3.81255ZM1.92435 10.7913C1.42538 10.1255 1.68416 8.93961 2.61035 7.59058C3.00541 7.9933 3.45057 8.38289 3.94123 8.75171C4.05213 9.64946 4.24901 10.4934 4.51501 11.2155C3.2806 11.4999 2.34369 11.3491 1.92435 10.7913ZM5.10541 11.5112C5.78354 11.3098 6.49294 11.0053 7.21854 10.605C7.8411 10.8561 8.44879 11.0451 9.03176 11.1717C8.92151 11.4594 8.79988 11.7236 8.66863 11.9623C8.59513 11.9402 8.51791 11.9284 8.43873 11.9284C7.99707 11.9284 7.6381 12.2885 7.6381 12.7312C7.6381 12.8561 7.66982 12.9753 7.72407 13.0845C7.48673 13.244 7.24391 13.3286 6.99935 13.3286C6.30088 13.3286 5.61816 12.6697 5.10541 11.5112ZM8.43873 13.0946C8.34204 13.0946 8.24732 13.0547 8.17929 12.9854C8.11235 12.9169 8.07538 12.8268 8.07538 12.7314C8.07538 12.53 8.23835 12.3661 8.43851 12.3661C8.51201 12.3661 8.57829 12.3862 8.64041 12.4291C8.74147 12.495 8.80163 12.6081 8.80163 12.7316C8.80185 12.9316 8.63888 13.0946 8.43873 13.0946ZM12.493 10.1567C12.1115 10.8174 11.0416 11.0661 9.60794 10.8388C9.83107 10.1397 9.99207 9.36574 10.0831 8.52639C10.5919 8.05236 11.0414 7.56083 11.4284 7.06099C12.5097 8.28905 12.9087 9.43552 12.493 10.1567Z" stroke="#484848" stroke-width="0.2" mask="url(#path-1-outside-1_2295_462)"/>
<path d="M6.99902 5.70415C6.29285 5.70415 5.71855 6.27844 5.71855 6.98462C5.71855 7.6908 6.29285 8.26509 6.99902 8.26509C7.7052 8.26509 8.27949 7.6908 8.27949 6.98462C8.27949 6.27844 7.7052 5.70415 6.99902 5.70415ZM6.99902 7.72759C6.58936 7.72759 6.25605 7.39429 6.25605 6.98462C6.25605 6.57495 6.58936 6.24165 6.99902 6.24165C7.40869 6.24165 7.74199 6.57495 7.74199 6.98462C7.74199 7.39429 7.40869 7.72759 6.99902 7.72759Z" fill="#484848" stroke="#484848" stroke-width="0.1"/>
</g>
<defs>
<clipPath id="clip0_2295_462">
<rect width="14" height="14" fill="white"/>
</clipPath>
</defs>
</svg>
