<svg width="16" height="16" viewBox="0 0 16 16" fill="none" xmlns="http://www.w3.org/2000/svg">
<path d="M12.2882 4.2015C12.4492 4.2015 12.6077 4.2165 12.7642 4.239V2.4375C12.7642 1.885 12.3167 1.4375 11.7642 1.4375H4.07422C3.52172 1.4375 3.07422 1.885 3.07422 2.4375V11.4875C3.07422 12.04 3.52172 12.4875 4.07422 12.4875H11.7642C12.3167 12.4875 12.7642 12.04 12.7642 11.4875V10.8145C12.6072 10.8375 12.4487 10.852 12.2882 10.852C11.3987 10.852 10.5632 10.5065 9.93572 9.8785C8.63872 8.582 8.63872 6.4715 9.93572 5.1745C10.5637 4.547 11.3992 4.2015 12.2882 4.2015ZM8.81922 6.0575C8.81922 6.306 8.61772 6.5075 8.36922 6.5075H5.57922C5.33072 6.5075 5.12922 6.306 5.12922 6.0575C5.12922 5.809 5.33072 5.6075 5.57922 5.6075H8.36922C8.61772 5.6075 8.81922 5.809 8.81922 6.0575ZM8.52922 7.8725C8.52922 8.121 8.32772 8.3225 8.07922 8.3225H5.57922C5.33072 8.3225 5.12922 8.121 5.12922 7.8725C5.12922 7.624 5.33072 7.4225 5.57922 7.4225H8.07922C8.32772 7.4225 8.52922 7.624 8.52922 7.8725ZM5.57772 3.7905H6.74922C6.99772 3.7905 7.19922 3.992 7.19922 4.2405C7.19922 4.489 6.99772 4.6905 6.74922 4.6905H5.57772C5.32922 4.6905 5.12772 4.489 5.12772 4.2405C5.12772 3.992 5.32922 3.7905 5.57772 3.7905ZM9.20922 9.6875C9.20922 9.936 9.00772 10.1375 8.75922 10.1375H5.57922C5.33072 10.1375 5.12922 9.936 5.12922 9.6875C5.12922 9.439 5.33072 9.2375 5.57922 9.2375H8.75922C9.00772 9.2375 9.20922 9.439 9.20922 9.6875Z" fill="#CB7C5D"/>
<path d="M15.3183 9.91988L14.2908 8.89237C14.9353 7.94837 14.8423 6.64788 14.0048 5.81087C13.0583 4.86488 11.5193 4.86537 10.5728 5.81087C9.62678 6.75688 9.62678 8.29637 10.5728 9.24237C11.0458 9.71537 11.6673 9.95187 12.2888 9.95187C12.7668 9.95187 13.2438 9.80837 13.6543 9.52837L14.6813 10.5554C14.7693 10.6434 14.8843 10.6874 14.9993 10.6874C15.1143 10.6874 15.2293 10.6434 15.3173 10.5554C15.4943 10.3804 15.4943 10.0954 15.3183 9.91988ZM11.2098 8.60637C10.6148 8.01137 10.6148 7.04237 11.2098 6.44737C11.5073 6.14987 11.8983 6.00088 12.2893 6.00088C12.6803 6.00088 13.0713 6.14987 13.3688 6.44737C13.9638 7.04237 13.9638 8.01137 13.3688 8.60637C12.7923 9.18337 11.7863 9.18337 11.2098 8.60637Z" fill="#CB7C5D"/>
<path d="M4.075 13.3873C3.0275 13.3873 2.175 12.5348 2.175 11.4873V3.50977H2C1.45 3.50977 1 3.95477 1 4.50977V13.5598C1 14.1148 1.45 14.5598 2 14.5598H9.69C10.24 14.5598 10.69 14.1148 10.69 13.5598V13.3873H4.075Z" fill="#CB7C5D"/>
</svg>
