<svg width="16" height="16" viewBox="0 0 16 16" fill="none" xmlns="http://www.w3.org/2000/svg">
<path d="M13 9.16406V11.3391C13 12.1291 12.535 12.8341 11.815 13.1641C10.94 13.5641 9.615 13.9991 8 13.9991C6.385 13.9991 5.06 13.5641 4.18 13.1641C3.465 12.8341 3 12.1291 3 11.3391V9.16406L6.555 10.7891C7.01 10.9991 7.5 11.1041 8 11.1041C8.5 11.1041 8.99 10.9991 9.445 10.7891L13 9.16406Z" fill="#000000"/>
<path d="M15 8.25V11.5C15 11.775 14.775 12 14.5 12C14.225 12 14 11.775 14 11.5V8.71L15 8.25Z" fill="#000000"/>
<path d="M6.969 9.88163C7.2965 10.0311 7.648 10.1061 8 10.1061C8.352 10.1061 8.703 10.0316 9.031 9.88163L15.4165 6.96263C15.7765 6.79813 16 6.44963 16 6.05313C16 5.65663 15.7765 5.30763 15.4165 5.14313L9.031 2.22462C8.3755 1.92513 7.625 1.92513 6.9695 2.22462L0.5835 5.14263C0.2235 5.30763 0 5.65613 0 6.05263C0 6.44913 0.2235 6.79763 0.5835 6.96263L6.969 9.88163Z" fill="#000000"/>
</svg>
