<svg width="16" height="16" viewBox="0 0 16 16" fill="none" xmlns="http://www.w3.org/2000/svg">
<g clip-path="url(#clip0_59_2094)">
<path d="M8 4.71875C6.70772 4.71875 5.65625 5.77022 5.65625 7.0625C5.65625 8.35478 6.70772 9.40625 8 9.40625C9.29228 9.40625 10.3438 8.35478 10.3438 7.0625C10.3438 5.77022 9.29228 4.71875 8 4.71875Z" fill="#CB7C5D"/>
<path d="M15.6796 6.618L14.8344 6.34653C14.6632 5.63609 14.384 4.96225 14.0013 4.33741L14.3853 3.56928C14.4755 3.38894 14.4403 3.17103 14.2974 3.02822L12.9718 1.70253C12.8285 1.55925 12.6115 1.52491 12.4307 1.61462L11.6621 1.99916C11.0917 1.65081 10.4733 1.38713 9.81775 1.21272L9.35681 0.259094C9.27716 0.10025 9.11512 0 8.9375 0H7.0625C6.88487 0 6.72284 0.10025 6.64319 0.259094L6.18222 1.21275C5.52669 1.38716 4.90825 1.65084 4.33787 1.99919L3.56928 1.61466C3.388 1.52356 3.1715 1.55881 3.02822 1.70256L1.70253 3.02822C1.55972 3.17103 1.52447 3.38894 1.61462 3.56928L1.99916 4.33787C1.65081 4.90825 1.38713 5.52669 1.21272 6.18222L0.259094 6.64319C0.10025 6.72284 0 6.88487 0 7.0625V8.9375C0 9.11512 0.10025 9.27716 0.259094 9.35681L1.21275 9.81778C1.37112 10.4097 1.60687 10.9777 1.91587 11.512L1.58903 12.492C1.53319 12.6605 1.57712 12.8463 1.70256 12.9718L3.02825 14.2975C3.15412 14.4229 3.33906 14.4668 3.508 14.411L4.48806 14.0842C5.07722 14.4261 5.70022 14.6774 6.34659 14.834L6.61806 15.6796C6.68166 15.8709 6.86062 16 7.0625 16H8.9375C9.13937 16 9.31837 15.8709 9.382 15.6796L9.65347 14.8339C10.2998 14.6774 10.9228 14.4261 11.512 14.0841L12.4921 14.411C12.661 14.4668 12.8468 14.4229 12.9718 14.2974L14.2975 12.9718C14.4229 12.8463 14.4669 12.6605 14.411 12.492L14.0842 11.5119C14.4261 10.9228 14.6774 10.2998 14.834 9.65341L15.6796 9.38194C15.8709 9.31837 16 9.13937 16 8.9375V7.0625C16 6.86062 15.8709 6.68166 15.6796 6.618ZM8 13.1562C5.15684 13.1562 2.84375 10.8432 2.84375 8C2.84375 5.15684 5.15684 2.84375 8 2.84375C10.8432 2.84375 13.1562 5.15684 13.1562 8C13.1562 10.8432 10.8432 13.1562 8 13.1562Z" fill="#CB7C5D"/>
<path d="M10.2801 9.41394C9.68905 9.98707 8.88665 10.3437 8.00043 10.3437C7.11421 10.3437 6.31168 9.98707 5.72065 9.41394C5.33337 9.79682 5.03618 10.2713 4.87402 10.8065C5.6469 11.6667 6.75565 12.2187 8.00043 12.2187C9.24496 12.2187 10.3536 11.6669 11.1264 10.807C10.9644 10.2716 10.6673 9.79685 10.2801 9.41394Z" fill="#CB7C5D"/>
</g>
<defs>
<clipPath id="clip0_59_2094">
<rect width="16" height="16" fill="white"/>
</clipPath>
</defs>
</svg>
