<svg width="14" height="14" viewBox="0 0 14 14" fill="none" xmlns="http://www.w3.org/2000/svg">
<g clip-path="url(#clip0_4274_3815)">
<path d="M12.9119 5.51588C13.1654 5.26877 13.2549 4.90611 13.1455 4.56943C13.0361 4.23274 12.7505 3.99198 12.4002 3.94109L9.33685 3.49597C9.27672 3.48724 9.22474 3.44948 9.19783 3.39496L7.82788 0.619156C7.67123 0.301695 7.35399 0.104492 6.99997 0.104492C6.64595 0.104492 6.32871 0.301695 6.17206 0.619156L4.80211 3.39498C4.77517 3.44948 4.72322 3.48724 4.66306 3.49599L1.5998 3.94109C1.24947 3.99198 0.96392 4.23274 0.85449 4.56943C0.745061 4.90611 0.834584 5.26877 1.08812 5.51588L3.30474 7.67655C3.34824 7.71899 3.36812 7.7801 3.35784 7.84001L2.83456 10.8909C2.77473 11.2399 2.91544 11.5858 3.20184 11.7939C3.48824 12.0021 3.86088 12.0289 4.17419 11.8642L6.91406 10.4238C6.96787 10.3955 7.0321 10.3955 7.08594 10.4238L9.82584 11.8642C9.96212 11.9359 10.1096 11.9713 10.2563 11.9713C10.4469 11.9713 10.6363 11.9116 10.7981 11.7939C11.0845 11.5858 11.2252 11.2398 11.1654 10.8909L10.6421 7.83998C10.6319 7.78007 10.6517 7.71896 10.6952 7.67652L12.9119 5.51588ZM9.91419 7.96489L10.4375 11.0159C10.455 11.118 10.3919 11.1762 10.364 11.1964C10.3361 11.2167 10.2612 11.2587 10.1695 11.2105L7.42965 9.77002C7.29515 9.69933 7.1476 9.66395 7.00003 9.66395C6.85245 9.66395 6.70488 9.69933 6.5704 9.76999L3.83053 11.2104C3.73882 11.2586 3.66398 11.2166 3.63606 11.1964C3.60814 11.1761 3.54509 11.1179 3.56262 11.0158L4.08589 7.96489C4.13727 7.66534 4.03804 7.35986 3.82036 7.1477L1.60374 4.98702C1.52955 4.91467 1.54634 4.83053 1.55703 4.79772C1.56767 4.76488 1.60357 4.68692 1.70608 4.67205L4.76932 4.22692C5.07008 4.18322 5.32998 3.99444 5.46451 3.72185L6.83446 0.946023C6.88031 0.853137 6.96552 0.843102 7.00005 0.843102C7.03453 0.843102 7.11974 0.853109 7.16562 0.946023V0.946051L8.53557 3.72188C8.67007 3.99447 8.92995 4.18325 9.2307 4.22695L12.294 4.67207C12.3965 4.68695 12.4324 4.76491 12.443 4.79775C12.4537 4.83059 12.4705 4.91475 12.3963 4.98705L10.1797 7.14772C9.96204 7.35986 9.86281 7.66534 9.91419 7.96489Z" fill="#CB7C5D"/>
<path d="M11.3144 0.618399C11.1493 0.498524 10.9184 0.53511 10.7985 0.700102L10.4065 1.23965C10.2866 1.40464 10.3232 1.63561 10.4882 1.75549C10.5538 1.80309 10.6297 1.82604 10.705 1.82604C10.8192 1.82604 10.9318 1.77324 11.004 1.67381L11.3961 1.13427C11.5159 0.969247 11.4794 0.738274 11.3144 0.618399Z" fill="#CB7C5D"/>
<path d="M3.59137 1.23766L3.19934 0.69811C3.07949 0.533172 2.84855 0.496586 2.6835 0.616407C2.51851 0.736282 2.48192 0.967254 2.6018 1.13225L2.99383 1.67179C3.06609 1.7713 3.1787 1.82407 3.29294 1.82407C3.36822 1.82407 3.44418 1.80113 3.50969 1.7535C3.67468 1.63365 3.71127 1.40268 3.59137 1.23766Z" fill="#CB7C5D"/>
<path d="M1.35493 8.39004C1.2919 8.19609 1.08357 8.08991 0.889569 8.15294L0.255276 8.35906C0.0612718 8.42208 -0.0448493 8.63047 0.0181781 8.82442C0.0688734 8.98052 0.213659 9.07973 0.369327 9.07973C0.407143 9.07973 0.445616 9.07385 0.483541 9.06152L1.11783 8.8554C1.31181 8.79237 1.41796 8.58404 1.35493 8.39004Z" fill="#CB7C5D"/>
<path d="M7.00016 12.4902C6.79621 12.4902 6.63086 12.6556 6.63086 12.8595V13.5265C6.63086 13.7305 6.79621 13.8958 7.00016 13.8958C7.20412 13.8958 7.36947 13.7305 7.36947 13.5265V12.8595C7.36947 12.6556 7.20415 12.4902 7.00016 12.4902Z" fill="#CB7C5D"/>
<path d="M13.7448 8.35904L13.1105 8.15292C12.9166 8.08995 12.7082 8.19604 12.6451 8.39005C12.5821 8.58405 12.6882 8.79238 12.8822 8.85541L13.5165 9.06153C13.5544 9.07383 13.5929 9.07968 13.6307 9.07968C13.7864 9.07968 13.9312 8.98045 13.9819 8.82437C14.0449 8.6304 13.9388 8.42206 13.7448 8.35904Z" fill="#CB7C5D"/>
</g>
<defs>
<clipPath id="clip0_4274_3815">
<rect width="14" height="14" fill="white"/>
</clipPath>
</defs>
</svg>
