<svg width="14" height="14" viewBox="0 0 14 14" fill="none" xmlns="http://www.w3.org/2000/svg">
<path d="M4.83878 6.97686C4.6396 6.84202 4.42536 6.73773 4.20011 6.66487C4.47995 6.39607 4.65513 6.01874 4.65513 5.6007C4.65513 4.78602 3.99245 4.12358 3.178 4.12358C2.36354 4.12358 1.70088 4.78625 1.70088 5.6007C1.70088 6.01938 1.87645 6.39735 2.1571 6.66625C1.13185 6.99831 0.3875 7.96049 0.3875 9.09523V9.78539C0.3875 9.93372 0.507635 10.0541 0.65625 10.0541H3.50447V10.4513C3.50447 10.5996 3.6246 10.72 3.77322 10.72H10.2268C10.3754 10.72 10.4955 10.5996 10.4955 10.4513V10.0541H13.3438C13.4924 10.0541 13.6125 9.93372 13.6125 9.78539V9.09523C13.6125 7.96035 12.868 6.99831 11.8426 6.66616C12.1232 6.39726 12.2987 6.01933 12.2987 5.6007C12.2987 4.78602 11.636 4.12358 10.8216 4.12358C10.0071 4.12358 9.34444 4.78625 9.34444 5.6007C9.34444 6.01869 9.51956 6.39617 9.79937 6.66483C9.57412 6.73755 9.35976 6.84183 9.16075 6.97684C8.8598 6.76015 8.5203 6.59489 8.15393 6.49309C8.5567 6.16012 8.81509 5.65809 8.81509 5.09539C8.81509 4.09434 8.00083 3.28008 6.99978 3.28008C5.99873 3.28008 5.18447 4.09434 5.18447 5.09539C5.18447 5.65809 5.44286 6.16012 5.84564 6.49309C5.47925 6.5949 5.13974 6.76016 4.83878 6.97686ZM10.4945 9.51642C10.481 8.67211 10.1377 7.90686 9.58899 7.34278C9.89081 7.16947 10.2296 7.07783 10.5862 7.07783H11.0572C12.1694 7.07783 13.0743 7.98272 13.0743 9.09502V9.09504L13.0745 9.51642H10.4945ZM10.8216 4.66108C11.3397 4.66108 11.7612 5.08275 11.7612 5.6007C11.7612 6.11866 11.3397 6.54033 10.8216 6.54033C10.3034 6.54033 9.88194 6.11887 9.88194 5.6007C9.88194 5.08254 10.3034 4.66108 10.8216 4.66108ZM5.72175 5.09539C5.72175 4.39085 6.29502 3.81758 6.99956 3.81758C7.7041 3.81758 8.27738 4.39085 8.27738 5.09539C8.27738 5.79993 7.7041 6.3732 6.99956 6.3732C6.29502 6.3732 5.72175 5.79993 5.72175 5.09539ZM3.17756 4.66108C3.69572 4.66108 4.11719 5.08275 4.11719 5.6007C4.11719 6.11866 3.69572 6.54033 3.17756 6.54033C2.6594 6.54033 2.23794 6.11887 2.23794 5.6007C2.23794 5.08254 2.6594 4.66108 3.17756 4.66108ZM0.924562 9.09523C0.924562 7.98294 1.82946 7.07805 2.94175 7.07805H3.41272C3.76905 7.07805 4.10808 7.16969 4.40992 7.34299C3.86126 7.90709 3.51811 8.67234 3.50445 9.51664H0.924562V9.09523ZM4.04153 10.1825V9.79351C4.04191 9.79108 4.04219 9.78824 4.04219 9.78517C4.04219 9.78213 4.04191 9.77931 4.04153 9.77686V9.56817C4.04153 8.10304 5.23365 6.91092 6.69878 6.91092H7.30034C8.76548 6.91092 9.95759 8.10304 9.95759 9.56817V9.77683C9.95722 9.77926 9.95694 9.7821 9.95694 9.78517C9.95694 9.78822 9.95721 9.79104 9.95759 9.79348V10.1825H4.04153ZM9.95959 9.76839L9.95958 9.76843L9.95959 9.76839Z" fill="#484848" stroke="black" stroke-width="0.1"/>
</svg>
