<svg width="16" height="16" viewBox="0 0 16 16" fill="none" xmlns="http://www.w3.org/2000/svg">
<path d="M14 3.33333H2.00001C1.8232 3.33333 1.65363 3.40357 1.52861 3.52859C1.40358 3.65361 1.33334 3.82318 1.33334 3.99999C1.33334 4.17681 1.40358 4.34638 1.52861 4.4714C1.65363 4.59642 1.8232 4.66666 2.00001 4.66666H3.33334V12.6667C3.3335 13.197 3.54427 13.7057 3.91931 14.0807C4.29434 14.4557 4.80296 14.6665 5.33334 14.6667H10.6667C11.1971 14.6665 11.7057 14.4558 12.0807 14.0807C12.4558 13.7057 12.6665 13.1971 12.6667 12.6667V4.66666H14C14.1768 4.66666 14.3464 4.59642 14.4714 4.4714C14.5964 4.34638 14.6667 4.17681 14.6667 3.99999C14.6667 3.82318 14.5964 3.65361 14.4714 3.52859C14.3464 3.40357 14.1768 3.33333 14 3.33333ZM7.33334 10.6667C7.33334 10.8435 7.26311 11.013 7.13808 11.1381C7.01306 11.2631 6.84349 11.3333 6.66668 11.3333C6.48987 11.3333 6.3203 11.2631 6.19527 11.1381C6.07025 11.013 6.00001 10.8435 6.00001 10.6667V7.33333C6.00001 7.15652 6.07025 6.98695 6.19527 6.86192C6.3203 6.7369 6.48987 6.66666 6.66668 6.66666C6.84349 6.66666 7.01306 6.7369 7.13808 6.86192C7.26311 6.98695 7.33334 7.15652 7.33334 7.33333V10.6667ZM10 10.6667C10 10.8435 9.92977 11.013 9.80475 11.1381C9.67972 11.2631 9.51015 11.3333 9.33334 11.3333C9.15653 11.3333 8.98696 11.2631 8.86194 11.1381C8.73692 11.013 8.66668 10.8435 8.66668 10.6667V7.33333C8.66668 7.15652 8.73692 6.98695 8.86194 6.86192C8.98696 6.7369 9.15653 6.66666 9.33334 6.66666C9.51015 6.66666 9.67972 6.7369 9.80475 6.86192C9.92977 6.98695 10 7.15652 10 7.33333V10.6667Z" fill="#C97676"/>
<path d="M6.66667 2.66666H9.33333C9.51014 2.66666 9.67971 2.59642 9.80474 2.4714C9.92976 2.34638 10 2.17681 10 1.99999C10 1.82318 9.92976 1.65361 9.80474 1.52859C9.67971 1.40357 9.51014 1.33333 9.33333 1.33333H6.66667C6.48986 1.33333 6.32029 1.40357 6.19526 1.52859C6.07024 1.65361 6 1.82318 6 1.99999C6 2.17681 6.07024 2.34638 6.19526 2.4714C6.32029 2.59642 6.48986 2.66666 6.66667 2.66666Z" fill="#C97676"/>
</svg>
