<svg width="14" height="14" viewBox="0 0 14 14" fill="none" xmlns="http://www.w3.org/2000/svg">
<g clip-path="url(#clip0_4274_3873)">
<path d="M7.875 7.875H6.125C5.89294 7.875 5.67038 7.96719 5.50628 8.13128C5.34219 8.29538 5.25 8.51794 5.25 8.75V12.25C5.25 12.4821 5.34219 12.7046 5.50628 12.8687C5.67038 13.0328 5.89294 13.125 6.125 13.125H7.875C8.10706 13.125 8.32962 13.0328 8.49372 12.8687C8.65781 12.7046 8.75 12.4821 8.75 12.25V8.75C8.75 8.51794 8.65781 8.29538 8.49372 8.13128C8.32962 7.96719 8.10706 7.875 7.875 7.875ZM6.125 12.25V8.75H7.875V12.25H6.125ZM3.5 9.1875H1.75C1.51794 9.1875 1.29538 9.27969 1.13128 9.44378C0.967187 9.60788 0.875 9.83044 0.875 10.0625V12.25C0.875 12.4821 0.967187 12.7046 1.13128 12.8687C1.29538 13.0328 1.51794 13.125 1.75 13.125H3.5C3.73206 13.125 3.95462 13.0328 4.11872 12.8687C4.28281 12.7046 4.375 12.4821 4.375 12.25V10.0625C4.375 9.83044 4.28281 9.60788 4.11872 9.44378C3.95462 9.27969 3.73206 9.1875 3.5 9.1875ZM1.75 12.25V10.0625H3.5V12.25H1.75ZM12.25 5.6875H10.5C10.2679 5.6875 10.0454 5.77969 9.88128 5.94378C9.71719 6.10788 9.625 6.33044 9.625 6.5625V12.25C9.625 12.4821 9.71719 12.7046 9.88128 12.8687C10.0454 13.0328 10.2679 13.125 10.5 13.125H12.25C12.4821 13.125 12.7046 13.0328 12.8687 12.8687C13.0328 12.7046 13.125 12.4821 13.125 12.25V6.5625C13.125 6.33044 13.0328 6.10788 12.8687 5.94378C12.7046 5.77969 12.4821 5.6875 12.25 5.6875ZM10.5 12.25V6.5625H12.25V12.25H10.5ZM2.20106 7.10806C2.1724 6.99563 2.18958 6.87641 2.24882 6.77664C2.30806 6.67688 2.4045 6.60472 2.51694 6.57606C4.00849 6.19693 5.44369 5.62326 6.78562 4.86981C8.26689 4.03035 9.61782 2.97936 10.7958 1.75H9.625C9.50897 1.75 9.39769 1.70391 9.31564 1.62186C9.23359 1.53981 9.1875 1.42853 9.1875 1.3125C9.1875 1.19647 9.23359 1.08519 9.31564 1.00314C9.39769 0.921094 9.50897 0.875 9.625 0.875H11.8125C11.9285 0.875 12.0398 0.921094 12.1219 1.00314C12.2039 1.08519 12.25 1.19647 12.25 1.3125V3.5C12.25 3.61603 12.2039 3.72731 12.1219 3.80936C12.0398 3.89141 11.9285 3.9375 11.8125 3.9375C11.6965 3.9375 11.5852 3.89141 11.5031 3.80936C11.4211 3.72731 11.375 3.61603 11.375 3.5V2.41631C10.1492 3.68171 8.74803 4.76449 7.21438 5.6315C5.80568 6.42324 4.29899 7.02632 2.73306 7.42525C2.62063 7.45391 2.50141 7.43673 2.40164 7.37749C2.30188 7.31825 2.22972 7.22181 2.20106 7.10938V7.10806Z" fill="#CB7C5D"/>
</g>
<defs>
<clipPath id="clip0_4274_3873">
<rect width="14" height="14" fill="white"/>
</clipPath>
</defs>
</svg>
