<svg width="14" height="15" viewBox="0 0 14 15" fill="none" xmlns="http://www.w3.org/2000/svg">
<g clip-path="url(#clip0_59_2150)">
<path fill-rule="evenodd" clip-rule="evenodd" d="M5.72701 1.4403C6.44328 0.769901 7.55672 0.769901 8.27299 1.4403L8.89324 2.02081C9.06806 2.18443 9.29635 2.27899 9.53566 2.2869L10.3847 2.315C11.3652 2.34744 12.1526 3.13476 12.185 4.11528L12.2131 4.96436C12.221 5.20365 12.3156 5.43194 12.4792 5.60676L13.0597 6.22701C13.7301 6.94328 13.7301 8.05672 13.0597 8.77299L12.4792 9.39324C12.3156 9.56806 12.221 9.79635 12.2131 10.0357L12.185 10.8847C12.1526 11.8652 11.3652 12.6526 10.3847 12.685L9.53564 12.7131C9.29635 12.721 9.06806 12.8156 8.89324 12.9792L8.27299 13.5597C7.55672 14.2301 6.44328 14.2301 5.72701 13.5597L5.10676 12.9792C4.93194 12.8156 4.70365 12.721 4.46436 12.7131L3.61528 12.685C2.63476 12.6526 1.84744 11.8652 1.815 10.8847L1.7869 10.0357C1.77899 9.79635 1.68443 9.56806 1.52081 9.39324L0.940297 8.77299C0.269901 8.05672 0.269901 6.94328 0.940297 6.22701L1.52081 5.60676C1.68443 5.43194 1.77899 5.20365 1.7869 4.96436L1.815 4.11528C1.84744 3.13476 2.63476 2.34744 3.61528 2.315L4.46436 2.2869C4.70365 2.27899 4.93194 2.18443 5.10676 2.02081L5.72701 1.4403ZM9.72563 6.04899C9.89076 5.87261 9.88164 5.59574 9.70524 5.43063C9.52886 5.26549 9.25199 5.27461 9.08688 5.45101L6.12966 8.60985L4.91313 7.31039C4.74801 7.13399 4.47114 7.12487 4.29476 7.29C4.11836 7.45511 4.10924 7.73198 4.27438 7.90836L5.81026 9.54899C5.89299 9.63736 6.00863 9.6875 6.12966 9.6875C6.25069 9.6875 6.36633 9.63736 6.44903 9.54899L9.72563 6.04899Z" fill="#5765F2"/>
</g>
<defs>
<clipPath id="clip0_59_2150">
<rect width="14" height="14" fill="white" transform="translate(0 0.5)"/>
</clipPath>
</defs>
</svg>
