<svg width="16" height="16" viewBox="0 0 16 16" fill="none" xmlns="http://www.w3.org/2000/svg">
<path d="M14.3337 6.00007V8.3334H12.0003C11.0813 8.3334 10.3337 9.08107 10.3337 10.0001C10.3337 10.9191 11.0813 11.6667 12.0003 11.6667H14.3337V14.0001C14.3337 14.5516 13.8852 15.0001 13.3337 15.0001H2.66699C2.11549 15.0001 1.66699 14.5516 1.66699 14.0001V6.00007C1.66699 5.44857 2.11549 5.00007 2.66699 5.00007H13.3337C13.8852 5.00007 14.3337 5.44857 14.3337 6.00007ZM12.0003 9.00007H14.3337V11.0001H12.0003C11.4488 11.0001 11.0003 10.5516 11.0003 10.0001C11.0003 9.44857 11.4488 9.00007 12.0003 9.00007ZM12.667 9.66673H12.0003C11.8163 9.66673 11.667 9.81607 11.667 10.0001C11.667 10.1841 11.8163 10.3334 12.0003 10.3334H12.667C12.851 10.3334 13.0003 10.1841 13.0003 10.0001C13.0003 9.81607 12.851 9.66673 12.667 9.66673ZM8.69566 4.3334L10.6587 2.3704L10.2967 2.0084L7.97149 4.3334H8.69566ZM9.82533 1.5369L9.72766 1.43923C9.14266 0.854566 8.19116 0.854566 7.60616 1.43923L4.71233 4.3334H7.02883L9.82533 1.5369ZM12.6217 4.3334L11.1302 2.84173L9.63833 4.3334H12.6217Z" fill="#CB7C5D"/>
</svg>
