<svg width="14" height="14" viewBox="0 0 14 14" fill="none" xmlns="http://www.w3.org/2000/svg">
<g clip-path="url(#clip0_4274_3865)">
<path d="M9.1815 5.43527C10.5836 5.43527 11.7243 4.29463 11.7243 2.89244C11.7243 1.49025 10.5836 0.349609 9.1815 0.349609C7.77938 0.349609 6.63867 1.49025 6.63867 2.89244C6.63867 4.29463 7.77938 5.43527 9.1815 5.43527ZM9.1815 1.04961C10.1977 1.04961 11.0243 1.87635 11.0243 2.89244C11.0243 3.90854 10.1977 4.73527 9.1815 4.73527C8.16534 4.73527 7.33867 3.90854 7.33867 2.89244C7.33867 1.87635 8.16534 1.04961 9.1815 1.04961Z" fill="#CB7C5D"/>
<path d="M10.4356 5.84961H7.92958C6.76849 5.84961 5.75444 6.57809 5.37246 7.65102H2.10905C1.71578 7.65102 1.35231 7.82943 1.11169 8.14061C0.871131 8.45164 0.78992 8.84826 0.888836 9.22889L1.96967 13.3884C2.00973 13.5426 2.14897 13.6504 2.30839 13.6504H11.4974C11.6907 13.6504 11.8474 13.4937 11.8474 13.3004C11.8474 13.1071 11.6907 12.9504 11.4974 12.9504H9.77099L9.50981 11.9452H10.3572C11.8988 11.9452 13.153 10.691 13.153 9.14932V8.56703C13.153 7.06859 11.934 5.84961 10.4356 5.84961ZM2.57909 12.9504L1.56628 9.05279C1.52232 8.88354 1.55848 8.70717 1.66547 8.56881C1.77245 8.43031 1.93412 8.35102 2.10905 8.35102H7.41893C7.67426 8.35102 7.89745 8.52369 7.96171 8.77088L9.04773 12.9504H2.57909ZM12.453 9.14932C12.453 10.305 11.5128 11.2452 10.3572 11.2452H9.32792L8.98957 9.94311H10.192C10.788 9.94311 11.2728 9.4583 11.2728 8.86234V8.49703C11.2728 8.30371 11.1162 8.14703 10.9228 8.14703C10.7295 8.14703 10.5728 8.30371 10.5728 8.49703V8.86234C10.5728 9.07234 10.402 9.24311 10.192 9.24311H8.80768L8.63922 8.59479C8.49484 8.03916 7.99302 7.65102 7.41893 7.65102H6.1327C6.4701 6.98574 7.15564 6.54961 7.92958 6.54961H10.4356C11.548 6.54961 12.453 7.45469 12.453 8.56703V9.14932Z" fill="#CB7C5D"/>
</g>
<defs>
<clipPath id="clip0_4274_3865">
<rect width="14" height="14" fill="white"/>
</clipPath>
</defs>
</svg>
