<svg width="16" height="16" viewBox="0 0 16 16" fill="none" xmlns="http://www.w3.org/2000/svg">
<g clip-path="url(#clip0_4274_53823)">
<path d="M0.5 14.5H15.5V15.5H0.5V14.5Z" fill="#CB7C5D"/>
<path d="M2.75 6C2.55109 6 2.36032 6.07902 2.21967 6.21967C2.07902 6.36032 2 6.55109 2 6.75V13.5H5V6.75C5 6.55109 4.92098 6.36032 4.78033 6.21967C4.63968 6.07902 4.44891 6 4.25 6H2.75Z" fill="#CB7C5D"/>
<path d="M7.25 10C7.05109 10 6.86032 10.079 6.71967 10.2197C6.57902 10.3603 6.5 10.5511 6.5 10.75V13.5H9.5V10.75C9.5 10.5511 9.42098 10.3603 9.28033 10.2197C9.13968 10.079 8.94891 10 8.75 10H7.25Z" fill="#CB7C5D"/>
<path d="M11.75 11.5C11.5511 11.5 11.3603 11.579 11.2197 11.7197C11.079 11.8603 11 12.0511 11 12.25V13.5H14V12.25C14 12.0511 13.921 11.8603 13.7803 11.7197C13.6397 11.579 13.4489 11.5 13.25 11.5H11.75Z" fill="#CB7C5D"/>
<path d="M6.64937 7.04001C6.81556 7.59307 7.11773 8.09565 7.52826 8.50181C7.93878 8.90796 8.44457 9.20474 8.99937 9.36501C9.32508 9.45497 9.66147 9.50039 9.99937 9.50001C10.9276 9.50001 11.8179 9.13126 12.4742 8.47488C13.1306 7.8185 13.4994 6.92826 13.4994 6.00001C13.4994 5.8674 13.4467 5.74022 13.3529 5.64645C13.2592 5.55269 13.132 5.50001 12.9994 5.50001H11.2494C11.0505 5.50001 10.8597 5.42099 10.719 5.28034C10.5784 5.13968 10.4994 4.94892 10.4994 4.75001V3.00001C10.4994 2.8674 10.4467 2.74022 10.3529 2.64645C10.2592 2.55269 10.132 2.50001 9.99937 2.50001C9.47733 2.49898 8.96167 2.61474 8.49017 2.83881C8.01866 3.06288 7.60326 3.38959 7.27437 3.79501C6.91411 4.24427 6.66889 4.77463 6.55998 5.3401C6.45107 5.90557 6.48175 6.48908 6.64937 7.04001Z" fill="#CB7C5D"/>
<path d="M12 4.5H15C15.1326 4.5 15.2598 4.44732 15.3536 4.35355C15.4473 4.25979 15.5 4.13261 15.5 4C15.5 3.07174 15.1313 2.1815 14.4749 1.52513C13.8185 0.868749 12.9283 0.5 12 0.5C11.8674 0.5 11.7402 0.552678 11.6464 0.646447C11.5527 0.740215 11.5 0.867392 11.5 1V3.755C11.5 4.275 11.725 4.5 12 4.5Z" fill="#CB7C5D"/>
<path d="M0.5 0.5H7.5V1.5H0.5V0.5Z" fill="#CB7C5D"/>
<path d="M0.5 2.5H5V3.5H0.5V2.5Z" fill="#CB7C5D"/>
</g>
<defs>
<clipPath id="clip0_4274_53823">
<rect width="16" height="16" fill="white"/>
</clipPath>
</defs>
</svg>
