<svg width="22" height="20" viewBox="0 0 22 20" fill="none" xmlns="http://www.w3.org/2000/svg">
<path d="M2.55859 15.0814V5.30624C2.55859 2.92796 4.48653 1.00002 6.86481 1.00002H15.1328C17.511 1.00002 19.439 2.92796 19.439 5.30624V15.0814" stroke="#171717" stroke-width="1.5" stroke-linecap="round" stroke-linejoin="round"/>
<path d="M21.1613 17.2775C21.1613 18.2288 20.3901 19 19.4388 19H2.55843C1.6071 19 0.835938 18.2288 0.835938 17.2775C0.835938 16.3262 1.6071 15.555 2.55843 15.555H19.4388C20.3901 15.555 21.1613 16.3262 21.1613 17.2775Z" stroke="#171717" stroke-width="1.5" stroke-linecap="round" stroke-linejoin="round"/>
<path d="M9.32031 5.86604C9.32031 4.8434 10.1493 4.01436 11.172 4.01436C12.1946 4.01436 13.0237 4.8434 13.0237 5.86604C13.0237 6.88868 12.1946 7.71771 11.172 7.71771C10.1493 7.71771 9.32031 6.88868 9.32031 5.86604Z" stroke="#171717" stroke-width="1.5" stroke-linecap="round" stroke-linejoin="round"/>
<path d="M13.804 12.3254C13.5144 11.215 12.4966 10.3876 11.2855 10.3876H10.8037C9.59252 10.3876 8.57475 11.215 8.28516 12.3254" stroke="#171717" stroke-width="1.5" stroke-linecap="round" stroke-linejoin="round"/>
</svg>
