<svg width="14" height="14" viewBox="0 0 14 14" fill="none" xmlns="http://www.w3.org/2000/svg">
<path d="M8.76088 3.66023V3.29698C8.76088 2.58242 8.20458 2.00293 7.51858 2.00293H6.242C5.556 2.00293 4.99969 2.58242 4.99969 3.29698V3.66023M7.98243 6.27539H5.77844M11.9198 7.47279C8.56024 8.80093 5.20003 8.80093 1.83984 7.47279M3.96592 3.66862H9.79324C11.1026 3.66862 11.9177 4.63179 11.9177 5.99451V9.6712C11.9177 11.0339 11.1026 11.9971 9.79268 11.9971H3.96592C2.6566 11.9971 1.84203 11.0339 1.84203 9.6712V5.99451C1.84203 4.63179 2.66042 3.66862 3.96592 3.66862Z" stroke="#303030" stroke-opacity="0.64" stroke-width="1.16667" stroke-linecap="round" stroke-linejoin="round"/>
</svg>
