<svg width="16" height="16" viewBox="0 0 16 16" fill="none" xmlns="http://www.w3.org/2000/svg">
<g clip-path="url(#clip0_7072_25311)">
<path d="M9.66536 3.00008L9.66536 4.00008L12.9987 4.00008C13.3654 4.00008 13.6987 4.14675 13.9387 4.39342C14.1854 4.63342 14.332 4.96675 14.332 5.33342C14.332 6.02008 13.7987 6.59342 13.1254 6.66008C13.0854 6.66675 13.0454 6.66675 12.9987 6.66675L2.9987 6.66675C2.95203 6.66675 2.91203 6.66675 2.87203 6.66008C2.55203 6.63341 2.27203 6.49341 2.0587 6.27341C1.78536 6.00675 1.6387 5.62675 1.67203 5.21341C1.73203 4.51341 2.36536 4.00008 3.07203 4.00008L6.33203 4.00008L6.33203 3.00008C6.33203 2.08008 7.0787 1.33342 7.9987 1.33342C8.9187 1.33342 9.66536 2.08008 9.66536 3.00008Z" stroke="#171717" stroke-width="1.5" stroke-linecap="round" stroke-linejoin="round"/>
<path d="M2.55323 12.4667L2.87322 6.66008C2.91322 6.66675 2.95323 6.66675 2.99989 6.66675L12.9999 6.66675C13.0466 6.66675 13.0866 6.66675 13.1266 6.66008L13.4466 12.4667C13.5666 13.6467 12.6399 14.6667 11.4599 14.6667L4.53989 14.6667C3.35989 14.6667 2.43322 13.6467 2.55323 12.4667Z" stroke="#171717" stroke-width="1.5" stroke-linecap="round" stroke-linejoin="round"/>
<path d="M10.6758 14.6667L10.6758 11.3334" stroke="#171717" stroke-width="1.5" stroke-linecap="round" stroke-linejoin="round"/>
<path d="M8 14.6667L8 13.3334" stroke="#171717" stroke-width="1.5" stroke-linecap="round" stroke-linejoin="round"/>
</g>
<defs>
<clipPath id="clip0_7072_25311">
<rect width="16" height="16" fill="white" transform="translate(16 16) rotate(-180)"/>
</clipPath>
</defs>
</svg>
