<svg width="32" height="32" viewBox="0 0 32 32" fill="none" xmlns="http://www.w3.org/2000/svg">
<path d="M11.543 7.83331L7.88153 9.09299C4.95234 10.0971 3.80158 12.8707 4.77798 15.922L7.36967 24.1313C8.33485 27.1708 10.8344 28.6964 13.7512 27.6924L19.2384 25.8152C20.1563 25.5129 20.9234 25.0044 21.4813 24.3621" stroke="#171717" stroke-width="1.5" stroke-linecap="round" stroke-linejoin="round"/>
<path d="M17.069 4.07042L22.7668 4.95906C25.813 5.43388 27.3859 7.9688 26.9301 11.1381L25.7022 19.6899C25.2464 22.8592 23.0308 24.8039 19.9833 24.3291L14.2868 23.4404C11.2405 22.9656 9.66758 20.4319 10.1222 17.2613L11.3514 8.70956C11.8059 5.54026 14.0315 3.59821 17.069 4.07042Z" stroke="#171717" stroke-width="1.5" stroke-linecap="round" stroke-linejoin="round"/>
</svg>
