<svg width="24" height="24" viewBox="0 0 24 24" fill="none" xmlns="http://www.w3.org/2000/svg">
<path d="M9.99939 19L9.82782 19.1716C8.26573 20.7337 5.73307 20.7337 4.17097 19.1716L3.82782 18.8284C2.26573 17.2663 2.26572 14.7337 3.82782 13.1716L7.17097 9.82843C8.73307 8.26634 11.2657 8.26634 12.8278 9.82843L13.171 10.1716C13.8246 10.8252 14.2047 11.6487 14.3114 12.5" stroke="black" stroke-width="2" stroke-linecap="square" stroke-linejoin="round"/>
<path d="M9.6875 12.5C9.79414 13.3513 10.1743 14.1748 10.8279 14.8284L11.171 15.1716C12.7331 16.7337 15.2658 16.7337 16.8279 15.1716L20.171 11.8284C21.7331 10.2663 21.7331 7.73368 20.171 6.17158L19.8279 5.82843C18.2658 4.26634 15.7331 4.26634 14.171 5.82843L13.9995 6" stroke="black" stroke-width="2" stroke-linecap="square" stroke-linejoin="round"/>
</svg>
