<svg xmlns="http://www.w3.org/2000/svg" width="59" height="20" viewBox="0 0 59 20" fill="none">
  <path d="M6.73633 0.444702C8.05073 0.444702 9.24958 0.689468 10.332 1.1781C11.4143 1.66666 12.3422 2.3448 13.1152 3.21326C13.9038 4.08185 14.5073 5.1137 14.9248 6.30798C15.3578 7.50233 15.5742 8.80568 15.5742 10.2172C15.5742 11.6287 15.3657 12.932 14.9482 14.1263C14.5462 15.3208 13.9657 16.3524 13.208 17.2211C12.4503 18.0897 11.5227 18.7686 10.4248 19.2572C9.34236 19.7458 8.11257 19.9906 6.73633 19.9906H0.00976562V0.444702H6.73633ZM20.9141 19.9906H17.2031V0.444702H20.9141V19.9906ZM35.1035 13.3392V0.444702H38.8145V19.9906H35.335L26.9385 7.20447V19.9906H23.2275V0.444702H26.6602L35.1035 13.3392ZM49.335 0.0101318C50.5565 0.0101736 51.7087 0.273432 52.791 0.798218C53.8733 1.32303 54.8161 2.03798 55.6201 2.94275C56.4242 3.84762 57.0586 4.90601 57.5225 6.11853C57.9864 7.33104 58.2188 8.62498 58.2188 10.0004C58.2187 11.3033 58.0092 12.5336 57.5918 13.6918C57.1898 14.8319 56.6262 15.846 55.8994 16.7328H58.6592V19.9906H49.335C48.1134 19.9906 46.9613 19.7273 45.8789 19.2025C44.7965 18.6777 43.8529 17.9629 43.0488 17.058C42.2448 16.1531 41.6104 15.0947 41.1465 13.8822C40.6826 12.6697 40.4512 11.3757 40.4512 10.0004C40.4512 8.62503 40.6826 7.33101 41.1465 6.11853C41.6104 4.90609 42.2448 3.84758 43.0488 2.94275C43.8529 2.03787 44.7965 1.32304 45.8789 0.798218C46.9613 0.273418 48.1134 0.0101318 49.335 0.0101318ZM3.72168 16.0814H6.87598C7.57179 16.0814 8.22117 15.9271 8.82422 15.6195C9.4273 15.3118 9.95292 14.8953 10.4014 14.3705C10.8652 13.8276 11.2293 13.2032 11.4922 12.4974C11.755 11.7917 11.8857 11.0314 11.8857 10.2172C11.8857 9.40289 11.755 8.6426 11.4922 7.93689C11.2293 7.23114 10.8652 6.61598 10.4014 6.09119C9.95297 5.54836 9.42721 5.12342 8.82422 4.8158C8.22115 4.50814 7.57182 4.35389 6.87598 4.35388H3.72168V16.0814ZM49.335 3.91931C48.6236 3.91931 47.9504 4.08281 47.3164 4.40857C46.698 4.71622 46.1492 5.15039 45.6699 5.7113C45.206 6.25423 44.835 6.89704 44.5566 7.63904C44.2938 8.36285 44.1621 9.14991 44.1621 10.0004C44.1621 10.8327 44.2938 11.6198 44.5566 12.3617C44.835 13.1037 45.206 13.7558 45.6699 14.3168C46.1492 14.8595 46.698 15.2938 47.3164 15.6195C47.9504 15.9272 48.6236 16.0814 49.335 16.0814C50.0461 16.0814 50.7107 15.927 51.3291 15.6195C51.9631 15.2938 52.5127 14.8597 52.9766 14.3168C53.4559 13.7558 53.827 13.1037 54.0898 12.3617C54.3681 11.6198 54.5068 10.8327 54.5068 10.0004C54.5068 9.14995 54.3681 8.36282 54.0898 7.63904C53.827 6.89712 53.4559 6.25419 52.9766 5.7113C52.5127 5.15028 51.9631 4.71623 51.3291 4.40857C50.7107 4.0829 50.0461 3.91936 49.335 3.91931Z" fill="white"/>
</svg>