<svg xmlns="http://www.w3.org/2000/svg" width="32" height="32" viewBox="0 0 32 32" fill="none">
  <path d="M10.3762 28H21.6225C25.5533 28 28 25.2251 28 21.2981V10.7018C28 6.77492 25.5533 4 21.6212 4H10.3762C6.4454 4 4 6.77492 4 10.7018V21.2981C4 25.2251 6.45708 28 10.3762 28Z" stroke="#171717" stroke-width="1.5" stroke-linecap="round" stroke-linejoin="round"/>
  <path d="M11.6934 19.462V19.5308M11.6327 19.7348C11.4673 19.7348 11.3327 19.6001 11.334 19.4348C11.334 19.2694 11.4687 19.1348 11.634 19.1348C11.7993 19.1348 11.934 19.2694 11.934 19.4348C11.934 19.6014 11.7993 19.7348 11.6327 19.7348Z" stroke="#171717" stroke-width="1.5" stroke-linecap="round" stroke-linejoin="round"/>
  <path d="M20.3076 19.462V19.5308M20.2987 19.7348C20.1333 19.7348 19.9987 19.6001 20 19.4348C20 19.2694 20.1347 19.1348 20.3 19.1348C20.4653 19.1348 20.6 19.2694 20.6 19.4348C20.6 19.6014 20.4653 19.7348 20.2987 19.7348Z" stroke="#171717" stroke-width="1.5" stroke-linecap="round" stroke-linejoin="round"/>
  <path d="M12.0547 12.8649C13.0147 11.6156 14.4288 10.8359 15.9985 10.8359C17.5683 10.8359 18.9823 11.6156 19.9423 12.8649" stroke="#171717" stroke-width="1.5" stroke-linecap="round" stroke-linejoin="round"/>
</svg>