<svg width="20" height="20" viewBox="0 0 20 20" fill="none" xmlns="http://www.w3.org/2000/svg">
<path fill-rule="evenodd" clip-rule="evenodd" d="M11.6305 6.44399C11.6996 6.37816 11.788 6.34066 11.8746 6.34066H14.1246C14.3555 6.34066 14.5413 6.15399 14.5413 5.92399V2.92399C14.5413 2.69399 14.3555 2.50732 14.1246 2.50732H11.8746C10.7863 2.50732 9.71297 2.94899 8.92797 3.72149C8.14134 4.51316 7.70801 5.56149 7.70801 6.67399V8.50817H5.87467C5.64384 8.50817 5.45801 8.694 5.45801 8.92483V11.924C5.45801 12.1548 5.64384 12.3407 5.87467 12.3407H7.70801V17.924C7.70801 18.1548 7.89467 18.3407 8.12467 18.3407H11.1246C11.3546 18.3407 11.5413 18.1548 11.5413 17.924V12.3407H14.1246C14.3555 12.3407 14.5413 12.1548 14.5413 11.924V8.92483C14.5413 8.694 14.3555 8.50817 14.1246 8.50817H11.5413V6.67399C11.5413 6.58399 11.5763 6.49899 11.6305 6.44399Z" fill="#171717"/>
</svg>
