<svg width="21" height="20" viewBox="0 0 21 20" fill="none" xmlns="http://www.w3.org/2000/svg">
<path fill-rule="evenodd" clip-rule="evenodd" d="M10.7497 2.67419C6.38467 2.67419 2.83301 6.22586 2.83301 10.5909C2.83301 14.0292 5.11634 17.1359 8.38634 18.1467C8.51967 18.19 8.66467 18.16 8.77217 18.0717C8.88051 17.9834 8.93717 17.8467 8.92384 17.7075C8.80717 16.5467 9.47467 15.3167 9.75967 15.0217C9.86967 14.9092 9.90634 14.7434 9.85384 14.595C9.80134 14.4459 9.66967 14.3384 9.51301 14.3192C8.02051 14.1292 6.63884 13.6225 6.63884 11.2142C6.63551 10.615 6.86384 10.0425 7.27967 9.60171C7.38967 9.48588 7.42384 9.31754 7.36717 9.16838C7.20801 8.74754 7.19051 8.27669 7.31384 7.84169C7.55634 7.88169 8.02551 8.02419 8.75634 8.51254C8.85634 8.58004 8.98051 8.59754 9.09551 8.56838C10.1763 8.27836 11.318 8.27836 12.3988 8.56838C12.513 8.59754 12.638 8.58004 12.738 8.51254C13.4747 8.02003 13.9455 7.87919 14.1788 7.83836C14.303 8.27503 14.2872 8.74671 14.128 9.16921C14.0713 9.31921 14.1055 9.48754 14.2163 9.60254C14.628 10.0359 14.8555 10.6059 14.8555 11.2067C14.8555 13.6559 13.4772 14.145 11.988 14.3092C11.8297 14.3259 11.6955 14.4325 11.6422 14.5817C11.588 14.7317 11.6238 14.8992 11.7347 15.0134C12.0097 15.2975 12.6838 16.56 12.5705 17.7167C12.5563 17.8559 12.613 17.9925 12.7222 18.08C12.7972 18.1425 12.8905 18.1742 12.9847 18.1742C13.0263 18.1742 13.0688 18.1675 13.1097 18.1542C16.433 17.1084 18.6663 14.0692 18.6663 10.5909C18.6663 6.22586 15.1147 2.67419 10.7497 2.67419Z" fill="#171717"/>
</svg>
