<svg width="24" height="24" viewBox="0 0 24 24" fill="none" xmlns="http://www.w3.org/2000/svg">
<path fill-rule="evenodd" clip-rule="evenodd" d="M12 3.08093C6.762 3.08093 2.5 7.17245 2.5 12.201C2.5 16.1619 5.24 19.7408 9.164 20.9053C9.324 20.9552 9.498 20.9206 9.627 20.8189C9.757 20.7171 9.825 20.5597 9.809 20.3994C9.669 19.0621 10.47 17.6451 10.812 17.3053C10.944 17.1757 10.988 16.9846 10.925 16.8138C10.862 16.6419 10.704 16.5181 10.516 16.496C8.725 16.2771 7.067 15.6934 7.067 12.919C7.063 12.2288 7.337 11.5693 7.836 11.0614C7.968 10.928 8.009 10.7341 7.941 10.5622C7.75 10.0774 7.729 9.53501 7.877 9.03389C8.168 9.07997 8.731 9.24413 9.608 9.80671C9.728 9.88447 9.877 9.90463 10.015 9.87103C11.312 9.53693 12.682 9.53693 13.979 9.87103C14.116 9.90463 14.266 9.88447 14.386 9.80671C15.27 9.23933 15.835 9.07709 16.115 9.03005C16.264 9.53309 16.245 10.0765 16.054 10.5632C15.986 10.736 16.027 10.9299 16.16 11.0624C16.654 11.5616 16.927 12.2182 16.927 12.9104C16.927 15.7318 15.273 16.2954 13.486 16.4845C13.296 16.5037 13.135 16.6265 13.071 16.7984C13.006 16.9712 13.049 17.1642 13.182 17.2957C13.512 17.623 14.321 19.0774 14.185 20.4099C14.168 20.5702 14.236 20.7277 14.367 20.8285C14.457 20.9005 14.569 20.937 14.682 20.937C14.732 20.937 14.783 20.9293 14.832 20.9139C18.82 19.7091 21.5 16.208 21.5 12.201C21.5 7.17245 17.238 3.08093 12 3.08093Z" fill="#171717"/>
</svg>
