<svg width="24" height="24" viewBox="0 0 24 24" fill="none" xmlns="http://www.w3.org/2000/svg">
<path d="M14.2383 3.09375V6.55566C14.2383 7.38409 14.9099 8.05566 15.7383 8.05566H19.2002" stroke="black" stroke-width="1.5" stroke-linecap="round" stroke-linejoin="round"/>
<path d="M6.79883 21C5.69427 21 4.79883 20.1046 4.79883 19V5C4.79883 3.89543 5.6932 3 6.79777 3C9.18931 3 12.3647 3 13.8452 3C14.3756 3 14.8811 3.21071 15.2562 3.58579L18.613 6.94259C18.9881 7.31766 19.1988 7.82153 19.1988 8.35197C19.1988 10.348 19.1988 15.5347 19.1988 19.0019C19.1988 20.1065 18.3034 21 17.1988 21H6.79883Z" stroke="black" stroke-width="1.5" stroke-linecap="round" stroke-linejoin="round"/>
<path d="M8.73438 11.3672H15.2636M8.73438 14.0672H15.2636M8.73438 16.7672H12.1384" stroke="black" stroke-width="1.5" stroke-linecap="round" stroke-linejoin="round"/>
</svg>
