<svg width="21" height="20" viewBox="0 0 21 20" fill="none" xmlns="http://www.w3.org/2000/svg">
<path fill-rule="evenodd" clip-rule="evenodd" d="M6.55289 12.6436C6.633 12.5631 6.64806 12.439 6.59472 12.3387C6.28972 11.7651 6.10551 11.1182 6.10551 10.4244C6.10551 9.57275 6.37367 8.78825 6.81757 8.13132C6.88707 8.02844 6.8781 7.88993 6.79057 7.80189L4.45312 5.45064C4.35053 5.34744 4.18154 5.35312 4.09013 5.46633C2.99397 6.82404 2.33301 8.547 2.33301 10.4244C2.33301 12.1322 2.88197 13.7108 3.8063 15.005C3.89418 15.1281 4.07108 15.1392 4.1777 15.0319L6.55289 12.6436Z" fill="#171717"/>
<path fill-rule="evenodd" clip-rule="evenodd" d="M7.68097 6.92411C7.76774 7.01137 7.90469 7.02181 8.00783 6.95469C8.65459 6.53385 9.42151 6.28316 10.2492 6.28316C11.2017 6.28316 12.0975 6.59649 12.8392 7.19066C13.0058 7.32399 13.2467 7.30982 13.3967 7.15732L15.4592 5.05816C15.5392 4.97566 15.5825 4.86482 15.5783 4.75066C15.5742 4.63566 15.5225 4.52816 15.4367 4.45232C14.005 3.19816 12.1625 2.50732 10.2492 2.50732C8.4039 2.50732 6.70677 3.14427 5.35923 4.2067C5.24453 4.29714 5.23738 4.46687 5.34038 4.57043L7.68097 6.92411Z" fill="#171717"/>
<path fill-rule="evenodd" clip-rule="evenodd" d="M12.8285 13.9237C12.7418 13.8365 12.6049 13.826 12.5018 13.893C11.8465 14.3185 11.0729 14.5656 10.2496 14.5656C9.26692 14.5656 8.37162 14.213 7.66237 13.6389C7.55863 13.5549 7.40726 13.5582 7.31312 13.6529L4.99452 15.9831C4.89542 16.0827 4.89757 16.2446 5.00258 16.3379C6.40102 17.5807 8.23653 18.3406 10.2496 18.3406C12.0798 18.3406 13.7866 17.7091 15.1453 16.6386C15.2601 16.5482 15.2673 16.3785 15.1643 16.2749L12.8285 13.9237Z" fill="#171717"/>
<path fill-rule="evenodd" clip-rule="evenodd" d="M18.0313 8.996C17.9938 8.80017 17.8221 8.65767 17.6221 8.65767H10.2496C10.0188 8.65767 9.83292 8.8435 9.83292 9.07433V11.8493C9.83292 12.0793 10.0188 12.266 10.2496 12.266H13.9646C13.8853 12.4257 13.7934 12.5762 13.694 12.721C13.624 12.823 13.6333 12.9609 13.7204 13.0487L16.0561 15.3996C16.1587 15.5028 16.3278 15.4972 16.4191 15.3839C17.2085 14.405 17.7725 13.2288 18.0229 11.9285C18.1179 11.4443 18.1663 10.9385 18.1663 10.4243C18.1663 9.94767 18.1204 9.46683 18.0313 8.996Z" fill="#171717"/>
</svg>
