<svg width="24" height="24" viewBox="0 0 24 24" fill="none" xmlns="http://www.w3.org/2000/svg">
<path fill-rule="evenodd" clip-rule="evenodd" d="M20.8379 13.6497C20.9459 13.1217 20.9999 12.5649 20.9999 12.0081C20.9999 11.6318 20.9739 11.2651 20.9239 10.907C20.8869 10.644 20.6429 10.4529 20.3669 10.4529H12.5619C12.2519 10.4529 11.9999 10.6948 11.9999 10.9924V13.1102C11.9999 13.4078 12.2519 13.6497 12.5619 13.6497H16.8369C17.0129 13.6497 17.1419 13.8225 17.0759 13.979C16.1409 16.1966 13.6859 17.652 10.9439 17.1652C8.83793 16.7918 7.11193 15.1886 6.65993 13.1793C5.89293 9.7694 8.57693 6.75695 11.9999 6.75695C13.1219 6.75695 14.1619 7.08047 15.0289 7.63439C15.2609 7.78223 15.5639 7.76783 15.7599 7.57679L17.4619 5.91311C17.6939 5.68559 17.6799 5.30735 17.4159 5.11439C15.9749 4.06223 14.1929 3.42287 12.2549 3.37199C7.38293 3.24239 3.16393 7.04207 3.00493 11.7182C2.83793 16.6219 6.93193 20.6481 11.9999 20.6481C16.3829 20.6481 20.0369 17.6337 20.8379 13.6497Z" fill="#171717"/>
</svg>
