<svg width="24" height="24" viewBox="0 0 24 24" fill="none" xmlns="http://www.w3.org/2000/svg">
<path d="M12.4138 3.08963C12.1509 2.97012 11.8491 2.97012 11.5862 3.08963L0.586197 8.08963C0.229203 8.2519 0 8.60786 0 9C0 9.39214 0.229203 9.7481 0.586197 9.91037L11.5862 14.9104C11.8491 15.0299 12.1509 15.0299 12.4138 14.9104L22 10.553V16C22 16.5523 22.4477 17 23 17C23.5523 17 24 16.5523 24 16V9C24 8.60786 23.7708 8.2519 23.4138 8.08963L12.4138 3.08963Z" fill="#171717"/>
<path fill-rule="evenodd" clip-rule="evenodd" d="M4.5 12.801V15.5211C4.5 16.6179 5.09858 17.6273 6.06101 18.1534L10.561 20.6134C11.4577 21.1036 12.5422 21.1036 13.4389 20.6134L17.939 18.1534C18.9014 17.6273 19.5 16.6179 19.5 15.5211V12.801L12.6807 16.2735C12.253 16.4913 11.747 16.4913 11.3193 16.2735L4.5 12.801Z" fill="#171717"/>
</svg>
