<svg width="24" height="24" viewBox="0 0 24 24" fill="none" xmlns="http://www.w3.org/2000/svg">
<path d="M10.7745 14.3686L4.2061 11.0244C2.80125 10.3092 2.80125 8.22405 4.20517 7.50889L10.4794 4.31452C11.3024 3.89516 12.2645 3.89516 13.0874 4.31452L19.369 7.51181C20.7739 8.22697 20.7739 10.3131 19.369 11.0282L13.0902 14.2246C12.2645 14.6449 11.2996 14.6449 10.4738 14.2246L6.48527 12.1939" stroke="#171717" stroke-width="2" stroke-linecap="round" stroke-linejoin="round"/>
<path d="M20.4322 9.25781L20.4004 14.6716" stroke="#171717" stroke-width="2" stroke-linecap="round" stroke-linejoin="round"/>
<path d="M6.48535 12.1953V17.1664C6.48535 18.0226 6.97295 18.8108 7.73235 19.1377C10.3963 20.2829 13.0492 20.2975 15.6917 19.1445C16.4455 18.8156 16.9284 18.0294 16.9284 17.1781V12.2858" stroke="#171717" stroke-width="2" stroke-linecap="round" stroke-linejoin="round"/>
</svg>
