<svg width="480" height="528" viewBox="0 0 480 528" fill="none" xmlns="http://www.w3.org/2000/svg">
<rect width="480" height="528" rx="16" fill="url(#paint0_linear_13563_102547)"/>
<rect x="364" y="124.312" width="6" height="6" rx="1" transform="rotate(-30 364 124.312)" fill="#F7CB3D"/>
<rect width="6" height="6" rx="1" transform="matrix(-0.866025 -0.5 -0.5 0.866025 76.1963 79)" fill="#F7CB3D"/>
<rect width="6" height="6" rx="1" transform="matrix(-0.866025 -0.5 -0.5 0.866025 109.196 133)" fill="#F7CB3D"/>
<rect width="6" height="6" rx="1" transform="matrix(-0.866025 -0.5 -0.5 0.866025 68.1963 179)" fill="white"/>
<rect x="410.521" y="56.6299" width="7.89897" height="7.89897" rx="1" transform="rotate(-75 410.521 56.6299)" fill="white"/>
<rect width="4.3923" height="4.3923" rx="1" transform="matrix(0.866025 -0.5 -0.5 -0.866025 413.393 189.509)" fill="#F79E29"/>
<defs>
<linearGradient id="paint0_linear_13563_102547" x1="240" y1="0" x2="240" y2="255.81" gradientUnits="userSpaceOnUse">
<stop stop-color="#FFEDBC"/>
<stop offset="1" stop-color="#FFFDF6"/>
</linearGradient>
</defs>
</svg>
