<svg width="12" height="12" viewBox="0 0 12 12" fill="none" xmlns="http://www.w3.org/2000/svg">
<g clip-path="url(#clip0_1528_10076)">
<path d="M6.26698 0.460938C5.84882 0.460938 5.48698 1.2114 5.29313 1.57325L4.77436 2.81017C4.45331 3.57639 3.84397 4.18573 3.07775 4.50678L1.84082 5.02555C1.47898 5.22032 0.728516 5.58125 0.728516 5.9994C0.728516 6.41755 1.47898 6.7794 1.84082 6.97325L3.07775 7.49201C3.84397 7.81306 4.45331 8.42241 4.77436 9.18863L5.29313 10.4256C5.4879 10.7874 5.84882 11.5379 6.26698 11.5379C6.68513 11.5379 7.04698 10.7874 7.24082 10.4256L7.75959 9.18863C8.08064 8.42241 8.68998 7.81306 9.45621 7.49201L10.6931 6.97325C11.055 6.77848 11.8054 6.41755 11.8054 5.9994C11.8054 5.58125 11.055 5.2194 10.6931 5.02555L9.45621 4.50678C8.68998 4.18573 8.08064 3.57639 7.75959 2.81017L7.24082 1.57325C7.04605 1.2114 6.68513 0.460938 6.26698 0.460938Z" fill="#E2703A"/>
</g>
<defs>
<clipPath id="clip0_1528_10076">
<rect width="12" height="12" fill="white"/>
</clipPath>
</defs>
</svg>
