<svg xmlns="http://www.w3.org/2000/svg" width="32" height="11" viewBox="0 0 32 11" fill="none">
  <path d="M24.6966 7.07731C25.062 8.0774 25.9467 8.42358 27.0045 8.42358C27.793 8.42358 28.4662 8.11587 28.8508 7.69275L31.1587 9.01979C30.2163 10.3276 28.7931 11.0007 26.9661 11.0007C23.6773 11.0007 21.6387 8.789 21.6387 5.92337C21.6387 3.05774 23.7158 0.846008 26.7545 0.846008C29.5624 0.846008 31.6395 3.01927 31.6395 5.92337C31.6395 6.32725 31.6011 6.7119 31.5241 7.07731H24.6966ZM24.6389 4.92328H28.7739C28.4662 3.8078 27.6007 3.40392 26.7353 3.40392C25.639 3.40392 24.9082 3.94243 24.6389 4.92328Z" fill="#171717"/>
  <path d="M16.4938 0.846008C18.7055 0.846008 20.148 2.42307 20.148 4.82712V10.7315H17.2631V5.07714C17.2631 4.11552 16.8015 3.50008 15.8784 3.50008C14.9167 3.50008 14.3782 4.17322 14.3782 5.30793V10.7315H11.4934V5.07714C11.4934 4.11552 11.0318 3.50008 10.1086 3.50008C9.147 3.50008 8.6085 4.17322 8.6085 5.30793V10.7315H5.72363V1.11526H8.6085V1.99995C9.05084 1.34605 9.89707 0.846008 11.1856 0.846008C12.3204 0.846008 13.1666 1.30759 13.7051 2.11535C14.2436 1.34605 15.1283 0.846008 16.4938 0.846008Z" fill="#171717"/>
  <path d="M1.96771 11.0004C0.967619 11.0004 0.140625 10.1734 0.140625 9.17333C0.140625 8.17325 0.967619 7.34625 1.96771 7.34625C2.96779 7.34625 3.79479 8.17325 3.79479 9.17333C3.79479 10.1734 2.96779 11.0004 1.96771 11.0004Z" fill="#171717"/>
</svg>