<svg width="20" height="20" viewBox="0 0 20 20" fill="none" xmlns="http://www.w3.org/2000/svg">
<path fill-rule="evenodd" clip-rule="evenodd" d="M10.9726 8.61808C11.2409 9.08891 11.4926 9.56475 11.7384 10.0314C12.2301 10.9622 12.6934 11.8397 13.2667 12.6556C13.6809 13.2414 14.3201 14.0497 15.0842 14.2897C15.8409 14.5247 16.3001 13.8431 16.4501 13.3997C16.7642 12.4772 16.7351 11.2681 16.3642 9.80641C16.1784 9.07475 15.4334 6.67562 13.6434 6.51479C12.7876 6.45062 12.0417 7.16728 11.5676 7.78978L11.2934 8.14395C11.1834 8.29812 11.0767 8.45725 10.9726 8.61808ZM6.47343 6.50978C6.43343 6.50978 6.39343 6.51145 6.35343 6.51478C4.56676 6.67562 3.82259 9.07475 3.63676 9.80641C3.26509 11.2672 3.23676 12.4756 3.55009 13.3997C3.70009 13.8431 4.15843 14.5247 4.91676 14.2897C5.68093 14.0497 6.31926 13.2414 6.73343 12.6547C7.30676 11.8389 7.77093 10.9614 8.26259 10.0306C8.50839 9.56391 8.75922 9.08891 9.02839 8.61891C8.92172 8.45475 8.81255 8.29145 8.69839 8.13228L8.43672 7.79645C7.98009 7.19728 7.28176 6.50978 6.47343 6.50978ZM4.60676 16.0056C3.44843 16.0056 2.40843 15.2247 1.97176 13.9347C1.54676 12.6839 1.56343 11.1989 2.02176 9.39641C2.69759 6.72728 4.26259 5.02895 6.20759 4.85395C7.49343 4.75229 8.71505 5.41062 9.75755 6.77895L10.0009 7.09229L10.2459 6.77479C11.2859 5.41062 12.5176 4.73895 13.7884 4.85395C15.7367 5.02895 17.3017 6.72645 17.9792 9.39641C18.4376 11.2014 18.4534 12.6864 18.0284 13.9364C17.4909 15.5197 16.0417 16.3389 14.5851 15.8797C13.3392 15.4889 12.4584 14.3997 11.9042 13.6156C11.2692 12.7114 10.7584 11.7447 10.2651 10.8097C10.1759 10.6422 10.0884 10.4756 10.0001 10.3097C9.91255 10.4756 9.82505 10.6414 9.73589 10.8097C9.24172 11.7447 8.73089 12.7114 8.09593 13.6139C7.54176 14.3989 6.66259 15.4881 5.41593 15.8797C5.14343 15.9647 4.87259 16.0056 4.60676 16.0056Z" fill="#171717"/>
</svg>
