<svg width="20" height="20" viewBox="0 0 20 20" fill="none" xmlns="http://www.w3.org/2000/svg">
<path fill-rule="evenodd" clip-rule="evenodd" d="M16.875 15.9905C16.875 16.5155 16.45 16.9405 15.925 16.9405H6.90833C6.38333 16.9405 5.95833 16.5155 5.95833 15.9905V7.51544C5.95833 7.03423 6.44219 6.5571 6.90833 6.5571H15.925C16.45 6.5571 16.875 6.99044 16.875 7.51544V15.9905ZM3.66917 4.02627C3.8225 3.9621 3.99167 3.9296 4.16917 3.9296H13.4842C14.09 3.9296 14.6542 4.16377 15.0825 4.57544L15.8167 5.28544C12.4885 5.28544 5.5625 5.30544 5.5625 5.30544C5.5625 5.30544 4.93083 5.25044 4.5225 4.85544L3.66917 4.02627ZM17.2833 4.99044L15.925 3.67377C15.25 3.02377 14.3583 2.6571 13.4083 2.6571H4.65C3.11947 2.6571 1.875 3.91152 1.875 5.4321V13.5071C1.875 14.4988 2.26667 15.4238 2.98333 16.1155L4.325 17.4238C4.85 17.9155 5.53333 18.1905 6.25 18.1905H15.925C17.1417 18.1905 18.125 17.2071 18.125 15.9905V6.97377C18.125 6.22377 17.825 5.51544 17.2833 4.99044Z" fill="#171717"/>
<path fill-rule="evenodd" clip-rule="evenodd" d="M13.4023 8.5777C13.0414 8.5552 12.7739 8.84937 12.7698 9.1952L12.7331 12.4194L9.68725 8.7527C9.51975 8.55104 9.24392 8.47354 8.99808 8.56271C8.75058 8.65104 8.58475 8.88271 8.58142 9.14521L8.52475 14.0702C8.52058 14.4152 8.79725 14.6985 9.14225 14.7027H9.14975C9.49142 14.7027 9.77058 14.4277 9.77475 14.0844L9.81225 10.8594L12.8573 14.5269C12.9789 14.6719 13.1564 14.7519 13.3381 14.7519C13.4081 14.7519 13.4789 14.741 13.5473 14.716C13.7939 14.6285 13.9598 14.396 13.9631 14.1344L14.0198 9.21021C14.0239 8.86521 13.7473 8.58187 13.4023 8.5777Z" fill="#171717"/>
</svg>
