<svg width="40" height="40" viewBox="0 0 40 40" fill="none" xmlns="http://www.w3.org/2000/svg">
<path d="M35.0005 17.0657V13.4223C35.0005 8.62565 32.012 5.2373 27.212 5.2373H13.4787C8.69206 5.2373 5.69043 8.62565 5.69043 13.4223V20.024C5.69043 24.8207 8.67706 28.209 13.4787 28.209H16.8572" stroke="black" stroke-width="1.5" stroke-linecap="round" stroke-linejoin="round"/>
<path fill-rule="evenodd" clip-rule="evenodd" d="M29.3099 34.6234C25.7849 34.6234 22.9268 31.7667 22.9268 28.2417C22.9268 24.7167 25.7849 21.8584 29.3099 21.8584C32.8349 21.8584 35.6918 24.7167 35.6918 28.2417C35.6918 31.7667 32.8349 34.6234 29.3099 34.6234Z" stroke="black" stroke-width="1.5" stroke-linecap="round" stroke-linejoin="round"/>
<path d="M32.1463 26.8193L28.6013 30.3643L26.4746 28.2377" stroke="black" stroke-width="1.5" stroke-linecap="round" stroke-linejoin="round"/>
<path d="M20.3454 16.6578V16.5512M19.9121 16.6362C19.9121 16.3962 20.1071 16.2012 20.3471 16.2012C20.5871 16.2012 20.7819 16.3962 20.7819 16.6362C20.7819 16.8762 20.5871 17.0695 20.3471 17.0695C20.1071 17.0695 19.9121 16.8762 19.9121 16.6362Z" stroke="black" stroke-width="1.5" stroke-linecap="round" stroke-linejoin="round"/>
<path d="M26.8504 16.6578V16.5512M26.4189 16.6362C26.4189 16.3962 26.6138 16.2012 26.8538 16.2012C27.0938 16.2012 27.2873 16.3962 27.2873 16.6362C27.2873 16.8762 27.0938 17.0695 26.8538 17.0695C26.6138 17.0695 26.4189 16.8762 26.4189 16.6362Z" stroke="black" stroke-width="1.5" stroke-linecap="round" stroke-linejoin="round"/>
<path d="M13.8331 16.6578V16.5512M13.4014 16.6362C13.4014 16.3962 13.5963 16.2012 13.8363 16.2012C14.0763 16.2012 14.2714 16.3962 14.2714 16.6362C14.2714 16.8762 14.0763 17.0695 13.8363 17.0695C13.5963 17.0695 13.4014 16.8762 13.4014 16.6362Z" stroke="black" stroke-width="1.5" stroke-linecap="round" stroke-linejoin="round"/>
</svg>
