<svg width="20" height="20" viewBox="0 0 20 20" fill="none" xmlns="http://www.w3.org/2000/svg">
<mask id="mask0_6003_16631" style="mask-type:luminance" maskUnits="userSpaceOnUse" x="0" y="0" width="20" height="20">
<path d="M0 0H20V20H0V0Z" fill="white"/>
</mask>
<g mask="url(#mask0_6003_16631)">
<path d="M17.872 17.492C16.2527 14.8418 13.333 13.0729 10 13.0729M10 13.0729C6.66699 13.0729 3.7473 14.8418 2.12801 17.492M10 13.0729C12.5457 13.0729 14.6094 11.0092 14.6094 8.46355C14.6094 5.91785 12.5457 3.85418 10 3.85418C7.4543 3.85418 5.39062 5.91785 5.39062 8.46355C5.39062 11.0092 7.4543 13.0729 10 13.0729ZM2.48121 2.15418L2.15418 2.48125C1.27508 3.36031 0.78125 4.55258 0.78125 5.79578V14.2042C0.78125 15.4474 1.27508 16.6397 2.15418 17.5188L2.48121 17.8458C3.36027 18.7249 4.55258 19.2188 5.79578 19.2188H14.2042C15.4474 19.2188 16.6397 18.7249 17.5188 17.8458L17.8458 17.5188C18.7249 16.6397 19.2188 15.4474 19.2188 14.2042V5.79578C19.2188 4.55258 18.7249 3.36031 17.8458 2.48125L17.5188 2.15418C16.6397 1.27512 15.4474 0.78125 14.2042 0.78125H5.79578C4.55258 0.78125 3.36027 1.27512 2.48121 2.15418Z" stroke="#171717" stroke-width="1.5" stroke-linecap="round" stroke-linejoin="round"/>
</g>
</svg>
