<svg width="40" height="40" viewBox="0 0 40 40" fill="none" xmlns="http://www.w3.org/2000/svg">
<rect width="40" height="40" rx="20" fill="black"/>
<path d="M16.876 18.0968V17.1632C16.5519 17.1119 16.2246 17.0838 15.8965 17.0791C12.72 17.0723 9.90778 19.1307 8.95388 22.1606C7.99998 25.1904 9.12595 28.4887 11.7333 30.3028C10.7771 29.2795 10.1376 28.0014 9.89193 26.6227C9.64622 25.244 9.8048 23.8237 10.3485 22.5331C10.8923 21.2426 11.7979 20.137 12.9562 19.3498C14.1144 18.5626 15.4757 18.1275 16.8758 18.097L16.876 18.0968Z" fill="#25F4EE"/>
<path d="M17.052 28.6728C18.828 28.6704 20.2879 27.2713 20.3656 25.497V9.66373H23.2582C23.1991 9.33287 23.171 8.99725 23.174 8.66119L19.2176 8.66119V24.4792C19.1518 26.2625 17.6885 27.6751 15.904 27.6779C15.3708 27.6734 14.8462 27.5423 14.3735 27.2953C14.6799 27.7197 15.0822 28.0658 15.5477 28.3051C16.0131 28.5445 16.5286 28.6705 17.052 28.6728ZM28.6609 15.0358V14.1557C27.5964 14.1561 26.5554 13.842 25.6688 13.2528C26.446 14.1564 27.4964 14.7822 28.6609 15.0358Z" fill="#25F4EE"/>
<path d="M25.6688 13.2528C24.7953 12.2582 24.3138 10.9797 24.3143 9.65601H23.2581C23.3945 10.3878 23.6786 11.0842 24.0931 11.7026C24.5076 12.321 25.0437 12.8485 25.6688 13.2528ZM15.8964 21.0355C15.1556 21.0393 14.4374 21.2906 13.8559 21.7494C13.2744 22.2082 12.863 22.8483 12.6871 23.5678C12.5111 24.2874 12.5808 25.0451 12.885 25.7205C13.1891 26.3959 13.7104 26.9502 14.3658 27.2953C14.0074 26.8006 13.7928 26.2164 13.7457 25.6073C13.6986 24.9982 13.8207 24.3879 14.0987 23.8439C14.3766 23.2999 14.7996 22.8433 15.3208 22.5246C15.8419 22.2059 16.4411 22.0375 17.052 22.0379C17.3841 22.0423 17.7139 22.094 18.0314 22.1915V18.1658C17.7072 18.1171 17.3799 18.0916 17.052 18.0893H16.8759V21.1503C16.5567 21.0646 16.2267 21.026 15.8964 21.0355Z" fill="#FE2C55"/>
<path d="M28.6612 15.0358V18.0969C26.6904 18.093 24.7708 17.4692 23.1742 16.3138V24.3567C23.1658 28.37 19.9099 31.6191 15.8966 31.6191C14.4061 31.6217 12.9515 31.1618 11.7334 30.3028C12.7267 31.3712 14.0186 32.1156 15.441 32.4392C16.8634 32.7628 18.3503 32.6506 19.708 32.1171C21.0657 31.5837 22.2313 30.6537 23.0529 29.4484C23.8746 28.243 24.3142 26.8182 24.3145 25.3594V17.3393C25.9164 18.4871 27.8384 19.1028 29.8091 19.0994V15.1579C29.4232 15.1568 29.0386 15.1158 28.6612 15.0358Z" fill="#FE2C55"/>
<path d="M23.1741 24.3567V16.3138C24.7755 17.4627 26.6978 18.0784 28.6687 18.0739V15.0129C27.5043 14.767 26.4515 14.1493 25.6689 13.2528C25.0438 12.8485 24.5077 12.321 24.0932 11.7026C23.6788 11.0842 23.3947 10.3878 23.2582 9.65601H20.3657V25.4972C20.3376 26.1867 20.0953 26.8504 19.6726 27.3959C19.2499 27.9414 18.6678 28.3417 18.0071 28.5412C17.3465 28.7406 16.6401 28.7293 15.9861 28.5088C15.3322 28.2883 14.7632 27.8696 14.3582 27.3108C13.7026 26.9657 13.1813 26.4114 12.8771 25.7359C12.5728 25.0605 12.5031 24.3027 12.6791 23.5831C12.855 22.8635 13.2665 22.2234 13.8481 21.7645C14.4297 21.3057 15.148 21.0544 15.8888 21.0508C16.221 21.0537 16.551 21.1053 16.8683 21.2039V18.1428C15.4607 18.1666 14.0904 18.5995 12.9246 19.3887C11.7588 20.1779 10.8477 21.2892 10.3026 22.5872C9.75742 23.8852 9.6017 25.3137 9.85441 26.6987C10.1071 28.0836 10.7573 29.3651 11.7257 30.387C12.9558 31.2177 14.4125 31.648 15.8965 31.6191C19.9098 31.6191 23.1656 28.37 23.1741 24.3567Z" fill="white"/>
</svg>
