<svg width="40" height="40" viewBox="0 0 40 40" fill="none" xmlns="http://www.w3.org/2000/svg">
<rect width="40" height="40" rx="20" fill="#E74D89"/>
<path d="M20 32C13.3845 32 8 26.6155 8 20C8 13.3845 13.3845 8 20 8C26.6155 8 32 13.3845 32 20C32 26.6155 26.6155 32 20 32ZM20 9.93548C14.449 9.93548 9.93548 14.449 9.93548 20C9.93548 25.551 14.449 30.0645 20 30.0645C25.551 30.0645 30.0645 25.551 30.0645 20C30.0645 14.449 25.551 9.93548 20 9.93548Z" fill="white"/>
<path d="M16.516 18.8191C14.2476 18.8191 11.7934 18.4823 9.17662 17.801C8.65791 17.6656 8.34823 17.1391 8.48372 16.6204C8.6192 16.1017 9.14565 15.792 9.66436 15.9275C17.5921 17.9868 23.7973 16.6823 27.6063 12.161C27.9508 11.7546 28.5624 11.7004 28.9689 12.0449C29.3792 12.3894 29.4295 13.001 29.085 13.4075C26.0618 16.9959 21.7882 18.8191 16.516 18.8191Z" fill="white"/>
<path d="M11.679 28.2101C11.4545 28.2101 11.2339 28.1327 11.0519 27.9779C10.6455 27.6295 10.599 27.0179 10.9435 26.6114C16.6029 19.9959 23.9268 18.4243 31.0377 22.3069C31.5061 22.5624 31.6803 23.1508 31.4248 23.6192C31.1693 24.0875 30.581 24.2617 30.1126 24.0063C21.5732 19.3495 15.3603 24.4282 12.4145 27.8734C12.2248 28.094 11.9539 28.2101 11.679 28.2101Z" fill="white"/>
<path d="M23.1709 31.536C23.1361 31.536 23.1012 31.536 23.0664 31.5321C22.5361 31.4741 22.1528 30.9979 22.2109 30.4637C22.9657 23.5425 21.1851 16.5631 16.9232 9.71149C16.6406 9.25859 16.7799 8.66246 17.2328 8.37988C17.6857 8.0973 18.2819 8.23665 18.5644 8.68955C23.0625 15.9167 24.9361 23.3141 24.1348 30.6767C24.0767 31.1721 23.6586 31.536 23.1709 31.536Z" fill="white"/>
</svg>
