<svg width="25" height="24" viewBox="0 0 25 24" fill="none" xmlns="http://www.w3.org/2000/svg">
<path d="M3.9 5.6998L10.8949 11.1403C11.5449 11.6458 12.4551 11.6458 13.1051 11.1403L20.1 5.6998M5.88 19.1998H18.12C19.1281 19.1998 19.6321 19.1998 20.0172 19.0036C20.3559 18.831 20.6312 18.5557 20.8038 18.217C21 17.8319 21 17.3279 21 16.3198V7.6798C21 6.67171 21 6.16766 20.8038 5.78262C20.6312 5.44393 20.3559 5.16857 20.0172 4.99599C19.6321 4.7998 19.1281 4.7998 18.12 4.7998H5.88C4.87191 4.7998 4.36786 4.7998 3.98282 4.99599C3.64413 5.16857 3.36876 5.44393 3.19619 5.78262C3 6.16766 3 6.67171 3 7.6798V16.3198C3 17.3279 3 17.8319 3.19619 18.217C3.36876 18.5557 3.64413 18.831 3.98282 19.0036C4.36786 19.1998 4.87191 19.1998 5.88 19.1998Z" stroke="black" stroke-width="1.5"/>
<path d="M23.121 2.87896C24.293 4.05091 24.293 5.94909 23.121 7.12104C21.9491 8.29299 20.0509 8.29299 18.879 7.12104C17.707 5.94909 17.707 4.05091 18.879 2.87896C20.0509 1.70701 21.9505 1.70701 23.121 2.87896Z" fill="#E12C2C" stroke="white" stroke-linecap="round" stroke-linejoin="round"/>
</svg>
