<svg width="32" height="32" viewBox="0 0 32 32" fill="none" xmlns="http://www.w3.org/2000/svg">
<path d="M10.3762 28H21.6225C25.5533 28 28 25.2251 28 21.2981V10.7018C28 6.77492 25.5533 4 21.6212 4H10.3762C6.4454 4 4 6.77492 4 10.7018V21.2981C4 25.2251 6.45708 28 10.3762 28Z" stroke="#171717" stroke-width="1.5" stroke-linecap="round" stroke-linejoin="round"/>
<path d="M11.6934 19.4615V19.5303M11.6327 19.7343C11.4673 19.7343 11.3327 19.5996 11.334 19.4343C11.334 19.2689 11.4687 19.1343 11.634 19.1343C11.7993 19.1343 11.934 19.2689 11.934 19.4343C11.934 19.6009 11.7993 19.7343 11.6327 19.7343Z" stroke="#171717" stroke-width="1.5" stroke-linecap="round" stroke-linejoin="round"/>
<path d="M20.3076 19.4615V19.5303M20.2987 19.7343C20.1333 19.7343 19.9987 19.5996 20 19.4343C20 19.2689 20.1347 19.1343 20.3 19.1343C20.4653 19.1343 20.6 19.2689 20.6 19.4343C20.6 19.6009 20.4653 19.7343 20.2987 19.7343Z" stroke="#171717" stroke-width="1.5" stroke-linecap="round" stroke-linejoin="round"/>
<path d="M12.0547 12.8647C13.0147 11.6154 14.4288 10.8357 15.9985 10.8357C17.5683 10.8357 18.9823 11.6154 19.9423 12.8647" stroke="#171717" stroke-width="1.5" stroke-linecap="round" stroke-linejoin="round"/>
</svg>
