<svg width="12" height="16" viewBox="0 0 12 16" fill="none" xmlns="http://www.w3.org/2000/svg">
<path d="M11.875 4.96562V13.5C11.875 14.8813 10.7563 16 9.375 16H2.5C1.11875 16 0 14.8813 0 13.5V2.5C0 1.11875 1.11875 0 2.5 0H6.93437L11.875 4.96562Z" fill="#1E88E5"/>
<path d="M8.18433 4.96562H11.875L6.93433 0V3.71563C6.93433 4.40625 7.4937 4.96562 8.18433 4.96562Z" fill="#64B5F6"/>
<path d="M8.96884 14.4028H2.90634C2.35947 14.4028 1.96884 13.8684 2.13759 13.3465L2.73447 11.4809C2.95947 10.7809 3.71572 10.409 4.40634 10.659C4.81259 10.8059 5.32509 10.9184 5.93759 10.9184C6.55009 10.9184 7.06259 10.8059 7.46884 10.659C8.15947 10.409 8.91884 10.784 9.14072 11.4809L9.73759 13.3465C9.90947 13.8684 9.51884 14.4028 8.96884 14.4028Z" fill="#90CAF9"/>
<path d="M5.93765 10.1658C7.0543 10.1658 7.95952 9.2606 7.95952 8.14395C7.95952 7.02729 7.0543 6.12207 5.93765 6.12207C4.821 6.12207 3.91577 7.02729 3.91577 8.14395C3.91577 9.2606 4.821 10.1658 5.93765 10.1658Z" fill="#E3F2FD"/>
</svg>
