<svg width="20" height="20" viewBox="0 0 20 20" fill="none" xmlns="http://www.w3.org/2000/svg">
<path d="M4.72266 11.759H9.3745" stroke="#171717" stroke-width="1.5" stroke-linecap="round" stroke-linejoin="round"/>
<path d="M4.72266 15.2789H9.3745" stroke="#171717" stroke-width="1.5" stroke-linecap="round" stroke-linejoin="round"/>
<path d="M4.72266 8.23999H6.68573" stroke="#171717" stroke-width="1.5" stroke-linecap="round" stroke-linejoin="round"/>
<path d="M4.72266 4.71985H6.68573" stroke="#171717" stroke-width="1.5" stroke-linecap="round" stroke-linejoin="round"/>
<path d="M15.3299 15.7046C17.0201 15.7046 18.3903 14.3344 18.3903 12.6442C18.3903 10.954 17.0201 9.5838 15.3299 9.5838C13.6397 9.5838 12.2695 10.954 12.2695 12.6442C12.2695 14.3344 13.6397 15.7046 15.3299 15.7046Z" stroke="#171717" stroke-width="1.5" stroke-linecap="round" stroke-linejoin="round"/>
<path d="M17.6889 14.7345V18.1371C17.6889 18.8826 16.8526 19.3222 16.2385 18.8994L15.3308 18.2745L14.4231 18.8994C13.809 19.3222 12.9727 18.8826 12.9727 18.1371V14.7345" stroke="#171717" stroke-width="1.5" stroke-linecap="round" stroke-linejoin="round"/>
<path d="M15.3298 5.74275V4.30756L11.9568 0.93457H3.91404C2.64121 0.93457 1.60938 1.96641 1.60938 3.23923V16.7599C1.60938 18.0327 2.64121 19.0646 3.91404 19.0646H13.0251C13.1842 19.0646 13.3396 19.0484 13.4896 19.0177" stroke="#171717" stroke-width="1.5" stroke-linecap="round" stroke-linejoin="round"/>
</svg>
