<svg width="22" height="16" viewBox="0 0 22 16" fill="none" xmlns="http://www.w3.org/2000/svg">
<g clip-path="url(#clip0_937_10661)">
<path fill-rule="evenodd" clip-rule="evenodd" d="M8.7285 10.9506L8.72758 4.55906L14.6722 7.76565L8.7285 10.9506ZM21.78 3.45129C21.78 3.45129 21.5646 1.88424 20.9055 1.19341C20.0686 0.287059 19.1313 0.282824 18.7014 0.230118C15.6228 0 11.005 0 11.005 0H10.995C10.995 0 6.37725 0 3.29862 0.230588C2.86825 0.282824 1.93142 0.287059 1.09404 1.19341C0.4345 1.88376 0.22 3.45129 0.22 3.45129C0.22 3.45129 0 5.29271 0 7.13318V8.85929C0 10.7002 0.22 12.5407 0.22 12.5407C0.22 12.5407 0.4345 14.1082 1.09404 14.7986C1.93142 15.7049 3.0305 15.6767 3.52 15.7713C5.28 15.9459 11 16 11 16C11 16 15.6228 15.9929 18.7014 15.7624C19.1313 15.7092 20.0686 15.7049 20.9055 14.7986C21.565 14.1082 21.78 12.5407 21.78 12.5407C21.78 12.5407 22 10.7007 22 8.85929V7.13318C22 5.29271 21.78 3.45129 21.78 3.45129Z" fill="#171717"/>
</g>
<defs>
<clipPath id="clip0_937_10661">
<rect width="22" height="16" fill="white"/>
</clipPath>
</defs>
</svg>
