<svg width="24" height="24" viewBox="0 0 24 24" fill="none" xmlns="http://www.w3.org/2000/svg">
<path d="M3.55859 17.0811V7.30594C3.55859 4.92765 5.48653 2.99972 7.86481 2.99972H16.1328C18.511 2.99972 20.439 4.92765 20.439 7.30594V17.0811" stroke="#171717" stroke-width="1.5" stroke-linecap="round" stroke-linejoin="round"/>
<path d="M22.1613 19.2775C22.1613 20.2288 21.3901 21 20.4388 21H3.55843C2.6071 21 1.83594 20.2288 1.83594 19.2775C1.83594 18.3262 2.6071 17.555 3.55843 17.555H20.4388C21.3901 17.555 22.1613 18.3262 22.1613 19.2775Z" stroke="#171717" stroke-width="1.5" stroke-linecap="round" stroke-linejoin="round"/>
<path d="M10.3203 7.8661C10.3203 6.84346 11.1493 6.01442 12.172 6.01442C13.1946 6.01442 14.0237 6.84346 14.0237 7.8661C14.0237 8.88874 13.1946 9.71777 12.172 9.71777C11.1493 9.71777 10.3203 8.88874 10.3203 7.8661Z" stroke="#171717" stroke-width="1.5" stroke-linecap="round" stroke-linejoin="round"/>
<path d="M14.804 14.3252C14.5144 13.2148 13.4966 12.3874 12.2855 12.3874H11.8037C10.5925 12.3874 9.57475 13.2148 9.28516 14.3252" stroke="#171717" stroke-width="1.5" stroke-linecap="round" stroke-linejoin="round"/>
</svg>
