<svg width="24" height="24" viewBox="0 0 24 24" fill="none" xmlns="http://www.w3.org/2000/svg">
<path d="M15.017 6.27467V5.65197C15.017 4.427 14.0633 3.43359 12.8873 3.43359H10.6989C9.52289 3.43359 8.56922 4.427 8.56922 5.65197V6.27467M13.6825 10.7578H9.90422M20.4323 12.8105C14.673 15.0873 8.91266 15.0873 3.15234 12.8105M6.79704 6.28906H16.7867C19.0313 6.28906 20.4286 7.9402 20.4286 10.2763V16.5792C20.4286 18.9153 19.0313 20.5665 16.7858 20.5665H6.79704C4.5525 20.5665 3.1561 18.9153 3.1561 16.5792V10.2763C3.1561 7.9402 4.55904 6.28906 6.79704 6.28906Z" stroke="#171717" stroke-width="1.5" stroke-linecap="round" stroke-linejoin="round"/>
</svg>
