<svg width="22" height="22" viewBox="0 0 22 22" fill="none" xmlns="http://www.w3.org/2000/svg">
<path d="M8.73853 11.7457C9.17042 12.3231 9.72144 12.8009 10.3542 13.1466C10.987 13.4923 11.6867 13.6979 12.4059 13.7494C13.1251 13.8009 13.847 13.6971 14.5226 13.4451C15.1982 13.1931 15.8116 12.7988 16.3214 12.2888L19.3385 9.27174C20.2544 8.32337 20.7613 7.05318 20.7498 5.73474C20.7384 4.4163 20.2095 3.15511 19.2772 2.22279C18.3449 1.29048 17.0837 0.761647 15.7653 0.75019C14.4468 0.738733 13.1766 1.24557 12.2283 2.16154L10.4985 3.88126M12.7615 9.73437C12.3296 9.15698 11.7786 8.67922 11.1458 8.33351C10.513 7.9878 9.8133 7.78222 9.09409 7.73071C8.37488 7.6792 7.653 7.78297 6.97742 8.03498C6.30185 8.28699 5.68837 8.68135 5.1786 9.1913L2.16154 12.2084C1.24557 13.1567 0.738733 14.4269 0.75019 15.7454C0.761647 17.0638 1.29048 18.325 2.22279 19.2573C3.15511 20.1896 4.4163 20.7185 5.73474 20.7299C7.05318 20.7414 8.32337 20.2345 9.27174 19.3186L10.9915 17.5988" stroke="black" stroke-width="1.5" stroke-linecap="round" stroke-linejoin="round"/>
</svg>
