<svg width="24" height="24" viewBox="0 0 24 24" fill="none" xmlns="http://www.w3.org/2000/svg">
<path d="M7.78216 3H16.2169C19.165 3 21 5.08119 21 8.02638V15.9736C21 18.9188 19.165 21 16.2159 21H7.78216C4.83405 21 3 18.9188 3 15.9736V8.02638C3 5.08119 4.84281 3 7.78216 3Z" stroke="#171717" stroke-width="1.5" stroke-linecap="round" stroke-linejoin="round"/>
<path d="M7.88281 10.9922V15.8005" stroke="#171717" stroke-width="1.5" stroke-linecap="round" stroke-linejoin="round"/>
<path d="M11.1602 15.801V12.4308C11.1602 11.0328 12.2946 9.89844 13.6926 9.89844C15.0918 9.89844 16.225 11.0328 16.225 12.4308V15.801" stroke="#171717" stroke-width="1.5" stroke-linecap="round" stroke-linejoin="round"/>
<path d="M7.88294 8.30233V8.32904M7.99117 8.30807C7.99117 8.36819 7.94239 8.41693 7.88227 8.41693C7.82215 8.41693 7.77344 8.36819 7.77344 8.30807C7.77344 8.24795 7.82215 8.19922 7.88227 8.19922C7.94239 8.19922 7.99117 8.24795 7.99117 8.30807Z" stroke="#171717" stroke-width="1.5" stroke-linecap="round" stroke-linejoin="round"/>
</svg>
