<svg width="24" height="24" viewBox="0 0 24 24" fill="none" xmlns="http://www.w3.org/2000/svg">
<mask id="mask0_8192_89350" style="mask-type:luminance" maskUnits="userSpaceOnUse" x="2" y="2" width="20" height="20">
<path d="M2 2H22V22H2V2Z" fill="white"/>
</mask>
<g mask="url(#mask0_8192_89350)">
<path d="M19.872 19.492C18.2527 16.8418 15.333 15.0729 12 15.0729M12 15.0729C8.66699 15.0729 5.7473 16.8418 4.12801 19.492M12 15.0729C14.5457 15.0729 16.6094 13.0092 16.6094 10.4636C16.6094 7.91785 14.5457 5.85418 12 5.85418C9.4543 5.85418 7.39062 7.91785 7.39062 10.4636C7.39062 13.0092 9.4543 15.0729 12 15.0729ZM4.48121 4.15418L4.15418 4.48125C3.27508 5.36031 2.78125 6.55258 2.78125 7.79578V16.2042C2.78125 17.4474 3.27508 18.6397 4.15418 19.5188L4.48121 19.8458C5.36027 20.7249 6.55258 21.2188 7.79578 21.2188H16.2042C17.4474 21.2188 18.6397 20.7249 19.5188 19.8458L19.8458 19.5188C20.7249 18.6397 21.2188 17.4474 21.2188 16.2042V7.79578C21.2188 6.55258 20.7249 5.36031 19.8458 4.48125L19.5188 4.15418C18.6397 3.27512 17.4474 2.78125 16.2042 2.78125H7.79578C6.55258 2.78125 5.36027 3.27512 4.48121 4.15418Z" stroke="#171717" stroke-width="1.5" stroke-linecap="round" stroke-linejoin="round"/>
</g>
</svg>
