<svg width="24" height="24" viewBox="0 0 24 24" fill="none" xmlns="http://www.w3.org/2000/svg">
<path d="M6.72266 13.7588H11.3745" stroke="#171717" stroke-width="1.5" stroke-linecap="round" stroke-linejoin="round"/>
<path d="M6.72266 17.2788H11.3745" stroke="#171717" stroke-width="1.5" stroke-linecap="round" stroke-linejoin="round"/>
<path d="M6.72266 10.2402H8.68573" stroke="#171717" stroke-width="1.5" stroke-linecap="round" stroke-linejoin="round"/>
<path d="M6.72266 6.71973H8.68573" stroke="#171717" stroke-width="1.5" stroke-linecap="round" stroke-linejoin="round"/>
<path d="M17.3299 17.7048C19.0201 17.7048 20.3903 16.3346 20.3903 14.6444C20.3903 12.9542 19.0201 11.584 17.3299 11.584C15.6397 11.584 14.2695 12.9542 14.2695 14.6444C14.2695 16.3346 15.6397 17.7048 17.3299 17.7048Z" stroke="#171717" stroke-width="1.5" stroke-linecap="round" stroke-linejoin="round"/>
<path d="M19.6889 16.7344V20.1369C19.6889 20.8825 18.8526 21.322 18.2385 20.8993L17.3308 20.2744L16.4231 20.8993C15.809 21.322 14.9727 20.8825 14.9727 20.1369V16.7344" stroke="#171717" stroke-width="1.5" stroke-linecap="round" stroke-linejoin="round"/>
<path d="M17.3298 7.74275V6.30756L13.9568 2.93457H5.91404C4.64121 2.93457 3.60938 3.96641 3.60938 5.23923V18.7599C3.60938 20.0327 4.64121 21.0646 5.91404 21.0646H15.0251C15.1842 21.0646 15.3396 21.0484 15.4896 21.0177" stroke="#171717" stroke-width="1.5" stroke-linecap="round" stroke-linejoin="round"/>
</svg>
